<svg width="384" height="433" viewBox="0 0 384 433" fill="none" xmlns="http://www.w3.org/2000/svg">
<g clip-path="url(#clip0_2683_1826)">
<rect width="384" height="433" rx="12" fill="white" fill-opacity="0.02"/>
<path d="M32.768 51.48L36.296 51.528C36.416 53.16 37.712 54.288 39.776 54.288C41.432 54.288 42.656 53.568 42.656 52.248C42.656 50.832 41.288 50.544 38.48 49.992C35.648 49.464 33.152 48.552 33.152 45.144C33.152 42.168 35.624 40.056 39.416 40.056C43.376 40.056 45.896 42.12 45.944 45.336H42.416C42.248 43.92 41.168 42.936 39.416 42.936C37.88 42.936 36.776 43.584 36.776 44.88C36.776 46.248 38.096 46.536 40.88 47.064C43.76 47.592 46.304 48.456 46.28 51.84C46.256 54.984 43.664 57.144 39.728 57.144C35.456 57.144 32.792 54.888 32.768 51.48ZM54.032 57.144C49.928 57.144 47.456 54.672 47.456 50.856C47.456 47.016 49.976 44.52 53.792 44.52C57.488 44.52 59.984 46.824 60.032 50.448C60.032 50.808 60.008 51.216 59.936 51.6H50.984V51.768C51.056 53.52 52.184 54.576 53.888 54.576C55.256 54.576 56.216 53.976 56.504 52.824H59.84C59.456 55.224 57.32 57.144 54.032 57.144ZM51.056 49.392H56.624C56.384 47.88 55.352 47.04 53.816 47.04C52.352 47.04 51.248 47.928 51.056 49.392ZM67.4493 57.144C63.5373 57.144 61.1613 54.72 61.1613 50.832C61.1613 47.016 63.6573 44.52 67.5693 44.52C70.9293 44.52 73.0173 46.344 73.4973 49.272H69.9693C69.6813 48.048 68.8413 47.28 67.5213 47.28C65.7453 47.28 64.6173 48.744 64.6173 50.832C64.6173 52.944 65.7453 54.384 67.5213 54.384C68.8413 54.384 69.7293 53.592 69.9693 52.344H73.5213C73.0413 55.296 70.8093 57.144 67.4493 57.144ZM83.2974 50.832V44.664H86.6814V57H83.6814L83.3694 55.512C82.5774 56.472 81.4974 57.144 79.7454 57.144C77.2014 57.144 74.8494 55.872 74.8494 51.504V44.664H78.2334V51.048C78.2334 53.256 78.9534 54.336 80.6334 54.336C82.3134 54.336 83.2974 53.112 83.2974 50.832ZM95.7301 44.664H96.3061V47.736H94.9621C92.9461 47.736 92.1781 49.08 92.1781 50.952V57H88.7941V44.664H91.8661L92.1781 46.512C92.8501 45.408 93.8101 44.664 95.7301 44.664ZM103.275 57.144C99.1711 57.144 96.6991 54.672 96.6991 50.856C96.6991 47.016 99.2191 44.52 103.035 44.52C106.731 44.52 109.227 46.824 109.275 50.448C109.275 50.808 109.251 51.216 109.179 51.6H100.227V51.768C100.299 53.52 101.427 54.576 103.131 54.576C104.499 54.576 105.459 53.976 105.747 52.824H109.083C108.699 55.224 106.563 57.144 103.275 57.144ZM100.299 49.392H105.867C105.627 47.88 104.595 47.04 103.059 47.04C101.595 47.04 100.491 47.928 100.299 49.392ZM116.862 57V40.2H127.95V43.296H120.462V47.232H126.606V50.184H120.462V57H116.862ZM131.116 43.344C130.012 43.344 129.148 42.528 129.148 41.448C129.148 40.344 130.012 39.528 131.116 39.528C132.22 39.528 133.084 40.344 133.084 41.448C133.084 42.528 132.22 43.344 131.116 43.344ZM129.412 57V44.664H132.82V57H129.412ZM141.994 44.52C144.658 44.52 146.938 45.936 146.938 50.16V57H143.554V50.496C143.554 48.408 142.762 47.304 141.058 47.304C139.306 47.304 138.298 48.552 138.298 50.688V57H134.914V44.664H137.866L138.178 46.2C138.97 45.24 140.098 44.52 141.994 44.52ZM160.591 54.144H160.975V57H159.247C157.495 57 156.943 56.16 156.967 54.984C156.103 56.352 154.855 57.144 152.935 57.144C150.271 57.144 148.351 55.872 148.351 53.52C148.351 50.904 150.319 49.416 154.015 49.416H156.463V48.816C156.463 47.712 155.671 46.992 154.255 46.992C152.935 46.992 152.047 47.592 151.903 48.504H148.639C148.879 46.104 151.087 44.52 154.351 44.52C157.807 44.52 159.799 46.056 159.799 49.008V53.376C159.799 54.024 160.063 54.144 160.591 54.144ZM156.463 51.912V51.672H153.991C152.575 51.672 151.759 52.248 151.759 53.28C151.759 54.144 152.455 54.696 153.583 54.696C155.359 54.696 156.439 53.592 156.463 51.912ZM169.124 44.52C171.788 44.52 174.068 45.936 174.068 50.16V57H170.684V50.496C170.684 48.408 169.892 47.304 168.188 47.304C166.436 47.304 165.428 48.552 165.428 50.688V57H162.044V44.664H164.996L165.308 46.2C166.1 45.24 167.228 44.52 169.124 44.52ZM181.721 57.144C177.809 57.144 175.433 54.72 175.433 50.832C175.433 47.016 177.929 44.52 181.841 44.52C185.201 44.52 187.289 46.344 187.769 49.272H184.241C183.953 48.048 183.113 47.28 181.793 47.28C180.017 47.28 178.889 48.744 178.889 50.832C178.889 52.944 180.017 54.384 181.793 54.384C183.113 54.384 184.001 53.592 184.241 52.344H187.793C187.313 55.296 185.081 57.144 181.721 57.144ZM191.041 43.344C189.937 43.344 189.073 42.528 189.073 41.448C189.073 40.344 189.937 39.528 191.041 39.528C192.145 39.528 193.009 40.344 193.009 41.448C193.009 42.528 192.145 43.344 191.041 43.344ZM189.337 57V44.664H192.745V57H189.337ZM206.599 54.144H206.983V57H205.255C203.503 57 202.951 56.16 202.975 54.984C202.111 56.352 200.863 57.144 198.943 57.144C196.279 57.144 194.359 55.872 194.359 53.52C194.359 50.904 196.327 49.416 200.023 49.416H202.471V48.816C202.471 47.712 201.679 46.992 200.263 46.992C198.943 46.992 198.055 47.592 197.911 48.504H194.647C194.887 46.104 197.095 44.52 200.359 44.52C203.815 44.52 205.807 46.056 205.807 49.008V53.376C205.807 54.024 206.071 54.144 206.599 54.144ZM202.471 51.912V51.672H199.999C198.583 51.672 197.767 52.248 197.767 53.28C197.767 54.144 198.463 54.696 199.591 54.696C201.367 54.696 202.447 53.592 202.471 51.912ZM208.053 57V40.2H211.437V57H208.053ZM33.44 89V72.2H38.168L42.824 84.536L47.336 72.2H51.968V89H48.536V77.744L44.168 89H41.24L36.872 77.744V89H33.44ZM66.0944 86.144H66.4784V89H64.7504C62.9984 89 62.4464 88.16 62.4704 86.984C61.6064 88.352 60.3584 89.144 58.4384 89.144C55.7744 89.144 53.8544 87.872 53.8544 85.52C53.8544 82.904 55.8224 81.416 59.5184 81.416H61.9664V80.816C61.9664 79.712 61.1744 78.992 59.7584 78.992C58.4384 78.992 57.5504 79.592 57.4064 80.504H54.1424C54.3824 78.104 56.5904 76.52 59.8544 76.52C63.3104 76.52 65.3024 78.056 65.3024 81.008V85.376C65.3024 86.024 65.5664 86.144 66.0944 86.144ZM61.9664 83.912V83.672H59.4944C58.0784 83.672 57.2624 84.248 57.2624 85.28C57.2624 86.144 57.9584 86.696 59.0864 86.696C60.8624 86.696 61.9424 85.592 61.9664 83.912ZM74.6276 76.52C77.2916 76.52 79.5716 77.936 79.5716 82.16V89H76.1876V82.496C76.1876 80.408 75.3956 79.304 73.6916 79.304C71.9396 79.304 70.9316 80.552 70.9316 82.688V89H67.5476V76.664H70.4996L70.8116 78.2C71.6036 77.24 72.7316 76.52 74.6276 76.52ZM93.2238 86.144H93.6078V89H91.8798C90.1278 89 89.5758 88.16 89.5998 86.984C88.7358 88.352 87.4878 89.144 85.5678 89.144C82.9038 89.144 80.9838 87.872 80.9838 85.52C80.9838 82.904 82.9518 81.416 86.6478 81.416H89.0958V80.816C89.0958 79.712 88.3038 78.992 86.8878 78.992C85.5678 78.992 84.6798 79.592 84.5358 80.504H81.2718C81.5118 78.104 83.7198 76.52 86.9838 76.52C90.4398 76.52 92.4318 78.056 92.4318 81.008V85.376C92.4318 86.024 92.6958 86.144 93.2238 86.144ZM89.0958 83.912V83.672H86.6238C85.2078 83.672 84.3918 84.248 84.3918 85.28C84.3918 86.144 85.0878 86.696 86.2158 86.696C87.9918 86.696 89.0718 85.592 89.0958 83.912ZM103.749 78.368L104.037 76.664H107.013V88.64C107.013 91.688 105.141 93.944 100.413 93.944C96.9809 93.944 94.6289 92.384 94.4609 89.528H97.8689C98.1809 90.704 99.1169 91.376 100.677 91.376C102.573 91.376 103.701 90.44 103.701 88.52V87.224C102.885 88.256 101.661 88.928 99.9329 88.928C96.6209 88.952 94.1969 86.528 94.1969 82.712C94.1969 78.944 96.6209 76.496 99.9089 76.496C101.685 76.496 102.933 77.288 103.749 78.368ZM100.677 86.216C102.525 86.216 103.677 84.8 103.677 82.76C103.677 80.696 102.525 79.232 100.677 79.232C98.8289 79.232 97.6529 80.672 97.6529 82.736C97.6529 84.8 98.8289 86.216 100.677 86.216ZM115.228 89.144C111.124 89.144 108.652 86.672 108.652 82.856C108.652 79.016 111.172 76.52 114.988 76.52C118.684 76.52 121.18 78.824 121.228 82.448C121.228 82.808 121.204 83.216 121.132 83.6H112.18V83.768C112.252 85.52 113.38 86.576 115.084 86.576C116.452 86.576 117.412 85.976 117.7 84.824H121.036C120.652 87.224 118.516 89.144 115.228 89.144ZM112.252 81.392H117.82C117.58 79.88 116.548 79.04 115.012 79.04C113.548 79.04 112.444 79.928 112.252 81.392ZM137.598 76.52C140.142 76.52 142.158 77.96 142.158 81.92V89H138.774V82.112C138.774 80.264 138.102 79.304 136.638 79.304C135.174 79.304 134.19 80.384 134.19 82.256V89H130.806V82.112C130.806 80.264 130.134 79.304 128.646 79.304C127.182 79.304 126.222 80.432 126.222 82.28V89H122.838V76.664H125.79L126.102 78.2C126.846 77.24 127.926 76.544 129.726 76.52C131.238 76.496 132.654 77.048 133.422 78.608C134.286 77.288 135.726 76.52 137.598 76.52ZM150.092 89.144C145.988 89.144 143.516 86.672 143.516 82.856C143.516 79.016 146.036 76.52 149.852 76.52C153.548 76.52 156.044 78.824 156.092 82.448C156.092 82.808 156.068 83.216 155.996 83.6H147.044V83.768C147.116 85.52 148.244 86.576 149.948 86.576C151.316 86.576 152.276 85.976 152.564 84.824H155.9C155.516 87.224 153.38 89.144 150.092 89.144ZM147.116 81.392H152.684C152.444 79.88 151.412 79.04 149.876 79.04C148.412 79.04 147.308 79.928 147.116 81.392ZM164.781 76.52C167.445 76.52 169.725 77.936 169.725 82.16V89H166.341V82.496C166.341 80.408 165.549 79.304 163.845 79.304C162.093 79.304 161.085 80.552 161.085 82.688V89H157.701V76.664H160.653L160.965 78.2C161.757 77.24 162.885 76.52 164.781 76.52ZM172.506 85.472V79.52H170.466V76.664H172.506V73.208H175.89V76.664H178.722V79.52H175.89V84.92C175.89 85.784 176.226 86.144 177.114 86.144H178.794V89H176.034C173.682 89 172.506 87.824 172.506 85.472Z" fill="#F7F8F8"/>
<path d="M32.736 121.616L33.872 120.96C34.464 122.24 35.68 122.944 37.28 122.944C38.96 122.944 39.984 122.176 39.984 120.976C39.984 120.064 39.392 119.488 38 119.152L36.192 118.72C34.112 118.224 33.072 117.216 33.072 115.728C33.072 113.888 34.624 112.576 37.104 112.576C39.088 112.576 40.608 113.408 41.168 114.624L40.064 115.296C39.536 114.384 38.464 113.856 37.072 113.856C35.472 113.856 34.512 114.544 34.512 115.712C34.512 116.608 35.072 117.136 36.528 117.472L38.336 117.904C40.496 118.416 41.44 119.392 41.44 120.928C41.44 122.88 39.888 124.224 37.264 124.224C35.008 124.224 33.376 123.264 32.736 121.616ZM49.6751 115.904H51.0191V124H49.6751V122.512C49.2111 123.552 48.0431 124.224 46.6831 124.224C44.4591 124.224 42.8271 122.448 42.8271 119.952C42.8271 117.456 44.4591 115.68 46.6831 115.68C48.0431 115.68 49.2111 116.352 49.6751 117.392V115.904ZM49.7391 119.952C49.7391 119.072 49.4831 118.336 48.9711 117.776C48.4751 117.216 47.8031 116.928 46.9871 116.928C46.1711 116.928 45.4991 117.216 44.9871 117.776C44.4911 118.336 44.2351 119.072 44.2351 119.952C44.2351 120.832 44.4911 121.568 44.9871 122.128C45.4991 122.688 46.1711 122.976 46.9871 122.976C47.8031 122.976 48.4751 122.688 48.9711 122.128C49.4831 121.568 49.7391 120.832 49.7391 119.952ZM54.3031 124V117.056H52.6391V115.904H54.3031V114.672C54.3031 112.928 55.1031 112.144 56.8151 112.144C57.2151 112.144 57.6311 112.192 58.0471 112.288V113.424C57.6631 113.344 57.3111 113.312 56.9911 113.312C56.0471 113.312 55.6471 113.728 55.6471 114.704V115.904H58.0151V117.056H55.6471V124H54.3031ZM66.5625 120.368H60.0825C60.2265 121.984 61.3145 122.976 62.8985 122.976C63.9385 122.976 64.8025 122.56 65.4745 121.712L66.3865 122.48C65.6025 123.584 64.3545 124.224 62.8665 124.224C60.4185 124.224 58.7065 122.48 58.7065 119.968C58.7065 117.488 60.3705 115.68 62.7545 115.68C65.0105 115.68 66.6105 117.296 66.6105 119.648C66.6105 119.888 66.5945 120.128 66.5625 120.368ZM60.1145 119.28H65.2345C65.1065 117.792 64.1625 116.928 62.7545 116.928C61.3305 116.928 60.3545 117.824 60.1145 119.28ZM68.6363 124V112.288H69.9803V124H68.6363ZM78.135 115.904H79.479V123.216C79.479 125.952 78.023 127.424 75.527 127.424C74.167 127.424 72.919 126.976 72.167 126.208L72.951 125.248C73.607 125.84 74.535 126.176 75.495 126.176C77.175 126.176 78.135 125.184 78.135 123.216V122.4C77.671 123.424 76.615 124 75.287 124C73.479 124 72.407 122.896 72.407 120.864V115.904H73.751V120.544C73.751 122.08 74.343 122.752 75.607 122.752C77.079 122.752 78.135 121.84 78.135 120.496V115.904ZM97.7325 118.784V124H96.3885V119.104C96.3885 117.584 95.8765 116.928 94.6765 116.928C93.2845 116.928 92.3245 117.824 92.3245 119.184V124H90.9805V119.104C90.9805 117.584 90.4685 116.928 89.2685 116.928C87.8765 116.928 86.9165 117.824 86.9165 119.184V124H85.5725V115.904H86.9165V117.264C87.3645 116.256 88.3565 115.68 89.5885 115.68C90.8205 115.68 91.7165 116.272 92.1005 117.36C92.5325 116.336 93.6045 115.68 94.9645 115.68C96.7565 115.68 97.7325 116.8 97.7325 118.784ZM106.573 115.904H107.917V124H106.573V122.512C106.109 123.552 104.941 124.224 103.581 124.224C101.357 124.224 99.7253 122.448 99.7253 119.952C99.7253 117.456 101.357 115.68 103.581 115.68C104.941 115.68 106.109 116.352 106.573 117.392V115.904ZM106.637 119.952C106.637 119.072 106.381 118.336 105.869 117.776C105.373 117.216 104.701 116.928 103.885 116.928C103.069 116.928 102.397 117.216 101.885 117.776C101.389 118.336 101.133 119.072 101.133 119.952C101.133 120.832 101.389 121.568 101.885 122.128C102.397 122.688 103.069 122.976 103.885 122.976C104.701 122.976 105.373 122.688 105.869 122.128C106.381 121.568 106.637 120.832 106.637 119.952ZM117.601 118.816V124H116.257V119.136C116.257 117.6 115.681 116.928 114.401 116.928C112.945 116.928 111.905 117.824 111.905 119.184V124H110.561V115.904H111.905V117.28C112.353 116.256 113.393 115.68 114.721 115.68C116.561 115.68 117.601 116.816 117.601 118.816ZM126.453 115.904H127.797V124H126.453V122.512C125.989 123.552 124.821 124.224 123.461 124.224C121.237 124.224 119.605 122.448 119.605 119.952C119.605 117.456 121.237 115.68 123.461 115.68C124.821 115.68 125.989 116.352 126.453 117.392V115.904ZM126.517 119.952C126.517 119.072 126.261 118.336 125.749 117.776C125.253 117.216 124.581 116.928 123.765 116.928C122.949 116.928 122.277 117.216 121.765 117.776C121.269 118.336 121.013 119.072 121.013 119.952C121.013 120.832 121.269 121.568 121.765 122.128C122.277 122.688 122.949 122.976 123.765 122.976C124.581 122.976 125.253 122.688 125.749 122.128C126.261 121.568 126.517 120.832 126.517 119.952ZM136.713 115.904H138.057V123.072C138.057 125.888 136.537 127.424 133.849 127.424C132.329 127.424 131.001 126.928 130.169 126.08L130.937 125.088C131.689 125.776 132.713 126.176 133.849 126.176C135.705 126.176 136.713 125.12 136.713 123.072V122.336C136.249 123.36 135.113 124 133.721 124C131.497 124 129.865 122.288 129.865 119.84C129.865 117.392 131.497 115.68 133.721 115.68C135.081 115.68 136.249 116.336 136.713 117.376V115.904ZM136.777 119.84C136.777 118.992 136.521 118.288 136.009 117.744C135.513 117.2 134.841 116.928 134.025 116.928C133.209 116.928 132.537 117.2 132.025 117.744C131.529 118.288 131.273 118.992 131.273 119.84C131.273 120.688 131.529 121.392 132.025 121.936C132.537 122.48 133.209 122.752 134.025 122.752C134.841 122.752 135.513 122.48 136.009 121.936C136.521 121.392 136.777 120.688 136.777 119.84ZM147.981 120.368H141.501C141.645 121.984 142.733 122.976 144.317 122.976C145.357 122.976 146.221 122.56 146.893 121.712L147.805 122.48C147.021 123.584 145.773 124.224 144.285 124.224C141.837 124.224 140.125 122.48 140.125 119.968C140.125 117.488 141.789 115.68 144.173 115.68C146.429 115.68 148.029 117.296 148.029 119.648C148.029 119.888 148.013 120.128 147.981 120.368ZM141.533 119.28H146.653C146.525 117.792 145.581 116.928 144.173 116.928C142.749 116.928 141.773 117.824 141.533 119.28ZM159.022 115.904H160.366V123.216C160.366 125.952 158.91 127.424 156.414 127.424C155.054 127.424 153.806 126.976 153.054 126.208L153.838 125.248C154.494 125.84 155.422 126.176 156.382 126.176C158.062 126.176 159.022 125.184 159.022 123.216V122.4C158.558 123.424 157.502 124 156.174 124C154.366 124 153.294 122.896 153.294 120.864V115.904H154.638V120.544C154.638 122.08 155.23 122.752 156.494 122.752C157.966 122.752 159.022 121.84 159.022 120.496V115.904ZM162.436 119.952C162.404 117.664 164.148 115.632 166.596 115.68C169.044 115.632 170.788 117.664 170.756 119.952C170.788 122.24 169.044 124.272 166.596 124.224C164.148 124.272 162.404 122.24 162.436 119.952ZM169.348 119.952C169.348 119.072 169.092 118.336 168.58 117.776C168.084 117.216 167.412 116.928 166.596 116.928C165.78 116.928 165.108 117.216 164.596 117.776C164.1 118.336 163.844 119.072 163.844 119.952C163.844 120.832 164.1 121.568 164.596 122.128C165.108 122.688 165.78 122.976 166.596 122.976C167.412 122.976 168.084 122.688 168.58 122.128C169.092 121.568 169.348 120.832 169.348 119.952ZM172.659 120.976V115.904H174.003V120.896C174.003 122.24 174.787 122.976 176.147 122.976C177.507 122.976 178.291 122.24 178.291 120.896V115.904H179.635V120.976C179.635 122.896 178.243 124.224 176.147 124.224C174.051 124.224 172.659 122.896 172.659 120.976ZM186.654 115.888V117.072C186.414 117.04 186.19 117.024 185.95 117.024C184.366 117.024 183.454 117.952 183.454 119.856V124H182.11V115.904H183.454V117.424C183.822 116.384 184.718 115.776 185.918 115.776C186.19 115.776 186.446 115.808 186.654 115.888ZM192.192 124V117.056H190.528V115.904H192.192V114.672C192.192 112.928 192.992 112.144 194.704 112.144C195.104 112.144 195.52 112.192 195.936 112.288V113.424C195.552 113.344 195.2 113.312 194.88 113.312C193.936 113.312 193.536 113.728 193.536 114.704V115.904H195.904V117.056H193.536V124H192.192ZM197.181 113.28C197.181 112.752 197.581 112.352 198.109 112.352C198.637 112.352 199.037 112.752 199.037 113.28C199.037 113.808 198.637 114.208 198.109 114.208C197.581 114.208 197.181 113.808 197.181 113.28ZM197.437 124V115.904H198.781V124H197.437ZM208.471 118.816V124H207.127V119.136C207.127 117.6 206.551 116.928 205.271 116.928C203.815 116.928 202.775 117.824 202.775 119.184V124H201.431V115.904H202.775V117.28C203.223 116.256 204.263 115.68 205.591 115.68C207.431 115.68 208.471 116.816 208.471 118.816ZM217.323 115.904H218.667V124H217.323V122.512C216.859 123.552 215.691 124.224 214.331 124.224C212.107 124.224 210.475 122.448 210.475 119.952C210.475 117.456 212.107 115.68 214.331 115.68C215.691 115.68 216.859 116.352 217.323 117.392V115.904ZM217.387 119.952C217.387 119.072 217.131 118.336 216.619 117.776C216.123 117.216 215.451 116.928 214.635 116.928C213.819 116.928 213.147 117.216 212.635 117.776C212.139 118.336 211.883 119.072 211.883 119.952C211.883 120.832 212.139 121.568 212.635 122.128C213.147 122.688 213.819 122.976 214.635 122.976C215.451 122.976 216.123 122.688 216.619 122.128C217.131 121.568 217.387 120.832 217.387 119.952ZM228.351 118.816V124H227.007V119.136C227.007 117.6 226.431 116.928 225.151 116.928C223.695 116.928 222.655 117.824 222.655 119.184V124H221.311V115.904H222.655V117.28C223.103 116.256 224.143 115.68 225.471 115.68C227.311 115.68 228.351 116.816 228.351 118.816ZM230.354 119.952C230.354 117.488 232.05 115.68 234.514 115.68C236.002 115.68 237.218 116.304 237.906 117.44L236.85 118.176C236.354 117.36 235.538 116.928 234.53 116.928C233.714 116.928 233.042 117.2 232.53 117.76C232.018 118.32 231.762 119.04 231.762 119.952C231.762 120.864 232.018 121.584 232.53 122.144C233.042 122.704 233.714 122.976 234.53 122.976C235.538 122.976 236.354 122.544 236.85 121.728L237.906 122.464C237.218 123.6 236.002 124.224 234.514 124.224C232.05 124.224 230.354 122.416 230.354 119.952ZM246.923 120.368H240.443C240.587 121.984 241.675 122.976 243.259 122.976C244.299 122.976 245.163 122.56 245.835 121.712L246.747 122.48C245.963 123.584 244.715 124.224 243.227 124.224C240.779 124.224 239.067 122.48 239.067 119.968C239.067 117.488 240.731 115.68 243.115 115.68C245.371 115.68 246.971 117.296 246.971 119.648C246.971 119.888 246.955 120.128 246.923 120.368ZM240.475 119.28H245.595C245.467 117.792 244.523 116.928 243.115 116.928C241.691 116.928 240.715 117.824 240.475 119.28ZM248.229 122.464L249.205 121.744C249.781 122.576 250.725 123.008 251.829 123.008C252.981 123.008 253.685 122.528 253.685 121.776C253.685 121.2 253.285 120.864 252.261 120.624L250.981 120.336C249.317 119.952 248.517 119.216 248.517 118.08C248.517 116.656 249.733 115.68 251.701 115.68C253.109 115.68 254.245 116.176 254.901 117.056L253.973 117.856C253.445 117.232 252.629 116.896 251.621 116.896C250.469 116.896 249.861 117.328 249.861 118.048C249.861 118.576 250.229 118.88 251.317 119.136L252.741 119.456C254.341 119.824 255.029 120.544 255.029 121.68C255.029 123.216 253.829 124.224 251.845 124.224C250.197 124.224 248.869 123.552 248.229 122.464ZM266.679 115.904H268.023V124H266.679V122.512C266.215 123.552 265.047 124.224 263.687 124.224C261.463 124.224 259.831 122.448 259.831 119.952C259.831 117.456 261.463 115.68 263.687 115.68C265.047 115.68 266.215 116.352 266.679 117.392V115.904ZM266.743 119.952C266.743 119.072 266.487 118.336 265.975 117.776C265.479 117.216 264.807 116.928 263.991 116.928C263.175 116.928 262.503 117.216 261.991 117.776C261.495 118.336 261.239 119.072 261.239 119.952C261.239 120.832 261.495 121.568 261.991 122.128C262.503 122.688 263.175 122.976 263.991 122.976C264.807 122.976 265.479 122.688 265.975 122.128C266.487 121.568 266.743 120.832 266.743 119.952ZM277.707 118.816V124H276.363V119.136C276.363 117.6 275.787 116.928 274.507 116.928C273.051 116.928 272.011 117.824 272.011 119.184V124H270.667V115.904H272.011V117.28C272.459 116.256 273.499 115.68 274.827 115.68C276.667 115.68 277.707 116.816 277.707 118.816ZM286.559 112.288H287.903V124H286.559V122.512C286.063 123.552 284.911 124.224 283.551 124.224C281.343 124.224 279.711 122.448 279.711 119.952C279.711 117.456 281.343 115.68 283.551 115.68C284.911 115.68 286.063 116.352 286.559 117.392V112.288ZM286.623 119.952C286.623 119.072 286.367 118.336 285.855 117.776C285.359 117.216 284.687 116.928 283.871 116.928C283.055 116.928 282.383 117.216 281.871 117.776C281.375 118.336 281.119 119.072 281.119 119.952C281.119 120.832 281.375 121.568 281.871 122.128C282.383 122.688 283.055 122.976 283.871 122.976C284.687 122.976 285.359 122.688 285.855 122.128C286.367 121.568 286.623 120.832 286.623 119.952ZM34.032 145.92V141.056H32.416V139.904H34.032V137.504H35.376V139.904H37.92V141.056H35.376V145.824C35.376 146.608 35.776 146.944 36.688 146.944C37.056 146.944 37.488 146.896 37.952 146.8V147.92C37.488 148.064 37.008 148.128 36.496 148.128C34.896 148.128 34.032 147.376 34.032 145.92ZM44.3065 139.888V141.072C44.0665 141.04 43.8425 141.024 43.6025 141.024C42.0185 141.024 41.1065 141.952 41.1065 143.856V148H39.7625V139.904H41.1065V141.424C41.4745 140.384 42.3705 139.776 43.5705 139.776C43.8425 139.776 44.0985 139.808 44.3065 139.888ZM51.857 139.904H53.201V148H51.857V146.512C51.393 147.552 50.225 148.224 48.865 148.224C46.641 148.224 45.009 146.448 45.009 143.952C45.009 141.456 46.641 139.68 48.865 139.68C50.225 139.68 51.393 140.352 51.857 141.392V139.904ZM51.921 143.952C51.921 143.072 51.665 142.336 51.153 141.776C50.657 141.216 49.985 140.928 49.169 140.928C48.353 140.928 47.681 141.216 47.169 141.776C46.673 142.336 46.417 143.072 46.417 143.952C46.417 144.832 46.673 145.568 47.169 146.128C47.681 146.688 48.353 146.976 49.169 146.976C49.985 146.976 50.657 146.688 51.153 146.128C51.665 145.568 51.921 144.832 51.921 143.952ZM62.885 142.816V148H61.541V143.136C61.541 141.6 60.965 140.928 59.685 140.928C58.229 140.928 57.189 141.824 57.189 143.184V148H55.845V139.904H57.189V141.28C57.637 140.256 58.677 139.68 60.005 139.68C61.845 139.68 62.885 140.816 62.885 142.816ZM64.6964 146.464L65.6724 145.744C66.2484 146.576 67.1924 147.008 68.2964 147.008C69.4484 147.008 70.1524 146.528 70.1524 145.776C70.1524 145.2 69.7524 144.864 68.7284 144.624L67.4484 144.336C65.7844 143.952 64.9844 143.216 64.9844 142.08C64.9844 140.656 66.2004 139.68 68.1684 139.68C69.5764 139.68 70.7124 140.176 71.3684 141.056L70.4404 141.856C69.9124 141.232 69.0964 140.896 68.0884 140.896C66.9364 140.896 66.3284 141.328 66.3284 142.048C66.3284 142.576 66.6964 142.88 67.7844 143.136L69.2084 143.456C70.8084 143.824 71.4964 144.544 71.4964 145.68C71.4964 147.216 70.2964 148.224 68.3124 148.224C66.6644 148.224 65.3364 147.552 64.6964 146.464ZM79.6995 139.904H81.0435V148H79.6995V146.512C79.2355 147.552 78.0675 148.224 76.7075 148.224C74.4835 148.224 72.8515 146.448 72.8515 143.952C72.8515 141.456 74.4835 139.68 76.7075 139.68C78.0675 139.68 79.2355 140.352 79.6995 141.392V139.904ZM79.7635 143.952C79.7635 143.072 79.5075 142.336 78.9955 141.776C78.4995 141.216 77.8275 140.928 77.0115 140.928C76.1955 140.928 75.5235 141.216 75.0115 141.776C74.5155 142.336 74.2595 143.072 74.2595 143.952C74.2595 144.832 74.5155 145.568 75.0115 146.128C75.5235 146.688 76.1955 146.976 77.0115 146.976C77.8275 146.976 78.4995 146.688 78.9955 146.128C79.5075 145.568 79.7635 144.832 79.7635 143.952ZM83.1115 143.952C83.1115 141.488 84.8075 139.68 87.2715 139.68C88.7595 139.68 89.9755 140.304 90.6635 141.44L89.6075 142.176C89.1115 141.36 88.2955 140.928 87.2875 140.928C86.4715 140.928 85.7995 141.2 85.2875 141.76C84.7755 142.32 84.5195 143.04 84.5195 143.952C84.5195 144.864 84.7755 145.584 85.2875 146.144C85.7995 146.704 86.4715 146.976 87.2875 146.976C88.2955 146.976 89.1115 146.544 89.6075 145.728L90.6635 146.464C89.9755 147.6 88.7595 148.224 87.2715 148.224C84.8075 148.224 83.1115 146.416 83.1115 143.952ZM93.1489 145.92V141.056H91.5329V139.904H93.1489V137.504H94.4929V139.904H97.0369V141.056H94.4929V145.824C94.4929 146.608 94.8929 146.944 95.8049 146.944C96.1729 146.944 96.6049 146.896 97.0689 146.8V147.92C96.6049 148.064 96.1249 148.128 95.6129 148.128C94.0129 148.128 93.1489 147.376 93.1489 145.92ZM98.6394 137.28C98.6394 136.752 99.0394 136.352 99.5674 136.352C100.095 136.352 100.495 136.752 100.495 137.28C100.495 137.808 100.095 138.208 99.5674 138.208C99.0394 138.208 98.6394 137.808 98.6394 137.28ZM98.8954 148V139.904H100.239V148H98.8954ZM102.313 143.952C102.281 141.664 104.025 139.632 106.473 139.68C108.921 139.632 110.665 141.664 110.633 143.952C110.665 146.24 108.921 148.272 106.473 148.224C104.025 148.272 102.281 146.24 102.313 143.952ZM109.225 143.952C109.225 143.072 108.969 142.336 108.457 141.776C107.961 141.216 107.289 140.928 106.473 140.928C105.657 140.928 104.985 141.216 104.473 141.776C103.977 142.336 103.721 143.072 103.721 143.952C103.721 144.832 103.977 145.568 104.473 146.128C104.985 146.688 105.657 146.976 106.473 146.976C107.289 146.976 107.961 146.688 108.457 146.128C108.969 145.568 109.225 144.832 109.225 143.952ZM119.736 142.816V148H118.392V143.136C118.392 141.6 117.816 140.928 116.536 140.928C115.08 140.928 114.04 141.824 114.04 143.184V148H112.696V139.904H114.04V141.28C114.488 140.256 115.528 139.68 116.856 139.68C118.696 139.68 119.736 140.816 119.736 142.816ZM121.548 146.464L122.524 145.744C123.1 146.576 124.044 147.008 125.148 147.008C126.3 147.008 127.004 146.528 127.004 145.776C127.004 145.2 126.604 144.864 125.58 144.624L124.3 144.336C122.636 143.952 121.836 143.216 121.836 142.08C121.836 140.656 123.052 139.68 125.02 139.68C126.428 139.68 127.564 140.176 128.22 141.056L127.292 141.856C126.764 141.232 125.948 140.896 124.94 140.896C123.788 140.896 123.18 141.328 123.18 142.048C123.18 142.576 123.548 142.88 124.636 143.136L126.06 143.456C127.66 143.824 128.348 144.544 128.348 145.68C128.348 147.216 127.148 148.224 125.164 148.224C123.516 148.224 122.188 147.552 121.548 146.464ZM143.73 139.904H145.09L142.434 148H140.962L138.786 141.44L136.61 148H135.138L132.482 139.904H133.842L135.906 146.352L138.05 139.904H139.522L141.666 146.352L143.73 139.904ZM146.402 137.28C146.402 136.752 146.802 136.352 147.33 136.352C147.858 136.352 148.258 136.752 148.258 137.28C148.258 137.808 147.858 138.208 147.33 138.208C146.802 138.208 146.402 137.808 146.402 137.28ZM146.658 148V139.904H148.002V148H146.658ZM151.245 145.92V141.056H149.629V139.904H151.245V137.504H152.589V139.904H155.133V141.056H152.589V145.824C152.589 146.608 152.989 146.944 153.901 146.944C154.269 146.944 154.701 146.896 155.165 146.8V147.92C154.701 148.064 154.221 148.128 153.709 148.128C152.109 148.128 151.245 147.376 151.245 145.92ZM164.015 142.816V148H162.671V143.136C162.671 141.6 162.095 140.928 160.815 140.928C159.359 140.928 158.319 141.824 158.319 143.184V148H156.975V136.288H158.319V141.28C158.767 140.256 159.807 139.68 161.135 139.68C162.975 139.68 164.015 140.816 164.015 142.816ZM166.354 137.28C166.354 136.752 166.754 136.352 167.282 136.352C167.81 136.352 168.21 136.752 168.21 137.28C168.21 137.808 167.81 138.208 167.282 138.208C166.754 138.208 166.354 137.808 166.354 137.28ZM166.61 148V139.904H167.954V148H166.61ZM177.644 142.816V148H176.3V143.136C176.3 141.6 175.724 140.928 174.444 140.928C172.988 140.928 171.948 141.824 171.948 143.184V148H170.604V139.904H171.948V141.28C172.396 140.256 173.436 139.68 174.764 139.68C176.604 139.68 177.644 140.816 177.644 142.816ZM189.943 139.904H191.287V148H189.943V146.512C189.479 147.552 188.311 148.224 186.951 148.224C184.727 148.224 183.095 146.448 183.095 143.952C183.095 141.456 184.727 139.68 186.951 139.68C188.311 139.68 189.479 140.352 189.943 141.392V139.904ZM190.007 143.952C190.007 143.072 189.751 142.336 189.239 141.776C188.743 141.216 188.071 140.928 187.255 140.928C186.439 140.928 185.767 141.216 185.255 141.776C184.759 142.336 184.503 143.072 184.503 143.952C184.503 144.832 184.759 145.568 185.255 146.128C185.767 146.688 186.439 146.976 187.255 146.976C188.071 146.976 188.743 146.688 189.239 146.128C189.751 145.568 190.007 144.832 190.007 143.952ZM196.611 146.464L197.587 145.744C198.163 146.576 199.107 147.008 200.211 147.008C201.363 147.008 202.067 146.528 202.067 145.776C202.067 145.2 201.667 144.864 200.643 144.624L199.363 144.336C197.699 143.952 196.899 143.216 196.899 142.08C196.899 140.656 198.115 139.68 200.083 139.68C201.491 139.68 202.627 140.176 203.283 141.056L202.355 141.856C201.827 141.232 201.011 140.896 200.003 140.896C198.851 140.896 198.243 141.328 198.243 142.048C198.243 142.576 198.611 142.88 199.699 143.136L201.123 143.456C202.723 143.824 203.411 144.544 203.411 145.68C203.411 147.216 202.211 148.224 200.227 148.224C198.579 148.224 197.251 147.552 196.611 146.464ZM212.622 144.368H206.142C206.286 145.984 207.374 146.976 208.958 146.976C209.998 146.976 210.862 146.56 211.534 145.712L212.446 146.48C211.662 147.584 210.414 148.224 208.926 148.224C206.478 148.224 204.766 146.48 204.766 143.968C204.766 141.488 206.43 139.68 208.814 139.68C211.07 139.68 212.67 141.296 212.67 143.648C212.67 143.888 212.654 144.128 212.622 144.368ZM206.174 143.28H211.294C211.166 141.792 210.222 140.928 208.814 140.928C207.39 140.928 206.414 141.824 206.174 143.28ZM214.12 143.952C214.12 141.488 215.816 139.68 218.28 139.68C219.768 139.68 220.984 140.304 221.672 141.44L220.616 142.176C220.12 141.36 219.304 140.928 218.296 140.928C217.48 140.928 216.808 141.2 216.296 141.76C215.784 142.32 215.528 143.04 215.528 143.952C215.528 144.864 215.784 145.584 216.296 146.144C216.808 146.704 217.48 146.976 218.296 146.976C219.304 146.976 220.12 146.544 220.616 145.728L221.672 146.464C220.984 147.6 219.768 148.224 218.28 148.224C215.816 148.224 214.12 146.416 214.12 143.952ZM223.28 144.976V139.904H224.624V144.896C224.624 146.24 225.408 146.976 226.768 146.976C228.128 146.976 228.912 146.24 228.912 144.896V139.904H230.256V144.976C230.256 146.896 228.864 148.224 226.768 148.224C224.672 148.224 223.28 146.896 223.28 144.976ZM237.275 139.888V141.072C237.035 141.04 236.811 141.024 236.571 141.024C234.987 141.024 234.075 141.952 234.075 143.856V148H232.731V139.904H234.075V141.424C234.443 140.384 235.339 139.776 236.539 139.776C236.811 139.776 237.067 139.808 237.275 139.888ZM245.834 144.368H239.354C239.498 145.984 240.586 146.976 242.17 146.976C243.21 146.976 244.074 146.56 244.746 145.712L245.658 146.48C244.874 147.584 243.626 148.224 242.138 148.224C239.69 148.224 237.978 146.48 237.978 143.968C237.978 141.488 239.642 139.68 242.026 139.68C244.282 139.68 245.882 141.296 245.882 143.648C245.882 143.888 245.866 144.128 245.834 144.368ZM239.386 143.28H244.506C244.378 141.792 243.434 140.928 242.026 140.928C240.602 140.928 239.626 141.824 239.386 143.28ZM257.627 139.904H258.971V148H257.627V146.512C257.163 147.552 255.995 148.224 254.635 148.224C252.411 148.224 250.779 146.448 250.779 143.952C250.779 141.456 252.411 139.68 254.635 139.68C255.995 139.68 257.163 140.352 257.627 141.392V139.904ZM257.691 143.952C257.691 143.072 257.435 142.336 256.923 141.776C256.427 141.216 255.755 140.928 254.939 140.928C254.123 140.928 253.451 141.216 252.939 141.776C252.443 142.336 252.187 143.072 252.187 143.952C252.187 144.832 252.443 145.568 252.939 146.128C253.451 146.688 254.123 146.976 254.939 146.976C255.755 146.976 256.427 146.688 256.923 146.128C257.435 145.568 257.691 144.832 257.691 143.952ZM268.655 142.816V148H267.311V143.136C267.311 141.6 266.735 140.928 265.455 140.928C263.999 140.928 262.959 141.824 262.959 143.184V148H261.615V139.904H262.959V141.28C263.407 140.256 264.447 139.68 265.775 139.68C267.615 139.68 268.655 140.816 268.655 142.816ZM277.506 136.288H278.85V148H277.506V146.512C277.01 147.552 275.858 148.224 274.498 148.224C272.29 148.224 270.658 146.448 270.658 143.952C270.658 141.456 272.29 139.68 274.498 139.68C275.858 139.68 277.01 140.352 277.506 141.392V136.288ZM277.57 143.952C277.57 143.072 277.314 142.336 276.802 141.776C276.306 141.216 275.634 140.928 274.818 140.928C274.002 140.928 273.33 141.216 272.818 141.776C272.322 142.336 272.066 143.072 272.066 143.952C272.066 144.832 272.322 145.568 272.818 146.128C273.33 146.688 274.002 146.976 274.818 146.976C275.634 146.976 276.306 146.688 276.802 146.128C277.314 145.568 277.57 144.832 277.57 143.952ZM285.3 145.92V141.056H283.684V139.904H285.3V137.504H286.644V139.904H289.188V141.056H286.644V145.824C286.644 146.608 287.044 146.944 287.956 146.944C288.324 146.944 288.756 146.896 289.22 146.8V147.92C288.756 148.064 288.276 148.128 287.764 148.128C286.164 148.128 285.3 147.376 285.3 145.92ZM295.574 139.888V141.072C295.334 141.04 295.11 141.024 294.87 141.024C293.286 141.024 292.374 141.952 292.374 143.856V148H291.03V139.904H292.374V141.424C292.742 140.384 293.638 139.776 294.838 139.776C295.11 139.776 295.366 139.808 295.574 139.888ZM297.099 144.976V139.904H298.443V144.896C298.443 146.24 299.227 146.976 300.587 146.976C301.947 146.976 302.731 146.24 302.731 144.896V139.904H304.075V144.976C304.075 146.896 302.683 148.224 300.587 148.224C298.491 148.224 297.099 146.896 297.099 144.976ZM305.782 146.464L306.758 145.744C307.334 146.576 308.278 147.008 309.382 147.008C310.534 147.008 311.238 146.528 311.238 145.776C311.238 145.2 310.838 144.864 309.814 144.624L308.534 144.336C306.87 143.952 306.07 143.216 306.07 142.08C306.07 140.656 307.286 139.68 309.254 139.68C310.662 139.68 311.798 140.176 312.454 141.056L311.526 141.856C310.998 141.232 310.182 140.896 309.174 140.896C308.022 140.896 307.414 141.328 307.414 142.048C307.414 142.576 307.782 142.88 308.87 143.136L310.294 143.456C311.894 143.824 312.582 144.544 312.582 145.68C312.582 147.216 311.382 148.224 309.398 148.224C307.75 148.224 306.422 147.552 305.782 146.464ZM315.074 145.92V141.056H313.458V139.904H315.074V137.504H316.418V139.904H318.962V141.056H316.418V145.824C316.418 146.608 316.818 146.944 317.73 146.944C318.098 146.944 318.53 146.896 318.994 146.8V147.92C318.53 148.064 318.05 148.128 317.538 148.128C315.938 148.128 315.074 147.376 315.074 145.92ZM327.928 144.368H321.448C321.592 145.984 322.68 146.976 324.264 146.976C325.304 146.976 326.168 146.56 326.84 145.712L327.752 146.48C326.968 147.584 325.72 148.224 324.232 148.224C321.784 148.224 320.072 146.48 320.072 143.968C320.072 141.488 321.736 139.68 324.12 139.68C326.376 139.68 327.976 141.296 327.976 143.648C327.976 143.888 327.96 144.128 327.928 144.368ZM321.48 143.28H326.6C326.472 141.792 325.528 140.928 324.12 140.928C322.696 140.928 321.72 141.824 321.48 143.28ZM336.274 136.288H337.618V148H336.274V146.512C335.778 147.552 334.626 148.224 333.266 148.224C331.058 148.224 329.426 146.448 329.426 143.952C329.426 141.456 331.058 139.68 333.266 139.68C334.626 139.68 335.778 140.352 336.274 141.392V136.288ZM336.338 143.952C336.338 143.072 336.082 142.336 335.57 141.776C335.074 141.216 334.402 140.928 333.586 140.928C332.77 140.928 332.098 141.216 331.586 141.776C331.09 142.336 330.834 143.072 330.834 143.952C330.834 144.832 331.09 145.568 331.586 146.128C332.098 146.688 332.77 146.976 333.586 146.976C334.402 146.976 335.074 146.688 335.57 146.128C336.082 145.568 336.338 144.832 336.338 143.952ZM41.632 167.952C41.632 170.448 40 172.224 37.792 172.224C36.432 172.224 35.28 171.552 34.784 170.512V175.2H33.44V163.904H34.784V165.392C35.28 164.352 36.432 163.68 37.792 163.68C40 163.68 41.632 165.456 41.632 167.952ZM40.224 167.952C40.224 167.072 39.968 166.336 39.456 165.776C38.96 165.216 38.288 164.928 37.472 164.928C36.656 164.928 35.984 165.216 35.472 165.776C34.976 166.336 34.72 167.072 34.72 167.952C34.72 168.832 34.976 169.568 35.472 170.128C35.984 170.688 36.656 170.976 37.472 170.976C38.288 170.976 38.96 170.688 39.456 170.128C39.968 169.568 40.224 168.832 40.224 167.952ZM43.7 172V160.288H45.044V172H43.7ZM53.9508 163.904H55.2948V172H53.9508V170.512C53.4868 171.552 52.3188 172.224 50.9588 172.224C48.7348 172.224 47.1028 170.448 47.1028 167.952C47.1028 165.456 48.7348 163.68 50.9588 163.68C52.3188 163.68 53.4868 164.352 53.9508 165.392V163.904ZM54.0148 167.952C54.0148 167.072 53.7588 166.336 53.2468 165.776C52.7508 165.216 52.0788 164.928 51.2628 164.928C50.4468 164.928 49.7748 165.216 49.2628 165.776C48.7668 166.336 48.5108 167.072 48.5108 167.952C48.5108 168.832 48.7668 169.568 49.2628 170.128C49.7748 170.688 50.4468 170.976 51.2628 170.976C52.0788 170.976 52.7508 170.688 53.2468 170.128C53.7588 169.568 54.0148 168.832 54.0148 167.952ZM58.5308 169.92V165.056H56.9148V163.904H58.5308V161.504H59.8748V163.904H62.4188V165.056H59.8748V169.824C59.8748 170.608 60.2748 170.944 61.1868 170.944C61.5548 170.944 61.9868 170.896 62.4508 170.8V171.92C61.9868 172.064 61.5068 172.128 60.9948 172.128C59.3948 172.128 58.5308 171.376 58.5308 169.92ZM64.9325 172V165.056H63.2685V163.904H64.9325V162.672C64.9325 160.928 65.7325 160.144 67.4445 160.144C67.8445 160.144 68.2605 160.192 68.6765 160.288V161.424C68.2925 161.344 67.9405 161.312 67.6205 161.312C66.6765 161.312 66.2765 161.728 66.2765 162.704V163.904H68.6445V165.056H66.2765V172H64.9325ZM69.3359 167.952C69.3039 165.664 71.0479 163.632 73.4959 163.68C75.9439 163.632 77.6879 165.664 77.6559 167.952C77.6879 170.24 75.9439 172.272 73.4959 172.224C71.0479 172.272 69.3039 170.24 69.3359 167.952ZM76.2479 167.952C76.2479 167.072 75.9919 166.336 75.4799 165.776C74.9839 165.216 74.3119 164.928 73.4959 164.928C72.6799 164.928 72.0079 165.216 71.4959 165.776C70.9999 166.336 70.7439 167.072 70.7439 167.952C70.7439 168.832 70.9999 169.568 71.4959 170.128C72.0079 170.688 72.6799 170.976 73.4959 170.976C74.3119 170.976 74.9839 170.688 75.4799 170.128C75.9919 169.568 76.2479 168.832 76.2479 167.952ZM84.2628 163.888V165.072C84.0228 165.04 83.7988 165.024 83.5588 165.024C81.9748 165.024 81.0628 165.952 81.0628 167.856V172H79.7188V163.904H81.0628V165.424C81.4308 164.384 82.3268 163.776 83.5268 163.776C83.7988 163.776 84.0548 163.808 84.2628 163.888ZM98.1075 166.784V172H96.7635V167.104C96.7635 165.584 96.2515 164.928 95.0515 164.928C93.6595 164.928 92.6995 165.824 92.6995 167.184V172H91.3555V167.104C91.3555 165.584 90.8435 164.928 89.6435 164.928C88.2515 164.928 87.2915 165.824 87.2915 167.184V172H85.9475V163.904H87.2915V165.264C87.7395 164.256 88.7315 163.68 89.9635 163.68C91.1955 163.68 92.0915 164.272 92.4755 165.36C92.9075 164.336 93.9795 163.68 95.3395 163.68C97.1315 163.68 98.1075 164.8 98.1075 166.784ZM100.276 171.152C100.276 170.592 100.66 170.208 101.236 170.208C101.812 170.208 102.196 170.592 102.196 171.152C102.196 171.728 101.812 172.128 101.236 172.128C100.66 172.128 100.276 171.728 100.276 171.152Z" fill="#697582"/>
<rect x="4" y="202" width="46" height="46" rx="5" fill="white" fill-opacity="0.01"/>
<rect x="70" y="202" width="46" height="46" rx="5" fill="white" fill-opacity="0.01"/>
<rect x="136" y="202" width="46" height="46" rx="5" fill="white" fill-opacity="0.01"/>
<rect x="202" y="202" width="46" height="46" rx="5" fill="white" fill-opacity="0.01"/>
<rect x="268" y="202" width="46" height="46" rx="5" fill="white" fill-opacity="0.01"/>
<rect x="334" y="202" width="46" height="46" rx="5" fill="white" fill-opacity="0.01"/>
<rect x="4" y="258" width="46" height="46" rx="5" fill="white" fill-opacity="0.01"/>
<rect x="70" y="258" width="46" height="46" rx="5" fill="white" fill-opacity="0.01"/>
<rect x="136" y="258" width="46" height="46" rx="5" fill="white" fill-opacity="0.01"/>
<rect x="202" y="258" width="46" height="46" rx="5" fill="white" fill-opacity="0.01"/>
<rect x="268" y="258" width="46" height="46" rx="5" fill="white" fill-opacity="0.01"/>
<rect x="334" y="258" width="46" height="46" rx="5" fill="white" fill-opacity="0.01"/>
<rect x="4" y="314" width="46" height="46" rx="5" fill="white" fill-opacity="0.01"/>
<rect x="70" y="314" width="46" height="46" rx="5" fill="white" fill-opacity="0.01"/>
<rect x="136" y="314" width="46" height="46" rx="5" fill="white" fill-opacity="0.01"/>
<rect x="202" y="314" width="46" height="46" rx="5" fill="white" fill-opacity="0.01"/>
<rect x="268" y="314" width="46" height="46" rx="5" fill="white" fill-opacity="0.01"/>
<rect x="334" y="314" width="46" height="46" rx="5" fill="white" fill-opacity="0.01"/>
<rect x="4" y="370" width="46" height="46" rx="5" fill="white" fill-opacity="0.01"/>
<rect x="70" y="370" width="46" height="46" rx="5" fill="white" fill-opacity="0.01"/>
<rect x="136" y="370" width="46" height="46" rx="5" fill="white" fill-opacity="0.01"/>
<rect x="202" y="370" width="46" height="46" rx="5" fill="white" fill-opacity="0.01"/>
<rect x="268" y="370" width="46" height="46" rx="5" fill="white" fill-opacity="0.01"/>
<rect x="334" y="370" width="46" height="46" rx="5" fill="white" fill-opacity="0.01"/>
<g filter="url(#filter0_b_2683_1826)">
<path d="M192.5 192L78 230.862V328C78 405.707 123.8 434.862 192.5 464C261.2 434.862 307 405.707 307 328V230.862L192.5 192Z" fill="white" fill-opacity="0.01"/>
<path d="M78.5 328V231.22L192.5 192.528L306.5 231.22V328C306.5 366.74 295.09 393.325 275.154 413.865C255.23 434.392 226.759 448.917 192.5 463.457C158.241 448.917 129.77 434.392 109.846 413.865C89.91 393.325 78.5 366.74 78.5 328Z" stroke="url(#paint0_linear_2683_1826)"/>
</g>
<g filter="url(#filter1_b_2683_1826)">
<path d="M192.5 225L106 254.432V328C106 386.852 140.6 408.932 192.5 431C244.4 408.932 279 386.852 279 328V254.432L192.5 225Z" fill="white" fill-opacity="0.01"/>
<path d="M106.5 328V254.79L192.5 225.528L278.5 254.79V328C278.5 357.312 269.89 377.415 254.853 392.946C239.83 408.463 218.359 419.452 192.5 430.457C166.641 419.452 145.17 408.463 130.147 392.946C115.11 377.415 106.5 357.312 106.5 328Z" stroke="url(#paint1_linear_2683_1826)"/>
</g>
<path d="M191.121 272.266C192.015 271.959 192.985 271.959 193.879 272.266L236.379 286.839C238.096 287.428 239.25 289.043 239.25 290.859V328C239.25 343.743 234.773 354.605 226.962 363.016C219.118 371.462 207.861 377.496 194.172 383.461C193.108 383.924 191.892 383.924 190.828 383.461C177.139 377.496 165.882 371.462 158.038 363.016C150.227 354.605 145.75 343.743 145.75 328V290.859C145.75 289.043 146.904 287.428 148.621 286.839L191.121 272.266Z" fill="white" fill-opacity="0.02" stroke="url(#paint2_linear_2683_1826)" stroke-width="1.5"/>
<path d="M199.667 324V321.334C199.667 317.6 196.733 314.667 193 314.667C189.267 314.667 186.333 317.6 186.333 321.334V324C184.067 324 182.333 325.734 182.333 328V337.334C182.333 339.6 184.067 341.334 186.333 341.334H199.667C201.933 341.334 203.667 339.6 203.667 337.334V328C203.667 325.734 201.933 324 199.667 324ZM189 321.334C189 319.067 190.733 317.334 193 317.334C195.267 317.334 197 319.067 197 321.334V324H189V321.334ZM194.467 332.667L194.333 332.8V334.667C194.333 335.467 193.8 336 193 336C192.2 336 191.667 335.467 191.667 334.667V332.8C190.867 332 190.733 330.8 191.533 330C192.333 329.2 193.533 329.067 194.333 329.867C195.133 330.534 195.267 331.867 194.467 332.667Z" fill="white"/>
</g>
<rect x="0.5" y="0.5" width="383" height="432" rx="11.5" stroke="url(#paint3_linear_2683_1826)"/>
<defs>
<filter id="filter0_b_2683_1826" x="34" y="148" width="317" height="360" filterUnits="userSpaceOnUse" color-interpolation-filters="sRGB">
<feFlood flood-opacity="0" result="BackgroundImageFix"/>
<feGaussianBlur in="BackgroundImageFix" stdDeviation="22"/>
<feComposite in2="SourceAlpha" operator="in" result="effect1_backgroundBlur_2683_1826"/>
<feBlend mode="normal" in="SourceGraphic" in2="effect1_backgroundBlur_2683_1826" result="shape"/>
</filter>
<filter id="filter1_b_2683_1826" x="62" y="181" width="261" height="294" filterUnits="userSpaceOnUse" color-interpolation-filters="sRGB">
<feFlood flood-opacity="0" result="BackgroundImageFix"/>
<feGaussianBlur in="BackgroundImageFix" stdDeviation="22"/>
<feComposite in2="SourceAlpha" operator="in" result="effect1_backgroundBlur_2683_1826"/>
<feBlend mode="normal" in="SourceGraphic" in2="effect1_backgroundBlur_2683_1826" result="shape"/>
</filter>
<linearGradient id="paint0_linear_2683_1826" x1="192.5" y1="71.0633" x2="192.5" y2="464" gradientUnits="userSpaceOnUse">
<stop offset="0.190557" stop-color="white" stop-opacity="0"/>
<stop offset="1" stop-color="white" stop-opacity="0.09"/>
</linearGradient>
<linearGradient id="paint1_linear_2683_1826" x1="192.5" y1="133.408" x2="192.5" y2="431" gradientUnits="userSpaceOnUse">
<stop offset="0.190557" stop-color="white" stop-opacity="0"/>
<stop offset="1" stop-color="white" stop-opacity="0.09"/>
</linearGradient>
<linearGradient id="paint2_linear_2683_1826" x1="192.5" y1="271" x2="192.5" y2="385" gradientUnits="userSpaceOnUse">
<stop stop-color="#375DFB"/>
<stop offset="0.465" stop-color="#E255F2"/>
<stop offset="0.975" stop-color="#FF385C"/>
</linearGradient>
<linearGradient id="paint3_linear_2683_1826" x1="192" y1="0" x2="192" y2="433" gradientUnits="userSpaceOnUse">
<stop stop-color="white" stop-opacity="0.1"/>
<stop offset="1" stop-color="white" stop-opacity="0"/>
</linearGradient>
<clipPath id="clip0_2683_1826">
<rect width="384" height="433" rx="12" fill="white"/>
</clipPath>
</defs>
</svg>
