<svg width="384" height="433" viewBox="0 0 384 433" fill="none" xmlns="http://www.w3.org/2000/svg">
<g clip-path="url(#clip0_2687_1933)">
<rect width="384" height="433" rx="12" fill="white" fill-opacity="0.02"/>
<path d="M32.768 51.48L36.296 51.528C36.416 53.16 37.712 54.288 39.776 54.288C41.432 54.288 42.656 53.568 42.656 52.248C42.656 50.832 41.288 50.544 38.48 49.992C35.648 49.464 33.152 48.552 33.152 45.144C33.152 42.168 35.624 40.056 39.416 40.056C43.376 40.056 45.896 42.12 45.944 45.336H42.416C42.248 43.92 41.168 42.936 39.416 42.936C37.88 42.936 36.776 43.584 36.776 44.88C36.776 46.248 38.096 46.536 40.88 47.064C43.76 47.592 46.304 48.456 46.28 51.84C46.256 54.984 43.664 57.144 39.728 57.144C35.456 57.144 32.792 54.888 32.768 51.48ZM54.032 57.144C49.928 57.144 47.456 54.672 47.456 50.856C47.456 47.016 49.976 44.52 53.792 44.52C57.488 44.52 59.984 46.824 60.032 50.448C60.032 50.808 60.008 51.216 59.936 51.6H50.984V51.768C51.056 53.52 52.184 54.576 53.888 54.576C55.256 54.576 56.216 53.976 56.504 52.824H59.84C59.456 55.224 57.32 57.144 54.032 57.144ZM51.056 49.392H56.624C56.384 47.88 55.352 47.04 53.816 47.04C52.352 47.04 51.248 47.928 51.056 49.392ZM67.4493 57.144C63.5373 57.144 61.1613 54.72 61.1613 50.832C61.1613 47.016 63.6573 44.52 67.5693 44.52C70.9293 44.52 73.0173 46.344 73.4973 49.272H69.9693C69.6813 48.048 68.8413 47.28 67.5213 47.28C65.7453 47.28 64.6173 48.744 64.6173 50.832C64.6173 52.944 65.7453 54.384 67.5213 54.384C68.8413 54.384 69.7293 53.592 69.9693 52.344H73.5213C73.0413 55.296 70.8093 57.144 67.4493 57.144ZM83.2974 50.832V44.664H86.6814V57H83.6814L83.3694 55.512C82.5774 56.472 81.4974 57.144 79.7454 57.144C77.2014 57.144 74.8494 55.872 74.8494 51.504V44.664H78.2334V51.048C78.2334 53.256 78.9534 54.336 80.6334 54.336C82.3134 54.336 83.2974 53.112 83.2974 50.832ZM95.7301 44.664H96.3061V47.736H94.9621C92.9461 47.736 92.1781 49.08 92.1781 50.952V57H88.7941V44.664H91.8661L92.1781 46.512C92.8501 45.408 93.8101 44.664 95.7301 44.664ZM103.275 57.144C99.1711 57.144 96.6991 54.672 96.6991 50.856C96.6991 47.016 99.2191 44.52 103.035 44.52C106.731 44.52 109.227 46.824 109.275 50.448C109.275 50.808 109.251 51.216 109.179 51.6H100.227V51.768C100.299 53.52 101.427 54.576 103.131 54.576C104.499 54.576 105.459 53.976 105.747 52.824H109.083C108.699 55.224 106.563 57.144 103.275 57.144ZM100.299 49.392H105.867C105.627 47.88 104.595 47.04 103.059 47.04C101.595 47.04 100.491 47.928 100.299 49.392ZM122.862 39.624C123.79 39.624 124.614 39.768 125.334 40.056C126.054 40.344 126.622 40.768 127.038 41.328C127.454 41.872 127.662 42.544 127.662 43.344C127.662 44.448 127.334 45.376 126.678 46.128C126.022 46.88 125.206 47.536 124.23 48.096L127.566 51.336C127.886 50.792 128.166 50.224 128.406 49.632C128.646 49.024 128.846 48.416 129.006 47.808H132.726C132.486 48.704 132.134 49.664 131.67 50.688C131.206 51.712 130.614 52.672 129.894 53.568L133.422 57H129.006L127.662 55.68C127.31 55.92 126.942 56.136 126.558 56.328C126.174 56.52 125.774 56.688 125.358 56.832C124.942 56.96 124.502 57.056 124.038 57.12C123.574 57.2 123.094 57.24 122.598 57.24C121.302 57.24 120.19 57.04 119.262 56.64C118.334 56.224 117.622 55.648 117.126 54.912C116.63 54.176 116.382 53.328 116.382 52.368C116.382 51.552 116.502 50.856 116.742 50.28C116.998 49.688 117.358 49.176 117.822 48.744C118.302 48.296 118.87 47.888 119.526 47.52C119.11 47.04 118.774 46.592 118.518 46.176C118.278 45.744 118.102 45.32 117.99 44.904C117.894 44.488 117.846 44.048 117.846 43.584C117.846 42.768 118.054 42.064 118.47 41.472C118.902 40.88 119.494 40.424 120.246 40.104C121.014 39.784 121.886 39.624 122.862 39.624ZM121.614 49.656C121.31 49.88 121.046 50.112 120.822 50.352C120.614 50.592 120.446 50.848 120.318 51.12C120.206 51.392 120.15 51.696 120.15 52.032C120.15 52.72 120.406 53.264 120.918 53.664C121.43 54.048 122.07 54.24 122.838 54.24C123.35 54.24 123.83 54.176 124.278 54.048C124.726 53.92 125.134 53.744 125.502 53.52L121.614 49.656ZM122.838 42.384C122.438 42.384 122.054 42.488 121.686 42.696C121.334 42.888 121.158 43.264 121.158 43.824C121.158 44.224 121.254 44.608 121.446 44.976C121.654 45.344 121.926 45.72 122.262 46.104C122.934 45.736 123.446 45.368 123.798 45C124.166 44.632 124.35 44.208 124.35 43.728C124.35 43.248 124.19 42.904 123.87 42.696C123.55 42.488 123.206 42.384 122.838 42.384ZM140.335 57V40.2H147.175C150.823 40.2 153.247 42.384 153.247 45.792C153.247 49.176 150.823 51.36 147.175 51.36H143.935V57H140.335ZM146.839 43.2H143.935V48.36H146.839C148.519 48.36 149.599 47.376 149.599 45.792C149.599 44.184 148.519 43.2 146.839 43.2ZM161.696 44.664H162.272V47.736H160.928C158.912 47.736 158.144 49.08 158.144 50.952V57H154.76V44.664H157.832L158.144 46.512C158.816 45.408 159.776 44.664 161.696 44.664ZM169.169 57.144C165.233 57.144 162.665 54.624 162.665 50.832C162.665 47.04 165.233 44.52 169.169 44.52C173.105 44.52 175.673 47.04 175.673 50.832C175.673 54.648 173.105 57.144 169.169 57.144ZM169.169 54.384C171.065 54.384 172.241 52.92 172.241 50.832C172.241 48.744 171.065 47.28 169.169 47.28C167.273 47.28 166.121 48.744 166.121 50.832C166.121 52.92 167.273 54.384 169.169 54.384ZM178.137 53.472V47.52H176.097V44.664H178.137V41.208H181.521V44.664H184.353V47.52H181.521V52.92C181.521 53.784 181.857 54.144 182.745 54.144H184.425V57H181.665C179.313 57 178.137 55.824 178.137 53.472ZM191.66 57.144C187.556 57.144 185.084 54.672 185.084 50.856C185.084 47.016 187.604 44.52 191.42 44.52C195.116 44.52 197.612 46.824 197.66 50.448C197.66 50.808 197.636 51.216 197.564 51.6H188.612V51.768C188.684 53.52 189.812 54.576 191.516 54.576C192.884 54.576 193.844 53.976 194.132 52.824H197.468C197.084 55.224 194.948 57.144 191.66 57.144ZM188.684 49.392H194.252C194.012 47.88 192.98 47.04 191.444 47.04C189.98 47.04 188.876 47.928 188.684 49.392ZM205.077 57.144C201.165 57.144 198.789 54.72 198.789 50.832C198.789 47.016 201.285 44.52 205.197 44.52C208.557 44.52 210.645 46.344 211.125 49.272H207.597C207.309 48.048 206.469 47.28 205.149 47.28C203.373 47.28 202.245 48.744 202.245 50.832C202.245 52.944 203.373 54.384 205.149 54.384C206.469 54.384 207.357 53.592 207.597 52.344H211.149C210.669 55.296 208.437 57.144 205.077 57.144ZM213.581 53.472V47.52H211.541V44.664H213.581V41.208H216.965V44.664H219.797V47.52H216.965V52.92C216.965 53.784 217.301 54.144 218.189 54.144H219.869V57H217.109C214.757 57 213.581 55.824 213.581 53.472ZM227.104 57.144C223 57.144 220.528 54.672 220.528 50.856C220.528 47.016 223.048 44.52 226.864 44.52C230.56 44.52 233.056 46.824 233.104 50.448C233.104 50.808 233.08 51.216 233.008 51.6H224.056V51.768C224.128 53.52 225.256 54.576 226.96 54.576C228.328 54.576 229.288 53.976 229.576 52.824H232.912C232.528 55.224 230.392 57.144 227.104 57.144ZM224.128 49.392H229.696C229.456 47.88 228.424 47.04 226.888 47.04C225.424 47.04 224.32 47.928 224.128 49.392ZM243.665 46.2V40.2H247.049V57H244.097L243.761 55.296C242.945 56.352 241.745 57.144 239.969 57.144C236.657 57.144 234.233 54.72 234.233 50.808C234.233 46.992 236.657 44.52 239.945 44.52C241.649 44.52 242.873 45.192 243.665 46.2ZM240.713 54.384C242.561 54.384 243.713 52.944 243.713 50.856C243.713 48.744 242.561 47.28 240.713 47.28C238.865 47.28 237.689 48.72 237.689 50.832C237.689 52.944 238.865 54.384 240.713 54.384ZM262.49 57.144C257.498 57.144 254.474 53.76 254.474 48.6C254.474 43.44 257.618 40.056 262.706 40.056C266.69 40.056 269.498 42.552 269.93 46.2H266.282C265.85 44.328 264.506 43.104 262.514 43.104C259.778 43.104 258.146 45.36 258.146 48.6C258.146 51.816 259.754 54.096 262.466 54.096C264.506 54.096 265.85 52.872 266.282 51H269.906C269.498 54.648 266.594 57.144 262.49 57.144ZM278.478 44.52C281.214 44.52 283.47 45.984 283.47 50.16V57H280.086V50.448C280.086 48.432 279.27 47.304 277.59 47.304C275.862 47.304 274.83 48.552 274.83 50.664V57H271.446V40.2H274.83V46.176C275.622 45.216 276.726 44.52 278.478 44.52ZM297.123 54.144H297.507V57H295.779C294.027 57 293.475 56.16 293.499 54.984C292.635 56.352 291.387 57.144 289.467 57.144C286.803 57.144 284.883 55.872 284.883 53.52C284.883 50.904 286.851 49.416 290.547 49.416H292.995V48.816C292.995 47.712 292.203 46.992 290.787 46.992C289.467 46.992 288.579 47.592 288.435 48.504H285.171C285.411 46.104 287.619 44.52 290.883 44.52C294.339 44.52 296.331 46.056 296.331 49.008V53.376C296.331 54.024 296.595 54.144 297.123 54.144ZM292.995 51.912V51.672H290.523C289.107 51.672 288.291 52.248 288.291 53.28C288.291 54.144 288.987 54.696 290.115 54.696C291.891 54.696 292.971 53.592 292.995 51.912ZM299.464 53.472V47.52H297.424V44.664H299.464V41.208H302.848V44.664H305.68V47.52H302.848V52.92C302.848 53.784 303.184 54.144 304.072 54.144H305.752V57H302.992C300.64 57 299.464 55.824 299.464 53.472ZM306.502 52.896H309.718C309.838 53.976 310.774 54.72 312.43 54.72C313.846 54.72 314.71 54.264 314.71 53.4C314.71 52.392 313.87 52.32 311.878 52.056C308.998 51.72 306.766 51.072 306.766 48.528C306.766 46.08 308.902 44.472 312.07 44.496C315.382 44.496 317.662 45.96 317.83 48.48H314.59C314.494 47.496 313.558 46.896 312.19 46.896C310.87 46.896 310.006 47.376 310.006 48.168C310.006 49.104 311.062 49.2 312.838 49.416C315.67 49.704 318.022 50.352 318.022 53.136C318.022 55.584 315.718 57.144 312.406 57.144C308.974 57.144 306.646 55.536 306.502 52.896Z" fill="#F7F8F8"/>
<path d="M32.736 89.616L33.872 88.96C34.464 90.24 35.68 90.944 37.28 90.944C38.96 90.944 39.984 90.176 39.984 88.976C39.984 88.064 39.392 87.488 38 87.152L36.192 86.72C34.112 86.224 33.072 85.216 33.072 83.728C33.072 81.888 34.624 80.576 37.104 80.576C39.088 80.576 40.608 81.408 41.168 82.624L40.064 83.296C39.536 82.384 38.464 81.856 37.072 81.856C35.472 81.856 34.512 82.544 34.512 83.712C34.512 84.608 35.072 85.136 36.528 85.472L38.336 85.904C40.496 86.416 41.44 87.392 41.44 88.928C41.44 90.88 39.888 92.224 37.264 92.224C35.008 92.224 33.376 91.264 32.736 89.616ZM49.6751 83.904H51.0191V92H49.6751V90.512C49.2111 91.552 48.0431 92.224 46.6831 92.224C44.4591 92.224 42.8271 90.448 42.8271 87.952C42.8271 85.456 44.4591 83.68 46.6831 83.68C48.0431 83.68 49.2111 84.352 49.6751 85.392V83.904ZM49.7391 87.952C49.7391 87.072 49.4831 86.336 48.9711 85.776C48.4751 85.216 47.8031 84.928 46.9871 84.928C46.1711 84.928 45.4991 85.216 44.9871 85.776C44.4911 86.336 44.2351 87.072 44.2351 87.952C44.2351 88.832 44.4911 89.568 44.9871 90.128C45.4991 90.688 46.1711 90.976 46.9871 90.976C47.8031 90.976 48.4751 90.688 48.9711 90.128C49.4831 89.568 49.7391 88.832 49.7391 87.952ZM54.3031 92V85.056H52.6391V83.904H54.3031V82.672C54.3031 80.928 55.1031 80.144 56.8151 80.144C57.2151 80.144 57.6311 80.192 58.0471 80.288V81.424C57.6631 81.344 57.3111 81.312 56.9911 81.312C56.0471 81.312 55.6471 81.728 55.6471 82.704V83.904H58.0151V85.056H55.6471V92H54.3031ZM66.5625 88.368H60.0825C60.2265 89.984 61.3145 90.976 62.8985 90.976C63.9385 90.976 64.8025 90.56 65.4745 89.712L66.3865 90.48C65.6025 91.584 64.3545 92.224 62.8665 92.224C60.4185 92.224 58.7065 90.48 58.7065 87.968C58.7065 85.488 60.3705 83.68 62.7545 83.68C65.0105 83.68 66.6105 85.296 66.6105 87.648C66.6105 87.888 66.5945 88.128 66.5625 88.368ZM60.1145 87.28H65.2345C65.1065 85.792 64.1625 84.928 62.7545 84.928C61.3305 84.928 60.3545 85.824 60.1145 87.28ZM68.6363 92V80.288H69.9803V92H68.6363ZM78.135 83.904H79.479V91.216C79.479 93.952 78.023 95.424 75.527 95.424C74.167 95.424 72.919 94.976 72.167 94.208L72.951 93.248C73.607 93.84 74.535 94.176 75.495 94.176C77.175 94.176 78.135 93.184 78.135 91.216V90.4C77.671 91.424 76.615 92 75.287 92C73.479 92 72.407 90.896 72.407 88.864V83.904H73.751V88.544C73.751 90.08 74.343 90.752 75.607 90.752C77.079 90.752 78.135 89.84 78.135 88.496V83.904ZM97.7325 86.784V92H96.3885V87.104C96.3885 85.584 95.8765 84.928 94.6765 84.928C93.2845 84.928 92.3245 85.824 92.3245 87.184V92H90.9805V87.104C90.9805 85.584 90.4685 84.928 89.2685 84.928C87.8765 84.928 86.9165 85.824 86.9165 87.184V92H85.5725V83.904H86.9165V85.264C87.3645 84.256 88.3565 83.68 89.5885 83.68C90.8205 83.68 91.7165 84.272 92.1005 85.36C92.5325 84.336 93.6045 83.68 94.9645 83.68C96.7565 83.68 97.7325 84.8 97.7325 86.784ZM106.573 83.904H107.917V92H106.573V90.512C106.109 91.552 104.941 92.224 103.581 92.224C101.357 92.224 99.7253 90.448 99.7253 87.952C99.7253 85.456 101.357 83.68 103.581 83.68C104.941 83.68 106.109 84.352 106.573 85.392V83.904ZM106.637 87.952C106.637 87.072 106.381 86.336 105.869 85.776C105.373 85.216 104.701 84.928 103.885 84.928C103.069 84.928 102.397 85.216 101.885 85.776C101.389 86.336 101.133 87.072 101.133 87.952C101.133 88.832 101.389 89.568 101.885 90.128C102.397 90.688 103.069 90.976 103.885 90.976C104.701 90.976 105.373 90.688 105.869 90.128C106.381 89.568 106.637 88.832 106.637 87.952ZM117.601 86.816V92H116.257V87.136C116.257 85.6 115.681 84.928 114.401 84.928C112.945 84.928 111.905 85.824 111.905 87.184V92H110.561V83.904H111.905V85.28C112.353 84.256 113.393 83.68 114.721 83.68C116.561 83.68 117.601 84.816 117.601 86.816ZM126.453 83.904H127.797V92H126.453V90.512C125.989 91.552 124.821 92.224 123.461 92.224C121.237 92.224 119.605 90.448 119.605 87.952C119.605 85.456 121.237 83.68 123.461 83.68C124.821 83.68 125.989 84.352 126.453 85.392V83.904ZM126.517 87.952C126.517 87.072 126.261 86.336 125.749 85.776C125.253 85.216 124.581 84.928 123.765 84.928C122.949 84.928 122.277 85.216 121.765 85.776C121.269 86.336 121.013 87.072 121.013 87.952C121.013 88.832 121.269 89.568 121.765 90.128C122.277 90.688 122.949 90.976 123.765 90.976C124.581 90.976 125.253 90.688 125.749 90.128C126.261 89.568 126.517 88.832 126.517 87.952ZM136.713 83.904H138.057V91.072C138.057 93.888 136.537 95.424 133.849 95.424C132.329 95.424 131.001 94.928 130.169 94.08L130.937 93.088C131.689 93.776 132.713 94.176 133.849 94.176C135.705 94.176 136.713 93.12 136.713 91.072V90.336C136.249 91.36 135.113 92 133.721 92C131.497 92 129.865 90.288 129.865 87.84C129.865 85.392 131.497 83.68 133.721 83.68C135.081 83.68 136.249 84.336 136.713 85.376V83.904ZM136.777 87.84C136.777 86.992 136.521 86.288 136.009 85.744C135.513 85.2 134.841 84.928 134.025 84.928C133.209 84.928 132.537 85.2 132.025 85.744C131.529 86.288 131.273 86.992 131.273 87.84C131.273 88.688 131.529 89.392 132.025 89.936C132.537 90.48 133.209 90.752 134.025 90.752C134.841 90.752 135.513 90.48 136.009 89.936C136.521 89.392 136.777 88.688 136.777 87.84ZM147.981 88.368H141.501C141.645 89.984 142.733 90.976 144.317 90.976C145.357 90.976 146.221 90.56 146.893 89.712L147.805 90.48C147.021 91.584 145.773 92.224 144.285 92.224C141.837 92.224 140.125 90.48 140.125 87.968C140.125 85.488 141.789 83.68 144.173 83.68C146.429 83.68 148.029 85.296 148.029 87.648C148.029 87.888 148.013 88.128 147.981 88.368ZM141.533 87.28H146.653C146.525 85.792 145.581 84.928 144.173 84.928C142.749 84.928 141.773 85.824 141.533 87.28ZM159.022 83.904H160.366V91.216C160.366 93.952 158.91 95.424 156.414 95.424C155.054 95.424 153.806 94.976 153.054 94.208L153.838 93.248C154.494 93.84 155.422 94.176 156.382 94.176C158.062 94.176 159.022 93.184 159.022 91.216V90.4C158.558 91.424 157.502 92 156.174 92C154.366 92 153.294 90.896 153.294 88.864V83.904H154.638V88.544C154.638 90.08 155.23 90.752 156.494 90.752C157.966 90.752 159.022 89.84 159.022 88.496V83.904ZM162.436 87.952C162.404 85.664 164.148 83.632 166.596 83.68C169.044 83.632 170.788 85.664 170.756 87.952C170.788 90.24 169.044 92.272 166.596 92.224C164.148 92.272 162.404 90.24 162.436 87.952ZM169.348 87.952C169.348 87.072 169.092 86.336 168.58 85.776C168.084 85.216 167.412 84.928 166.596 84.928C165.78 84.928 165.108 85.216 164.596 85.776C164.1 86.336 163.844 87.072 163.844 87.952C163.844 88.832 164.1 89.568 164.596 90.128C165.108 90.688 165.78 90.976 166.596 90.976C167.412 90.976 168.084 90.688 168.58 90.128C169.092 89.568 169.348 88.832 169.348 87.952ZM172.659 88.976V83.904H174.003V88.896C174.003 90.24 174.787 90.976 176.147 90.976C177.507 90.976 178.291 90.24 178.291 88.896V83.904H179.635V88.976C179.635 90.896 178.243 92.224 176.147 92.224C174.051 92.224 172.659 90.896 172.659 88.976ZM186.654 83.888V85.072C186.414 85.04 186.19 85.024 185.95 85.024C184.366 85.024 183.454 85.952 183.454 87.856V92H182.11V83.904H183.454V85.424C183.822 84.384 184.718 83.776 185.918 83.776C186.19 83.776 186.446 83.808 186.654 83.888ZM192.192 92V85.056H190.528V83.904H192.192V82.672C192.192 80.928 192.992 80.144 194.704 80.144C195.104 80.144 195.52 80.192 195.936 80.288V81.424C195.552 81.344 195.2 81.312 194.88 81.312C193.936 81.312 193.536 81.728 193.536 82.704V83.904H195.904V85.056H193.536V92H192.192ZM197.181 81.28C197.181 80.752 197.581 80.352 198.109 80.352C198.637 80.352 199.037 80.752 199.037 81.28C199.037 81.808 198.637 82.208 198.109 82.208C197.581 82.208 197.181 81.808 197.181 81.28ZM197.437 92V83.904H198.781V92H197.437ZM208.471 86.816V92H207.127V87.136C207.127 85.6 206.551 84.928 205.271 84.928C203.815 84.928 202.775 85.824 202.775 87.184V92H201.431V83.904H202.775V85.28C203.223 84.256 204.263 83.68 205.591 83.68C207.431 83.68 208.471 84.816 208.471 86.816ZM217.323 83.904H218.667V92H217.323V90.512C216.859 91.552 215.691 92.224 214.331 92.224C212.107 92.224 210.475 90.448 210.475 87.952C210.475 85.456 212.107 83.68 214.331 83.68C215.691 83.68 216.859 84.352 217.323 85.392V83.904ZM217.387 87.952C217.387 87.072 217.131 86.336 216.619 85.776C216.123 85.216 215.451 84.928 214.635 84.928C213.819 84.928 213.147 85.216 212.635 85.776C212.139 86.336 211.883 87.072 211.883 87.952C211.883 88.832 212.139 89.568 212.635 90.128C213.147 90.688 213.819 90.976 214.635 90.976C215.451 90.976 216.123 90.688 216.619 90.128C217.131 89.568 217.387 88.832 217.387 87.952ZM228.351 86.816V92H227.007V87.136C227.007 85.6 226.431 84.928 225.151 84.928C223.695 84.928 222.655 85.824 222.655 87.184V92H221.311V83.904H222.655V85.28C223.103 84.256 224.143 83.68 225.471 83.68C227.311 83.68 228.351 84.816 228.351 86.816ZM230.354 87.952C230.354 85.488 232.05 83.68 234.514 83.68C236.002 83.68 237.218 84.304 237.906 85.44L236.85 86.176C236.354 85.36 235.538 84.928 234.53 84.928C233.714 84.928 233.042 85.2 232.53 85.76C232.018 86.32 231.762 87.04 231.762 87.952C231.762 88.864 232.018 89.584 232.53 90.144C233.042 90.704 233.714 90.976 234.53 90.976C235.538 90.976 236.354 90.544 236.85 89.728L237.906 90.464C237.218 91.6 236.002 92.224 234.514 92.224C232.05 92.224 230.354 90.416 230.354 87.952ZM246.923 88.368H240.443C240.587 89.984 241.675 90.976 243.259 90.976C244.299 90.976 245.163 90.56 245.835 89.712L246.747 90.48C245.963 91.584 244.715 92.224 243.227 92.224C240.779 92.224 239.067 90.48 239.067 87.968C239.067 85.488 240.731 83.68 243.115 83.68C245.371 83.68 246.971 85.296 246.971 87.648C246.971 87.888 246.955 88.128 246.923 88.368ZM240.475 87.28H245.595C245.467 85.792 244.523 84.928 243.115 84.928C241.691 84.928 240.715 85.824 240.475 87.28ZM248.229 90.464L249.205 89.744C249.781 90.576 250.725 91.008 251.829 91.008C252.981 91.008 253.685 90.528 253.685 89.776C253.685 89.2 253.285 88.864 252.261 88.624L250.981 88.336C249.317 87.952 248.517 87.216 248.517 86.08C248.517 84.656 249.733 83.68 251.701 83.68C253.109 83.68 254.245 84.176 254.901 85.056L253.973 85.856C253.445 85.232 252.629 84.896 251.621 84.896C250.469 84.896 249.861 85.328 249.861 86.048C249.861 86.576 250.229 86.88 251.317 87.136L252.741 87.456C254.341 87.824 255.029 88.544 255.029 89.68C255.029 91.216 253.829 92.224 251.845 92.224C250.197 92.224 248.869 91.552 248.229 90.464ZM266.679 83.904H268.023V92H266.679V90.512C266.215 91.552 265.047 92.224 263.687 92.224C261.463 92.224 259.831 90.448 259.831 87.952C259.831 85.456 261.463 83.68 263.687 83.68C265.047 83.68 266.215 84.352 266.679 85.392V83.904ZM266.743 87.952C266.743 87.072 266.487 86.336 265.975 85.776C265.479 85.216 264.807 84.928 263.991 84.928C263.175 84.928 262.503 85.216 261.991 85.776C261.495 86.336 261.239 87.072 261.239 87.952C261.239 88.832 261.495 89.568 261.991 90.128C262.503 90.688 263.175 90.976 263.991 90.976C264.807 90.976 265.479 90.688 265.975 90.128C266.487 89.568 266.743 88.832 266.743 87.952ZM277.707 86.816V92H276.363V87.136C276.363 85.6 275.787 84.928 274.507 84.928C273.051 84.928 272.011 85.824 272.011 87.184V92H270.667V83.904H272.011V85.28C272.459 84.256 273.499 83.68 274.827 83.68C276.667 83.68 277.707 84.816 277.707 86.816ZM286.559 80.288H287.903V92H286.559V90.512C286.063 91.552 284.911 92.224 283.551 92.224C281.343 92.224 279.711 90.448 279.711 87.952C279.711 85.456 281.343 83.68 283.551 83.68C284.911 83.68 286.063 84.352 286.559 85.392V80.288ZM286.623 87.952C286.623 87.072 286.367 86.336 285.855 85.776C285.359 85.216 284.687 84.928 283.871 84.928C283.055 84.928 282.383 85.216 281.871 85.776C281.375 86.336 281.119 87.072 281.119 87.952C281.119 88.832 281.375 89.568 281.871 90.128C282.383 90.688 283.055 90.976 283.871 90.976C284.687 90.976 285.359 90.688 285.855 90.128C286.367 89.568 286.623 88.832 286.623 87.952ZM34.032 113.92V109.056H32.416V107.904H34.032V105.504H35.376V107.904H37.92V109.056H35.376V113.824C35.376 114.608 35.776 114.944 36.688 114.944C37.056 114.944 37.488 114.896 37.952 114.8V115.92C37.488 116.064 37.008 116.128 36.496 116.128C34.896 116.128 34.032 115.376 34.032 113.92ZM44.3065 107.888V109.072C44.0665 109.04 43.8425 109.024 43.6025 109.024C42.0185 109.024 41.1065 109.952 41.1065 111.856V116H39.7625V107.904H41.1065V109.424C41.4745 108.384 42.3705 107.776 43.5705 107.776C43.8425 107.776 44.0985 107.808 44.3065 107.888ZM51.857 107.904H53.201V116H51.857V114.512C51.393 115.552 50.225 116.224 48.865 116.224C46.641 116.224 45.009 114.448 45.009 111.952C45.009 109.456 46.641 107.68 48.865 107.68C50.225 107.68 51.393 108.352 51.857 109.392V107.904ZM51.921 111.952C51.921 111.072 51.665 110.336 51.153 109.776C50.657 109.216 49.985 108.928 49.169 108.928C48.353 108.928 47.681 109.216 47.169 109.776C46.673 110.336 46.417 111.072 46.417 111.952C46.417 112.832 46.673 113.568 47.169 114.128C47.681 114.688 48.353 114.976 49.169 114.976C49.985 114.976 50.657 114.688 51.153 114.128C51.665 113.568 51.921 112.832 51.921 111.952ZM62.885 110.816V116H61.541V111.136C61.541 109.6 60.965 108.928 59.685 108.928C58.229 108.928 57.189 109.824 57.189 111.184V116H55.845V107.904H57.189V109.28C57.637 108.256 58.677 107.68 60.005 107.68C61.845 107.68 62.885 108.816 62.885 110.816ZM64.6964 114.464L65.6724 113.744C66.2484 114.576 67.1924 115.008 68.2964 115.008C69.4484 115.008 70.1524 114.528 70.1524 113.776C70.1524 113.2 69.7524 112.864 68.7284 112.624L67.4484 112.336C65.7844 111.952 64.9844 111.216 64.9844 110.08C64.9844 108.656 66.2004 107.68 68.1684 107.68C69.5764 107.68 70.7124 108.176 71.3684 109.056L70.4404 109.856C69.9124 109.232 69.0964 108.896 68.0884 108.896C66.9364 108.896 66.3284 109.328 66.3284 110.048C66.3284 110.576 66.6964 110.88 67.7844 111.136L69.2084 111.456C70.8084 111.824 71.4964 112.544 71.4964 113.68C71.4964 115.216 70.2964 116.224 68.3124 116.224C66.6644 116.224 65.3364 115.552 64.6964 114.464ZM79.6995 107.904H81.0435V116H79.6995V114.512C79.2355 115.552 78.0675 116.224 76.7075 116.224C74.4835 116.224 72.8515 114.448 72.8515 111.952C72.8515 109.456 74.4835 107.68 76.7075 107.68C78.0675 107.68 79.2355 108.352 79.6995 109.392V107.904ZM79.7635 111.952C79.7635 111.072 79.5075 110.336 78.9955 109.776C78.4995 109.216 77.8275 108.928 77.0115 108.928C76.1955 108.928 75.5235 109.216 75.0115 109.776C74.5155 110.336 74.2595 111.072 74.2595 111.952C74.2595 112.832 74.5155 113.568 75.0115 114.128C75.5235 114.688 76.1955 114.976 77.0115 114.976C77.8275 114.976 78.4995 114.688 78.9955 114.128C79.5075 113.568 79.7635 112.832 79.7635 111.952ZM83.1115 111.952C83.1115 109.488 84.8075 107.68 87.2715 107.68C88.7595 107.68 89.9755 108.304 90.6635 109.44L89.6075 110.176C89.1115 109.36 88.2955 108.928 87.2875 108.928C86.4715 108.928 85.7995 109.2 85.2875 109.76C84.7755 110.32 84.5195 111.04 84.5195 111.952C84.5195 112.864 84.7755 113.584 85.2875 114.144C85.7995 114.704 86.4715 114.976 87.2875 114.976C88.2955 114.976 89.1115 114.544 89.6075 113.728L90.6635 114.464C89.9755 115.6 88.7595 116.224 87.2715 116.224C84.8075 116.224 83.1115 114.416 83.1115 111.952ZM93.1489 113.92V109.056H91.5329V107.904H93.1489V105.504H94.4929V107.904H97.0369V109.056H94.4929V113.824C94.4929 114.608 94.8929 114.944 95.8049 114.944C96.1729 114.944 96.6049 114.896 97.0689 114.8V115.92C96.6049 116.064 96.1249 116.128 95.6129 116.128C94.0129 116.128 93.1489 115.376 93.1489 113.92ZM98.6394 105.28C98.6394 104.752 99.0394 104.352 99.5674 104.352C100.095 104.352 100.495 104.752 100.495 105.28C100.495 105.808 100.095 106.208 99.5674 106.208C99.0394 106.208 98.6394 105.808 98.6394 105.28ZM98.8954 116V107.904H100.239V116H98.8954ZM102.313 111.952C102.281 109.664 104.025 107.632 106.473 107.68C108.921 107.632 110.665 109.664 110.633 111.952C110.665 114.24 108.921 116.272 106.473 116.224C104.025 116.272 102.281 114.24 102.313 111.952ZM109.225 111.952C109.225 111.072 108.969 110.336 108.457 109.776C107.961 109.216 107.289 108.928 106.473 108.928C105.657 108.928 104.985 109.216 104.473 109.776C103.977 110.336 103.721 111.072 103.721 111.952C103.721 112.832 103.977 113.568 104.473 114.128C104.985 114.688 105.657 114.976 106.473 114.976C107.289 114.976 107.961 114.688 108.457 114.128C108.969 113.568 109.225 112.832 109.225 111.952ZM119.736 110.816V116H118.392V111.136C118.392 109.6 117.816 108.928 116.536 108.928C115.08 108.928 114.04 109.824 114.04 111.184V116H112.696V107.904H114.04V109.28C114.488 108.256 115.528 107.68 116.856 107.68C118.696 107.68 119.736 108.816 119.736 110.816ZM121.548 114.464L122.524 113.744C123.1 114.576 124.044 115.008 125.148 115.008C126.3 115.008 127.004 114.528 127.004 113.776C127.004 113.2 126.604 112.864 125.58 112.624L124.3 112.336C122.636 111.952 121.836 111.216 121.836 110.08C121.836 108.656 123.052 107.68 125.02 107.68C126.428 107.68 127.564 108.176 128.22 109.056L127.292 109.856C126.764 109.232 125.948 108.896 124.94 108.896C123.788 108.896 123.18 109.328 123.18 110.048C123.18 110.576 123.548 110.88 124.636 111.136L126.06 111.456C127.66 111.824 128.348 112.544 128.348 113.68C128.348 115.216 127.148 116.224 125.164 116.224C123.516 116.224 122.188 115.552 121.548 114.464ZM143.73 107.904H145.09L142.434 116H140.962L138.786 109.44L136.61 116H135.138L132.482 107.904H133.842L135.906 114.352L138.05 107.904H139.522L141.666 114.352L143.73 107.904ZM146.402 105.28C146.402 104.752 146.802 104.352 147.33 104.352C147.858 104.352 148.258 104.752 148.258 105.28C148.258 105.808 147.858 106.208 147.33 106.208C146.802 106.208 146.402 105.808 146.402 105.28ZM146.658 116V107.904H148.002V116H146.658ZM151.245 113.92V109.056H149.629V107.904H151.245V105.504H152.589V107.904H155.133V109.056H152.589V113.824C152.589 114.608 152.989 114.944 153.901 114.944C154.269 114.944 154.701 114.896 155.165 114.8V115.92C154.701 116.064 154.221 116.128 153.709 116.128C152.109 116.128 151.245 115.376 151.245 113.92ZM164.015 110.816V116H162.671V111.136C162.671 109.6 162.095 108.928 160.815 108.928C159.359 108.928 158.319 109.824 158.319 111.184V116H156.975V104.288H158.319V109.28C158.767 108.256 159.807 107.68 161.135 107.68C162.975 107.68 164.015 108.816 164.015 110.816ZM166.354 105.28C166.354 104.752 166.754 104.352 167.282 104.352C167.81 104.352 168.21 104.752 168.21 105.28C168.21 105.808 167.81 106.208 167.282 106.208C166.754 106.208 166.354 105.808 166.354 105.28ZM166.61 116V107.904H167.954V116H166.61ZM177.644 110.816V116H176.3V111.136C176.3 109.6 175.724 108.928 174.444 108.928C172.988 108.928 171.948 109.824 171.948 111.184V116H170.604V107.904H171.948V109.28C172.396 108.256 173.436 107.68 174.764 107.68C176.604 107.68 177.644 108.816 177.644 110.816ZM189.943 107.904H191.287V116H189.943V114.512C189.479 115.552 188.311 116.224 186.951 116.224C184.727 116.224 183.095 114.448 183.095 111.952C183.095 109.456 184.727 107.68 186.951 107.68C188.311 107.68 189.479 108.352 189.943 109.392V107.904ZM190.007 111.952C190.007 111.072 189.751 110.336 189.239 109.776C188.743 109.216 188.071 108.928 187.255 108.928C186.439 108.928 185.767 109.216 185.255 109.776C184.759 110.336 184.503 111.072 184.503 111.952C184.503 112.832 184.759 113.568 185.255 114.128C185.767 114.688 186.439 114.976 187.255 114.976C188.071 114.976 188.743 114.688 189.239 114.128C189.751 113.568 190.007 112.832 190.007 111.952ZM196.611 114.464L197.587 113.744C198.163 114.576 199.107 115.008 200.211 115.008C201.363 115.008 202.067 114.528 202.067 113.776C202.067 113.2 201.667 112.864 200.643 112.624L199.363 112.336C197.699 111.952 196.899 111.216 196.899 110.08C196.899 108.656 198.115 107.68 200.083 107.68C201.491 107.68 202.627 108.176 203.283 109.056L202.355 109.856C201.827 109.232 201.011 108.896 200.003 108.896C198.851 108.896 198.243 109.328 198.243 110.048C198.243 110.576 198.611 110.88 199.699 111.136L201.123 111.456C202.723 111.824 203.411 112.544 203.411 113.68C203.411 115.216 202.211 116.224 200.227 116.224C198.579 116.224 197.251 115.552 196.611 114.464ZM212.622 112.368H206.142C206.286 113.984 207.374 114.976 208.958 114.976C209.998 114.976 210.862 114.56 211.534 113.712L212.446 114.48C211.662 115.584 210.414 116.224 208.926 116.224C206.478 116.224 204.766 114.48 204.766 111.968C204.766 109.488 206.43 107.68 208.814 107.68C211.07 107.68 212.67 109.296 212.67 111.648C212.67 111.888 212.654 112.128 212.622 112.368ZM206.174 111.28H211.294C211.166 109.792 210.222 108.928 208.814 108.928C207.39 108.928 206.414 109.824 206.174 111.28ZM214.12 111.952C214.12 109.488 215.816 107.68 218.28 107.68C219.768 107.68 220.984 108.304 221.672 109.44L220.616 110.176C220.12 109.36 219.304 108.928 218.296 108.928C217.48 108.928 216.808 109.2 216.296 109.76C215.784 110.32 215.528 111.04 215.528 111.952C215.528 112.864 215.784 113.584 216.296 114.144C216.808 114.704 217.48 114.976 218.296 114.976C219.304 114.976 220.12 114.544 220.616 113.728L221.672 114.464C220.984 115.6 219.768 116.224 218.28 116.224C215.816 116.224 214.12 114.416 214.12 111.952ZM223.28 112.976V107.904H224.624V112.896C224.624 114.24 225.408 114.976 226.768 114.976C228.128 114.976 228.912 114.24 228.912 112.896V107.904H230.256V112.976C230.256 114.896 228.864 116.224 226.768 116.224C224.672 116.224 223.28 114.896 223.28 112.976ZM237.275 107.888V109.072C237.035 109.04 236.811 109.024 236.571 109.024C234.987 109.024 234.075 109.952 234.075 111.856V116H232.731V107.904H234.075V109.424C234.443 108.384 235.339 107.776 236.539 107.776C236.811 107.776 237.067 107.808 237.275 107.888ZM245.834 112.368H239.354C239.498 113.984 240.586 114.976 242.17 114.976C243.21 114.976 244.074 114.56 244.746 113.712L245.658 114.48C244.874 115.584 243.626 116.224 242.138 116.224C239.69 116.224 237.978 114.48 237.978 111.968C237.978 109.488 239.642 107.68 242.026 107.68C244.282 107.68 245.882 109.296 245.882 111.648C245.882 111.888 245.866 112.128 245.834 112.368ZM239.386 111.28H244.506C244.378 109.792 243.434 108.928 242.026 108.928C240.602 108.928 239.626 109.824 239.386 111.28ZM257.627 107.904H258.971V116H257.627V114.512C257.163 115.552 255.995 116.224 254.635 116.224C252.411 116.224 250.779 114.448 250.779 111.952C250.779 109.456 252.411 107.68 254.635 107.68C255.995 107.68 257.163 108.352 257.627 109.392V107.904ZM257.691 111.952C257.691 111.072 257.435 110.336 256.923 109.776C256.427 109.216 255.755 108.928 254.939 108.928C254.123 108.928 253.451 109.216 252.939 109.776C252.443 110.336 252.187 111.072 252.187 111.952C252.187 112.832 252.443 113.568 252.939 114.128C253.451 114.688 254.123 114.976 254.939 114.976C255.755 114.976 256.427 114.688 256.923 114.128C257.435 113.568 257.691 112.832 257.691 111.952ZM268.655 110.816V116H267.311V111.136C267.311 109.6 266.735 108.928 265.455 108.928C263.999 108.928 262.959 109.824 262.959 111.184V116H261.615V107.904H262.959V109.28C263.407 108.256 264.447 107.68 265.775 107.68C267.615 107.68 268.655 108.816 268.655 110.816ZM277.506 104.288H278.85V116H277.506V114.512C277.01 115.552 275.858 116.224 274.498 116.224C272.29 116.224 270.658 114.448 270.658 111.952C270.658 109.456 272.29 107.68 274.498 107.68C275.858 107.68 277.01 108.352 277.506 109.392V104.288ZM277.57 111.952C277.57 111.072 277.314 110.336 276.802 109.776C276.306 109.216 275.634 108.928 274.818 108.928C274.002 108.928 273.33 109.216 272.818 109.776C272.322 110.336 272.066 111.072 272.066 111.952C272.066 112.832 272.322 113.568 272.818 114.128C273.33 114.688 274.002 114.976 274.818 114.976C275.634 114.976 276.306 114.688 276.802 114.128C277.314 113.568 277.57 112.832 277.57 111.952ZM285.3 113.92V109.056H283.684V107.904H285.3V105.504H286.644V107.904H289.188V109.056H286.644V113.824C286.644 114.608 287.044 114.944 287.956 114.944C288.324 114.944 288.756 114.896 289.22 114.8V115.92C288.756 116.064 288.276 116.128 287.764 116.128C286.164 116.128 285.3 115.376 285.3 113.92ZM295.574 107.888V109.072C295.334 109.04 295.11 109.024 294.87 109.024C293.286 109.024 292.374 109.952 292.374 111.856V116H291.03V107.904H292.374V109.424C292.742 108.384 293.638 107.776 294.838 107.776C295.11 107.776 295.366 107.808 295.574 107.888ZM297.099 112.976V107.904H298.443V112.896C298.443 114.24 299.227 114.976 300.587 114.976C301.947 114.976 302.731 114.24 302.731 112.896V107.904H304.075V112.976C304.075 114.896 302.683 116.224 300.587 116.224C298.491 116.224 297.099 114.896 297.099 112.976ZM305.782 114.464L306.758 113.744C307.334 114.576 308.278 115.008 309.382 115.008C310.534 115.008 311.238 114.528 311.238 113.776C311.238 113.2 310.838 112.864 309.814 112.624L308.534 112.336C306.87 111.952 306.07 111.216 306.07 110.08C306.07 108.656 307.286 107.68 309.254 107.68C310.662 107.68 311.798 108.176 312.454 109.056L311.526 109.856C310.998 109.232 310.182 108.896 309.174 108.896C308.022 108.896 307.414 109.328 307.414 110.048C307.414 110.576 307.782 110.88 308.87 111.136L310.294 111.456C311.894 111.824 312.582 112.544 312.582 113.68C312.582 115.216 311.382 116.224 309.398 116.224C307.75 116.224 306.422 115.552 305.782 114.464ZM315.074 113.92V109.056H313.458V107.904H315.074V105.504H316.418V107.904H318.962V109.056H316.418V113.824C316.418 114.608 316.818 114.944 317.73 114.944C318.098 114.944 318.53 114.896 318.994 114.8V115.92C318.53 116.064 318.05 116.128 317.538 116.128C315.938 116.128 315.074 115.376 315.074 113.92ZM327.928 112.368H321.448C321.592 113.984 322.68 114.976 324.264 114.976C325.304 114.976 326.168 114.56 326.84 113.712L327.752 114.48C326.968 115.584 325.72 116.224 324.232 116.224C321.784 116.224 320.072 114.48 320.072 111.968C320.072 109.488 321.736 107.68 324.12 107.68C326.376 107.68 327.976 109.296 327.976 111.648C327.976 111.888 327.96 112.128 327.928 112.368ZM321.48 111.28H326.6C326.472 109.792 325.528 108.928 324.12 108.928C322.696 108.928 321.72 109.824 321.48 111.28ZM336.274 104.288H337.618V116H336.274V114.512C335.778 115.552 334.626 116.224 333.266 116.224C331.058 116.224 329.426 114.448 329.426 111.952C329.426 109.456 331.058 107.68 333.266 107.68C334.626 107.68 335.778 108.352 336.274 109.392V104.288ZM336.338 111.952C336.338 111.072 336.082 110.336 335.57 109.776C335.074 109.216 334.402 108.928 333.586 108.928C332.77 108.928 332.098 109.216 331.586 109.776C331.09 110.336 330.834 111.072 330.834 111.952C330.834 112.832 331.09 113.568 331.586 114.128C332.098 114.688 332.77 114.976 333.586 114.976C334.402 114.976 335.074 114.688 335.57 114.128C336.082 113.568 336.338 112.832 336.338 111.952ZM41.632 135.952C41.632 138.448 40 140.224 37.792 140.224C36.432 140.224 35.28 139.552 34.784 138.512V143.2H33.44V131.904H34.784V133.392C35.28 132.352 36.432 131.68 37.792 131.68C40 131.68 41.632 133.456 41.632 135.952ZM40.224 135.952C40.224 135.072 39.968 134.336 39.456 133.776C38.96 133.216 38.288 132.928 37.472 132.928C36.656 132.928 35.984 133.216 35.472 133.776C34.976 134.336 34.72 135.072 34.72 135.952C34.72 136.832 34.976 137.568 35.472 138.128C35.984 138.688 36.656 138.976 37.472 138.976C38.288 138.976 38.96 138.688 39.456 138.128C39.968 137.568 40.224 136.832 40.224 135.952ZM43.7 140V128.288H45.044V140H43.7ZM53.9508 131.904H55.2948V140H53.9508V138.512C53.4868 139.552 52.3188 140.224 50.9588 140.224C48.7348 140.224 47.1028 138.448 47.1028 135.952C47.1028 133.456 48.7348 131.68 50.9588 131.68C52.3188 131.68 53.4868 132.352 53.9508 133.392V131.904ZM54.0148 135.952C54.0148 135.072 53.7588 134.336 53.2468 133.776C52.7508 133.216 52.0788 132.928 51.2628 132.928C50.4468 132.928 49.7748 133.216 49.2628 133.776C48.7668 134.336 48.5108 135.072 48.5108 135.952C48.5108 136.832 48.7668 137.568 49.2628 138.128C49.7748 138.688 50.4468 138.976 51.2628 138.976C52.0788 138.976 52.7508 138.688 53.2468 138.128C53.7588 137.568 54.0148 136.832 54.0148 135.952ZM58.5308 137.92V133.056H56.9148V131.904H58.5308V129.504H59.8748V131.904H62.4188V133.056H59.8748V137.824C59.8748 138.608 60.2748 138.944 61.1868 138.944C61.5548 138.944 61.9868 138.896 62.4508 138.8V139.92C61.9868 140.064 61.5068 140.128 60.9948 140.128C59.3948 140.128 58.5308 139.376 58.5308 137.92ZM64.9325 140V133.056H63.2685V131.904H64.9325V130.672C64.9325 128.928 65.7325 128.144 67.4445 128.144C67.8445 128.144 68.2605 128.192 68.6765 128.288V129.424C68.2925 129.344 67.9405 129.312 67.6205 129.312C66.6765 129.312 66.2765 129.728 66.2765 130.704V131.904H68.6445V133.056H66.2765V140H64.9325ZM69.3359 135.952C69.3039 133.664 71.0479 131.632 73.4959 131.68C75.9439 131.632 77.6879 133.664 77.6559 135.952C77.6879 138.24 75.9439 140.272 73.4959 140.224C71.0479 140.272 69.3039 138.24 69.3359 135.952ZM76.2479 135.952C76.2479 135.072 75.9919 134.336 75.4799 133.776C74.9839 133.216 74.3119 132.928 73.4959 132.928C72.6799 132.928 72.0079 133.216 71.4959 133.776C70.9999 134.336 70.7439 135.072 70.7439 135.952C70.7439 136.832 70.9999 137.568 71.4959 138.128C72.0079 138.688 72.6799 138.976 73.4959 138.976C74.3119 138.976 74.9839 138.688 75.4799 138.128C75.9919 137.568 76.2479 136.832 76.2479 135.952ZM84.2628 131.888V133.072C84.0228 133.04 83.7988 133.024 83.5588 133.024C81.9748 133.024 81.0628 133.952 81.0628 135.856V140H79.7188V131.904H81.0628V133.424C81.4308 132.384 82.3268 131.776 83.5268 131.776C83.7988 131.776 84.0548 131.808 84.2628 131.888ZM98.1075 134.784V140H96.7635V135.104C96.7635 133.584 96.2515 132.928 95.0515 132.928C93.6595 132.928 92.6995 133.824 92.6995 135.184V140H91.3555V135.104C91.3555 133.584 90.8435 132.928 89.6435 132.928C88.2515 132.928 87.2915 133.824 87.2915 135.184V140H85.9475V131.904H87.2915V133.264C87.7395 132.256 88.7315 131.68 89.9635 131.68C91.1955 131.68 92.0915 132.272 92.4755 133.36C92.9075 132.336 93.9795 131.68 95.3395 131.68C97.1315 131.68 98.1075 132.8 98.1075 134.784ZM100.276 139.152C100.276 138.592 100.66 138.208 101.236 138.208C101.812 138.208 102.196 138.592 102.196 139.152C102.196 139.728 101.812 140.128 101.236 140.128C100.66 140.128 100.276 139.728 100.276 139.152Z" fill="#697582"/>
<rect x="4" y="186" width="46" height="46" rx="5" fill="white" fill-opacity="0.01"/>
<rect x="70" y="186" width="46" height="46" rx="5" fill="white" fill-opacity="0.01"/>
<rect x="136" y="186" width="46" height="46" rx="5" fill="white" fill-opacity="0.01"/>
<rect x="202" y="186" width="46" height="46" rx="5" fill="white" fill-opacity="0.01"/>
<rect x="268" y="186" width="46" height="46" rx="5" fill="white" fill-opacity="0.01"/>
<rect x="334" y="186" width="46" height="46" rx="5" fill="white" fill-opacity="0.01"/>
<rect x="4" y="242" width="46" height="46" rx="5" fill="white" fill-opacity="0.01"/>
<rect x="70" y="242" width="46" height="46" rx="5" fill="white" fill-opacity="0.01"/>
<rect x="136" y="242" width="46" height="46" rx="5" fill="white" fill-opacity="0.01"/>
<rect x="202" y="242" width="46" height="46" rx="5" fill="white" fill-opacity="0.01"/>
<rect x="268" y="242" width="46" height="46" rx="5" fill="white" fill-opacity="0.01"/>
<rect x="334" y="242" width="46" height="46" rx="5" fill="white" fill-opacity="0.01"/>
<rect x="4" y="298" width="46" height="46" rx="5" fill="white" fill-opacity="0.01"/>
<rect x="70" y="298" width="46" height="46" rx="5" fill="white" fill-opacity="0.01"/>
<rect x="136" y="298" width="46" height="46" rx="5" fill="white" fill-opacity="0.01"/>
<rect x="202" y="298" width="46" height="46" rx="5" fill="white" fill-opacity="0.01"/>
<rect x="268" y="298" width="46" height="46" rx="5" fill="white" fill-opacity="0.01"/>
<rect x="334" y="298" width="46" height="46" rx="5" fill="white" fill-opacity="0.01"/>
<rect x="4" y="354" width="46" height="46" rx="5" fill="white" fill-opacity="0.01"/>
<rect x="70" y="354" width="46" height="46" rx="5" fill="white" fill-opacity="0.01"/>
<rect x="136" y="354" width="46" height="46" rx="5" fill="white" fill-opacity="0.01"/>
<rect x="202" y="354" width="46" height="46" rx="5" fill="white" fill-opacity="0.01"/>
<rect x="268" y="354" width="46" height="46" rx="5" fill="white" fill-opacity="0.01"/>
<rect x="334" y="354" width="46" height="46" rx="5" fill="white" fill-opacity="0.01"/>
<g filter="url(#filter0_b_2687_1933)">
<path d="M192.5 176.816L78 215.859V313.447C78 391.515 123.8 420.805 192.5 450.079C261.2 420.805 307 391.515 307 313.447V215.859L192.5 176.816Z" fill="white" fill-opacity="0.01"/>
<path d="M78.5 313.447V216.217L192.5 177.345L306.5 216.217V313.447C306.5 352.368 295.09 379.078 275.153 399.714C255.23 420.336 226.759 434.928 192.5 449.535C158.241 434.928 129.77 420.336 109.847 399.714C89.9105 379.078 78.5 352.368 78.5 313.447Z" stroke="url(#paint0_linear_2687_1933)"/>
</g>
<g filter="url(#filter1_b_2687_1933)">
<path d="M192.5 209.97L106 239.539V313.448C106 372.572 140.6 394.755 192.5 416.926C244.4 394.755 279 372.572 279 313.448V239.539L192.5 209.97Z" fill="white" fill-opacity="0.01"/>
<path d="M106.5 313.448V239.896L192.5 210.498L278.5 239.896V313.448C278.5 342.897 269.889 363.095 254.852 378.698C239.829 394.287 218.359 405.326 192.5 416.382C166.641 405.326 145.171 394.287 130.148 378.698C115.111 363.095 106.5 342.897 106.5 313.448Z" stroke="url(#paint1_linear_2687_1933)"/>
</g>
<path d="M191.116 257.453C192.013 257.144 192.987 257.144 193.884 257.453L236.384 272.094C238.099 272.684 239.25 274.298 239.25 276.112V313.447C239.25 329.263 234.773 340.176 226.963 348.627C219.12 357.112 207.865 363.174 194.178 369.166C193.111 369.633 191.889 369.633 190.822 369.166C177.135 363.174 165.88 357.112 158.037 348.627C150.227 340.176 145.75 329.263 145.75 313.447V276.112C145.75 274.298 146.901 272.684 148.616 272.094L191.116 257.453Z" fill="white" fill-opacity="0.02" stroke="url(#paint2_linear_2687_1933)" stroke-width="1.5"/>
<path d="M199.667 308V305.334C199.667 301.6 196.733 298.667 193 298.667C189.267 298.667 186.333 301.6 186.333 305.334V308C184.067 308 182.333 309.734 182.333 312V321.334C182.333 323.6 184.067 325.334 186.333 325.334H199.667C201.933 325.334 203.667 323.6 203.667 321.334V312C203.667 309.734 201.933 308 199.667 308ZM189 305.334C189 303.067 190.733 301.334 193 301.334C195.267 301.334 197 303.067 197 305.334V308H189V305.334ZM194.467 316.667L194.333 316.8V318.667C194.333 319.467 193.8 320 193 320C192.2 320 191.667 319.467 191.667 318.667V316.8C190.867 316 190.733 314.8 191.533 314C192.333 313.2 193.533 313.067 194.333 313.867C195.133 314.534 195.267 315.867 194.467 316.667Z" fill="white"/>
</g>
<rect x="0.5" y="0.5" width="383" height="432" rx="11.5" stroke="url(#paint3_linear_2687_1933)"/>
<defs>
<filter id="filter0_b_2687_1933" x="34" y="132.816" width="317" height="361.262" filterUnits="userSpaceOnUse" color-interpolation-filters="sRGB">
<feFlood flood-opacity="0" result="BackgroundImageFix"/>
<feGaussianBlur in="BackgroundImageFix" stdDeviation="22"/>
<feComposite in2="SourceAlpha" operator="in" result="effect1_backgroundBlur_2687_1933"/>
<feBlend mode="normal" in="SourceGraphic" in2="effect1_backgroundBlur_2687_1933" result="shape"/>
</filter>
<filter id="filter1_b_2687_1933" x="62" y="165.97" width="261" height="294.956" filterUnits="userSpaceOnUse" color-interpolation-filters="sRGB">
<feFlood flood-opacity="0" result="BackgroundImageFix"/>
<feGaussianBlur in="BackgroundImageFix" stdDeviation="22"/>
<feComposite in2="SourceAlpha" operator="in" result="effect1_backgroundBlur_2687_1933"/>
<feBlend mode="normal" in="SourceGraphic" in2="effect1_backgroundBlur_2687_1933" result="shape"/>
</filter>
<linearGradient id="paint0_linear_2687_1933" x1="192.5" y1="55.3185" x2="192.5" y2="450.079" gradientUnits="userSpaceOnUse">
<stop offset="0.190557" stop-color="white" stop-opacity="0"/>
<stop offset="1" stop-color="white" stop-opacity="0.09"/>
</linearGradient>
<linearGradient id="paint1_linear_2687_1933" x1="192.5" y1="117.953" x2="192.5" y2="416.926" gradientUnits="userSpaceOnUse">
<stop offset="0.190557" stop-color="white" stop-opacity="0"/>
<stop offset="1" stop-color="white" stop-opacity="0.09"/>
</linearGradient>
<linearGradient id="paint2_linear_2687_1933" x1="192.5" y1="256.183" x2="192.5" y2="370.712" gradientUnits="userSpaceOnUse">
<stop stop-color="#375DFB"/>
<stop offset="0.465" stop-color="#E255F2"/>
<stop offset="0.975" stop-color="#FF385C"/>
</linearGradient>
<linearGradient id="paint3_linear_2687_1933" x1="192" y1="0" x2="192" y2="433" gradientUnits="userSpaceOnUse">
<stop stop-color="white" stop-opacity="0.1"/>
<stop offset="1" stop-color="white" stop-opacity="0"/>
</linearGradient>
<clipPath id="clip0_2687_1933">
<rect width="384" height="433" rx="12" fill="white"/>
</clipPath>
</defs>
</svg>
