<svg width="384" height="433" viewBox="0 0 384 433" fill="none" xmlns="http://www.w3.org/2000/svg">
<g clip-path="url(#clip0_2585_1594)">
<rect width="384" height="433" rx="12" fill="white" fill-opacity="0.02"/>
<path d="M33.44 57V40.2H37.04V57H33.44ZM46.4613 44.52C49.1253 44.52 51.4053 45.936 51.4053 50.16V57H48.0213V50.496C48.0213 48.408 47.2293 47.304 45.5253 47.304C43.7733 47.304 42.7653 48.552 42.7653 50.688V57H39.3813V44.664H42.3333L42.6453 46.2C43.4373 45.24 44.5653 44.52 46.4613 44.52ZM52.7216 52.896H55.9376C56.0576 53.976 56.9936 54.72 58.6496 54.72C60.0656 54.72 60.9296 54.264 60.9296 53.4C60.9296 52.392 60.0896 52.32 58.0976 52.056C55.2176 51.72 52.9856 51.072 52.9856 48.528C52.9856 46.08 55.1216 44.472 58.2896 44.496C61.6016 44.496 63.8816 45.96 64.0496 48.48H60.8096C60.7136 47.496 59.7776 46.896 58.4096 46.896C57.0896 46.896 56.2256 47.376 56.2256 48.168C56.2256 49.104 57.2816 49.2 59.0576 49.416C61.8896 49.704 64.2416 50.352 64.2416 53.136C64.2416 55.584 61.9376 57.144 58.6256 57.144C55.1936 57.144 52.8656 55.536 52.7216 52.896ZM66.6721 53.472V47.52H64.6321V44.664H66.6721V41.208H70.0561V44.664H72.8881V47.52H70.0561V52.92C70.0561 53.784 70.3921 54.144 71.2801 54.144H72.9601V57H70.2001C67.8481 57 66.6721 55.824 66.6721 53.472ZM85.976 54.144H86.36V57H84.632C82.88 57 82.328 56.16 82.352 54.984C81.488 56.352 80.24 57.144 78.32 57.144C75.656 57.144 73.736 55.872 73.736 53.52C73.736 50.904 75.704 49.416 79.4 49.416H81.848V48.816C81.848 47.712 81.056 46.992 79.64 46.992C78.32 46.992 77.432 47.592 77.288 48.504H74.024C74.264 46.104 76.472 44.52 79.736 44.52C83.192 44.52 85.184 46.056 85.184 49.008V53.376C85.184 54.024 85.448 54.144 85.976 54.144ZM81.848 51.912V51.672H79.376C77.96 51.672 77.144 52.248 77.144 53.28C77.144 54.144 77.84 54.696 78.968 54.696C80.744 54.696 81.824 53.592 81.848 51.912ZM94.5091 44.52C97.1731 44.52 99.4531 45.936 99.4531 50.16V57H96.0691V50.496C96.0691 48.408 95.2771 47.304 93.5731 47.304C91.8211 47.304 90.8131 48.552 90.8131 50.688V57H87.4291V44.664H90.3811L90.6931 46.2C91.4851 45.24 92.6131 44.52 94.5091 44.52ZM102.233 53.472V47.52H100.193V44.664H102.233V41.208H105.617V44.664H108.449V47.52H105.617V52.92C105.617 53.784 105.953 54.144 106.841 54.144H108.521V57H105.761C103.409 57 102.233 55.824 102.233 53.472ZM118.201 57H114.481L120.625 40.2H124.945L131.041 57H127.177L125.881 53.328H119.497L118.201 57ZM122.665 44.04L120.457 50.424H124.897L122.665 44.04ZM137.301 57.144C133.389 57.144 131.013 54.72 131.013 50.832C131.013 47.016 133.509 44.52 137.421 44.52C140.781 44.52 142.869 46.344 143.349 49.272H139.821C139.533 48.048 138.693 47.28 137.373 47.28C135.597 47.28 134.469 48.744 134.469 50.832C134.469 52.944 135.597 54.384 137.373 54.384C138.693 54.384 139.581 53.592 139.821 52.344H143.373C142.893 55.296 140.661 57.144 137.301 57.144ZM150.725 57.144C146.813 57.144 144.437 54.72 144.437 50.832C144.437 47.016 146.933 44.52 150.845 44.52C154.205 44.52 156.293 46.344 156.773 49.272H153.245C152.957 48.048 152.117 47.28 150.797 47.28C149.021 47.28 147.893 48.744 147.893 50.832C147.893 52.944 149.021 54.384 150.797 54.384C152.117 54.384 153.005 53.592 153.245 52.344H156.797C156.317 55.296 154.085 57.144 150.725 57.144ZM164.437 57.144C160.333 57.144 157.861 54.672 157.861 50.856C157.861 47.016 160.381 44.52 164.197 44.52C167.893 44.52 170.389 46.824 170.437 50.448C170.437 50.808 170.413 51.216 170.341 51.6H161.389V51.768C161.461 53.52 162.589 54.576 164.293 54.576C165.661 54.576 166.621 53.976 166.909 52.824H170.245C169.861 55.224 167.725 57.144 164.437 57.144ZM161.461 49.392H167.029C166.789 47.88 165.757 47.04 164.221 47.04C162.757 47.04 161.653 47.928 161.461 49.392ZM171.376 52.896H174.592C174.712 53.976 175.648 54.72 177.304 54.72C178.72 54.72 179.584 54.264 179.584 53.4C179.584 52.392 178.744 52.32 176.752 52.056C173.872 51.72 171.64 51.072 171.64 48.528C171.64 46.08 173.776 44.472 176.944 44.496C180.256 44.496 182.536 45.96 182.704 48.48H179.464C179.368 47.496 178.432 46.896 177.064 46.896C175.744 46.896 174.88 47.376 174.88 48.168C174.88 49.104 175.936 49.2 177.712 49.416C180.544 49.704 182.896 50.352 182.896 53.136C182.896 55.584 180.592 57.144 177.28 57.144C173.848 57.144 171.52 55.536 171.376 52.896ZM183.628 52.896H186.844C186.964 53.976 187.9 54.72 189.556 54.72C190.972 54.72 191.836 54.264 191.836 53.4C191.836 52.392 190.996 52.32 189.004 52.056C186.124 51.72 183.892 51.072 183.892 48.528C183.892 46.08 186.028 44.472 189.196 44.496C192.508 44.496 194.788 45.96 194.956 48.48H191.716C191.62 47.496 190.684 46.896 189.316 46.896C187.996 46.896 187.132 47.376 187.132 48.168C187.132 49.104 188.188 49.2 189.964 49.416C192.796 49.704 195.148 50.352 195.148 53.136C195.148 55.584 192.844 57.144 189.532 57.144C186.1 57.144 183.772 55.536 183.628 52.896Z" fill="#F7F8F8"/>
<path d="M33.024 82.4C32.976 79.2 35.44 76.528 38.752 76.576C42.064 76.528 44.528 79.2 44.48 82.4C44.528 85.6 42.064 88.272 38.752 88.224C35.44 88.272 32.976 85.6 33.024 82.4ZM43.008 82.4C43.008 79.824 41.264 77.888 38.752 77.888C36.24 77.888 34.496 79.824 34.496 82.4C34.496 84.976 36.24 86.912 38.752 86.912C41.264 86.912 43.008 84.976 43.008 82.4ZM54.892 83.952C54.892 86.448 53.26 88.224 51.052 88.224C49.692 88.224 48.54 87.552 48.044 86.512V91.2H46.7V79.904H48.044V81.392C48.54 80.352 49.692 79.68 51.052 79.68C53.26 79.68 54.892 81.456 54.892 83.952ZM53.484 83.952C53.484 83.072 53.228 82.336 52.716 81.776C52.22 81.216 51.548 80.928 50.732 80.928C49.916 80.928 49.244 81.216 48.732 81.776C48.236 82.336 47.98 83.072 47.98 83.952C47.98 84.832 48.236 85.568 48.732 86.128C49.244 86.688 49.916 86.976 50.732 86.976C51.548 86.976 52.22 86.688 52.716 86.128C53.228 85.568 53.484 84.832 53.484 83.952ZM64.24 84.368H57.76C57.904 85.984 58.992 86.976 60.576 86.976C61.616 86.976 62.48 86.56 63.152 85.712L64.064 86.48C63.28 87.584 62.032 88.224 60.544 88.224C58.096 88.224 56.384 86.48 56.384 83.968C56.384 81.488 58.048 79.68 60.432 79.68C62.688 79.68 64.288 81.296 64.288 83.648C64.288 83.888 64.272 84.128 64.24 84.368ZM57.792 83.28H62.912C62.784 81.792 61.84 80.928 60.432 80.928C59.008 80.928 58.032 81.824 57.792 83.28ZM73.3537 82.816V88H72.0097V83.136C72.0097 81.6 71.4337 80.928 70.1537 80.928C68.6977 80.928 67.6577 81.824 67.6577 83.184V88H66.3137V79.904H67.6577V81.28C68.1057 80.256 69.1457 79.68 70.4737 79.68C72.3137 79.68 73.3537 80.816 73.3537 82.816ZM84.9006 79.904H86.2446V87.216C86.2446 89.952 84.7886 91.424 82.2926 91.424C80.9326 91.424 79.6846 90.976 78.9326 90.208L79.7166 89.248C80.3726 89.84 81.3006 90.176 82.2606 90.176C83.9406 90.176 84.9006 89.184 84.9006 87.216V86.4C84.4366 87.424 83.3806 88 82.0526 88C80.2446 88 79.1726 86.896 79.1726 84.864V79.904H80.5166V84.544C80.5166 86.08 81.1086 86.752 82.3726 86.752C83.8446 86.752 84.9006 85.84 84.9006 84.496V79.904ZM88.3146 83.952C88.2826 81.664 90.0266 79.632 92.4746 79.68C94.9226 79.632 96.6666 81.664 96.6346 83.952C96.6666 86.24 94.9226 88.272 92.4746 88.224C90.0266 88.272 88.2826 86.24 88.3146 83.952ZM95.2266 83.952C95.2266 83.072 94.9706 82.336 94.4586 81.776C93.9626 81.216 93.2906 80.928 92.4746 80.928C91.6586 80.928 90.9866 81.216 90.4746 81.776C89.9786 82.336 89.7226 83.072 89.7226 83.952C89.7226 84.832 89.9786 85.568 90.4746 86.128C90.9866 86.688 91.6586 86.976 92.4746 86.976C93.2906 86.976 93.9626 86.688 94.4586 86.128C94.9706 85.568 95.2266 84.832 95.2266 83.952ZM98.5375 84.976V79.904H99.8815V84.896C99.8815 86.24 100.665 86.976 102.025 86.976C103.385 86.976 104.169 86.24 104.169 84.896V79.904H105.514V84.976C105.514 86.896 104.122 88.224 102.025 88.224C99.9295 88.224 98.5375 86.896 98.5375 84.976ZM112.533 79.888V81.072C112.293 81.04 112.069 81.024 111.829 81.024C110.245 81.024 109.333 81.952 109.333 83.856V88H107.989V79.904H109.333V81.424C109.701 80.384 110.597 79.776 111.797 79.776C112.069 79.776 112.325 79.808 112.533 79.888ZM123.937 79.904H125.281V88H123.937V86.512C123.473 87.552 122.305 88.224 120.945 88.224C118.721 88.224 117.089 86.448 117.089 83.952C117.089 81.456 118.721 79.68 120.945 79.68C122.305 79.68 123.473 80.352 123.937 81.392V79.904ZM124.001 83.952C124.001 83.072 123.745 82.336 123.233 81.776C122.737 81.216 122.065 80.928 121.249 80.928C120.433 80.928 119.761 81.216 119.249 81.776C118.753 82.336 118.497 83.072 118.497 83.952C118.497 84.832 118.753 85.568 119.249 86.128C119.761 86.688 120.433 86.976 121.249 86.976C122.065 86.976 122.737 86.688 123.233 86.128C123.745 85.568 124.001 84.832 124.001 83.952ZM127.349 83.952C127.349 81.488 129.045 79.68 131.509 79.68C132.997 79.68 134.213 80.304 134.901 81.44L133.845 82.176C133.349 81.36 132.533 80.928 131.525 80.928C130.709 80.928 130.037 81.2 129.525 81.76C129.013 82.32 128.757 83.04 128.757 83.952C128.757 84.864 129.013 85.584 129.525 86.144C130.037 86.704 130.709 86.976 131.525 86.976C132.533 86.976 133.349 86.544 133.845 85.728L134.901 86.464C134.213 87.6 132.997 88.224 131.509 88.224C129.045 88.224 127.349 86.416 127.349 83.952ZM136.062 83.952C136.062 81.488 137.758 79.68 140.222 79.68C141.71 79.68 142.926 80.304 143.614 81.44L142.558 82.176C142.062 81.36 141.246 80.928 140.238 80.928C139.422 80.928 138.75 81.2 138.238 81.76C137.726 82.32 137.47 83.04 137.47 83.952C137.47 84.864 137.726 85.584 138.238 86.144C138.75 86.704 139.422 86.976 140.238 86.976C141.246 86.976 142.062 86.544 142.558 85.728L143.614 86.464C142.926 87.6 141.71 88.224 140.222 88.224C137.758 88.224 136.062 86.416 136.062 83.952ZM144.775 83.952C144.743 81.664 146.487 79.632 148.935 79.68C151.383 79.632 153.127 81.664 153.095 83.952C153.127 86.24 151.383 88.272 148.935 88.224C146.487 88.272 144.743 86.24 144.775 83.952ZM151.687 83.952C151.687 83.072 151.431 82.336 150.919 81.776C150.423 81.216 149.751 80.928 148.935 80.928C148.119 80.928 147.447 81.216 146.935 81.776C146.439 82.336 146.183 83.072 146.183 83.952C146.183 84.832 146.439 85.568 146.935 86.128C147.447 86.688 148.119 86.976 148.935 86.976C149.751 86.976 150.423 86.688 150.919 86.128C151.431 85.568 151.687 84.832 151.687 83.952ZM154.998 84.976V79.904H156.342V84.896C156.342 86.24 157.126 86.976 158.486 86.976C159.846 86.976 160.63 86.24 160.63 84.896V79.904H161.974V84.976C161.974 86.896 160.582 88.224 158.486 88.224C156.39 88.224 154.998 86.896 154.998 84.976ZM171.489 82.816V88H170.145V83.136C170.145 81.6 169.569 80.928 168.289 80.928C166.833 80.928 165.793 81.824 165.793 83.184V88H164.449V79.904H165.793V81.28C166.241 80.256 167.281 79.68 168.609 79.68C170.449 79.68 171.489 80.816 171.489 82.816ZM174.567 85.92V81.056H172.951V79.904H174.567V77.504H175.911V79.904H178.455V81.056H175.911V85.824C175.911 86.608 176.311 86.944 177.223 86.944C177.591 86.944 178.023 86.896 178.487 86.8V87.92C178.023 88.064 177.543 88.128 177.031 88.128C175.431 88.128 174.567 87.376 174.567 85.92ZM183.505 77.28C183.505 76.752 183.905 76.352 184.433 76.352C184.961 76.352 185.361 76.752 185.361 77.28C185.361 77.808 184.961 78.208 184.433 78.208C183.905 78.208 183.505 77.808 183.505 77.28ZM183.761 88V79.904H185.105V88H183.761ZM194.795 82.816V88H193.451V83.136C193.451 81.6 192.875 80.928 191.595 80.928C190.139 80.928 189.099 81.824 189.099 83.184V88H187.755V79.904H189.099V81.28C189.547 80.256 190.587 79.68 191.915 79.68C193.755 79.68 194.795 80.816 194.795 82.816ZM196.606 86.464L197.582 85.744C198.158 86.576 199.102 87.008 200.206 87.008C201.358 87.008 202.062 86.528 202.062 85.776C202.062 85.2 201.662 84.864 200.638 84.624L199.358 84.336C197.694 83.952 196.894 83.216 196.894 82.08C196.894 80.656 198.11 79.68 200.078 79.68C201.486 79.68 202.622 80.176 203.278 81.056L202.35 81.856C201.822 81.232 201.006 80.896 199.998 80.896C198.846 80.896 198.238 81.328 198.238 82.048C198.238 82.576 198.606 82.88 199.694 83.136L201.118 83.456C202.718 83.824 203.406 84.544 203.406 85.68C203.406 87.216 202.206 88.224 200.222 88.224C198.574 88.224 197.246 87.552 196.606 86.464ZM205.898 85.92V81.056H204.282V79.904H205.898V77.504H207.242V79.904H209.786V81.056H207.242V85.824C207.242 86.608 207.642 86.944 208.554 86.944C208.922 86.944 209.354 86.896 209.818 86.8V87.92C209.354 88.064 208.874 88.128 208.362 88.128C206.762 88.128 205.898 87.376 205.898 85.92ZM217.745 79.904H219.089V88H217.745V86.512C217.281 87.552 216.113 88.224 214.753 88.224C212.529 88.224 210.897 86.448 210.897 83.952C210.897 81.456 212.529 79.68 214.753 79.68C216.113 79.68 217.281 80.352 217.745 81.392V79.904ZM217.809 83.952C217.809 83.072 217.553 82.336 217.041 81.776C216.545 81.216 215.873 80.928 215.057 80.928C214.241 80.928 213.569 81.216 213.057 81.776C212.561 82.336 212.305 83.072 212.305 83.952C212.305 84.832 212.561 85.568 213.057 86.128C213.569 86.688 214.241 86.976 215.057 86.976C215.873 86.976 216.545 86.688 217.041 86.128C217.553 85.568 217.809 84.832 217.809 83.952ZM228.772 82.816V88H227.428V83.136C227.428 81.6 226.852 80.928 225.572 80.928C224.116 80.928 223.076 81.824 223.076 83.184V88H221.732V79.904H223.076V81.28C223.524 80.256 224.564 79.68 225.892 79.68C227.732 79.68 228.772 80.816 228.772 82.816ZM231.85 85.92V81.056H230.234V79.904H231.85V77.504H233.194V79.904H235.738V81.056H233.194V85.824C233.194 86.608 233.594 86.944 234.506 86.944C234.874 86.944 235.306 86.896 235.77 86.8V87.92C235.306 88.064 234.826 88.128 234.314 88.128C232.714 88.128 231.85 87.376 231.85 85.92ZM237.581 88V76.288H238.925V88H237.581ZM247.079 79.904H248.423V87.216C248.423 89.952 246.967 91.424 244.471 91.424C243.111 91.424 241.863 90.976 241.111 90.208L241.895 89.248C242.551 89.84 243.479 90.176 244.439 90.176C246.119 90.176 247.079 89.184 247.079 87.216V86.4C246.615 87.424 245.559 88 244.231 88C242.423 88 241.351 86.896 241.351 84.864V79.904H242.695V84.544C242.695 86.08 243.287 86.752 244.551 86.752C246.023 86.752 247.079 85.84 247.079 84.496V79.904ZM260.789 79.904H262.133V88H260.789V86.512C260.325 87.552 259.157 88.224 257.797 88.224C255.573 88.224 253.941 86.448 253.941 83.952C253.941 81.456 255.573 79.68 257.797 79.68C259.157 79.68 260.325 80.352 260.789 81.392V79.904ZM260.853 83.952C260.853 83.072 260.597 82.336 260.085 81.776C259.589 81.216 258.917 80.928 258.101 80.928C257.285 80.928 256.613 81.216 256.101 81.776C255.605 82.336 255.349 83.072 255.349 83.952C255.349 84.832 255.605 85.568 256.101 86.128C256.613 86.688 257.285 86.976 258.101 86.976C258.917 86.976 259.589 86.688 260.085 86.128C260.597 85.568 260.853 84.832 260.853 83.952ZM271.817 82.816V88H270.473V83.136C270.473 81.6 269.897 80.928 268.617 80.928C267.161 80.928 266.121 81.824 266.121 83.184V88H264.777V79.904H266.121V81.28C266.569 80.256 267.609 79.68 268.937 79.68C270.777 79.68 271.817 80.816 271.817 82.816ZM280.668 76.288H282.012V88H280.668V86.512C280.172 87.552 279.02 88.224 277.66 88.224C275.452 88.224 273.82 86.448 273.82 83.952C273.82 81.456 275.452 79.68 277.66 79.68C279.02 79.68 280.172 80.352 280.668 81.392V76.288ZM280.732 83.952C280.732 83.072 280.476 82.336 279.964 81.776C279.468 81.216 278.796 80.928 277.98 80.928C277.164 80.928 276.492 81.216 275.98 81.776C275.484 82.336 275.228 83.072 275.228 83.952C275.228 84.832 275.484 85.568 275.98 86.128C276.492 86.688 277.164 86.976 277.98 86.976C278.796 86.976 279.468 86.688 279.964 86.128C280.476 85.568 280.732 84.832 280.732 83.952ZM294.376 79.904H295.72V87.072C295.72 89.888 294.2 91.424 291.512 91.424C289.992 91.424 288.664 90.928 287.832 90.08L288.6 89.088C289.352 89.776 290.376 90.176 291.512 90.176C293.368 90.176 294.376 89.12 294.376 87.072V86.336C293.912 87.36 292.776 88 291.384 88C289.16 88 287.528 86.288 287.528 83.84C287.528 81.392 289.16 79.68 291.384 79.68C292.744 79.68 293.912 80.336 294.376 81.376V79.904ZM294.44 83.84C294.44 82.992 294.184 82.288 293.672 81.744C293.176 81.2 292.504 80.928 291.688 80.928C290.872 80.928 290.2 81.2 289.688 81.744C289.192 82.288 288.936 82.992 288.936 83.84C288.936 84.688 289.192 85.392 289.688 85.936C290.2 86.48 290.872 86.752 291.688 86.752C292.504 86.752 293.176 86.48 293.672 85.936C294.184 85.392 294.44 84.688 294.44 83.84ZM304.636 79.904H305.98V88H304.636V86.512C304.172 87.552 303.004 88.224 301.644 88.224C299.42 88.224 297.788 86.448 297.788 83.952C297.788 81.456 299.42 79.68 301.644 79.68C303.004 79.68 304.172 80.352 304.636 81.392V79.904ZM304.7 83.952C304.7 83.072 304.444 82.336 303.932 81.776C303.436 81.216 302.764 80.928 301.948 80.928C301.132 80.928 300.46 81.216 299.948 81.776C299.452 82.336 299.196 83.072 299.196 83.952C299.196 84.832 299.452 85.568 299.948 86.128C300.46 86.688 301.132 86.976 301.948 86.976C302.764 86.976 303.436 86.688 303.932 86.128C304.444 85.568 304.7 84.832 304.7 83.952ZM308.384 77.28C308.384 76.752 308.784 76.352 309.312 76.352C309.84 76.352 310.24 76.752 310.24 77.28C310.24 77.808 309.84 78.208 309.312 78.208C308.784 78.208 308.384 77.808 308.384 77.28ZM308.64 88V79.904H309.984V88H308.64ZM319.674 82.816V88H318.33V83.136C318.33 81.6 317.754 80.928 316.474 80.928C315.018 80.928 313.978 81.824 313.978 83.184V88H312.634V79.904H313.978V81.28C314.426 80.256 315.466 79.68 316.794 79.68C318.634 79.68 319.674 80.816 319.674 82.816ZM33.2 101.28C33.2 100.752 33.6 100.352 34.128 100.352C34.656 100.352 35.056 100.752 35.056 101.28C35.056 101.808 34.656 102.208 34.128 102.208C33.6 102.208 33.2 101.808 33.2 101.28ZM33.456 112V103.904H34.8V112H33.456ZM49.61 106.784V112H48.266V107.104C48.266 105.584 47.754 104.928 46.554 104.928C45.162 104.928 44.202 105.824 44.202 107.184V112H42.858V107.104C42.858 105.584 42.346 104.928 41.146 104.928C39.754 104.928 38.794 105.824 38.794 107.184V112H37.45V103.904H38.794V105.264C39.242 104.256 40.234 103.68 41.466 103.68C42.698 103.68 43.594 104.272 43.978 105.36C44.41 104.336 45.482 103.68 46.842 103.68C48.634 103.68 49.61 104.8 49.61 106.784ZM64.3388 106.784V112H62.9948V107.104C62.9948 105.584 62.4828 104.928 61.2828 104.928C59.8908 104.928 58.9308 105.824 58.9308 107.184V112H57.5868V107.104C57.5868 105.584 57.0748 104.928 55.8748 104.928C54.4828 104.928 53.5228 105.824 53.5228 107.184V112H52.1788V103.904H53.5228V105.264C53.9708 104.256 54.9628 103.68 56.1948 103.68C57.4268 103.68 58.3228 104.272 58.7068 105.36C59.1388 104.336 60.2108 103.68 61.5708 103.68C63.3628 103.68 64.3388 104.8 64.3388 106.784ZM74.1875 108.368H67.7075C67.8515 109.984 68.9395 110.976 70.5235 110.976C71.5635 110.976 72.4275 110.56 73.0995 109.712L74.0115 110.48C73.2275 111.584 71.9795 112.224 70.4915 112.224C68.0435 112.224 66.3315 110.48 66.3315 107.968C66.3315 105.488 67.9955 103.68 70.3795 103.68C72.6355 103.68 74.2355 105.296 74.2355 107.648C74.2355 107.888 74.2195 108.128 74.1875 108.368ZM67.7395 107.28H72.8595C72.7315 105.792 71.7875 104.928 70.3795 104.928C68.9555 104.928 67.9795 105.824 67.7395 107.28ZM82.5333 100.288H83.8773V112H82.5333V110.512C82.0373 111.552 80.8853 112.224 79.5253 112.224C77.3173 112.224 75.6853 110.448 75.6853 107.952C75.6853 105.456 77.3173 103.68 79.5253 103.68C80.8853 103.68 82.0373 104.352 82.5333 105.392V100.288ZM82.5973 107.952C82.5973 107.072 82.3413 106.336 81.8293 105.776C81.3333 105.216 80.6613 104.928 79.8453 104.928C79.0293 104.928 78.3573 105.216 77.8453 105.776C77.3493 106.336 77.0933 107.072 77.0933 107.952C77.0933 108.832 77.3493 109.568 77.8453 110.128C78.3573 110.688 79.0293 110.976 79.8453 110.976C80.6613 110.976 81.3333 110.688 81.8293 110.128C82.3413 109.568 82.5973 108.832 82.5973 107.952ZM86.2812 101.28C86.2812 100.752 86.6812 100.352 87.2092 100.352C87.7372 100.352 88.1372 100.752 88.1372 101.28C88.1372 101.808 87.7372 102.208 87.2092 102.208C86.6812 102.208 86.2812 101.808 86.2812 101.28ZM86.5372 112V103.904H87.8812V112H86.5372ZM96.8033 103.904H98.1473V112H96.8033V110.512C96.3393 111.552 95.1713 112.224 93.8113 112.224C91.5873 112.224 89.9553 110.448 89.9553 107.952C89.9553 105.456 91.5873 103.68 93.8113 103.68C95.1713 103.68 96.3393 104.352 96.8033 105.392V103.904ZM96.8673 107.952C96.8673 107.072 96.6113 106.336 96.0993 105.776C95.6033 105.216 94.9313 104.928 94.1153 104.928C93.2993 104.928 92.6273 105.216 92.1153 105.776C91.6193 106.336 91.3633 107.072 91.3633 107.952C91.3633 108.832 91.6193 109.568 92.1153 110.128C92.6273 110.688 93.2993 110.976 94.1153 110.976C94.9313 110.976 95.6033 110.688 96.0993 110.128C96.6113 109.568 96.8673 108.832 96.8673 107.952ZM101.383 109.92V105.056H99.7672V103.904H101.383V101.504H102.727V103.904H105.271V105.056H102.727V109.824C102.727 110.608 103.127 110.944 104.039 110.944C104.407 110.944 104.839 110.896 105.303 110.8V111.92C104.839 112.064 104.359 112.128 103.847 112.128C102.247 112.128 101.383 111.376 101.383 109.92ZM114.238 108.368H107.758C107.902 109.984 108.99 110.976 110.574 110.976C111.614 110.976 112.478 110.56 113.15 109.712L114.062 110.48C113.278 111.584 112.03 112.224 110.542 112.224C108.094 112.224 106.382 110.48 106.382 107.968C106.382 105.488 108.046 103.68 110.43 103.68C112.686 103.68 114.286 105.296 114.286 107.648C114.286 107.888 114.27 108.128 114.238 108.368ZM107.79 107.28H112.91C112.782 105.792 111.838 104.928 110.43 104.928C109.006 104.928 108.03 105.824 107.79 107.28ZM126.031 103.904H127.375V112H126.031V110.512C125.567 111.552 124.399 112.224 123.039 112.224C120.815 112.224 119.183 110.448 119.183 107.952C119.183 105.456 120.815 103.68 123.039 103.68C124.399 103.68 125.567 104.352 126.031 105.392V103.904ZM126.095 107.952C126.095 107.072 125.839 106.336 125.327 105.776C124.831 105.216 124.159 104.928 123.343 104.928C122.527 104.928 121.855 105.216 121.343 105.776C120.847 106.336 120.591 107.072 120.591 107.952C120.591 108.832 120.847 109.568 121.343 110.128C121.855 110.688 122.527 110.976 123.343 110.976C124.159 110.976 124.831 110.688 125.327 110.128C125.839 109.568 126.095 108.832 126.095 107.952ZM129.443 107.952C129.443 105.488 131.139 103.68 133.603 103.68C135.091 103.68 136.307 104.304 136.995 105.44L135.939 106.176C135.443 105.36 134.627 104.928 133.619 104.928C132.803 104.928 132.131 105.2 131.619 105.76C131.107 106.32 130.851 107.04 130.851 107.952C130.851 108.864 131.107 109.584 131.619 110.144C132.131 110.704 132.803 110.976 133.619 110.976C134.627 110.976 135.443 110.544 135.939 109.728L136.995 110.464C136.307 111.6 135.091 112.224 133.603 112.224C131.139 112.224 129.443 110.416 129.443 107.952ZM138.156 107.952C138.156 105.488 139.852 103.68 142.316 103.68C143.804 103.68 145.02 104.304 145.708 105.44L144.652 106.176C144.156 105.36 143.34 104.928 142.332 104.928C141.516 104.928 140.844 105.2 140.332 105.76C139.82 106.32 139.564 107.04 139.564 107.952C139.564 108.864 139.82 109.584 140.332 110.144C140.844 110.704 141.516 110.976 142.332 110.976C143.34 110.976 144.156 110.544 144.652 109.728L145.708 110.464C145.02 111.6 143.804 112.224 142.316 112.224C139.852 112.224 138.156 110.416 138.156 107.952ZM154.725 108.368H148.245C148.389 109.984 149.477 110.976 151.061 110.976C152.101 110.976 152.965 110.56 153.637 109.712L154.549 110.48C153.765 111.584 152.517 112.224 151.029 112.224C148.581 112.224 146.869 110.48 146.869 107.968C146.869 105.488 148.533 103.68 150.917 103.68C153.173 103.68 154.773 105.296 154.773 107.648C154.773 107.888 154.757 108.128 154.725 108.368ZM148.277 107.28H153.397C153.269 105.792 152.325 104.928 150.917 104.928C149.493 104.928 148.517 105.824 148.277 107.28ZM156.031 110.464L157.007 109.744C157.583 110.576 158.527 111.008 159.631 111.008C160.783 111.008 161.487 110.528 161.487 109.776C161.487 109.2 161.087 108.864 160.063 108.624L158.783 108.336C157.119 107.952 156.319 107.216 156.319 106.08C156.319 104.656 157.535 103.68 159.503 103.68C160.911 103.68 162.047 104.176 162.703 105.056L161.775 105.856C161.247 105.232 160.431 104.896 159.423 104.896C158.271 104.896 157.663 105.328 157.663 106.048C157.663 106.576 158.031 106.88 159.119 107.136L160.543 107.456C162.143 107.824 162.831 108.544 162.831 109.68C162.831 111.216 161.631 112.224 159.647 112.224C157.999 112.224 156.671 111.552 156.031 110.464ZM163.978 110.464L164.954 109.744C165.53 110.576 166.474 111.008 167.578 111.008C168.73 111.008 169.434 110.528 169.434 109.776C169.434 109.2 169.034 108.864 168.01 108.624L166.73 108.336C165.066 107.952 164.266 107.216 164.266 106.08C164.266 104.656 165.482 103.68 167.45 103.68C168.858 103.68 169.994 104.176 170.65 105.056L169.722 105.856C169.194 105.232 168.378 104.896 167.37 104.896C166.218 104.896 165.61 105.328 165.61 106.048C165.61 106.576 165.978 106.88 167.066 107.136L168.49 107.456C170.09 107.824 170.778 108.544 170.778 109.68C170.778 111.216 169.578 112.224 167.594 112.224C165.946 112.224 164.618 111.552 163.978 110.464ZM176.514 109.92V105.056H174.898V103.904H176.514V101.504H177.858V103.904H180.402V105.056H177.858V109.824C177.858 110.608 178.258 110.944 179.17 110.944C179.538 110.944 179.97 110.896 180.434 110.8V111.92C179.97 112.064 179.49 112.128 178.978 112.128C177.378 112.128 176.514 111.376 176.514 109.92ZM181.513 107.952C181.481 105.664 183.225 103.632 185.673 103.68C188.121 103.632 189.865 105.664 189.833 107.952C189.865 110.24 188.121 112.272 185.673 112.224C183.225 112.272 181.481 110.24 181.513 107.952ZM188.425 107.952C188.425 107.072 188.169 106.336 187.657 105.776C187.161 105.216 186.489 104.928 185.673 104.928C184.857 104.928 184.185 105.216 183.673 105.776C183.177 106.336 182.921 107.072 182.921 107.952C182.921 108.832 183.177 109.568 183.673 110.128C184.185 110.688 184.857 110.976 185.673 110.976C186.489 110.976 187.161 110.688 187.657 110.128C188.169 109.568 188.425 108.832 188.425 107.952ZM201.615 103.904H202.959V112H201.615V110.512C201.151 111.552 199.983 112.224 198.623 112.224C196.399 112.224 194.767 110.448 194.767 107.952C194.767 105.456 196.399 103.68 198.623 103.68C199.983 103.68 201.151 104.352 201.615 105.392V103.904ZM201.679 107.952C201.679 107.072 201.423 106.336 200.911 105.776C200.415 105.216 199.743 104.928 198.927 104.928C198.111 104.928 197.439 105.216 196.927 105.776C196.431 106.336 196.175 107.072 196.175 107.952C196.175 108.832 196.431 109.568 196.927 110.128C197.439 110.688 198.111 110.976 198.927 110.976C199.743 110.976 200.415 110.688 200.911 110.128C201.423 109.568 201.679 108.832 201.679 107.952ZM219.054 103.904H220.414L217.758 112H216.286L214.11 105.44L211.934 112H210.462L207.806 103.904H209.166L211.23 110.352L213.374 103.904H214.846L216.99 110.352L219.054 103.904ZM221.727 101.28C221.727 100.752 222.127 100.352 222.655 100.352C223.183 100.352 223.583 100.752 223.583 101.28C223.583 101.808 223.183 102.208 222.655 102.208C222.127 102.208 221.727 101.808 221.727 101.28ZM221.983 112V103.904H223.327V112H221.983ZM232.249 100.288H233.593V112H232.249V110.512C231.753 111.552 230.601 112.224 229.241 112.224C227.033 112.224 225.401 110.448 225.401 107.952C225.401 105.456 227.033 103.68 229.241 103.68C230.601 103.68 231.753 104.352 232.249 105.392V100.288ZM232.313 107.952C232.313 107.072 232.057 106.336 231.545 105.776C231.049 105.216 230.377 104.928 229.561 104.928C228.745 104.928 228.073 105.216 227.561 105.776C227.065 106.336 226.809 107.072 226.809 107.952C226.809 108.832 227.065 109.568 227.561 110.128C228.073 110.688 228.745 110.976 229.561 110.976C230.377 110.976 231.049 110.688 231.545 110.128C232.057 109.568 232.313 108.832 232.313 107.952ZM243.517 108.368H237.037C237.181 109.984 238.269 110.976 239.853 110.976C240.893 110.976 241.757 110.56 242.429 109.712L243.341 110.48C242.557 111.584 241.309 112.224 239.821 112.224C237.373 112.224 235.661 110.48 235.661 107.968C235.661 105.488 237.325 103.68 239.709 103.68C241.965 103.68 243.565 105.296 243.565 107.648C243.565 107.888 243.549 108.128 243.517 108.368ZM237.069 107.28H242.189C242.061 105.792 241.117 104.928 239.709 104.928C238.285 104.928 237.309 105.824 237.069 107.28ZM253.582 103.888V105.072C253.342 105.04 253.118 105.024 252.878 105.024C251.294 105.024 250.382 105.952 250.382 107.856V112H249.038V103.904H250.382V105.424C250.75 104.384 251.646 103.776 252.846 103.776C253.118 103.776 253.374 103.808 253.582 103.888ZM261.133 103.904H262.477V112H261.133V110.512C260.669 111.552 259.501 112.224 258.141 112.224C255.917 112.224 254.285 110.448 254.285 107.952C254.285 105.456 255.917 103.68 258.141 103.68C259.501 103.68 260.669 104.352 261.133 105.392V103.904ZM261.197 107.952C261.197 107.072 260.941 106.336 260.429 105.776C259.933 105.216 259.261 104.928 258.445 104.928C257.629 104.928 256.957 105.216 256.445 105.776C255.949 106.336 255.693 107.072 255.693 107.952C255.693 108.832 255.949 109.568 256.445 110.128C256.957 110.688 257.629 110.976 258.445 110.976C259.261 110.976 259.933 110.688 260.429 110.128C260.941 109.568 261.197 108.832 261.197 107.952ZM272.161 106.816V112H270.817V107.136C270.817 105.6 270.241 104.928 268.961 104.928C267.505 104.928 266.465 105.824 266.465 107.184V112H265.121V103.904H266.465V105.28C266.913 104.256 267.953 103.68 269.281 103.68C271.121 103.68 272.161 104.816 272.161 106.816ZM281.012 103.904H282.356V111.072C282.356 113.888 280.836 115.424 278.148 115.424C276.628 115.424 275.3 114.928 274.468 114.08L275.236 113.088C275.988 113.776 277.012 114.176 278.148 114.176C280.004 114.176 281.012 113.12 281.012 111.072V110.336C280.548 111.36 279.412 112 278.02 112C275.796 112 274.164 110.288 274.164 107.84C274.164 105.392 275.796 103.68 278.02 103.68C279.38 103.68 280.548 104.336 281.012 105.376V103.904ZM281.076 107.84C281.076 106.992 280.82 106.288 280.308 105.744C279.812 105.2 279.14 104.928 278.324 104.928C277.508 104.928 276.836 105.2 276.324 105.744C275.828 106.288 275.572 106.992 275.572 107.84C275.572 108.688 275.828 109.392 276.324 109.936C276.836 110.48 277.508 110.752 278.324 110.752C279.14 110.752 279.812 110.48 280.308 109.936C280.82 109.392 281.076 108.688 281.076 107.84ZM292.28 108.368H285.8C285.944 109.984 287.032 110.976 288.616 110.976C289.656 110.976 290.52 110.56 291.192 109.712L292.104 110.48C291.32 111.584 290.072 112.224 288.584 112.224C286.136 112.224 284.424 110.48 284.424 107.968C284.424 105.488 286.088 103.68 288.472 103.68C290.728 103.68 292.328 105.296 292.328 107.648C292.328 107.888 292.312 108.128 292.28 108.368ZM285.832 107.28H290.952C290.824 105.792 289.88 104.928 288.472 104.928C287.048 104.928 286.072 105.824 285.832 107.28ZM297.225 107.952C297.193 105.664 298.937 103.632 301.385 103.68C303.833 103.632 305.577 105.664 305.545 107.952C305.577 110.24 303.833 112.272 301.385 112.224C298.937 112.272 297.193 110.24 297.225 107.952ZM304.137 107.952C304.137 107.072 303.881 106.336 303.369 105.776C302.873 105.216 302.201 104.928 301.385 104.928C300.569 104.928 299.897 105.216 299.385 105.776C298.889 106.336 298.633 107.072 298.633 107.952C298.633 108.832 298.889 109.568 299.385 110.128C299.897 110.688 300.569 110.976 301.385 110.976C302.201 110.976 302.873 110.688 303.369 110.128C303.881 109.568 304.137 108.832 304.137 107.952ZM308.092 112V105.056H306.428V103.904H308.092V102.672C308.092 100.928 308.892 100.144 310.604 100.144C311.004 100.144 311.42 100.192 311.836 100.288V101.424C311.452 101.344 311.1 101.312 310.78 101.312C309.836 101.312 309.436 101.728 309.436 102.704V103.904H311.804V105.056H309.436V112H308.092ZM41.632 131.952C41.632 134.448 40 136.224 37.792 136.224C36.432 136.224 35.28 135.552 34.784 134.512V136H33.44V124.288H34.784V129.392C35.28 128.352 36.432 127.68 37.792 127.68C40 127.68 41.632 129.456 41.632 131.952ZM40.224 131.952C40.224 131.072 39.968 130.336 39.456 129.776C38.96 129.216 38.288 128.928 37.472 128.928C36.656 128.928 35.984 129.216 35.472 129.776C34.976 130.336 34.72 131.072 34.72 131.952C34.72 132.832 34.976 133.568 35.472 134.128C35.984 134.688 36.656 134.976 37.472 134.976C38.288 134.976 38.96 134.688 39.456 134.128C39.968 133.568 40.224 132.832 40.224 131.952ZM49.972 127.904H51.316V136H49.972V134.512C49.508 135.552 48.34 136.224 46.98 136.224C44.756 136.224 43.124 134.448 43.124 131.952C43.124 129.456 44.756 127.68 46.98 127.68C48.34 127.68 49.508 128.352 49.972 129.392V127.904ZM50.036 131.952C50.036 131.072 49.78 130.336 49.268 129.776C48.772 129.216 48.1 128.928 47.284 128.928C46.468 128.928 45.796 129.216 45.284 129.776C44.788 130.336 44.532 131.072 44.532 131.952C44.532 132.832 44.788 133.568 45.284 134.128C45.796 134.688 46.468 134.976 47.284 134.976C48.1 134.976 48.772 134.688 49.268 134.128C49.78 133.568 50.036 132.832 50.036 131.952ZM61 130.816V136H59.656V131.136C59.656 129.6 59.08 128.928 57.8 128.928C56.344 128.928 55.304 129.824 55.304 131.184V136H53.96V127.904H55.304V129.28C55.752 128.256 56.792 127.68 58.12 127.68C59.96 127.68 61 128.816 61 130.816ZM69.1474 136L66.2194 132.336H64.9234V136H63.5794V124.288H64.9234V131.152H66.2674L69.0834 127.904H70.6514L67.3234 131.744L70.7154 136H69.1474ZM71.9275 125.28C71.9275 124.752 72.3275 124.352 72.8555 124.352C73.3835 124.352 73.7835 124.752 73.7835 125.28C73.7835 125.808 73.3835 126.208 72.8555 126.208C72.3275 126.208 71.9275 125.808 71.9275 125.28ZM72.1835 136V127.904H73.5275V136H72.1835ZM83.2175 130.816V136H81.8735V131.136C81.8735 129.6 81.2975 128.928 80.0175 128.928C78.5615 128.928 77.5215 129.824 77.5215 131.184V136H76.1775V127.904H77.5215V129.28C77.9695 128.256 79.0095 127.68 80.3375 127.68C82.1775 127.68 83.2175 128.816 83.2175 130.816ZM92.0689 127.904H93.4129V135.072C93.4129 137.888 91.8929 139.424 89.2049 139.424C87.6849 139.424 86.3569 138.928 85.5249 138.08L86.2929 137.088C87.0449 137.776 88.0689 138.176 89.2049 138.176C91.0609 138.176 92.0689 137.12 92.0689 135.072V134.336C91.6049 135.36 90.4689 136 89.0769 136C86.8529 136 85.2209 134.288 85.2209 131.84C85.2209 129.392 86.8529 127.68 89.0769 127.68C90.4369 127.68 91.6049 128.336 92.0689 129.376V127.904ZM92.1329 131.84C92.1329 130.992 91.8769 130.288 91.3649 129.744C90.8689 129.2 90.1969 128.928 89.3809 128.928C88.5649 128.928 87.8929 129.2 87.3809 129.744C86.8849 130.288 86.6289 130.992 86.6289 131.84C86.6289 132.688 86.8849 133.392 87.3809 133.936C87.8929 134.48 88.5649 134.752 89.3809 134.752C90.1969 134.752 90.8689 134.48 91.3649 133.936C91.8769 133.392 92.1329 132.688 92.1329 131.84ZM98.7364 134.464L99.7124 133.744C100.288 134.576 101.232 135.008 102.336 135.008C103.488 135.008 104.192 134.528 104.192 133.776C104.192 133.2 103.792 132.864 102.768 132.624L101.488 132.336C99.8244 131.952 99.0244 131.216 99.0244 130.08C99.0244 128.656 100.24 127.68 102.208 127.68C103.616 127.68 104.752 128.176 105.408 129.056L104.48 129.856C103.952 129.232 103.136 128.896 102.128 128.896C100.976 128.896 100.368 129.328 100.368 130.048C100.368 130.576 100.736 130.88 101.824 131.136L103.248 131.456C104.848 131.824 105.536 132.544 105.536 133.68C105.536 135.216 104.336 136.224 102.352 136.224C100.704 136.224 99.3764 135.552 98.7364 134.464ZM114.747 132.368H108.267C108.411 133.984 109.499 134.976 111.083 134.976C112.123 134.976 112.987 134.56 113.659 133.712L114.571 134.48C113.787 135.584 112.539 136.224 111.051 136.224C108.603 136.224 106.891 134.48 106.891 131.968C106.891 129.488 108.555 127.68 110.939 127.68C113.195 127.68 114.795 129.296 114.795 131.648C114.795 131.888 114.779 132.128 114.747 132.368ZM108.299 131.28H113.419C113.291 129.792 112.347 128.928 110.939 128.928C109.515 128.928 108.539 129.824 108.299 131.28ZM121.365 127.888V129.072C121.125 129.04 120.901 129.024 120.661 129.024C119.077 129.024 118.165 129.952 118.165 131.856V136H116.821V127.904H118.165V129.424C118.533 128.384 119.429 127.776 120.629 127.776C120.901 127.776 121.157 127.808 121.365 127.888ZM128.74 127.904H130.18L126.884 136H125.444L122.148 127.904H123.588L126.164 134.528L128.74 127.904ZM131.429 125.28C131.429 124.752 131.829 124.352 132.357 124.352C132.885 124.352 133.285 124.752 133.285 125.28C133.285 125.808 132.885 126.208 132.357 126.208C131.829 126.208 131.429 125.808 131.429 125.28ZM131.685 136V127.904H133.029V136H131.685ZM135.103 131.952C135.103 129.488 136.799 127.68 139.263 127.68C140.751 127.68 141.967 128.304 142.655 129.44L141.599 130.176C141.103 129.36 140.287 128.928 139.279 128.928C138.463 128.928 137.791 129.2 137.279 129.76C136.767 130.32 136.511 131.04 136.511 131.952C136.511 132.864 136.767 133.584 137.279 134.144C137.791 134.704 138.463 134.976 139.279 134.976C140.287 134.976 141.103 134.544 141.599 133.728L142.655 134.464C141.967 135.6 140.751 136.224 139.263 136.224C136.799 136.224 135.103 134.416 135.103 131.952ZM151.672 132.368H145.192C145.336 133.984 146.424 134.976 148.008 134.976C149.048 134.976 149.912 134.56 150.584 133.712L151.497 134.48C150.712 135.584 149.464 136.224 147.976 136.224C145.528 136.224 143.816 134.48 143.816 131.968C143.816 129.488 145.48 127.68 147.864 127.68C150.12 127.68 151.72 129.296 151.72 131.648C151.72 131.888 151.705 132.128 151.672 132.368ZM145.224 131.28H150.344C150.216 129.792 149.272 128.928 147.864 128.928C146.44 128.928 145.464 129.824 145.224 131.28ZM152.978 134.464L153.954 133.744C154.53 134.576 155.474 135.008 156.578 135.008C157.73 135.008 158.434 134.528 158.434 133.776C158.434 133.2 158.034 132.864 157.01 132.624L155.73 132.336C154.066 131.952 153.266 131.216 153.266 130.08C153.266 128.656 154.482 127.68 156.45 127.68C157.858 127.68 158.994 128.176 159.65 129.056L158.722 129.856C158.194 129.232 157.378 128.896 156.37 128.896C155.218 128.896 154.61 129.328 154.61 130.048C154.61 130.576 154.978 130.88 156.066 131.136L157.49 131.456C159.09 131.824 159.778 132.544 159.778 133.68C159.778 135.216 158.578 136.224 156.594 136.224C154.946 136.224 153.618 135.552 152.978 134.464ZM161.231 135.152C161.231 134.592 161.615 134.208 162.191 134.208C162.767 134.208 163.151 134.592 163.151 135.152C163.151 135.728 162.767 136.128 162.191 136.128C161.615 136.128 161.231 135.728 161.231 135.152Z" fill="#697582"/>
<path d="M95.9253 533.497C91.1316 533.497 86.5343 531.592 83.1446 528.203C79.7549 524.813 77.8506 520.216 77.8506 515.422V406.974H-12.5227C-15.8567 406.975 -19.1258 406.053 -21.9686 404.311C-24.8113 402.569 -27.1169 400.075 -28.6303 397.104C-30.1438 394.133 -30.806 390.802 -30.5439 387.478C-30.2818 384.155 -29.1055 380.968 -27.1451 378.271L117.452 179.45C119.696 176.362 122.86 174.064 126.49 172.884C130.121 171.705 134.032 171.705 137.662 172.885C141.292 174.065 144.456 176.364 146.699 179.453C148.942 182.541 150.15 186.261 150.149 190.078V298.526H240.523C243.857 298.526 247.126 299.447 249.969 301.189C252.811 302.931 255.117 305.425 256.63 308.396C258.144 311.367 258.806 314.698 258.544 318.022C258.282 321.346 257.105 324.532 255.145 327.229L110.548 526.05C108.871 528.357 106.672 530.234 104.13 531.528C101.589 532.823 98.7773 533.497 95.9253 533.497Z" fill="#375DFB"/>
<path d="M78.9892 406.974V405.836H77.8506H-12.5227C-15.6468 405.836 -18.71 404.972 -21.3737 403.34C-24.0374 401.708 -26.1977 399.371 -27.6158 396.587C-29.0339 393.804 -29.6545 390.682 -29.4088 387.568C-29.1632 384.454 -28.0611 381.468 -26.2243 378.941C-26.2242 378.941 -26.2242 378.941 -26.2241 378.941L118.373 180.12L118.373 180.119C120.476 177.226 123.44 175.072 126.842 173.967C130.244 172.862 133.908 172.862 137.31 173.968C140.712 175.074 143.676 177.228 145.778 180.122C147.88 183.016 149.011 186.501 149.011 190.078V298.526V299.665H150.149H240.523C243.647 299.664 246.71 300.528 249.374 302.16C252.037 303.792 254.198 306.129 255.616 308.913C257.034 311.696 257.654 314.818 257.409 317.932C257.163 321.047 256.061 324.032 254.224 326.559L109.627 525.38L109.627 525.38C108.055 527.542 105.995 529.301 103.614 530.514C101.232 531.726 98.5978 532.358 95.9255 532.358C91.4336 532.358 87.1258 530.574 83.9497 527.398C80.7736 524.222 78.9892 519.914 78.9892 515.422V406.974Z" stroke="white" stroke-opacity="0.41" stroke-width="2.27716"/>
<g filter="url(#filter0_b_2585_1594)">
<rect x="160" y="212" width="310" height="76" rx="19" fill="white" fill-opacity="0.5"/>
</g>
<rect x="166" y="206" width="310" height="76" rx="19" fill="white"/>
<g clip-path="url(#clip1_2585_1594)">
<rect x="178" y="220" width="48" height="48" rx="12.3731" fill="#0D0D12"/>
<rect x="178" y="220" width="48" height="48" fill="url(#paint0_linear_2585_1594)" fill-opacity="0.16"/>
<g filter="url(#filter1_b_2585_1594)">
<path d="M191.674 232.404C191.674 232.162 191.87 231.967 192.111 231.967H206.962C210.002 231.967 212.466 234.431 212.466 237.47C212.466 237.712 212.27 237.907 212.029 237.907H197.177C194.138 237.907 191.674 235.443 191.674 232.404Z" fill="white"/>
<path d="M192.111 231.517C191.621 231.517 191.224 231.914 191.224 232.404C191.224 235.692 193.89 238.357 197.177 238.357H212.029C212.519 238.357 212.915 237.96 212.915 237.47C212.915 234.183 210.25 231.517 206.962 231.517H192.111Z" stroke="white" stroke-opacity="0.06" stroke-width="0.898792"/>
</g>
<g filter="url(#filter2_b_2585_1594)">
<path d="M191.674 246.445C191.674 246.686 191.87 246.882 192.111 246.882H206.962C210.002 246.882 212.466 244.418 212.466 241.378C212.466 241.137 212.27 240.941 212.029 240.941H197.177C194.138 240.941 191.674 243.405 191.674 246.445Z" fill="white"/>
<path d="M192.111 247.331C191.621 247.331 191.224 246.934 191.224 246.445C191.224 243.157 193.89 240.492 197.177 240.492H212.029C212.519 240.492 212.915 240.889 212.915 241.378C212.915 244.666 210.25 247.331 206.962 247.331H192.111Z" stroke="white" stroke-opacity="0.06" stroke-width="0.898792"/>
</g>
<g filter="url(#filter3_b_2585_1594)">
<path d="M200.585 250.353C200.585 250.112 200.78 249.916 201.022 249.916H206.962C210.002 249.916 212.466 252.38 212.466 255.42C212.466 255.661 212.27 255.857 212.029 255.857H206.088C203.049 255.857 200.585 253.393 200.585 250.353Z" fill="white"/>
<path d="M201.022 249.467C200.532 249.467 200.135 249.863 200.135 250.353C200.135 253.641 202.801 256.306 206.088 256.306H212.029C212.518 256.306 212.915 255.909 212.915 255.42C212.915 252.132 210.25 249.467 206.962 249.467H201.022Z" stroke="white" stroke-opacity="0.06" stroke-width="0.898792"/>
</g>
</g>
<rect x="178.692" y="220.692" width="46.6154" height="46.6154" rx="11.6808" stroke="white" stroke-opacity="0.02" stroke-width="1.38462"/>
<path d="M240.683 231H238.513L242.097 221.2H244.617L248.173 231H245.919L245.163 228.858H241.439L240.683 231ZM243.287 223.44L241.999 227.164H244.589L243.287 223.44ZM251.881 231.084C249.599 231.084 248.213 229.67 248.213 227.402C248.213 225.176 249.669 223.72 251.951 223.72C253.911 223.72 255.129 224.784 255.409 226.492H253.351C253.183 225.778 252.693 225.33 251.923 225.33C250.887 225.33 250.229 226.184 250.229 227.402C250.229 228.634 250.887 229.474 251.923 229.474C252.693 229.474 253.211 229.012 253.351 228.284H255.423C255.143 230.006 253.841 231.084 251.881 231.084ZM259.767 231.084C257.485 231.084 256.099 229.67 256.099 227.402C256.099 225.176 257.555 223.72 259.837 223.72C261.797 223.72 263.015 224.784 263.295 226.492H261.237C261.069 225.778 260.579 225.33 259.809 225.33C258.773 225.33 258.115 226.184 258.115 227.402C258.115 228.634 258.773 229.474 259.809 229.474C260.579 229.474 261.097 229.012 261.237 228.284H263.309C263.029 230.006 261.727 231.084 259.767 231.084ZM267.78 231.084C265.484 231.084 263.986 229.614 263.986 227.402C263.986 225.19 265.484 223.72 267.78 223.72C270.076 223.72 271.574 225.19 271.574 227.402C271.574 229.628 270.076 231.084 267.78 231.084ZM267.78 229.474C268.886 229.474 269.572 228.62 269.572 227.402C269.572 226.184 268.886 225.33 267.78 225.33C266.674 225.33 266.002 226.184 266.002 227.402C266.002 228.62 266.674 229.474 267.78 229.474ZM277.379 227.402V223.804H279.353V231H277.603L277.421 230.132C276.959 230.692 276.329 231.084 275.307 231.084C273.823 231.084 272.451 230.342 272.451 227.794V223.804H274.425V227.528C274.425 228.816 274.845 229.446 275.825 229.446C276.805 229.446 277.379 228.732 277.379 227.402ZM284.771 223.72C286.325 223.72 287.655 224.546 287.655 227.01V231H285.681V227.206C285.681 225.988 285.219 225.344 284.225 225.344C283.203 225.344 282.615 226.072 282.615 227.318V231H280.641V223.804H282.363L282.545 224.7C283.007 224.14 283.665 223.72 284.771 223.72ZM289.333 228.942V225.47H288.143V223.804H289.333V221.788H291.307V223.804H292.959V225.47H291.307V228.62C291.307 229.124 291.503 229.334 292.021 229.334H293.001V231H291.391C290.019 231 289.333 230.314 289.333 228.942ZM301.657 231.084C298.745 231.084 296.981 229.11 296.981 226.1C296.981 223.09 298.815 221.116 301.783 221.116C304.107 221.116 305.745 222.572 305.997 224.7H303.869C303.617 223.608 302.833 222.894 301.671 222.894C300.075 222.894 299.123 224.21 299.123 226.1C299.123 227.976 300.061 229.306 301.643 229.306C302.833 229.306 303.617 228.592 303.869 227.5H305.983C305.745 229.628 304.051 231.084 301.657 231.084ZM310.984 223.804H311.32V225.596H310.536C309.36 225.596 308.912 226.38 308.912 227.472V231H306.938V223.804H308.73L308.912 224.882C309.304 224.238 309.864 223.804 310.984 223.804ZM315.441 231.084C313.047 231.084 311.605 229.642 311.605 227.416C311.605 225.176 313.075 223.72 315.301 223.72C317.457 223.72 318.913 225.064 318.941 227.178C318.941 227.388 318.927 227.626 318.885 227.85H313.663V227.948C313.705 228.97 314.363 229.586 315.357 229.586C316.155 229.586 316.715 229.236 316.883 228.564H318.829C318.605 229.964 317.359 231.084 315.441 231.084ZM313.705 226.562H316.953C316.813 225.68 316.211 225.19 315.315 225.19C314.461 225.19 313.817 225.708 313.705 226.562ZM326.796 229.334H327.02V231H326.012C324.99 231 324.668 230.51 324.682 229.824C324.178 230.622 323.45 231.084 322.33 231.084C320.776 231.084 319.656 230.342 319.656 228.97C319.656 227.444 320.804 226.576 322.96 226.576H324.388V226.226C324.388 225.582 323.926 225.162 323.1 225.162C322.33 225.162 321.812 225.512 321.728 226.044H319.824C319.964 224.644 321.252 223.72 323.156 223.72C325.172 223.72 326.334 224.616 326.334 226.338V228.886C326.334 229.264 326.488 229.334 326.796 229.334ZM324.388 228.032V227.892H322.946C322.12 227.892 321.644 228.228 321.644 228.83C321.644 229.334 322.05 229.656 322.708 229.656C323.744 229.656 324.374 229.012 324.388 228.032ZM328.218 228.942V225.47H327.028V223.804H328.218V221.788H330.192V223.804H331.844V225.47H330.192V228.62C330.192 229.124 330.388 229.334 330.906 229.334H331.886V231H330.276C328.904 231 328.218 230.314 328.218 228.942ZM336.162 231.084C333.768 231.084 332.326 229.642 332.326 227.416C332.326 225.176 333.796 223.72 336.022 223.72C338.178 223.72 339.634 225.064 339.662 227.178C339.662 227.388 339.648 227.626 339.606 227.85H334.384V227.948C334.426 228.97 335.084 229.586 336.078 229.586C336.876 229.586 337.436 229.236 337.604 228.564H339.55C339.326 229.964 338.08 231.084 336.162 231.084ZM334.426 226.562H337.674C337.534 225.68 336.932 225.19 336.036 225.19C335.182 225.19 334.538 225.708 334.426 226.562ZM345.879 224.7V221.2H347.853V231H346.131L345.935 230.006C345.459 230.622 344.759 231.084 343.723 231.084C341.791 231.084 340.377 229.67 340.377 227.388C340.377 225.162 341.791 223.72 343.709 223.72C344.703 223.72 345.417 224.112 345.879 224.7ZM344.157 229.474C345.235 229.474 345.907 228.634 345.907 227.416C345.907 226.184 345.235 225.33 344.157 225.33C343.079 225.33 342.393 226.17 342.393 227.402C342.393 228.634 343.079 229.474 344.157 229.474Z" fill="black"/>
<path d="M244.444 240.6H245.632L242.392 245.52V249H241.336V245.52L238.096 240.6H239.284L241.864 244.584L244.444 240.6ZM245.066 245.964C245.042 244.248 246.35 242.724 248.186 242.76C250.022 242.724 251.33 244.248 251.306 245.964C251.33 247.68 250.022 249.204 248.186 249.168C246.35 249.204 245.042 247.68 245.066 245.964ZM250.25 245.964C250.25 245.304 250.058 244.752 249.674 244.332C249.302 243.912 248.798 243.696 248.186 243.696C247.574 243.696 247.07 243.912 246.686 244.332C246.314 244.752 246.122 245.304 246.122 245.964C246.122 246.624 246.314 247.176 246.686 247.596C247.07 248.016 247.574 248.232 248.186 248.232C248.798 248.232 249.302 248.016 249.674 247.596C250.058 247.176 250.25 246.624 250.25 245.964ZM252.733 246.732V242.928H253.741V246.672C253.741 247.68 254.329 248.232 255.349 248.232C256.369 248.232 256.957 247.68 256.957 246.672V242.928H257.965V246.732C257.965 248.172 256.921 249.168 255.349 249.168C253.777 249.168 252.733 248.172 252.733 246.732ZM263.229 242.916V243.804C263.049 243.78 262.881 243.768 262.701 243.768C261.513 243.768 260.829 244.464 260.829 245.892V249H259.821V242.928H260.829V244.068C261.105 243.288 261.777 242.832 262.677 242.832C262.881 242.832 263.073 242.856 263.229 242.916ZM272.454 249L269.67 245.664H268.302V249H267.246V240.6H270.726C272.49 240.6 273.534 241.572 273.534 243.156C273.534 244.656 272.574 245.58 270.93 245.664L273.726 249H272.454ZM268.302 241.572V244.716H270.642C271.902 244.716 272.43 244.224 272.43 243.156C272.43 242.088 271.89 241.572 270.642 241.572H268.302ZM275.017 246.732V242.928H276.025V246.672C276.025 247.68 276.613 248.232 277.633 248.232C278.653 248.232 279.241 247.68 279.241 246.672V242.928H280.249V246.732C280.249 248.172 279.205 249.168 277.633 249.168C276.061 249.168 275.017 248.172 275.017 246.732ZM288.249 245.964C288.249 247.836 287.025 249.168 285.369 249.168C284.349 249.168 283.485 248.664 283.113 247.884V249H282.105V240.216H283.113V244.044C283.485 243.264 284.349 242.76 285.369 242.76C287.025 242.76 288.249 244.092 288.249 245.964ZM287.193 245.964C287.193 245.304 287.001 244.752 286.617 244.332C286.245 243.912 285.741 243.696 285.129 243.696C284.517 243.696 284.013 243.912 283.629 244.332C283.257 244.752 283.065 245.304 283.065 245.964C283.065 246.624 283.257 247.176 283.629 247.596C284.013 248.016 284.517 248.232 285.129 248.232C285.741 248.232 286.245 248.016 286.617 247.596C287.001 247.176 287.193 246.624 287.193 245.964ZM289.62 240.96C289.62 240.564 289.92 240.264 290.316 240.264C290.712 240.264 291.012 240.564 291.012 240.96C291.012 241.356 290.712 241.656 290.316 241.656C289.92 241.656 289.62 241.356 289.62 240.96ZM289.812 249V242.928H290.82V249H289.812ZM298.268 246.276H293.408C293.516 247.488 294.332 248.232 295.52 248.232C296.3 248.232 296.948 247.92 297.452 247.284L298.136 247.86C297.548 248.688 296.612 249.168 295.496 249.168C293.66 249.168 292.376 247.86 292.376 245.976C292.376 244.116 293.624 242.76 295.412 242.76C297.104 242.76 298.304 243.972 298.304 245.736C298.304 245.916 298.292 246.096 298.268 246.276ZM293.432 245.46H297.272C297.176 244.344 296.468 243.696 295.412 243.696C294.344 243.696 293.612 244.368 293.432 245.46ZM299.247 247.848L299.979 247.308C300.411 247.932 301.119 248.256 301.947 248.256C302.811 248.256 303.339 247.896 303.339 247.332C303.339 246.9 303.039 246.648 302.271 246.468L301.311 246.252C300.063 245.964 299.463 245.412 299.463 244.56C299.463 243.492 300.375 242.76 301.851 242.76C302.907 242.76 303.759 243.132 304.251 243.792L303.555 244.392C303.159 243.924 302.547 243.672 301.791 243.672C300.927 243.672 300.471 243.996 300.471 244.536C300.471 244.932 300.747 245.16 301.563 245.352L302.631 245.592C303.831 245.868 304.347 246.408 304.347 247.26C304.347 248.412 303.447 249.168 301.959 249.168C300.723 249.168 299.727 248.664 299.247 247.848ZM313.085 242.928H314.093V249H313.085V247.884C312.737 248.664 311.861 249.168 310.841 249.168C309.173 249.168 307.949 247.836 307.949 245.964C307.949 244.092 309.173 242.76 310.841 242.76C311.861 242.76 312.737 243.264 313.085 244.044V242.928ZM313.133 245.964C313.133 245.304 312.941 244.752 312.557 244.332C312.185 243.912 311.681 243.696 311.069 243.696C310.457 243.696 309.953 243.912 309.569 244.332C309.197 244.752 309.005 245.304 309.005 245.964C309.005 246.624 309.197 247.176 309.569 247.596C309.953 248.016 310.457 248.232 311.069 248.232C311.681 248.232 312.185 248.016 312.557 247.596C312.941 247.176 313.133 246.624 313.133 245.964ZM315.644 245.964C315.644 244.116 316.916 242.76 318.764 242.76C319.88 242.76 320.792 243.228 321.308 244.08L320.516 244.632C320.144 244.02 319.532 243.696 318.776 243.696C318.164 243.696 317.66 243.9 317.276 244.32C316.892 244.74 316.7 245.28 316.7 245.964C316.7 246.648 316.892 247.188 317.276 247.608C317.66 248.028 318.164 248.232 318.776 248.232C319.532 248.232 320.144 247.908 320.516 247.296L321.308 247.848C320.792 248.7 319.88 249.168 318.764 249.168C316.916 249.168 315.644 247.812 315.644 245.964ZM322.179 245.964C322.179 244.116 323.451 242.76 325.299 242.76C326.415 242.76 327.327 243.228 327.843 244.08L327.051 244.632C326.679 244.02 326.067 243.696 325.311 243.696C324.699 243.696 324.195 243.9 323.811 244.32C323.427 244.74 323.235 245.28 323.235 245.964C323.235 246.648 323.427 247.188 323.811 247.608C324.195 248.028 324.699 248.232 325.311 248.232C326.067 248.232 326.679 247.908 327.051 247.296L327.843 247.848C327.327 248.7 326.415 249.168 325.299 249.168C323.451 249.168 322.179 247.812 322.179 245.964ZM328.714 245.964C328.69 244.248 329.998 242.724 331.834 242.76C333.67 242.724 334.978 244.248 334.954 245.964C334.978 247.68 333.67 249.204 331.834 249.168C329.998 249.204 328.69 247.68 328.714 245.964ZM333.898 245.964C333.898 245.304 333.706 244.752 333.322 244.332C332.95 243.912 332.446 243.696 331.834 243.696C331.222 243.696 330.718 243.912 330.334 244.332C329.962 244.752 329.77 245.304 329.77 245.964C329.77 246.624 329.962 247.176 330.334 247.596C330.718 248.016 331.222 248.232 331.834 248.232C332.446 248.232 332.95 248.016 333.322 247.596C333.706 247.176 333.898 246.624 333.898 245.964ZM336.381 246.732V242.928H337.389V246.672C337.389 247.68 337.977 248.232 338.997 248.232C340.017 248.232 340.605 247.68 340.605 246.672V242.928H341.613V246.732C341.613 248.172 340.569 249.168 338.997 249.168C337.425 249.168 336.381 248.172 336.381 246.732ZM348.749 245.112V249H347.741V245.352C347.741 244.2 347.309 243.696 346.349 243.696C345.257 243.696 344.477 244.368 344.477 245.388V249H343.469V242.928H344.477V243.96C344.813 243.192 345.593 242.76 346.589 242.76C347.969 242.76 348.749 243.612 348.749 245.112ZM351.057 247.44V243.792H349.845V242.928H351.057V241.128H352.065V242.928H353.973V243.792H352.065V247.368C352.065 247.956 352.365 248.208 353.049 248.208C353.325 248.208 353.649 248.172 353.997 248.1V248.94C353.649 249.048 353.289 249.096 352.905 249.096C351.705 249.096 351.057 248.532 351.057 247.44ZM363.221 245.112V249H362.213V245.352C362.213 244.2 361.781 243.696 360.821 243.696C359.729 243.696 358.949 244.368 358.949 245.388V249H357.941V240.216H358.949V243.96C359.285 243.192 360.065 242.76 361.061 242.76C362.441 242.76 363.221 243.612 363.221 245.112ZM369.859 242.928H370.867V249H369.859V247.884C369.511 248.664 368.635 249.168 367.615 249.168C365.947 249.168 364.723 247.836 364.723 245.964C364.723 244.092 365.947 242.76 367.615 242.76C368.635 242.76 369.511 243.264 369.859 244.044V242.928ZM369.907 245.964C369.907 245.304 369.715 244.752 369.331 244.332C368.959 243.912 368.455 243.696 367.843 243.696C367.231 243.696 366.727 243.912 366.343 244.332C365.971 244.752 365.779 245.304 365.779 245.964C365.779 246.624 365.971 247.176 366.343 247.596C366.727 248.016 367.231 248.232 367.843 248.232C368.455 248.232 368.959 248.016 369.331 247.596C369.715 247.176 369.907 246.624 369.907 245.964ZM372.274 247.848L373.006 247.308C373.438 247.932 374.146 248.256 374.974 248.256C375.838 248.256 376.366 247.896 376.366 247.332C376.366 246.9 376.066 246.648 375.298 246.468L374.338 246.252C373.09 245.964 372.49 245.412 372.49 244.56C372.49 243.492 373.402 242.76 374.878 242.76C375.934 242.76 376.786 243.132 377.278 243.792L376.582 244.392C376.186 243.924 375.574 243.672 374.818 243.672C373.954 243.672 373.498 243.996 373.498 244.536C373.498 244.932 373.774 245.16 374.59 245.352L375.658 245.592C376.858 245.868 377.374 246.408 377.374 247.26C377.374 248.412 376.474 249.168 374.986 249.168C373.75 249.168 372.754 248.664 372.274 247.848ZM387.552 245.964C387.552 247.836 386.328 249.168 384.672 249.168C383.652 249.168 382.788 248.664 382.416 247.884V249H381.408V240.216H382.416V244.044C382.788 243.264 383.652 242.76 384.672 242.76C386.328 242.76 387.552 244.092 387.552 245.964ZM386.496 245.964C386.496 245.304 386.304 244.752 385.92 244.332C385.548 243.912 385.044 243.696 384.432 243.696C383.82 243.696 383.316 243.912 382.932 244.332C382.56 244.752 382.368 245.304 382.368 245.964C382.368 246.624 382.56 247.176 382.932 247.596C383.316 248.016 383.82 248.232 384.432 248.232C385.044 248.232 385.548 248.016 385.92 247.596C386.304 247.176 386.496 246.624 386.496 245.964ZM394.563 246.276H389.703C389.811 247.488 390.627 248.232 391.815 248.232C392.595 248.232 393.243 247.92 393.747 247.284L394.431 247.86C393.843 248.688 392.907 249.168 391.791 249.168C389.955 249.168 388.671 247.86 388.671 245.976C388.671 244.116 389.919 242.76 391.707 242.76C393.399 242.76 394.599 243.972 394.599 245.736C394.599 245.916 394.587 246.096 394.563 246.276ZM389.727 245.46H393.567C393.471 244.344 392.763 243.696 391.707 243.696C390.639 243.696 389.907 244.368 389.727 245.46ZM401.579 246.276H396.719C396.827 247.488 397.643 248.232 398.831 248.232C399.611 248.232 400.259 247.92 400.763 247.284L401.447 247.86C400.859 248.688 399.923 249.168 398.807 249.168C396.971 249.168 395.687 247.86 395.687 245.976C395.687 244.116 396.935 242.76 398.723 242.76C400.415 242.76 401.615 243.972 401.615 245.736C401.615 245.916 401.603 246.096 401.579 246.276ZM396.743 245.46H400.583C400.487 244.344 399.779 243.696 398.723 243.696C397.655 243.696 396.923 244.368 396.743 245.46ZM408.414 245.112V249H407.406V245.352C407.406 244.2 406.974 243.696 406.014 243.696C404.922 243.696 404.142 244.368 404.142 245.388V249H403.134V242.928H404.142V243.96C404.478 243.192 405.258 242.76 406.254 242.76C407.634 242.76 408.414 243.612 408.414 245.112ZM412.502 245.964C412.502 244.116 413.774 242.76 415.622 242.76C416.738 242.76 417.65 243.228 418.166 244.08L417.374 244.632C417.002 244.02 416.39 243.696 415.634 243.696C415.022 243.696 414.518 243.9 414.134 244.32C413.75 244.74 413.558 245.28 413.558 245.964C413.558 246.648 413.75 247.188 414.134 247.608C414.518 248.028 415.022 248.232 415.634 248.232C416.39 248.232 417.002 247.908 417.374 247.296L418.166 247.848C417.65 248.7 416.738 249.168 415.622 249.168C413.774 249.168 412.502 247.812 412.502 245.964ZM422.901 242.916V243.804C422.721 243.78 422.553 243.768 422.373 243.768C421.185 243.768 420.501 244.464 420.501 245.892V249H419.493V242.928H420.501V244.068C420.777 243.288 421.449 242.832 422.349 242.832C422.553 242.832 422.745 242.856 422.901 242.916ZM429.319 246.276H424.459C424.567 247.488 425.383 248.232 426.571 248.232C427.351 248.232 427.999 247.92 428.503 247.284L429.187 247.86C428.599 248.688 427.663 249.168 426.547 249.168C424.711 249.168 423.427 247.86 423.427 245.976C423.427 244.116 424.675 242.76 426.463 242.76C428.155 242.76 429.355 243.972 429.355 245.736C429.355 245.916 429.343 246.096 429.319 246.276ZM424.483 245.46H428.323C428.227 244.344 427.519 243.696 426.463 243.696C425.395 243.696 424.663 244.368 424.483 245.46ZM435.579 242.928H436.587V249H435.579V247.884C435.231 248.664 434.355 249.168 433.335 249.168C431.667 249.168 430.443 247.836 430.443 245.964C430.443 244.092 431.667 242.76 433.335 242.76C434.355 242.76 435.231 243.264 435.579 244.044V242.928ZM435.627 245.964C435.627 245.304 435.435 244.752 435.051 244.332C434.679 243.912 434.175 243.696 433.563 243.696C432.951 243.696 432.447 243.912 432.063 244.332C431.691 244.752 431.499 245.304 431.499 245.964C431.499 246.624 431.691 247.176 432.063 247.596C432.447 248.016 432.951 248.232 433.563 248.232C434.175 248.232 434.679 248.016 435.051 247.596C435.435 247.176 435.627 246.624 435.627 245.964ZM439.014 247.44V243.792H437.802V242.928H439.014V241.128H440.022V242.928H441.93V243.792H440.022V247.368C440.022 247.956 440.322 248.208 441.006 248.208C441.282 248.208 441.606 248.172 441.954 248.1V248.94C441.606 249.048 441.246 249.096 440.862 249.096C439.662 249.096 439.014 248.532 439.014 247.44ZM448.654 246.276H443.794C443.902 247.488 444.718 248.232 445.906 248.232C446.686 248.232 447.334 247.92 447.838 247.284L448.522 247.86C447.934 248.688 446.998 249.168 445.882 249.168C444.046 249.168 442.762 247.86 442.762 245.976C442.762 244.116 444.01 242.76 445.798 242.76C447.49 242.76 448.69 243.972 448.69 245.736C448.69 245.916 448.678 246.096 448.654 246.276ZM443.818 245.46H447.658C447.562 244.344 446.854 243.696 445.798 243.696C444.73 243.696 443.998 244.368 443.818 245.46ZM454.914 240.216H455.922V249H454.914V247.884C454.542 248.664 453.678 249.168 452.658 249.168C451.002 249.168 449.778 247.836 449.778 245.964C449.778 244.092 451.002 242.76 452.658 242.76C453.678 242.76 454.542 243.264 454.914 244.044V240.216ZM454.962 245.964C454.962 245.304 454.77 244.752 454.386 244.332C454.014 243.912 453.51 243.696 452.898 243.696C452.286 243.696 451.782 243.912 451.398 244.332C451.026 244.752 450.834 245.304 450.834 245.964C450.834 246.624 451.026 247.176 451.398 247.596C451.782 248.016 452.286 248.232 452.898 248.232C453.51 248.232 454.014 248.016 454.386 247.596C454.77 247.176 454.962 246.624 454.962 245.964ZM238.504 263.848L239.236 263.308C239.668 263.932 240.376 264.256 241.204 264.256C242.068 264.256 242.596 263.896 242.596 263.332C242.596 262.9 242.296 262.648 241.528 262.468L240.568 262.252C239.32 261.964 238.72 261.412 238.72 260.56C238.72 259.492 239.632 258.76 241.108 258.76C242.164 258.76 243.016 259.132 243.508 259.792L242.812 260.392C242.416 259.924 241.804 259.672 241.048 259.672C240.184 259.672 239.728 259.996 239.728 260.536C239.728 260.932 240.004 261.16 240.82 261.352L241.888 261.592C243.088 261.868 243.604 262.408 243.604 263.26C243.604 264.412 242.704 265.168 241.216 265.168C239.98 265.168 238.984 264.664 238.504 263.848ZM244.932 262.732V258.928H245.94V262.672C245.94 263.68 246.528 264.232 247.548 264.232C248.568 264.232 249.156 263.68 249.156 262.672V258.928H250.164V262.732C250.164 264.172 249.12 265.168 247.548 265.168C245.976 265.168 244.932 264.172 244.932 262.732ZM251.589 261.964C251.589 260.116 252.861 258.76 254.709 258.76C255.825 258.76 256.737 259.228 257.253 260.08L256.461 260.632C256.089 260.02 255.477 259.696 254.721 259.696C254.109 259.696 253.605 259.9 253.221 260.32C252.837 260.74 252.645 261.28 252.645 261.964C252.645 262.648 252.837 263.188 253.221 263.608C253.605 264.028 254.109 264.232 254.721 264.232C255.477 264.232 256.089 263.908 256.461 263.296L257.253 263.848C256.737 264.7 255.825 265.168 254.709 265.168C252.861 265.168 251.589 263.812 251.589 261.964ZM258.124 261.964C258.124 260.116 259.396 258.76 261.244 258.76C262.36 258.76 263.272 259.228 263.788 260.08L262.996 260.632C262.624 260.02 262.012 259.696 261.256 259.696C260.644 259.696 260.14 259.9 259.756 260.32C259.372 260.74 259.18 261.28 259.18 261.964C259.18 262.648 259.372 263.188 259.756 263.608C260.14 264.028 260.644 264.232 261.256 264.232C262.012 264.232 262.624 263.908 262.996 263.296L263.788 263.848C263.272 264.7 262.36 265.168 261.244 265.168C259.396 265.168 258.124 263.812 258.124 261.964ZM270.55 262.276H265.69C265.798 263.488 266.614 264.232 267.802 264.232C268.582 264.232 269.23 263.92 269.734 263.284L270.418 263.86C269.83 264.688 268.894 265.168 267.778 265.168C265.942 265.168 264.658 263.86 264.658 261.976C264.658 260.116 265.906 258.76 267.694 258.76C269.386 258.76 270.586 259.972 270.586 261.736C270.586 261.916 270.574 262.096 270.55 262.276ZM265.714 261.46H269.554C269.458 260.344 268.75 259.696 267.694 259.696C266.626 259.696 265.894 260.368 265.714 261.46ZM271.53 263.848L272.262 263.308C272.694 263.932 273.402 264.256 274.23 264.256C275.094 264.256 275.622 263.896 275.622 263.332C275.622 262.9 275.322 262.648 274.554 262.468L273.594 262.252C272.346 261.964 271.746 261.412 271.746 260.56C271.746 259.492 272.658 258.76 274.134 258.76C275.19 258.76 276.042 259.132 276.534 259.792L275.838 260.392C275.442 259.924 274.83 259.672 274.074 259.672C273.21 259.672 272.754 259.996 272.754 260.536C272.754 260.932 273.03 261.16 273.846 261.352L274.914 261.592C276.114 261.868 276.63 262.408 276.63 263.26C276.63 264.412 275.73 265.168 274.242 265.168C273.006 265.168 272.01 264.664 271.53 263.848ZM277.49 263.848L278.222 263.308C278.654 263.932 279.362 264.256 280.19 264.256C281.054 264.256 281.582 263.896 281.582 263.332C281.582 262.9 281.282 262.648 280.514 262.468L279.554 262.252C278.306 261.964 277.706 261.412 277.706 260.56C277.706 259.492 278.618 258.76 280.094 258.76C281.15 258.76 282.002 259.132 282.494 259.792L281.798 260.392C281.402 259.924 280.79 259.672 280.034 259.672C279.17 259.672 278.714 259.996 278.714 260.536C278.714 260.932 278.99 261.16 279.806 261.352L280.874 261.592C282.074 261.868 282.59 262.408 282.59 263.26C282.59 264.412 281.69 265.168 280.202 265.168C278.966 265.168 277.97 264.664 277.49 263.848ZM284.519 265V259.792H283.271V258.928H284.519V258.004C284.519 256.696 285.119 256.108 286.403 256.108C286.703 256.108 287.015 256.144 287.327 256.216V257.068C287.039 257.008 286.775 256.984 286.535 256.984C285.827 256.984 285.527 257.296 285.527 258.028V258.928H287.303V259.792H285.527V265H284.519ZM288.321 262.732V258.928H289.329V262.672C289.329 263.68 289.917 264.232 290.937 264.232C291.957 264.232 292.545 263.68 292.545 262.672V258.928H293.553V262.732C293.553 264.172 292.509 265.168 290.937 265.168C289.365 265.168 288.321 264.172 288.321 262.732ZM295.409 265V256.216H296.417V265H295.409ZM298.393 265V256.216H299.401V265H298.393ZM305.517 258.928H306.525V264.412C306.525 266.464 305.433 267.568 303.561 267.568C302.541 267.568 301.605 267.232 301.041 266.656L301.629 265.936C302.121 266.38 302.817 266.632 303.537 266.632C304.797 266.632 305.517 265.888 305.517 264.412V263.8C305.169 264.568 304.377 265 303.381 265C302.025 265 301.221 264.172 301.221 262.648V258.928H302.229V262.408C302.229 263.56 302.673 264.064 303.621 264.064C304.725 264.064 305.517 263.38 305.517 262.372V258.928Z" fill="#697582"/>
</g>
<rect x="0.5" y="0.5" width="383" height="432" rx="11.5" stroke="url(#paint1_linear_2585_1594)"/>
<defs>
<filter id="filter0_b_2585_1594" x="126" y="178" width="378" height="144" filterUnits="userSpaceOnUse" color-interpolation-filters="sRGB">
<feFlood flood-opacity="0" result="BackgroundImageFix"/>
<feGaussianBlur in="BackgroundImageFix" stdDeviation="17"/>
<feComposite in2="SourceAlpha" operator="in" result="effect1_backgroundBlur_2585_1594"/>
<feBlend mode="normal" in="SourceGraphic" in2="effect1_backgroundBlur_2585_1594" result="shape"/>
</filter>
<filter id="filter1_b_2585_1594" x="189.203" y="229.496" width="25.7346" height="10.8833" filterUnits="userSpaceOnUse" color-interpolation-filters="sRGB">
<feFlood flood-opacity="0" result="BackgroundImageFix"/>
<feGaussianBlur in="BackgroundImageFix" stdDeviation="0.786259"/>
<feComposite in2="SourceAlpha" operator="in" result="effect1_backgroundBlur_2585_1594"/>
<feBlend mode="normal" in="SourceGraphic" in2="effect1_backgroundBlur_2585_1594" result="shape"/>
</filter>
<filter id="filter2_b_2585_1594" x="189.203" y="238.469" width="25.7346" height="10.8833" filterUnits="userSpaceOnUse" color-interpolation-filters="sRGB">
<feFlood flood-opacity="0" result="BackgroundImageFix"/>
<feGaussianBlur in="BackgroundImageFix" stdDeviation="0.786259"/>
<feComposite in2="SourceAlpha" operator="in" result="effect1_backgroundBlur_2585_1594"/>
<feBlend mode="normal" in="SourceGraphic" in2="effect1_backgroundBlur_2585_1594" result="shape"/>
</filter>
<filter id="filter3_b_2585_1594" x="198.114" y="247.445" width="16.8237" height="10.8833" filterUnits="userSpaceOnUse" color-interpolation-filters="sRGB">
<feFlood flood-opacity="0" result="BackgroundImageFix"/>
<feGaussianBlur in="BackgroundImageFix" stdDeviation="0.786259"/>
<feComposite in2="SourceAlpha" operator="in" result="effect1_backgroundBlur_2585_1594"/>
<feBlend mode="normal" in="SourceGraphic" in2="effect1_backgroundBlur_2585_1594" result="shape"/>
</filter>
<linearGradient id="paint0_linear_2585_1594" x1="202" y1="165.625" x2="202" y2="268" gradientUnits="userSpaceOnUse">
<stop stop-color="white"/>
<stop offset="1" stop-color="white" stop-opacity="0"/>
</linearGradient>
<linearGradient id="paint1_linear_2585_1594" x1="192" y1="0" x2="192" y2="433" gradientUnits="userSpaceOnUse">
<stop stop-color="white" stop-opacity="0.1"/>
<stop offset="1" stop-color="white" stop-opacity="0"/>
</linearGradient>
<clipPath id="clip0_2585_1594">
<rect width="384" height="433" rx="12" fill="white"/>
</clipPath>
<clipPath id="clip1_2585_1594">
<rect x="178" y="220" width="48" height="48" rx="12.3731" fill="white"/>
</clipPath>
</defs>
</svg>
