<svg width="384" height="433" viewBox="0 0 384 433" fill="none" xmlns="http://www.w3.org/2000/svg">
<g clip-path="url(#clip0_2585_1637)">
<rect width="384" height="433" rx="12" fill="white" fill-opacity="0.02"/>
<path d="M33.44 57V40.2H44.528V43.296H37.04V47.232H43.184V50.184H37.04V57H33.44ZM51.2195 57.144C47.1155 57.144 44.6435 54.672 44.6435 50.856C44.6435 47.016 47.1635 44.52 50.9795 44.52C54.6755 44.52 57.1715 46.824 57.2195 50.448C57.2195 50.808 57.1955 51.216 57.1235 51.6H48.1715V51.768C48.2435 53.52 49.3715 54.576 51.0755 54.576C52.4435 54.576 53.4035 53.976 53.6915 52.824H57.0275C56.6435 55.224 54.5075 57.144 51.2195 57.144ZM48.2435 49.392H53.8115C53.5715 47.88 52.5395 47.04 51.0035 47.04C49.5395 47.04 48.4355 47.928 48.2435 49.392ZM64.9248 57.144C60.8208 57.144 58.3488 54.672 58.3488 50.856C58.3488 47.016 60.8688 44.52 64.6848 44.52C68.3808 44.52 70.8768 46.824 70.9248 50.448C70.9248 50.808 70.9008 51.216 70.8288 51.6H61.8768V51.768C61.9488 53.52 63.0768 54.576 64.7808 54.576C66.1488 54.576 67.1088 53.976 67.3968 52.824H70.7328C70.3488 55.224 68.2128 57.144 64.9248 57.144ZM61.9488 49.392H67.5168C67.2768 47.88 66.2448 47.04 64.7088 47.04C63.2448 47.04 62.1408 47.928 61.9488 49.392ZM80.9056 51.552H72.5056V48.792H80.9056V51.552ZM83.0581 57V40.2H94.1461V43.296H86.6581V47.232H92.8021V50.184H86.6581V57H83.0581ZM101.818 44.664H102.394V47.736H101.05C99.0342 47.736 98.2662 49.08 98.2662 50.952V57H94.8822V44.664H97.9542L98.2662 46.512C98.9382 45.408 99.8982 44.664 101.818 44.664ZM109.363 57.144C105.259 57.144 102.787 54.672 102.787 50.856C102.787 47.016 105.307 44.52 109.123 44.52C112.819 44.52 115.315 46.824 115.363 50.448C115.363 50.808 115.339 51.216 115.267 51.6H106.315V51.768C106.387 53.52 107.515 54.576 109.219 54.576C110.587 54.576 111.547 53.976 111.835 52.824H115.171C114.787 55.224 112.651 57.144 109.363 57.144ZM106.387 49.392H111.955C111.715 47.88 110.683 47.04 109.147 47.04C107.683 47.04 106.579 47.928 106.387 49.392ZM123.069 57.144C118.965 57.144 116.493 54.672 116.493 50.856C116.493 47.016 119.013 44.52 122.829 44.52C126.525 44.52 129.021 46.824 129.069 50.448C129.069 50.808 129.045 51.216 128.973 51.6H120.021V51.768C120.093 53.52 121.221 54.576 122.925 54.576C124.293 54.576 125.253 53.976 125.541 52.824H128.877C128.493 55.224 126.357 57.144 123.069 57.144ZM120.093 49.392H125.661C125.421 47.88 124.389 47.04 122.853 47.04C121.389 47.04 120.285 47.928 120.093 49.392ZM135.695 43.296V40.2H149.015V43.296H144.143V57H140.543V43.296H135.695ZM156.306 44.664H156.882V47.736H155.538C153.522 47.736 152.754 49.08 152.754 50.952V57H149.37V44.664H152.442L152.754 46.512C153.426 45.408 154.386 44.664 156.306 44.664ZM169.609 54.144H169.993V57H168.265C166.513 57 165.961 56.16 165.985 54.984C165.121 56.352 163.873 57.144 161.953 57.144C159.289 57.144 157.369 55.872 157.369 53.52C157.369 50.904 159.337 49.416 163.033 49.416H165.481V48.816C165.481 47.712 164.689 46.992 163.273 46.992C161.953 46.992 161.065 47.592 160.921 48.504H157.657C157.897 46.104 160.105 44.52 163.369 44.52C166.825 44.52 168.817 46.056 168.817 49.008V53.376C168.817 54.024 169.081 54.144 169.609 54.144ZM165.481 51.912V51.672H163.009C161.593 51.672 160.777 52.248 160.777 53.28C160.777 54.144 161.473 54.696 162.601 54.696C164.377 54.696 165.457 53.592 165.481 51.912ZM178.142 44.52C180.806 44.52 183.086 45.936 183.086 50.16V57H179.702V50.496C179.702 48.408 178.91 47.304 177.206 47.304C175.454 47.304 174.446 48.552 174.446 50.688V57H171.062V44.664H174.014L174.326 46.2C175.118 45.24 176.246 44.52 178.142 44.52ZM184.402 52.896H187.618C187.738 53.976 188.674 54.72 190.33 54.72C191.746 54.72 192.61 54.264 192.61 53.4C192.61 52.392 191.77 52.32 189.778 52.056C186.898 51.72 184.666 51.072 184.666 48.528C184.666 46.08 186.802 44.472 189.97 44.496C193.282 44.496 195.562 45.96 195.73 48.48H192.49C192.394 47.496 191.458 46.896 190.09 46.896C188.77 46.896 187.906 47.376 187.906 48.168C187.906 49.104 188.962 49.2 190.738 49.416C193.57 49.704 195.922 50.352 195.922 53.136C195.922 55.584 193.618 57.144 190.306 57.144C186.874 57.144 184.546 55.536 184.402 52.896ZM209.224 54.144H209.608V57H207.88C206.128 57 205.576 56.16 205.6 54.984C204.736 56.352 203.488 57.144 201.568 57.144C198.904 57.144 196.984 55.872 196.984 53.52C196.984 50.904 198.952 49.416 202.648 49.416H205.096V48.816C205.096 47.712 204.304 46.992 202.888 46.992C201.568 46.992 200.68 47.592 200.536 48.504H197.272C197.512 46.104 199.72 44.52 202.984 44.52C206.44 44.52 208.432 46.056 208.432 49.008V53.376C208.432 54.024 208.696 54.144 209.224 54.144ZM205.096 51.912V51.672H202.624C201.208 51.672 200.392 52.248 200.392 53.28C200.392 54.144 201.088 54.696 202.216 54.696C203.992 54.696 205.072 53.592 205.096 51.912ZM216.439 57.144C212.527 57.144 210.151 54.72 210.151 50.832C210.151 47.016 212.647 44.52 216.559 44.52C219.919 44.52 222.007 46.344 222.487 49.272H218.959C218.671 48.048 217.831 47.28 216.511 47.28C214.735 47.28 213.607 48.744 213.607 50.832C213.607 52.944 214.735 54.384 216.511 54.384C217.831 54.384 218.719 53.592 218.959 52.344H222.511C222.031 55.296 219.799 57.144 216.439 57.144ZM224.943 53.472V47.52H222.903V44.664H224.943V41.208H228.327V44.664H231.159V47.52H228.327V52.92C228.327 53.784 228.663 54.144 229.551 54.144H231.231V57H228.471C226.119 57 224.943 55.824 224.943 53.472ZM234.261 43.344C233.157 43.344 232.293 42.528 232.293 41.448C232.293 40.344 233.157 39.528 234.261 39.528C235.365 39.528 236.229 40.344 236.229 41.448C236.229 42.528 235.365 43.344 234.261 43.344ZM232.557 57V44.664H235.965V57H232.557ZM244.083 57.144C240.147 57.144 237.579 54.624 237.579 50.832C237.579 47.04 240.147 44.52 244.083 44.52C248.019 44.52 250.587 47.04 250.587 50.832C250.587 54.648 248.019 57.144 244.083 57.144ZM244.083 54.384C245.979 54.384 247.155 52.92 247.155 50.832C247.155 48.744 245.979 47.28 244.083 47.28C242.187 47.28 241.035 48.744 241.035 50.832C241.035 52.92 242.187 54.384 244.083 54.384ZM259.29 44.52C261.954 44.52 264.234 45.936 264.234 50.16V57H260.85V50.496C260.85 48.408 260.058 47.304 258.354 47.304C256.602 47.304 255.594 48.552 255.594 50.688V57H252.21V44.664H255.162L255.474 46.2C256.266 45.24 257.394 44.52 259.29 44.52ZM265.55 52.896H268.766C268.886 53.976 269.822 54.72 271.478 54.72C272.894 54.72 273.758 54.264 273.758 53.4C273.758 52.392 272.918 52.32 270.926 52.056C268.046 51.72 265.814 51.072 265.814 48.528C265.814 46.08 267.95 44.472 271.118 44.496C274.43 44.496 276.71 45.96 276.878 48.48H273.638C273.542 47.496 272.606 46.896 271.238 46.896C269.918 46.896 269.054 47.376 269.054 48.168C269.054 49.104 270.11 49.2 271.886 49.416C274.718 49.704 277.07 50.352 277.07 53.136C277.07 55.584 274.766 57.144 271.454 57.144C268.022 57.144 265.694 55.536 265.55 52.896Z" fill="#F7F8F8"/>
<path d="M35.072 86.704H41.488V88H33.664V76.8H41.328V78.096H35.072V81.712H41.008V82.992H35.072V86.704ZM50.9119 82.816V88H49.5679V83.136C49.5679 81.6 48.9919 80.928 47.7119 80.928C46.2559 80.928 45.2159 81.824 45.2159 83.184V88H43.8719V79.904H45.2159V81.28C45.6639 80.256 46.7039 79.68 48.0319 79.68C49.8719 79.68 50.9119 80.816 50.9119 82.816ZM53.2513 77.28C53.2513 76.752 53.6513 76.352 54.1793 76.352C54.7073 76.352 55.1073 76.752 55.1073 77.28C55.1073 77.808 54.7073 78.208 54.1793 78.208C53.6513 78.208 53.2513 77.808 53.2513 77.28ZM51.5233 91.344V90.128C51.7793 90.192 52.0353 90.224 52.2753 90.224C53.1553 90.224 53.5073 89.824 53.5073 88.944V79.904H54.8513V89.104C54.8513 90.592 54.0513 91.44 52.4353 91.44C52.1473 91.44 51.8433 91.408 51.5233 91.344ZM56.9253 83.952C56.8933 81.664 58.6373 79.632 61.0853 79.68C63.5333 79.632 65.2773 81.664 65.2453 83.952C65.2773 86.24 63.5333 88.272 61.0853 88.224C58.6373 88.272 56.8933 86.24 56.9253 83.952ZM63.8373 83.952C63.8373 83.072 63.5813 82.336 63.0693 81.776C62.5733 81.216 61.9013 80.928 61.0853 80.928C60.2693 80.928 59.5973 81.216 59.0853 81.776C58.5893 82.336 58.3333 83.072 58.3333 83.952C58.3333 84.832 58.5893 85.568 59.0853 86.128C59.5973 86.688 60.2693 86.976 61.0853 86.976C61.9013 86.976 62.5733 86.688 63.0693 86.128C63.5813 85.568 63.8373 84.832 63.8373 83.952ZM72.8281 79.904H74.1721V87.216C74.1721 89.952 72.7161 91.424 70.2201 91.424C68.8601 91.424 67.6121 90.976 66.8601 90.208L67.6441 89.248C68.3001 89.84 69.2281 90.176 70.1881 90.176C71.8681 90.176 72.8281 89.184 72.8281 87.216V86.4C72.3641 87.424 71.3081 88 69.9801 88C68.1721 88 67.1001 86.896 67.1001 84.864V79.904H68.4441V84.544C68.4441 86.08 69.0361 86.752 70.3001 86.752C71.7721 86.752 72.8281 85.84 72.8281 84.496V79.904ZM80.6713 88V81.056H79.0073V79.904H80.6713V78.672C80.6713 76.928 81.4713 76.144 83.1833 76.144C83.5833 76.144 83.9993 76.192 84.4153 76.288V77.424C84.0313 77.344 83.6793 77.312 83.3593 77.312C82.4153 77.312 82.0153 77.728 82.0153 78.704V79.904H84.3833V81.056H82.0153V88H80.6713ZM92.9306 84.368H86.4506C86.5946 85.984 87.6826 86.976 89.2666 86.976C90.3066 86.976 91.1706 86.56 91.8426 85.712L92.7546 86.48C91.9706 87.584 90.7226 88.224 89.2346 88.224C86.7866 88.224 85.0746 86.48 85.0746 83.968C85.0746 81.488 86.7386 79.68 89.1226 79.68C91.3786 79.68 92.9786 81.296 92.9786 83.648C92.9786 83.888 92.9626 84.128 92.9306 84.368ZM86.4826 83.28H91.6026C91.4746 81.792 90.5306 80.928 89.1226 80.928C87.6986 80.928 86.7226 81.824 86.4826 83.28ZM102.284 84.368H95.8044C95.9484 85.984 97.0364 86.976 98.6204 86.976C99.6604 86.976 100.524 86.56 101.196 85.712L102.108 86.48C101.324 87.584 100.076 88.224 98.5884 88.224C96.1404 88.224 94.4284 86.48 94.4284 83.968C94.4284 81.488 96.0924 79.68 98.4764 79.68C100.732 79.68 102.332 81.296 102.332 83.648C102.332 83.888 102.316 84.128 102.284 84.368ZM95.8364 83.28H100.956C100.828 81.792 99.8844 80.928 98.4764 80.928C97.0524 80.928 96.0764 81.824 95.8364 83.28ZM103.798 83.968V82.72H108.438V83.968H103.798ZM111.164 88V81.056H109.5V79.904H111.164V78.672C111.164 76.928 111.964 76.144 113.676 76.144C114.076 76.144 114.492 76.192 114.908 76.288V77.424C114.524 77.344 114.172 77.312 113.852 77.312C112.908 77.312 112.508 77.728 112.508 78.704V79.904H114.876V81.056H112.508V88H111.164ZM120.938 79.888V81.072C120.698 81.04 120.474 81.024 120.234 81.024C118.65 81.024 117.738 81.952 117.738 83.856V88H116.394V79.904H117.738V81.424C118.106 80.384 119.002 79.776 120.202 79.776C120.474 79.776 120.73 79.808 120.938 79.888ZM129.496 84.368H123.016C123.16 85.984 124.248 86.976 125.832 86.976C126.872 86.976 127.736 86.56 128.408 85.712L129.32 86.48C128.536 87.584 127.288 88.224 125.8 88.224C123.352 88.224 121.64 86.48 121.64 83.968C121.64 81.488 123.304 79.68 125.688 79.68C127.944 79.68 129.544 81.296 129.544 83.648C129.544 83.888 129.528 84.128 129.496 84.368ZM123.048 83.28H128.168C128.04 81.792 127.096 80.928 125.688 80.928C124.264 80.928 123.288 81.824 123.048 83.28ZM138.85 84.368H132.37C132.514 85.984 133.602 86.976 135.186 86.976C136.226 86.976 137.09 86.56 137.762 85.712L138.674 86.48C137.89 87.584 136.642 88.224 135.154 88.224C132.706 88.224 130.994 86.48 130.994 83.968C130.994 81.488 132.658 79.68 135.042 79.68C137.298 79.68 138.898 81.296 138.898 83.648C138.898 83.888 138.882 84.128 138.85 84.368ZM132.402 83.28H137.522C137.394 81.792 136.45 80.928 135.042 80.928C133.618 80.928 132.642 81.824 132.402 83.28ZM144.729 85.92V81.056H143.113V79.904H144.729V77.504H146.073V79.904H148.617V81.056H146.073V85.824C146.073 86.608 146.473 86.944 147.385 86.944C147.753 86.944 148.185 86.896 148.649 86.8V87.92C148.185 88.064 147.705 88.128 147.193 88.128C145.593 88.128 144.729 87.376 144.729 85.92ZM155.003 79.888V81.072C154.763 81.04 154.539 81.024 154.299 81.024C152.715 81.024 151.803 81.952 151.803 83.856V88H150.459V79.904H151.803V81.424C152.171 80.384 153.067 79.776 154.267 79.776C154.539 79.776 154.795 79.808 155.003 79.888ZM162.554 79.904H163.898V88H162.554V86.512C162.09 87.552 160.922 88.224 159.562 88.224C157.338 88.224 155.706 86.448 155.706 83.952C155.706 81.456 157.338 79.68 159.562 79.68C160.922 79.68 162.09 80.352 162.554 81.392V79.904ZM162.618 83.952C162.618 83.072 162.362 82.336 161.85 81.776C161.354 81.216 160.682 80.928 159.866 80.928C159.05 80.928 158.378 81.216 157.866 81.776C157.37 82.336 157.114 83.072 157.114 83.952C157.114 84.832 157.37 85.568 157.866 86.128C158.378 86.688 159.05 86.976 159.866 86.976C160.682 86.976 161.354 86.688 161.85 86.128C162.362 85.568 162.618 84.832 162.618 83.952ZM173.582 82.816V88H172.238V83.136C172.238 81.6 171.662 80.928 170.382 80.928C168.926 80.928 167.886 81.824 167.886 83.184V88H166.542V79.904H167.886V81.28C168.334 80.256 169.374 79.68 170.702 79.68C172.542 79.68 173.582 80.816 173.582 82.816ZM175.393 86.464L176.369 85.744C176.945 86.576 177.889 87.008 178.993 87.008C180.145 87.008 180.849 86.528 180.849 85.776C180.849 85.2 180.449 84.864 179.425 84.624L178.145 84.336C176.481 83.952 175.681 83.216 175.681 82.08C175.681 80.656 176.897 79.68 178.865 79.68C180.273 79.68 181.409 80.176 182.065 81.056L181.137 81.856C180.609 81.232 179.793 80.896 178.785 80.896C177.633 80.896 177.025 81.328 177.025 82.048C177.025 82.576 177.393 82.88 178.481 83.136L179.905 83.456C181.505 83.824 182.193 84.544 182.193 85.68C182.193 87.216 180.993 88.224 179.009 88.224C177.361 88.224 176.033 87.552 175.393 86.464ZM190.396 79.904H191.74V88H190.396V86.512C189.932 87.552 188.764 88.224 187.404 88.224C185.18 88.224 183.548 86.448 183.548 83.952C183.548 81.456 185.18 79.68 187.404 79.68C188.764 79.68 189.932 80.352 190.396 81.392V79.904ZM190.46 83.952C190.46 83.072 190.204 82.336 189.692 81.776C189.196 81.216 188.524 80.928 187.708 80.928C186.892 80.928 186.22 81.216 185.708 81.776C185.212 82.336 184.956 83.072 184.956 83.952C184.956 84.832 185.212 85.568 185.708 86.128C186.22 86.688 186.892 86.976 187.708 86.976C188.524 86.976 189.196 86.688 189.692 86.128C190.204 85.568 190.46 84.832 190.46 83.952ZM193.808 83.952C193.808 81.488 195.504 79.68 197.968 79.68C199.456 79.68 200.672 80.304 201.36 81.44L200.304 82.176C199.808 81.36 198.992 80.928 197.984 80.928C197.168 80.928 196.496 81.2 195.984 81.76C195.472 82.32 195.216 83.04 195.216 83.952C195.216 84.864 195.472 85.584 195.984 86.144C196.496 86.704 197.168 86.976 197.984 86.976C198.992 86.976 199.808 86.544 200.304 85.728L201.36 86.464C200.672 87.6 199.456 88.224 197.968 88.224C195.504 88.224 193.808 86.416 193.808 83.952ZM203.846 85.92V81.056H202.23V79.904H203.846V77.504H205.19V79.904H207.734V81.056H205.19V85.824C205.19 86.608 205.59 86.944 206.502 86.944C206.87 86.944 207.302 86.896 207.766 86.8V87.92C207.302 88.064 206.822 88.128 206.31 88.128C204.71 88.128 203.846 87.376 203.846 85.92ZM209.336 77.28C209.336 76.752 209.736 76.352 210.264 76.352C210.792 76.352 211.192 76.752 211.192 77.28C211.192 77.808 210.792 78.208 210.264 78.208C209.736 78.208 209.336 77.808 209.336 77.28ZM209.592 88V79.904H210.936V88H209.592ZM213.01 83.952C212.978 81.664 214.722 79.632 217.17 79.68C219.618 79.632 221.362 81.664 221.33 83.952C221.362 86.24 219.618 88.272 217.17 88.224C214.722 88.272 212.978 86.24 213.01 83.952ZM219.922 83.952C219.922 83.072 219.666 82.336 219.154 81.776C218.658 81.216 217.986 80.928 217.17 80.928C216.354 80.928 215.682 81.216 215.17 81.776C214.674 82.336 214.418 83.072 214.418 83.952C214.418 84.832 214.674 85.568 215.17 86.128C215.682 86.688 216.354 86.976 217.17 86.976C217.986 86.976 218.658 86.688 219.154 86.128C219.666 85.568 219.922 84.832 219.922 83.952ZM230.433 82.816V88H229.089V83.136C229.089 81.6 228.513 80.928 227.233 80.928C225.777 80.928 224.737 81.824 224.737 83.184V88H223.393V79.904H224.737V81.28C225.185 80.256 226.225 79.68 227.553 79.68C229.393 79.68 230.433 80.816 230.433 82.816ZM232.244 86.464L233.22 85.744C233.796 86.576 234.74 87.008 235.844 87.008C236.996 87.008 237.7 86.528 237.7 85.776C237.7 85.2 237.3 84.864 236.276 84.624L234.996 84.336C233.332 83.952 232.532 83.216 232.532 82.08C232.532 80.656 233.748 79.68 235.716 79.68C237.124 79.68 238.26 80.176 238.916 81.056L237.988 81.856C237.46 81.232 236.644 80.896 235.636 80.896C234.484 80.896 233.876 81.328 233.876 82.048C233.876 82.576 234.244 82.88 235.332 83.136L236.756 83.456C238.356 83.824 239.044 84.544 239.044 85.68C239.044 87.216 237.844 88.224 235.86 88.224C234.212 88.224 232.884 87.552 232.244 86.464ZM243.847 83.952C243.815 81.664 245.559 79.632 248.007 79.68C250.455 79.632 252.199 81.664 252.167 83.952C252.199 86.24 250.455 88.272 248.007 88.224C245.559 88.272 243.815 86.24 243.847 83.952ZM250.759 83.952C250.759 83.072 250.503 82.336 249.991 81.776C249.495 81.216 248.823 80.928 248.007 80.928C247.191 80.928 246.519 81.216 246.007 81.776C245.511 82.336 245.255 83.072 245.255 83.952C245.255 84.832 245.511 85.568 246.007 86.128C246.519 86.688 247.191 86.976 248.007 86.976C248.823 86.976 249.495 86.688 249.991 86.128C250.503 85.568 250.759 84.832 250.759 83.952ZM261.27 82.816V88H259.926V83.136C259.926 81.6 259.35 80.928 258.07 80.928C256.614 80.928 255.574 81.824 255.574 83.184V88H254.23V79.904H255.574V81.28C256.022 80.256 257.062 79.68 258.39 79.68C260.23 79.68 261.27 80.816 261.27 82.816ZM272.581 79.904H274.021L270.725 88H269.285L265.989 79.904H267.429L270.005 86.528L272.581 79.904ZM281.548 79.904H282.892V88H281.548V86.512C281.084 87.552 279.916 88.224 278.556 88.224C276.332 88.224 274.7 86.448 274.7 83.952C274.7 81.456 276.332 79.68 278.556 79.68C279.916 79.68 281.084 80.352 281.548 81.392V79.904ZM281.612 83.952C281.612 83.072 281.356 82.336 280.844 81.776C280.348 81.216 279.676 80.928 278.86 80.928C278.044 80.928 277.372 81.216 276.86 81.776C276.364 82.336 276.108 83.072 276.108 83.952C276.108 84.832 276.364 85.568 276.86 86.128C277.372 86.688 278.044 86.976 278.86 86.976C279.676 86.976 280.348 86.688 280.844 86.128C281.356 85.568 281.612 84.832 281.612 83.952ZM290.08 79.888V81.072C289.84 81.04 289.616 81.024 289.376 81.024C287.792 81.024 286.88 81.952 286.88 83.856V88H285.536V79.904H286.88V81.424C287.248 80.384 288.144 79.776 289.344 79.776C289.616 79.776 289.872 79.808 290.08 79.888ZM291.524 77.28C291.524 76.752 291.924 76.352 292.452 76.352C292.98 76.352 293.38 76.752 293.38 77.28C293.38 77.808 292.98 78.208 292.452 78.208C291.924 78.208 291.524 77.808 291.524 77.28ZM291.78 88V79.904H293.124V88H291.78ZM295.198 83.952C295.166 81.664 296.91 79.632 299.358 79.68C301.806 79.632 303.55 81.664 303.518 83.952C303.55 86.24 301.806 88.272 299.358 88.224C296.91 88.272 295.166 86.24 295.198 83.952ZM302.11 83.952C302.11 83.072 301.854 82.336 301.342 81.776C300.846 81.216 300.174 80.928 299.358 80.928C298.542 80.928 297.87 81.216 297.358 81.776C296.862 82.336 296.606 83.072 296.606 83.952C296.606 84.832 296.862 85.568 297.358 86.128C297.87 86.688 298.542 86.976 299.358 86.976C300.174 86.976 300.846 86.688 301.342 86.128C301.854 85.568 302.11 84.832 302.11 83.952ZM305.421 84.976V79.904H306.765V84.896C306.765 86.24 307.549 86.976 308.909 86.976C310.269 86.976 311.053 86.24 311.053 84.896V79.904H312.397V84.976C312.397 86.896 311.005 88.224 308.909 88.224C306.813 88.224 305.421 86.896 305.421 84.976ZM314.104 86.464L315.08 85.744C315.656 86.576 316.6 87.008 317.704 87.008C318.856 87.008 319.56 86.528 319.56 85.776C319.56 85.2 319.16 84.864 318.136 84.624L316.856 84.336C315.192 83.952 314.392 83.216 314.392 82.08C314.392 80.656 315.608 79.68 317.576 79.68C318.984 79.68 320.12 80.176 320.776 81.056L319.848 81.856C319.32 81.232 318.504 80.896 317.496 80.896C316.344 80.896 315.736 81.328 315.736 82.048C315.736 82.576 316.104 82.88 317.192 83.136L318.616 83.456C320.216 83.824 320.904 84.544 320.904 85.68C320.904 87.216 319.704 88.224 317.72 88.224C316.072 88.224 314.744 87.552 314.104 86.464ZM32.672 110.464L33.648 109.744C34.224 110.576 35.168 111.008 36.272 111.008C37.424 111.008 38.128 110.528 38.128 109.776C38.128 109.2 37.728 108.864 36.704 108.624L35.424 108.336C33.76 107.952 32.96 107.216 32.96 106.08C32.96 104.656 34.176 103.68 36.144 103.68C37.552 103.68 38.688 104.176 39.344 105.056L38.416 105.856C37.888 105.232 37.072 104.896 36.064 104.896C34.912 104.896 34.304 105.328 34.304 106.048C34.304 106.576 34.672 106.88 35.76 107.136L37.184 107.456C38.784 107.824 39.472 108.544 39.472 109.68C39.472 111.216 38.272 112.224 36.288 112.224C34.64 112.224 33.312 111.552 32.672 110.464ZM48.6831 108.368H42.2031C42.3471 109.984 43.4351 110.976 45.0191 110.976C46.0591 110.976 46.9231 110.56 47.5951 109.712L48.5071 110.48C47.7231 111.584 46.4751 112.224 44.9871 112.224C42.5391 112.224 40.8271 110.48 40.8271 107.968C40.8271 105.488 42.4911 103.68 44.8751 103.68C47.1311 103.68 48.7311 105.296 48.7311 107.648C48.7311 107.888 48.7151 108.128 48.6831 108.368ZM42.2351 107.28H47.3551C47.2271 105.792 46.2831 104.928 44.8751 104.928C43.4511 104.928 42.4751 105.824 42.2351 107.28ZM55.3009 103.888V105.072C55.0609 105.04 54.8369 105.024 54.5969 105.024C53.0129 105.024 52.1009 105.952 52.1009 107.856V112H50.7569V103.904H52.1009V105.424C52.4689 104.384 53.3649 103.776 54.5649 103.776C54.8369 103.776 55.0929 103.808 55.3009 103.888ZM62.6756 103.904H64.1156L60.8196 112H59.3796L56.0836 103.904H57.5236L60.0996 110.528L62.6756 103.904ZM65.365 101.28C65.365 100.752 65.765 100.352 66.293 100.352C66.821 100.352 67.221 100.752 67.221 101.28C67.221 101.808 66.821 102.208 66.293 102.208C65.765 102.208 65.365 101.808 65.365 101.28ZM65.621 112V103.904H66.965V112H65.621ZM69.039 107.952C69.039 105.488 70.735 103.68 73.199 103.68C74.687 103.68 75.903 104.304 76.591 105.44L75.535 106.176C75.039 105.36 74.223 104.928 73.215 104.928C72.399 104.928 71.727 105.2 71.215 105.76C70.703 106.32 70.447 107.04 70.447 107.952C70.447 108.864 70.703 109.584 71.215 110.144C71.727 110.704 72.399 110.976 73.215 110.976C74.223 110.976 75.039 110.544 75.535 109.728L76.591 110.464C75.903 111.6 74.687 112.224 73.199 112.224C70.735 112.224 69.039 110.416 69.039 107.952ZM85.6081 108.368H79.1281C79.2721 109.984 80.3601 110.976 81.9441 110.976C82.9841 110.976 83.8481 110.56 84.5201 109.712L85.4321 110.48C84.6481 111.584 83.4001 112.224 81.9121 112.224C79.4641 112.224 77.7521 110.48 77.7521 107.968C77.7521 105.488 79.4161 103.68 81.8001 103.68C84.0561 103.68 85.6561 105.296 85.6561 107.648C85.6561 107.888 85.6401 108.128 85.6081 108.368ZM79.1601 107.28H84.2801C84.1521 105.792 83.2081 104.928 81.8001 104.928C80.3761 104.928 79.4001 105.824 79.1601 107.28ZM86.9139 110.464L87.8899 109.744C88.4659 110.576 89.4099 111.008 90.5139 111.008C91.6659 111.008 92.3699 110.528 92.3699 109.776C92.3699 109.2 91.9699 108.864 90.9459 108.624L89.6659 108.336C88.0019 107.952 87.2019 107.216 87.2019 106.08C87.2019 104.656 88.4179 103.68 90.3859 103.68C91.7939 103.68 92.9299 104.176 93.5859 105.056L92.6579 105.856C92.1299 105.232 91.3139 104.896 90.3059 104.896C89.1539 104.896 88.5459 105.328 88.5459 106.048C88.5459 106.576 88.9139 106.88 90.0019 107.136L91.4259 107.456C93.0259 107.824 93.7139 108.544 93.7139 109.68C93.7139 111.216 92.5139 112.224 90.5299 112.224C88.8819 112.224 87.5539 111.552 86.9139 110.464ZM94.925 114.384L95.693 110.064H97.101L95.981 114.384H94.925ZM110.904 107.952C110.904 110.448 109.272 112.224 107.064 112.224C105.704 112.224 104.552 111.552 104.056 110.512V115.2H102.712V103.904H104.056V105.392C104.552 104.352 105.704 103.68 107.064 103.68C109.272 103.68 110.904 105.456 110.904 107.952ZM109.496 107.952C109.496 107.072 109.24 106.336 108.728 105.776C108.232 105.216 107.56 104.928 106.744 104.928C105.928 104.928 105.256 105.216 104.744 105.776C104.248 106.336 103.992 107.072 103.992 107.952C103.992 108.832 104.248 109.568 104.744 110.128C105.256 110.688 105.928 110.976 106.744 110.976C107.56 110.976 108.232 110.688 108.728 110.128C109.24 109.568 109.496 108.832 109.496 107.952ZM117.516 103.888V105.072C117.276 105.04 117.052 105.024 116.812 105.024C115.228 105.024 114.316 105.952 114.316 107.856V112H112.972V103.904H114.316V105.424C114.684 104.384 115.58 103.776 116.78 103.776C117.052 103.776 117.308 103.808 117.516 103.888ZM118.218 107.952C118.186 105.664 119.93 103.632 122.378 103.68C124.826 103.632 126.57 105.664 126.538 107.952C126.57 110.24 124.826 112.272 122.378 112.224C119.93 112.272 118.186 110.24 118.218 107.952ZM125.13 107.952C125.13 107.072 124.874 106.336 124.362 105.776C123.866 105.216 123.194 104.928 122.378 104.928C121.562 104.928 120.89 105.216 120.378 105.776C119.882 106.336 119.626 107.072 119.626 107.952C119.626 108.832 119.882 109.568 120.378 110.128C120.89 110.688 121.562 110.976 122.378 110.976C123.194 110.976 123.866 110.688 124.362 110.128C124.874 109.568 125.13 108.832 125.13 107.952ZM133.807 103.904H135.247L131.951 112H130.511L127.215 103.904H128.655L131.231 110.528L133.807 103.904ZM136.496 101.28C136.496 100.752 136.896 100.352 137.424 100.352C137.952 100.352 138.352 100.752 138.352 101.28C138.352 101.808 137.952 102.208 137.424 102.208C136.896 102.208 136.496 101.808 136.496 101.28ZM136.752 112V103.904H138.096V112H136.752ZM147.018 100.288H148.362V112H147.018V110.512C146.522 111.552 145.37 112.224 144.01 112.224C141.802 112.224 140.17 110.448 140.17 107.952C140.17 105.456 141.802 103.68 144.01 103.68C145.37 103.68 146.522 104.352 147.018 105.392V100.288ZM147.082 107.952C147.082 107.072 146.826 106.336 146.314 105.776C145.818 105.216 145.146 104.928 144.33 104.928C143.514 104.928 142.842 105.216 142.33 105.776C141.834 106.336 141.578 107.072 141.578 107.952C141.578 108.832 141.834 109.568 142.33 110.128C142.842 110.688 143.514 110.976 144.33 110.976C145.146 110.976 145.818 110.688 146.314 110.128C146.826 109.568 147.082 108.832 147.082 107.952ZM150.766 101.28C150.766 100.752 151.166 100.352 151.694 100.352C152.222 100.352 152.622 100.752 152.622 101.28C152.622 101.808 152.222 102.208 151.694 102.208C151.166 102.208 150.766 101.808 150.766 101.28ZM151.022 112V103.904H152.366V112H151.022ZM162.056 106.816V112H160.712V107.136C160.712 105.6 160.136 104.928 158.856 104.928C157.4 104.928 156.36 105.824 156.36 107.184V112H155.016V103.904H156.36V105.28C156.808 104.256 157.848 103.68 159.176 103.68C161.016 103.68 162.056 104.816 162.056 106.816ZM170.908 103.904H172.252V111.072C172.252 113.888 170.732 115.424 168.044 115.424C166.524 115.424 165.196 114.928 164.364 114.08L165.132 113.088C165.884 113.776 166.908 114.176 168.044 114.176C169.9 114.176 170.908 113.12 170.908 111.072V110.336C170.444 111.36 169.308 112 167.916 112C165.692 112 164.06 110.288 164.06 107.84C164.06 105.392 165.692 103.68 167.916 103.68C169.276 103.68 170.444 104.336 170.908 105.376V103.904ZM170.972 107.84C170.972 106.992 170.716 106.288 170.204 105.744C169.708 105.2 169.036 104.928 168.22 104.928C167.404 104.928 166.732 105.2 166.22 105.744C165.724 106.288 165.468 106.992 165.468 107.84C165.468 108.688 165.724 109.392 166.22 109.936C166.732 110.48 167.404 110.752 168.22 110.752C169.036 110.752 169.708 110.48 170.204 109.936C170.716 109.392 170.972 108.688 170.972 107.84ZM183.863 103.904H185.207V111.216C185.207 113.952 183.751 115.424 181.255 115.424C179.895 115.424 178.647 114.976 177.895 114.208L178.679 113.248C179.335 113.84 180.263 114.176 181.223 114.176C182.903 114.176 183.863 113.184 183.863 111.216V110.4C183.399 111.424 182.343 112 181.015 112C179.207 112 178.135 110.896 178.135 108.864V103.904H179.479V108.544C179.479 110.08 180.071 110.752 181.335 110.752C182.807 110.752 183.863 109.84 183.863 108.496V103.904ZM187.277 107.952C187.245 105.664 188.989 103.632 191.437 103.68C193.885 103.632 195.629 105.664 195.597 107.952C195.629 110.24 193.885 112.272 191.437 112.224C188.989 112.272 187.245 110.24 187.277 107.952ZM194.189 107.952C194.189 107.072 193.933 106.336 193.421 105.776C192.925 105.216 192.253 104.928 191.437 104.928C190.621 104.928 189.949 105.216 189.437 105.776C188.941 106.336 188.685 107.072 188.685 107.952C188.685 108.832 188.941 109.568 189.437 110.128C189.949 110.688 190.621 110.976 191.437 110.976C192.253 110.976 192.925 110.688 193.421 110.128C193.933 109.568 194.189 108.832 194.189 107.952ZM197.5 108.976V103.904H198.844V108.896C198.844 110.24 199.628 110.976 200.988 110.976C202.348 110.976 203.132 110.24 203.132 108.896V103.904H204.476V108.976C204.476 110.896 203.084 112.224 200.988 112.224C198.892 112.224 197.5 110.896 197.5 108.976ZM220.403 103.904H221.763L219.107 112H217.635L215.459 105.44L213.283 112H211.811L209.155 103.904H210.515L212.579 110.352L214.723 103.904H216.195L218.339 110.352L220.403 103.904ZM223.075 101.28C223.075 100.752 223.475 100.352 224.003 100.352C224.531 100.352 224.931 100.752 224.931 101.28C224.931 101.808 224.531 102.208 224.003 102.208C223.475 102.208 223.075 101.808 223.075 101.28ZM223.331 112V103.904H224.675V112H223.331ZM227.917 109.92V105.056H226.301V103.904H227.917V101.504H229.261V103.904H231.805V105.056H229.261V109.824C229.261 110.608 229.661 110.944 230.573 110.944C230.941 110.944 231.373 110.896 231.837 110.8V111.92C231.373 112.064 230.893 112.128 230.381 112.128C228.781 112.128 227.917 111.376 227.917 109.92ZM240.688 106.816V112H239.344V107.136C239.344 105.6 238.768 104.928 237.488 104.928C236.032 104.928 234.992 105.824 234.992 107.184V112H233.648V100.288H234.992V105.28C235.44 104.256 236.48 103.68 237.808 103.68C239.648 103.68 240.688 104.816 240.688 106.816ZM246.138 107.952C246.138 105.488 247.834 103.68 250.298 103.68C251.786 103.68 253.002 104.304 253.69 105.44L252.634 106.176C252.138 105.36 251.322 104.928 250.314 104.928C249.498 104.928 248.826 105.2 248.314 105.76C247.802 106.32 247.546 107.04 247.546 107.952C247.546 108.864 247.802 109.584 248.314 110.144C248.826 110.704 249.498 110.976 250.314 110.976C251.322 110.976 252.138 110.544 252.634 109.728L253.69 110.464C253.002 111.6 251.786 112.224 250.298 112.224C247.834 112.224 246.138 110.416 246.138 107.952ZM254.852 107.952C254.82 105.664 256.564 103.632 259.012 103.68C261.46 103.632 263.204 105.664 263.172 107.952C263.204 110.24 261.46 112.272 259.012 112.224C256.564 112.272 254.82 110.24 254.852 107.952ZM261.764 107.952C261.764 107.072 261.508 106.336 260.996 105.776C260.5 105.216 259.828 104.928 259.012 104.928C258.196 104.928 257.524 105.216 257.012 105.776C256.516 106.336 256.26 107.072 256.26 107.952C256.26 108.832 256.516 109.568 257.012 110.128C257.524 110.688 258.196 110.976 259.012 110.976C259.828 110.976 260.5 110.688 260.996 110.128C261.508 109.568 261.764 108.832 261.764 107.952ZM264.466 110.464L265.442 109.744C266.018 110.576 266.962 111.008 268.066 111.008C269.218 111.008 269.922 110.528 269.922 109.776C269.922 109.2 269.522 108.864 268.498 108.624L267.218 108.336C265.554 107.952 264.754 107.216 264.754 106.08C264.754 104.656 265.97 103.68 267.938 103.68C269.346 103.68 270.482 104.176 271.138 105.056L270.21 105.856C269.682 105.232 268.866 104.896 267.858 104.896C266.706 104.896 266.098 105.328 266.098 106.048C266.098 106.576 266.466 106.88 267.554 107.136L268.978 107.456C270.578 107.824 271.266 108.544 271.266 109.68C271.266 111.216 270.066 112.224 268.082 112.224C266.434 112.224 265.106 111.552 264.466 110.464ZM273.758 109.92V105.056H272.142V103.904H273.758V101.504H275.102V103.904H277.646V105.056H275.102V109.824C275.102 110.608 275.502 110.944 276.414 110.944C276.782 110.944 277.214 110.896 277.678 110.8V111.92C277.214 112.064 276.734 112.128 276.222 112.128C274.622 112.128 273.758 111.376 273.758 109.92ZM278.444 107.968V106.72H283.084V107.968H278.444ZM292.451 108.368H285.971C286.115 109.984 287.203 110.976 288.787 110.976C289.827 110.976 290.691 110.56 291.363 109.712L292.275 110.48C291.491 111.584 290.243 112.224 288.755 112.224C286.307 112.224 284.595 110.48 284.595 107.968C284.595 105.488 286.259 103.68 288.643 103.68C290.899 103.68 292.499 105.296 292.499 107.648C292.499 107.888 292.483 108.128 292.451 108.368ZM286.003 107.28H291.123C290.995 105.792 290.051 104.928 288.643 104.928C287.219 104.928 286.243 105.824 286.003 107.28ZM295.008 112V105.056H293.344V103.904H295.008V102.672C295.008 100.928 295.808 100.144 297.52 100.144C297.92 100.144 298.336 100.192 298.752 100.288V101.424C298.368 101.344 298.016 101.312 297.696 101.312C296.752 101.312 296.352 101.728 296.352 102.704V103.904H298.72V105.056H296.352V112H295.008ZM300.909 112V105.056H299.245V103.904H300.909V102.672C300.909 100.928 301.709 100.144 303.421 100.144C303.821 100.144 304.237 100.192 304.653 100.288V101.424C304.269 101.344 303.917 101.312 303.597 101.312C302.653 101.312 302.253 101.728 302.253 102.704V103.904H304.621V105.056H302.253V112H300.909ZM313.168 108.368H306.688C306.832 109.984 307.92 110.976 309.504 110.976C310.544 110.976 311.408 110.56 312.08 109.712L312.992 110.48C312.208 111.584 310.96 112.224 309.472 112.224C307.024 112.224 305.312 110.48 305.312 107.968C305.312 105.488 306.976 103.68 309.36 103.68C311.616 103.68 313.216 105.296 313.216 107.648C313.216 107.888 313.2 108.128 313.168 108.368ZM306.72 107.28H311.84C311.712 105.792 310.768 104.928 309.36 104.928C307.936 104.928 306.96 105.824 306.72 107.28ZM314.666 107.952C314.666 105.488 316.362 103.68 318.826 103.68C320.314 103.68 321.53 104.304 322.218 105.44L321.162 106.176C320.666 105.36 319.85 104.928 318.842 104.928C318.026 104.928 317.354 105.2 316.842 105.76C316.33 106.32 316.074 107.04 316.074 107.952C316.074 108.864 316.33 109.584 316.842 110.144C317.354 110.704 318.026 110.976 318.842 110.976C319.85 110.976 320.666 110.544 321.162 109.728L322.218 110.464C321.53 111.6 320.314 112.224 318.826 112.224C316.362 112.224 314.666 110.416 314.666 107.952ZM324.703 109.92V105.056H323.087V103.904H324.703V101.504H326.047V103.904H328.591V105.056H326.047V109.824C326.047 110.608 326.447 110.944 327.359 110.944C327.727 110.944 328.159 110.896 328.623 110.8V111.92C328.159 112.064 327.679 112.128 327.167 112.128C325.567 112.128 324.703 111.376 324.703 109.92ZM330.194 101.28C330.194 100.752 330.594 100.352 331.122 100.352C331.65 100.352 332.05 100.752 332.05 101.28C332.05 101.808 331.65 102.208 331.122 102.208C330.594 102.208 330.194 101.808 330.194 101.28ZM330.45 112V103.904H331.794V112H330.45ZM339.884 103.904H341.324L338.028 112H336.588L333.292 103.904H334.732L337.308 110.528L339.884 103.904ZM349.859 108.368H343.379C343.523 109.984 344.611 110.976 346.195 110.976C347.235 110.976 348.099 110.56 348.771 109.712L349.683 110.48C348.899 111.584 347.651 112.224 346.163 112.224C343.715 112.224 342.003 110.48 342.003 107.968C342.003 105.488 343.667 103.68 346.051 103.68C348.307 103.68 349.907 105.296 349.907 107.648C349.907 107.888 349.891 108.128 349.859 108.368ZM343.411 107.28H348.531C348.403 105.792 347.459 104.928 346.051 104.928C344.627 104.928 343.651 105.824 343.411 107.28ZM41.632 131.952C41.632 134.448 40 136.224 37.792 136.224C36.432 136.224 35.28 135.552 34.784 134.512V136H33.44V124.288H34.784V129.392C35.28 128.352 36.432 127.68 37.792 127.68C40 127.68 41.632 129.456 41.632 131.952ZM40.224 131.952C40.224 131.072 39.968 130.336 39.456 129.776C38.96 129.216 38.288 128.928 37.472 128.928C36.656 128.928 35.984 129.216 35.472 129.776C34.976 130.336 34.72 131.072 34.72 131.952C34.72 132.832 34.976 133.568 35.472 134.128C35.984 134.688 36.656 134.976 37.472 134.976C38.288 134.976 38.96 134.688 39.456 134.128C39.968 133.568 40.224 132.832 40.224 131.952ZM49.972 127.904H51.316V136H49.972V134.512C49.508 135.552 48.34 136.224 46.98 136.224C44.756 136.224 43.124 134.448 43.124 131.952C43.124 129.456 44.756 127.68 46.98 127.68C48.34 127.68 49.508 128.352 49.972 129.392V127.904ZM50.036 131.952C50.036 131.072 49.78 130.336 49.268 129.776C48.772 129.216 48.1 128.928 47.284 128.928C46.468 128.928 45.796 129.216 45.284 129.776C44.788 130.336 44.532 131.072 44.532 131.952C44.532 132.832 44.788 133.568 45.284 134.128C45.796 134.688 46.468 134.976 47.284 134.976C48.1 134.976 48.772 134.688 49.268 134.128C49.78 133.568 50.036 132.832 50.036 131.952ZM61 130.816V136H59.656V131.136C59.656 129.6 59.08 128.928 57.8 128.928C56.344 128.928 55.304 129.824 55.304 131.184V136H53.96V127.904H55.304V129.28C55.752 128.256 56.792 127.68 58.12 127.68C59.96 127.68 61 128.816 61 130.816ZM69.1474 136L66.2194 132.336H64.9234V136H63.5794V124.288H64.9234V131.152H66.2674L69.0834 127.904H70.6514L67.3234 131.744L70.7154 136H69.1474ZM71.9275 125.28C71.9275 124.752 72.3275 124.352 72.8555 124.352C73.3835 124.352 73.7835 124.752 73.7835 125.28C73.7835 125.808 73.3835 126.208 72.8555 126.208C72.3275 126.208 71.9275 125.808 71.9275 125.28ZM72.1835 136V127.904H73.5275V136H72.1835ZM83.2175 130.816V136H81.8735V131.136C81.8735 129.6 81.2975 128.928 80.0175 128.928C78.5615 128.928 77.5215 129.824 77.5215 131.184V136H76.1775V127.904H77.5215V129.28C77.9695 128.256 79.0095 127.68 80.3375 127.68C82.1775 127.68 83.2175 128.816 83.2175 130.816ZM92.0689 127.904H93.4129V135.072C93.4129 137.888 91.8929 139.424 89.2049 139.424C87.6849 139.424 86.3569 138.928 85.5249 138.08L86.2929 137.088C87.0449 137.776 88.0689 138.176 89.2049 138.176C91.0609 138.176 92.0689 137.12 92.0689 135.072V134.336C91.6049 135.36 90.4689 136 89.0769 136C86.8529 136 85.2209 134.288 85.2209 131.84C85.2209 129.392 86.8529 127.68 89.0769 127.68C90.4369 127.68 91.6049 128.336 92.0689 129.376V127.904ZM92.1329 131.84C92.1329 130.992 91.8769 130.288 91.3649 129.744C90.8689 129.2 90.1969 128.928 89.3809 128.928C88.5649 128.928 87.8929 129.2 87.3809 129.744C86.8849 130.288 86.6289 130.992 86.6289 131.84C86.6289 132.688 86.8849 133.392 87.3809 133.936C87.8929 134.48 88.5649 134.752 89.3809 134.752C90.1969 134.752 90.8689 134.48 91.3649 133.936C91.8769 133.392 92.1329 132.688 92.1329 131.84ZM98.7364 134.464L99.7124 133.744C100.288 134.576 101.232 135.008 102.336 135.008C103.488 135.008 104.192 134.528 104.192 133.776C104.192 133.2 103.792 132.864 102.768 132.624L101.488 132.336C99.8244 131.952 99.0244 131.216 99.0244 130.08C99.0244 128.656 100.24 127.68 102.208 127.68C103.616 127.68 104.752 128.176 105.408 129.056L104.48 129.856C103.952 129.232 103.136 128.896 102.128 128.896C100.976 128.896 100.368 129.328 100.368 130.048C100.368 130.576 100.736 130.88 101.824 131.136L103.248 131.456C104.848 131.824 105.536 132.544 105.536 133.68C105.536 135.216 104.336 136.224 102.352 136.224C100.704 136.224 99.3764 135.552 98.7364 134.464ZM106.891 131.952C106.859 129.664 108.603 127.632 111.051 127.68C113.499 127.632 115.243 129.664 115.211 131.952C115.243 134.24 113.499 136.272 111.051 136.224C108.603 136.272 106.859 134.24 106.891 131.952ZM113.803 131.952C113.803 131.072 113.547 130.336 113.035 129.776C112.539 129.216 111.867 128.928 111.051 128.928C110.235 128.928 109.563 129.216 109.051 129.776C108.555 130.336 108.299 131.072 108.299 131.952C108.299 132.832 108.555 133.568 109.051 134.128C109.563 134.688 110.235 134.976 111.051 134.976C111.867 134.976 112.539 134.688 113.035 134.128C113.547 133.568 113.803 132.832 113.803 131.952ZM117.274 136V124.288H118.618V136H117.274ZM121.093 132.976V127.904H122.437V132.896C122.437 134.24 123.221 134.976 124.581 134.976C125.941 134.976 126.725 134.24 126.725 132.896V127.904H128.069V132.976C128.069 134.896 126.677 136.224 124.581 136.224C122.485 136.224 121.093 134.896 121.093 132.976ZM131.136 133.92V129.056H129.52V127.904H131.136V125.504H132.48V127.904H135.024V129.056H132.48V133.824C132.48 134.608 132.88 134.944 133.792 134.944C134.16 134.944 134.592 134.896 135.056 134.8V135.92C134.592 136.064 134.112 136.128 133.6 136.128C132 136.128 131.136 135.376 131.136 133.92ZM136.627 125.28C136.627 124.752 137.027 124.352 137.555 124.352C138.083 124.352 138.483 124.752 138.483 125.28C138.483 125.808 138.083 126.208 137.555 126.208C137.027 126.208 136.627 125.808 136.627 125.28ZM136.883 136V127.904H138.227V136H136.883ZM140.301 131.952C140.269 129.664 142.013 127.632 144.461 127.68C146.909 127.632 148.653 129.664 148.621 131.952C148.653 134.24 146.909 136.272 144.461 136.224C142.013 136.272 140.269 134.24 140.301 131.952ZM147.213 131.952C147.213 131.072 146.957 130.336 146.445 129.776C145.949 129.216 145.277 128.928 144.461 128.928C143.645 128.928 142.973 129.216 142.461 129.776C141.965 130.336 141.709 131.072 141.709 131.952C141.709 132.832 141.965 133.568 142.461 134.128C142.973 134.688 143.645 134.976 144.461 134.976C145.277 134.976 145.949 134.688 146.445 134.128C146.957 133.568 147.213 132.832 147.213 131.952ZM157.724 130.816V136H156.38V131.136C156.38 129.6 155.804 128.928 154.524 128.928C153.068 128.928 152.028 129.824 152.028 131.184V136H150.684V127.904H152.028V129.28C152.476 128.256 153.516 127.68 154.844 127.68C156.684 127.68 157.724 128.816 157.724 130.816ZM159.535 134.464L160.511 133.744C161.087 134.576 162.031 135.008 163.135 135.008C164.287 135.008 164.991 134.528 164.991 133.776C164.991 133.2 164.591 132.864 163.567 132.624L162.287 132.336C160.623 131.952 159.823 131.216 159.823 130.08C159.823 128.656 161.039 127.68 163.007 127.68C164.415 127.68 165.551 128.176 166.207 129.056L165.279 129.856C164.751 129.232 163.935 128.896 162.927 128.896C161.775 128.896 161.167 129.328 161.167 130.048C161.167 130.576 161.535 130.88 162.623 131.136L164.047 131.456C165.647 131.824 166.335 132.544 166.335 133.68C166.335 135.216 165.135 136.224 163.151 136.224C161.503 136.224 160.175 135.552 159.535 134.464ZM167.788 135.152C167.788 134.592 168.172 134.208 168.748 134.208C169.324 134.208 169.708 134.592 169.708 135.152C169.708 135.728 169.324 136.128 168.748 136.128C168.172 136.128 167.788 135.728 167.788 135.152Z" fill="#697582"/>
<path d="M186.004 213.163C187.446 206.279 197.309 206.279 198.751 213.163C199.889 218.596 206.9 220.19 210.29 215.788C214.586 210.209 223.473 214.474 221.775 221.3C220.436 226.687 226.058 231.155 231.029 228.655C237.329 225.486 243.478 233.172 238.977 238.588C235.425 242.862 238.545 249.319 244.112 249.216C251.168 249.085 253.362 258.669 246.949 261.602C241.888 263.916 241.888 271.084 246.949 273.398C253.362 276.331 251.168 285.915 244.112 285.784C238.545 285.681 235.425 292.138 238.977 296.412C243.478 301.828 237.329 309.514 231.029 306.345C226.058 303.845 220.436 308.313 221.775 313.7C223.473 320.526 214.587 324.791 210.29 319.212C206.9 314.81 199.889 316.404 198.751 321.837C197.309 328.721 187.446 328.721 186.004 321.837C184.866 316.404 177.855 314.81 174.464 319.212C170.168 324.791 161.281 320.526 162.979 313.7C164.319 308.313 158.697 303.845 153.726 306.345C147.426 309.514 141.276 301.828 145.778 296.412C149.33 292.138 146.21 285.681 140.642 285.784C133.587 285.915 131.392 276.331 137.806 273.398C142.867 271.084 142.867 263.916 137.806 261.602C131.392 258.669 133.587 249.085 140.642 249.216C146.21 249.319 149.33 242.862 145.778 238.588C141.276 233.172 147.426 225.486 153.726 228.655C158.697 231.155 164.319 226.687 162.979 221.3C161.281 214.474 170.168 210.209 174.464 215.788C177.855 220.19 184.866 218.596 186.004 213.163Z" fill="#38C793"/>
<mask id="mask0_2585_1637" style="mask-type:alpha" maskUnits="userSpaceOnUse" x="134" y="208" width="117" height="119">
<path d="M186.004 213.163C187.446 206.279 197.309 206.279 198.751 213.163C199.889 218.596 206.9 220.19 210.29 215.788C214.586 210.209 223.473 214.474 221.775 221.3C220.436 226.687 226.058 231.155 231.029 228.655C237.329 225.486 243.478 233.172 238.977 238.588C235.425 242.862 238.545 249.319 244.112 249.216C251.168 249.085 253.362 258.669 246.949 261.602C241.888 263.916 241.888 271.084 246.949 273.398C253.362 276.331 251.168 285.915 244.112 285.784C238.545 285.681 235.425 292.138 238.977 296.412C243.478 301.828 237.329 309.514 231.029 306.345C226.058 303.845 220.436 308.313 221.775 313.7C223.473 320.526 214.587 324.791 210.29 319.212C206.9 314.81 199.889 316.404 198.751 321.837C197.309 328.721 187.446 328.721 186.004 321.837C184.866 316.404 177.855 314.81 174.464 319.212C170.168 324.791 161.281 320.526 162.979 313.7C164.319 308.313 158.697 303.845 153.726 306.345C147.426 309.514 141.276 301.828 145.778 296.412C149.33 292.138 146.21 285.681 140.642 285.784C133.587 285.915 131.392 276.331 137.806 273.398C142.867 271.084 142.867 263.916 137.806 261.602C131.392 258.669 133.587 249.085 140.642 249.216C146.21 249.319 149.33 242.862 145.778 238.588C141.276 233.172 147.426 225.486 153.726 228.655C158.697 231.155 164.319 226.687 162.979 221.3C161.281 214.474 170.168 210.209 174.464 215.788C177.855 220.19 184.866 218.596 186.004 213.163Z" fill="#38C793"/>
</mask>
<g mask="url(#mask0_2585_1637)">
<path d="M159.067 273C157.957 273 156.892 272.547 156.106 271.741C155.321 270.934 154.88 269.84 154.88 268.7V242.9H133.943C133.17 242.9 132.413 242.681 131.754 242.267C131.096 241.852 130.562 241.259 130.211 240.552C129.86 239.846 129.707 239.053 129.768 238.262C129.828 237.472 130.101 236.714 130.555 236.072L164.054 188.772C164.574 188.038 165.307 187.491 166.148 187.21C166.989 186.93 167.895 186.93 168.736 187.211C169.578 187.491 170.31 188.038 170.83 188.773C171.35 189.508 171.63 190.393 171.629 191.301V217.101H192.567C193.339 217.1 194.096 217.32 194.755 217.734C195.414 218.148 195.948 218.742 196.298 219.449C196.649 220.155 196.802 220.948 196.742 221.739C196.681 222.529 196.408 223.287 195.954 223.929L162.455 271.228C162.066 271.777 161.557 272.224 160.968 272.532C160.379 272.84 159.728 273 159.067 273Z" fill="white" fill-opacity="0.2"/>
<path d="M230.067 299C228.957 299 227.892 298.547 227.106 297.741C226.321 296.934 225.88 295.84 225.88 294.7V268.9H204.943C204.17 268.9 203.413 268.681 202.754 268.267C202.096 267.852 201.562 267.259 201.211 266.552C200.86 265.846 200.707 265.053 200.768 264.262C200.828 263.472 201.101 262.714 201.555 262.072L235.054 214.772C235.574 214.038 236.307 213.491 237.148 213.21C237.989 212.93 238.895 212.93 239.736 213.211C240.578 213.491 241.31 214.038 241.83 214.773C242.35 215.508 242.63 216.393 242.629 217.301V243.101H263.567C264.339 243.1 265.096 243.32 265.755 243.734C266.414 244.148 266.948 244.742 267.298 245.449C267.649 246.155 267.802 246.948 267.742 247.739C267.681 248.529 267.408 249.287 266.954 249.929L233.455 297.228C233.066 297.777 232.557 298.224 231.968 298.532C231.379 298.84 230.728 299 230.067 299Z" fill="white" fill-opacity="0.2"/>
<path d="M177.067 345C175.957 345 174.892 344.547 174.106 343.741C173.321 342.934 172.88 341.84 172.88 340.7V314.9H151.943C151.17 314.9 150.413 314.681 149.754 314.267C149.096 313.852 148.562 313.259 148.211 312.552C147.86 311.846 147.707 311.053 147.768 310.262C147.828 309.472 148.101 308.714 148.555 308.072L182.054 260.772C182.574 260.038 183.307 259.491 184.148 259.21C184.989 258.93 185.895 258.93 186.736 259.211C187.578 259.491 188.31 260.038 188.83 260.773C189.35 261.508 189.63 262.393 189.629 263.301V289.101H210.567C211.339 289.1 212.096 289.32 212.755 289.734C213.414 290.148 213.948 290.742 214.298 291.449C214.649 292.155 214.802 292.948 214.742 293.739C214.681 294.529 214.408 295.287 213.954 295.929L180.455 343.228C180.066 343.777 179.557 344.224 178.968 344.532C178.379 344.84 177.728 345 177.067 345Z" fill="white" fill-opacity="0.2"/>
</g>
<g filter="url(#filter0_d_2585_1637)">
<path d="M170.199 243.702C170.199 243.193 170.611 242.781 171.12 242.781H202.406C208.809 242.781 214 247.972 214 254.375C214 254.884 213.588 255.296 213.079 255.296H181.793C175.39 255.296 170.199 250.105 170.199 243.702Z" fill="white"/>
</g>
<g filter="url(#filter1_d_2585_1637)">
<path d="M170.199 273.28C170.199 273.789 170.611 274.201 171.12 274.201H202.406C208.809 274.201 214 269.01 214 262.607C214 262.099 213.588 261.687 213.079 261.687H181.793C175.39 261.687 170.199 266.877 170.199 273.28Z" fill="white"/>
</g>
<g filter="url(#filter2_d_2585_1637)">
<path d="M188.971 281.513C188.971 281.005 189.383 280.593 189.892 280.593H202.406C208.809 280.593 214 285.784 214 292.187C214 292.695 213.588 293.107 213.079 293.107H200.565C194.162 293.107 188.971 287.917 188.971 281.513Z" fill="white"/>
</g>
<path d="M26.0036 179.163C27.4456 172.279 37.3091 172.279 38.7512 179.163C39.8891 184.596 46.9 186.19 50.2902 181.788C54.5865 176.209 63.4732 180.474 61.7754 187.3C60.4357 192.687 66.058 197.155 71.0291 194.655C77.3286 191.486 83.4784 199.172 78.9771 204.588C75.425 208.862 78.5451 215.319 84.1124 215.216C91.1676 215.085 93.3624 224.669 86.949 227.602C81.8882 229.916 81.8882 237.084 86.949 239.398C93.3624 242.331 91.1676 251.915 84.1124 251.784C78.5451 251.681 75.425 258.138 78.9771 262.412C83.4784 267.828 77.3286 275.514 71.0291 272.345C66.058 269.845 60.4357 274.313 61.7754 279.7C63.4732 286.526 54.5865 290.791 50.2902 285.212C46.9 280.81 39.8891 282.404 38.7512 287.837C37.3091 294.721 27.4456 294.721 26.0036 287.837C24.8656 282.404 17.8547 280.81 14.4645 285.212C10.1682 290.791 1.28148 286.526 2.97928 279.7C4.31903 274.313 -1.3033 269.845 -6.27434 272.345C-12.5739 275.514 -18.7237 267.828 -14.2223 262.412C-10.6703 258.138 -13.7904 251.681 -19.3577 251.784C-26.4129 251.915 -28.6077 242.331 -22.1943 239.398C-17.1335 237.084 -17.1335 229.916 -22.1943 227.602C-28.6077 224.669 -26.4129 215.085 -19.3577 215.216C-13.7904 215.319 -10.6703 208.862 -14.2223 204.588C-18.7237 199.172 -12.5739 191.486 -6.27434 194.655C-1.3033 197.155 4.31903 192.687 2.97928 187.3C1.28148 180.474 10.1682 176.209 14.4645 181.788C17.8547 186.19 24.8656 184.596 26.0036 179.163Z" fill="white" fill-opacity="0.08"/>
<mask id="mask1_2585_1637" style="mask-type:alpha" maskUnits="userSpaceOnUse" x="-26" y="174" width="117" height="119">
<path d="M26.0036 179.163C27.4456 172.279 37.3091 172.279 38.7512 179.163C39.8891 184.596 46.9 186.19 50.2902 181.788C54.5865 176.209 63.4732 180.474 61.7754 187.3C60.4357 192.687 66.058 197.155 71.0291 194.655C77.3286 191.486 83.4784 199.172 78.9771 204.588C75.425 208.862 78.5451 215.319 84.1124 215.216C91.1676 215.085 93.3624 224.669 86.949 227.602C81.8882 229.916 81.8882 237.084 86.949 239.398C93.3624 242.331 91.1676 251.915 84.1124 251.784C78.5451 251.681 75.425 258.138 78.9771 262.412C83.4784 267.828 77.3286 275.514 71.0291 272.345C66.058 269.845 60.4357 274.313 61.7754 279.7C63.4732 286.526 54.5865 290.791 50.2902 285.212C46.9 280.81 39.8891 282.404 38.7512 287.837C37.3091 294.721 27.4456 294.721 26.0036 287.837C24.8656 282.404 17.8547 280.81 14.4645 285.212C10.1682 290.791 1.28148 286.526 2.97928 279.7C4.31903 274.313 -1.3033 269.845 -6.27434 272.345C-12.5739 275.514 -18.7237 267.828 -14.2223 262.412C-10.6703 258.138 -13.7904 251.681 -19.3577 251.784C-26.4129 251.915 -28.6077 242.331 -22.1943 239.398C-17.1335 237.084 -17.1335 229.916 -22.1943 227.602C-28.6077 224.669 -26.4129 215.085 -19.3577 215.216C-13.7904 215.319 -10.6703 208.862 -14.2223 204.588C-18.7237 199.172 -12.5739 191.486 -6.27434 194.655C-1.3033 197.155 4.31903 192.687 2.97928 187.3C1.28148 180.474 10.1682 176.209 14.4645 181.788C17.8547 186.19 24.8656 184.596 26.0036 179.163Z" fill="white"/>
</mask>
<g mask="url(#mask1_2585_1637)">
<path d="M-0.932787 239C-2.04336 239 -3.10845 238.547 -3.89374 237.741C-4.67904 236.934 -5.12021 235.84 -5.12021 234.7V208.9H-26.0573C-26.8297 208.9 -27.5871 208.681 -28.2457 208.267C-28.9043 207.852 -29.4385 207.259 -29.7891 206.552C-30.1397 205.846 -30.2931 205.053 -30.2324 204.262C-30.1717 203.472 -29.8991 202.714 -29.445 202.072L4.05444 154.772C4.57427 154.038 5.30727 153.491 6.14836 153.21C6.98945 152.93 7.89545 152.93 8.73649 153.211C9.57753 153.491 10.3104 154.038 10.8301 154.773C11.3498 155.508 11.6297 156.393 11.6295 157.301V183.101H32.5666C33.339 183.1 34.0964 183.32 34.755 183.734C35.4136 184.148 35.9477 184.742 36.2984 185.449C36.649 186.155 36.8024 186.948 36.7417 187.739C36.6809 188.529 36.4084 189.287 35.9543 189.929L2.45484 237.228C2.06633 237.777 1.55687 238.224 0.96809 238.532C0.379314 238.84 -0.272057 239 -0.932787 239Z" fill="white" fill-opacity="0.02"/>
<path d="M70.0672 265C68.9566 265 67.8916 264.547 67.1063 263.741C66.321 262.934 65.8798 261.84 65.8798 260.7V234.9H44.9427C44.1703 234.9 43.4129 234.681 42.7543 234.267C42.0957 233.852 41.5615 233.259 41.2109 232.552C40.8603 231.846 40.7069 231.053 40.7676 230.262C40.8283 229.472 41.1009 228.714 41.555 228.072L75.0544 180.772C75.5743 180.038 76.3073 179.491 77.1484 179.21C77.9894 178.93 78.8955 178.93 79.7365 179.211C80.5775 179.491 81.3104 180.038 81.8301 180.773C82.3498 181.508 82.6297 182.393 82.6295 183.301V209.101H103.567C104.339 209.1 105.096 209.32 105.755 209.734C106.414 210.148 106.948 210.742 107.298 211.449C107.649 212.155 107.802 212.948 107.742 213.739C107.681 214.529 107.408 215.287 106.954 215.929L73.4548 263.228C73.0663 263.777 72.5569 264.224 71.9681 264.532C71.3793 264.84 70.7279 265 70.0672 265Z" fill="white" fill-opacity="0.02"/>
<path d="M17.0672 311C15.9566 311 14.8916 310.547 14.1063 309.741C13.321 308.934 12.8798 307.84 12.8798 306.7V280.9H-8.05735C-8.82975 280.9 -9.58713 280.681 -10.2457 280.267C-10.9043 279.852 -11.4385 279.259 -11.7891 278.552C-12.1397 277.846 -12.2931 277.053 -12.2324 276.262C-12.1717 275.472 -11.8991 274.714 -11.445 274.072L22.0544 226.772C22.5743 226.038 23.3073 225.491 24.1484 225.21C24.9894 224.93 25.8955 224.93 26.7365 225.211C27.5775 225.491 28.3104 226.038 28.8301 226.773C29.3498 227.508 29.6297 228.393 29.6295 229.301V255.101H50.5666C51.339 255.1 52.0964 255.32 52.755 255.734C53.4136 256.148 53.9477 256.742 54.2984 257.449C54.649 258.155 54.8024 258.948 54.7417 259.739C54.6809 260.529 54.4084 261.287 53.9543 261.929L20.4548 309.228C20.0663 309.777 19.5569 310.224 18.9681 310.532C18.3793 310.84 17.7279 311 17.0672 311Z" fill="white" fill-opacity="0.02"/>
</g>
<path d="M15.176 246V238.096H13.32V235.728H15.176V233.424H13.32V231.056H15.176V223.152H20.2L22.696 231.056H25.608V223.152H29.16V231.056H30.984V233.424H29.16V235.728H30.984V238.096H29.16V246H24.104L21.544 238.096H18.728V246H15.176ZM18.728 235.728H20.84L20.136 233.424H18.664L18.728 235.728ZM25.704 241.008H25.864L25.736 238.096H24.872L25.704 241.008ZM18.6 231.056H19.496L18.568 227.984H18.44L18.6 231.056ZM24.2 235.728H25.672L25.608 233.424H23.464L24.2 235.728ZM32.2405 235.312V234.288C32.2405 227.6 36.0485 223.408 41.4565 223.408C46.8965 223.408 50.7045 227.6 50.7045 234.288V235.312C50.7045 242.128 46.8965 246.192 41.4565 246.192C36.0485 246.192 32.2405 242.128 32.2405 235.312ZM46.0965 235.152V234.448C46.0965 229.84 44.2085 227.312 41.4565 227.312C38.7365 227.312 36.8485 229.84 36.8485 234.448V235.152C36.8485 239.792 38.7365 242.288 41.4565 242.288C44.2085 242.288 46.0965 239.792 46.0965 235.152Z" fill="white" fill-opacity="0.4"/>
<path d="M85.0036 340.163C86.4456 333.279 96.3091 333.279 97.7512 340.163C98.8891 345.596 105.9 347.19 109.29 342.788C113.586 337.209 122.473 341.474 120.775 348.3C119.436 353.687 125.058 358.155 130.029 355.655C136.329 352.486 142.478 360.172 137.977 365.588C134.425 369.862 137.545 376.319 143.112 376.216C150.168 376.085 152.362 385.669 145.949 388.602C140.888 390.916 140.888 398.084 145.949 400.398C152.362 403.331 150.168 412.915 143.112 412.784C137.545 412.681 134.425 419.138 137.977 423.412C142.478 428.828 136.329 436.514 130.029 433.345C125.058 430.845 119.436 435.313 120.775 440.7C122.473 447.526 113.587 451.791 109.29 446.212C105.9 441.81 98.8891 443.404 97.7512 448.837C96.3091 455.721 86.4456 455.721 85.0036 448.837C83.8656 443.404 76.8547 441.81 73.4645 446.212C69.1682 451.791 60.2815 447.526 61.9793 440.7C63.319 435.313 57.6967 430.845 52.7257 433.345C46.4261 436.514 40.2763 428.828 44.7777 423.412C48.3297 419.138 45.2096 412.681 39.6423 412.784C32.5871 412.915 30.3923 403.331 36.8057 400.398C41.8665 398.084 41.8665 390.916 36.8057 388.602C30.3923 385.669 32.5871 376.085 39.6423 376.216C45.2096 376.319 48.3297 369.862 44.7777 365.588C40.2763 360.172 46.4261 352.486 52.7257 355.655C57.6967 358.155 63.319 353.687 61.9793 348.3C60.2815 341.474 69.1682 337.209 73.4645 342.788C76.8547 347.19 83.8656 345.596 85.0036 340.163Z" fill="white" fill-opacity="0.08"/>
<mask id="mask2_2585_1637" style="mask-type:alpha" maskUnits="userSpaceOnUse" x="33" y="335" width="117" height="119">
<path d="M85.0036 340.163C86.4456 333.279 96.3091 333.279 97.7512 340.163C98.8891 345.596 105.9 347.19 109.29 342.788C113.586 337.209 122.473 341.474 120.775 348.3C119.436 353.687 125.058 358.155 130.029 355.655C136.329 352.486 142.478 360.172 137.977 365.588C134.425 369.862 137.545 376.319 143.112 376.216C150.168 376.085 152.362 385.669 145.949 388.602C140.888 390.916 140.888 398.084 145.949 400.398C152.362 403.331 150.168 412.915 143.112 412.784C137.545 412.681 134.425 419.138 137.977 423.412C142.478 428.828 136.329 436.514 130.029 433.345C125.058 430.845 119.436 435.313 120.775 440.7C122.473 447.526 113.587 451.791 109.29 446.212C105.9 441.81 98.8891 443.404 97.7512 448.837C96.3091 455.721 86.4456 455.721 85.0036 448.837C83.8656 443.404 76.8547 441.81 73.4645 446.212C69.1682 451.791 60.2815 447.526 61.9793 440.7C63.319 435.313 57.6967 430.845 52.7257 433.345C46.4261 436.514 40.2763 428.828 44.7777 423.412C48.3297 419.138 45.2096 412.681 39.6423 412.784C32.5871 412.915 30.3923 403.331 36.8057 400.398C41.8665 398.084 41.8665 390.916 36.8057 388.602C30.3923 385.669 32.5871 376.085 39.6423 376.216C45.2096 376.319 48.3297 369.862 44.7777 365.588C40.2763 360.172 46.4261 352.486 52.7257 355.655C57.6967 358.155 63.319 353.687 61.9793 348.3C60.2815 341.474 69.1682 337.209 73.4645 342.788C76.8547 347.19 83.8656 345.596 85.0036 340.163Z" fill="white"/>
</mask>
<g mask="url(#mask2_2585_1637)">
<path d="M58.0672 400C56.9566 400 55.8916 399.547 55.1063 398.741C54.321 397.934 53.8798 396.84 53.8798 395.7V369.9H32.9427C32.1703 369.9 31.4129 369.681 30.7543 369.267C30.0957 368.852 29.5615 368.259 29.2109 367.552C28.8603 366.846 28.7069 366.053 28.7676 365.262C28.8283 364.472 29.1009 363.714 29.555 363.072L63.0544 315.772C63.5743 315.038 64.3073 314.491 65.1484 314.21C65.9894 313.93 66.8955 313.93 67.7365 314.211C68.5775 314.491 69.3104 315.038 69.8301 315.773C70.3498 316.508 70.6297 317.393 70.6295 318.301V344.101H91.5666C92.339 344.1 93.0964 344.32 93.755 344.734C94.4136 345.148 94.9477 345.742 95.2984 346.449C95.649 347.155 95.8024 347.948 95.7417 348.739C95.6809 349.529 95.4084 350.287 94.9543 350.929L61.4548 398.228C61.0663 398.777 60.5569 399.224 59.9681 399.532C59.3793 399.84 58.7279 400 58.0672 400Z" fill="white" fill-opacity="0.02"/>
<path d="M129.067 426C127.957 426 126.892 425.547 126.106 424.741C125.321 423.934 124.88 422.84 124.88 421.7V395.9H103.943C103.17 395.9 102.413 395.681 101.754 395.267C101.096 394.852 100.562 394.259 100.211 393.552C99.8603 392.846 99.7069 392.053 99.7676 391.262C99.8283 390.472 100.101 389.714 100.555 389.072L134.054 341.772C134.574 341.038 135.307 340.491 136.148 340.21C136.989 339.93 137.895 339.93 138.736 340.211C139.578 340.491 140.31 341.038 140.83 341.773C141.35 342.508 141.63 343.393 141.629 344.301V370.101H162.567C163.339 370.1 164.096 370.32 164.755 370.734C165.414 371.148 165.948 371.742 166.298 372.449C166.649 373.155 166.802 373.948 166.742 374.739C166.681 375.529 166.408 376.287 165.954 376.929L132.455 424.228C132.066 424.777 131.557 425.224 130.968 425.532C130.379 425.84 129.728 426 129.067 426Z" fill="white" fill-opacity="0.02"/>
<path d="M76.0672 472C74.9566 472 73.8916 471.547 73.1063 470.741C72.321 469.934 71.8798 468.84 71.8798 467.7V441.9H50.9427C50.1703 441.9 49.4129 441.681 48.7543 441.267C48.0957 440.852 47.5615 440.259 47.2109 439.552C46.8603 438.846 46.7069 438.053 46.7676 437.262C46.8283 436.472 47.1009 435.714 47.555 435.072L81.0544 387.772C81.5743 387.038 82.3073 386.491 83.1484 386.21C83.9894 385.93 84.8955 385.93 85.7365 386.211C86.5775 386.491 87.3104 387.038 87.8301 387.773C88.3498 388.508 88.6297 389.393 88.6295 390.301V416.101H109.567C110.339 416.1 111.096 416.32 111.755 416.734C112.414 417.148 112.948 417.742 113.298 418.449C113.649 419.155 113.802 419.948 113.742 420.739C113.681 421.529 113.408 422.287 112.954 422.929L79.4548 470.228C79.0663 470.777 78.5569 471.224 77.9681 471.532C77.3793 471.84 76.7279 472 76.0672 472Z" fill="white" fill-opacity="0.02"/>
</g>
<path d="M74.176 407V399.096H72.32V396.728H74.176V394.424H72.32V392.056H74.176V384.152H79.2L81.696 392.056H84.608V384.152H88.16V392.056H89.984V394.424H88.16V396.728H89.984V399.096H88.16V407H83.104L80.544 399.096H77.728V407H74.176ZM77.728 396.728H79.84L79.136 394.424H77.664L77.728 396.728ZM84.704 402.008H84.864L84.736 399.096H83.872L84.704 402.008ZM77.6 392.056H78.496L77.568 388.984H77.44L77.6 392.056ZM83.2 396.728H84.672L84.608 394.424H82.464L83.2 396.728ZM91.2405 396.312V395.288C91.2405 388.6 95.0485 384.408 100.457 384.408C105.897 384.408 109.705 388.6 109.705 395.288V396.312C109.705 403.128 105.897 407.192 100.457 407.192C95.0485 407.192 91.2405 403.128 91.2405 396.312ZM105.097 396.152V395.448C105.097 390.84 103.209 388.312 100.457 388.312C97.7365 388.312 95.8485 390.84 95.8485 395.448V396.152C95.8485 400.792 97.7365 403.288 100.457 403.288C103.209 403.288 105.097 400.792 105.097 396.152Z" fill="white" fill-opacity="0.4"/>
<path d="M303.004 340.163C304.446 333.279 314.309 333.279 315.751 340.163C316.889 345.596 323.9 347.19 327.29 342.788C331.586 337.209 340.473 341.474 338.775 348.3C337.436 353.687 343.058 358.155 348.029 355.655C354.329 352.486 360.478 360.172 355.977 365.588C352.425 369.862 355.545 376.319 361.112 376.216C368.168 376.085 370.362 385.669 363.949 388.602C358.888 390.916 358.888 398.084 363.949 400.398C370.362 403.331 368.168 412.915 361.112 412.784C355.545 412.681 352.425 419.138 355.977 423.412C360.478 428.828 354.329 436.514 348.029 433.345C343.058 430.845 337.436 435.313 338.775 440.7C340.473 447.526 331.587 451.791 327.29 446.212C323.9 441.81 316.889 443.404 315.751 448.837C314.309 455.721 304.446 455.721 303.004 448.837C301.866 443.404 294.855 441.81 291.464 446.212C287.168 451.791 278.281 447.526 279.979 440.7C281.319 435.313 275.697 430.845 270.726 433.345C264.426 436.514 258.276 428.828 262.778 423.412C266.33 419.138 263.21 412.681 257.642 412.784C250.587 412.915 248.392 403.331 254.806 400.398C259.867 398.084 259.867 390.916 254.806 388.602C248.392 385.669 250.587 376.085 257.642 376.216C263.21 376.319 266.33 369.862 262.778 365.588C258.276 360.172 264.426 352.486 270.726 355.655C275.697 358.155 281.319 353.687 279.979 348.3C278.281 341.474 287.168 337.209 291.464 342.788C294.855 347.19 301.866 345.596 303.004 340.163Z" fill="white" fill-opacity="0.08"/>
<mask id="mask3_2585_1637" style="mask-type:alpha" maskUnits="userSpaceOnUse" x="251" y="335" width="117" height="119">
<path d="M303.004 340.163C304.446 333.279 314.309 333.279 315.751 340.163C316.889 345.596 323.9 347.19 327.29 342.788C331.586 337.209 340.473 341.474 338.775 348.3C337.436 353.687 343.058 358.155 348.029 355.655C354.329 352.486 360.478 360.172 355.977 365.588C352.425 369.862 355.545 376.319 361.112 376.216C368.168 376.085 370.362 385.669 363.949 388.602C358.888 390.916 358.888 398.084 363.949 400.398C370.362 403.331 368.168 412.915 361.112 412.784C355.545 412.681 352.425 419.138 355.977 423.412C360.478 428.828 354.329 436.514 348.029 433.345C343.058 430.845 337.436 435.313 338.775 440.7C340.473 447.526 331.587 451.791 327.29 446.212C323.9 441.81 316.889 443.404 315.751 448.837C314.309 455.721 304.446 455.721 303.004 448.837C301.866 443.404 294.855 441.81 291.464 446.212C287.168 451.791 278.281 447.526 279.979 440.7C281.319 435.313 275.697 430.845 270.726 433.345C264.426 436.514 258.276 428.828 262.778 423.412C266.33 419.138 263.21 412.681 257.642 412.784C250.587 412.915 248.392 403.331 254.806 400.398C259.867 398.084 259.867 390.916 254.806 388.602C248.392 385.669 250.587 376.085 257.642 376.216C263.21 376.319 266.33 369.862 262.778 365.588C258.276 360.172 264.426 352.486 270.726 355.655C275.697 358.155 281.319 353.687 279.979 348.3C278.281 341.474 287.168 337.209 291.464 342.788C294.855 347.19 301.866 345.596 303.004 340.163Z" fill="white"/>
</mask>
<g mask="url(#mask3_2585_1637)">
<path d="M276.067 400C274.957 400 273.892 399.547 273.106 398.741C272.321 397.934 271.88 396.84 271.88 395.7V369.9H250.943C250.17 369.9 249.413 369.681 248.754 369.267C248.096 368.852 247.562 368.259 247.211 367.552C246.86 366.846 246.707 366.053 246.768 365.262C246.828 364.472 247.101 363.714 247.555 363.072L281.054 315.772C281.574 315.038 282.307 314.491 283.148 314.21C283.989 313.93 284.895 313.93 285.736 314.211C286.578 314.491 287.31 315.038 287.83 315.773C288.35 316.508 288.63 317.393 288.629 318.301V344.101H309.567C310.339 344.1 311.096 344.32 311.755 344.734C312.414 345.148 312.948 345.742 313.298 346.449C313.649 347.155 313.802 347.948 313.742 348.739C313.681 349.529 313.408 350.287 312.954 350.929L279.455 398.228C279.066 398.777 278.557 399.224 277.968 399.532C277.379 399.84 276.728 400 276.067 400Z" fill="white" fill-opacity="0.02"/>
<path d="M347.067 426C345.957 426 344.892 425.547 344.106 424.741C343.321 423.934 342.88 422.84 342.88 421.7V395.9H321.943C321.17 395.9 320.413 395.681 319.754 395.267C319.096 394.852 318.562 394.259 318.211 393.552C317.86 392.846 317.707 392.053 317.768 391.262C317.828 390.472 318.101 389.714 318.555 389.072L352.054 341.772C352.574 341.038 353.307 340.491 354.148 340.21C354.989 339.93 355.895 339.93 356.736 340.211C357.578 340.491 358.31 341.038 358.83 341.773C359.35 342.508 359.63 343.393 359.629 344.301V370.101H380.567C381.339 370.1 382.096 370.32 382.755 370.734C383.414 371.148 383.948 371.742 384.298 372.449C384.649 373.155 384.802 373.948 384.742 374.739C384.681 375.529 384.408 376.287 383.954 376.929L350.455 424.228C350.066 424.777 349.557 425.224 348.968 425.532C348.379 425.84 347.728 426 347.067 426Z" fill="white" fill-opacity="0.02"/>
<path d="M294.067 472C292.957 472 291.892 471.547 291.106 470.741C290.321 469.934 289.88 468.84 289.88 467.7V441.9H268.943C268.17 441.9 267.413 441.681 266.754 441.267C266.096 440.852 265.562 440.259 265.211 439.552C264.86 438.846 264.707 438.053 264.768 437.262C264.828 436.472 265.101 435.714 265.555 435.072L299.054 387.772C299.574 387.038 300.307 386.491 301.148 386.21C301.989 385.93 302.895 385.93 303.736 386.211C304.578 386.491 305.31 387.038 305.83 387.773C306.35 388.508 306.63 389.393 306.629 390.301V416.101H327.567C328.339 416.1 329.096 416.32 329.755 416.734C330.414 417.148 330.948 417.742 331.298 418.449C331.649 419.155 331.802 419.948 331.742 420.739C331.681 421.529 331.408 422.287 330.954 422.929L297.455 470.228C297.066 470.777 296.557 471.224 295.968 471.532C295.379 471.84 294.728 472 294.067 472Z" fill="white" fill-opacity="0.02"/>
</g>
<path d="M292.176 407V399.096H290.32V396.728H292.176V394.424H290.32V392.056H292.176V384.152H297.2L299.696 392.056H302.608V384.152H306.16V392.056H307.984V394.424H306.16V396.728H307.984V399.096H306.16V407H301.104L298.544 399.096H295.728V407H292.176ZM295.728 396.728H297.84L297.136 394.424H295.664L295.728 396.728ZM302.704 402.008H302.864L302.736 399.096H301.872L302.704 402.008ZM295.6 392.056H296.496L295.568 388.984H295.44L295.6 392.056ZM301.2 396.728H302.672L302.608 394.424H300.464L301.2 396.728ZM309.241 396.312V395.288C309.241 388.6 313.049 384.408 318.457 384.408C323.897 384.408 327.705 388.6 327.705 395.288V396.312C327.705 403.128 323.897 407.192 318.457 407.192C313.049 407.192 309.241 403.128 309.241 396.312ZM323.097 396.152V395.448C323.097 390.84 321.209 388.312 318.457 388.312C315.737 388.312 313.849 390.84 313.849 395.448V396.152C313.849 400.792 315.737 403.288 318.457 403.288C321.209 403.288 323.097 400.792 323.097 396.152Z" fill="white" fill-opacity="0.4"/>
<path d="M346.004 179.163C347.446 172.279 357.309 172.279 358.751 179.163C359.889 184.596 366.9 186.19 370.29 181.788C374.586 176.209 383.473 180.474 381.775 187.3C380.436 192.687 386.058 197.155 391.029 194.655C397.329 191.486 403.478 199.172 398.977 204.588C395.425 208.862 398.545 215.319 404.112 215.216C411.168 215.085 413.362 224.669 406.949 227.602C401.888 229.916 401.888 237.084 406.949 239.398C413.362 242.331 411.168 251.915 404.112 251.784C398.545 251.681 395.425 258.138 398.977 262.412C403.478 267.828 397.329 275.514 391.029 272.345C386.058 269.845 380.436 274.313 381.775 279.7C383.473 286.526 374.587 290.791 370.29 285.212C366.9 280.81 359.889 282.404 358.751 287.837C357.309 294.721 347.446 294.721 346.004 287.837C344.866 282.404 337.855 280.81 334.464 285.212C330.168 290.791 321.281 286.526 322.979 279.7C324.319 274.313 318.697 269.845 313.726 272.345C307.426 275.514 301.276 267.828 305.778 262.412C309.33 258.138 306.21 251.681 300.642 251.784C293.587 251.915 291.392 242.331 297.806 239.398C302.867 237.084 302.867 229.916 297.806 227.602C291.392 224.669 293.587 215.085 300.642 215.216C306.21 215.319 309.33 208.862 305.778 204.588C301.276 199.172 307.426 191.486 313.726 194.655C318.697 197.155 324.319 192.687 322.979 187.3C321.281 180.474 330.168 176.209 334.464 181.788C337.855 186.19 344.866 184.596 346.004 179.163Z" fill="white" fill-opacity="0.08"/>
<mask id="mask4_2585_1637" style="mask-type:alpha" maskUnits="userSpaceOnUse" x="294" y="174" width="117" height="119">
<path d="M346.004 179.163C347.446 172.279 357.309 172.279 358.751 179.163C359.889 184.596 366.9 186.19 370.29 181.788C374.586 176.209 383.473 180.474 381.775 187.3C380.436 192.687 386.058 197.155 391.029 194.655C397.329 191.486 403.478 199.172 398.977 204.588C395.425 208.862 398.545 215.319 404.112 215.216C411.168 215.085 413.362 224.669 406.949 227.602C401.888 229.916 401.888 237.084 406.949 239.398C413.362 242.331 411.168 251.915 404.112 251.784C398.545 251.681 395.425 258.138 398.977 262.412C403.478 267.828 397.329 275.514 391.029 272.345C386.058 269.845 380.436 274.313 381.775 279.7C383.473 286.526 374.587 290.791 370.29 285.212C366.9 280.81 359.889 282.404 358.751 287.837C357.309 294.721 347.446 294.721 346.004 287.837C344.866 282.404 337.855 280.81 334.464 285.212C330.168 290.791 321.281 286.526 322.979 279.7C324.319 274.313 318.697 269.845 313.726 272.345C307.426 275.514 301.276 267.828 305.778 262.412C309.33 258.138 306.21 251.681 300.642 251.784C293.587 251.915 291.392 242.331 297.806 239.398C302.867 237.084 302.867 229.916 297.806 227.602C291.392 224.669 293.587 215.085 300.642 215.216C306.21 215.319 309.33 208.862 305.778 204.588C301.276 199.172 307.426 191.486 313.726 194.655C318.697 197.155 324.319 192.687 322.979 187.3C321.281 180.474 330.168 176.209 334.464 181.788C337.855 186.19 344.866 184.596 346.004 179.163Z" fill="white"/>
</mask>
<g mask="url(#mask4_2585_1637)">
<path d="M319.067 239C317.957 239 316.892 238.547 316.106 237.741C315.321 236.934 314.88 235.84 314.88 234.7V208.9H293.943C293.17 208.9 292.413 208.681 291.754 208.267C291.096 207.852 290.562 207.259 290.211 206.552C289.86 205.846 289.707 205.053 289.768 204.262C289.828 203.472 290.101 202.714 290.555 202.072L324.054 154.772C324.574 154.038 325.307 153.491 326.148 153.21C326.989 152.93 327.895 152.93 328.736 153.211C329.578 153.491 330.31 154.038 330.83 154.773C331.35 155.508 331.63 156.393 331.629 157.301V183.101H352.567C353.339 183.1 354.096 183.32 354.755 183.734C355.414 184.148 355.948 184.742 356.298 185.449C356.649 186.155 356.802 186.948 356.742 187.739C356.681 188.529 356.408 189.287 355.954 189.929L322.455 237.228C322.066 237.777 321.557 238.224 320.968 238.532C320.379 238.84 319.728 239 319.067 239Z" fill="white" fill-opacity="0.02"/>
<path d="M390.067 265C388.957 265 387.892 264.547 387.106 263.741C386.321 262.934 385.88 261.84 385.88 260.7V234.9H364.943C364.17 234.9 363.413 234.681 362.754 234.267C362.096 233.852 361.562 233.259 361.211 232.552C360.86 231.846 360.707 231.053 360.768 230.262C360.828 229.472 361.101 228.714 361.555 228.072L395.054 180.772C395.574 180.038 396.307 179.491 397.148 179.21C397.989 178.93 398.895 178.93 399.736 179.211C400.578 179.491 401.31 180.038 401.83 180.773C402.35 181.508 402.63 182.393 402.629 183.301V209.101H423.567C424.339 209.1 425.096 209.32 425.755 209.734C426.414 210.148 426.948 210.742 427.298 211.449C427.649 212.155 427.802 212.948 427.742 213.739C427.681 214.529 427.408 215.287 426.954 215.929L393.455 263.228C393.066 263.777 392.557 264.224 391.968 264.532C391.379 264.84 390.728 265 390.067 265Z" fill="white" fill-opacity="0.02"/>
<path d="M337.067 311C335.957 311 334.892 310.547 334.106 309.741C333.321 308.934 332.88 307.84 332.88 306.7V280.9H311.943C311.17 280.9 310.413 280.681 309.754 280.267C309.096 279.852 308.562 279.259 308.211 278.552C307.86 277.846 307.707 277.053 307.768 276.262C307.828 275.472 308.101 274.714 308.555 274.072L342.054 226.772C342.574 226.038 343.307 225.491 344.148 225.21C344.989 224.93 345.895 224.93 346.736 225.211C347.578 225.491 348.31 226.038 348.83 226.773C349.35 227.508 349.63 228.393 349.629 229.301V255.101H370.567C371.339 255.1 372.096 255.32 372.755 255.734C373.414 256.148 373.948 256.742 374.298 257.449C374.649 258.155 374.802 258.948 374.742 259.739C374.681 260.529 374.408 261.287 373.954 261.929L340.455 309.228C340.066 309.777 339.557 310.224 338.968 310.532C338.379 310.84 337.728 311 337.067 311Z" fill="white" fill-opacity="0.02"/>
</g>
<path d="M335.176 246V238.096H333.32V235.728H335.176V233.424H333.32V231.056H335.176V223.152H340.2L342.696 231.056H345.608V223.152H349.16V231.056H350.984V233.424H349.16V235.728H350.984V238.096H349.16V246H344.104L341.544 238.096H338.728V246H335.176ZM338.728 235.728H340.84L340.136 233.424H338.664L338.728 235.728ZM345.704 241.008H345.864L345.736 238.096H344.872L345.704 241.008ZM338.6 231.056H339.496L338.568 227.984H338.44L338.6 231.056ZM344.2 235.728H345.672L345.608 233.424H343.464L344.2 235.728ZM352.241 235.312V234.288C352.241 227.6 356.049 223.408 361.457 223.408C366.897 223.408 370.705 227.6 370.705 234.288V235.312C370.705 242.128 366.897 246.192 361.457 246.192C356.049 246.192 352.241 242.128 352.241 235.312ZM366.097 235.152V234.448C366.097 229.84 364.209 227.312 361.457 227.312C358.737 227.312 356.849 229.84 356.849 234.448V235.152C356.849 239.792 358.737 242.288 361.457 242.288C364.209 242.288 366.097 239.792 366.097 235.152Z" fill="white" fill-opacity="0.4"/>
</g>
<rect x="0.5" y="0.5" width="383" height="432" rx="11.5" stroke="url(#paint0_linear_2585_1637)"/>
<defs>
<filter id="filter0_d_2585_1637" x="166.199" y="242.781" width="51.801" height="20.5146" filterUnits="userSpaceOnUse" color-interpolation-filters="sRGB">
<feFlood flood-opacity="0" result="BackgroundImageFix"/>
<feColorMatrix in="SourceAlpha" type="matrix" values="0 0 0 0 0 0 0 0 0 0 0 0 0 0 0 0 0 0 127 0" result="hardAlpha"/>
<feOffset dy="4"/>
<feGaussianBlur stdDeviation="2"/>
<feComposite in2="hardAlpha" operator="out"/>
<feColorMatrix type="matrix" values="0 0 0 0 0 0 0 0 0 0 0 0 0 0 0 0 0 0 0.1 0"/>
<feBlend mode="normal" in2="BackgroundImageFix" result="effect1_dropShadow_2585_1637"/>
<feBlend mode="normal" in="SourceGraphic" in2="effect1_dropShadow_2585_1637" result="shape"/>
</filter>
<filter id="filter1_d_2585_1637" x="166.199" y="261.687" width="51.801" height="20.5146" filterUnits="userSpaceOnUse" color-interpolation-filters="sRGB">
<feFlood flood-opacity="0" result="BackgroundImageFix"/>
<feColorMatrix in="SourceAlpha" type="matrix" values="0 0 0 0 0 0 0 0 0 0 0 0 0 0 0 0 0 0 127 0" result="hardAlpha"/>
<feOffset dy="4"/>
<feGaussianBlur stdDeviation="2"/>
<feComposite in2="hardAlpha" operator="out"/>
<feColorMatrix type="matrix" values="0 0 0 0 0 0 0 0 0 0 0 0 0 0 0 0 0 0 0.1 0"/>
<feBlend mode="normal" in2="BackgroundImageFix" result="effect1_dropShadow_2585_1637"/>
<feBlend mode="normal" in="SourceGraphic" in2="effect1_dropShadow_2585_1637" result="shape"/>
</filter>
<filter id="filter2_d_2585_1637" x="184.971" y="280.593" width="33.0291" height="20.5146" filterUnits="userSpaceOnUse" color-interpolation-filters="sRGB">
<feFlood flood-opacity="0" result="BackgroundImageFix"/>
<feColorMatrix in="SourceAlpha" type="matrix" values="0 0 0 0 0 0 0 0 0 0 0 0 0 0 0 0 0 0 127 0" result="hardAlpha"/>
<feOffset dy="4"/>
<feGaussianBlur stdDeviation="2"/>
<feComposite in2="hardAlpha" operator="out"/>
<feColorMatrix type="matrix" values="0 0 0 0 0 0 0 0 0 0 0 0 0 0 0 0 0 0 0.1 0"/>
<feBlend mode="normal" in2="BackgroundImageFix" result="effect1_dropShadow_2585_1637"/>
<feBlend mode="normal" in="SourceGraphic" in2="effect1_dropShadow_2585_1637" result="shape"/>
</filter>
<linearGradient id="paint0_linear_2585_1637" x1="192" y1="0" x2="192" y2="433" gradientUnits="userSpaceOnUse">
<stop stop-color="white" stop-opacity="0.1"/>
<stop offset="1" stop-color="white" stop-opacity="0"/>
</linearGradient>
<clipPath id="clip0_2585_1637">
<rect width="384" height="433" rx="12" fill="white"/>
</clipPath>
</defs>
</svg>
