<svg width="151" height="44" viewBox="0 0 151 44" fill="none" xmlns="http://www.w3.org/2000/svg">
<path d="M138.535 0.000141295H12.6523C12.1935 0.000141295 11.7401 0.000141295 11.2825 0.00231507C10.8994 0.00448884 10.5193 0.0108036 10.1326 0.0161185C9.29233 0.0247069 8.45407 0.088914 7.62506 0.208182C6.79722 0.330046 5.99532 0.559796 5.24646 0.889659C4.49853 1.22231 3.81512 1.65456 3.22102 2.17073C2.62381 2.68544 2.12599 3.28038 1.7467 3.93267C1.36636 4.58365 1.10264 5.28125 0.964629 6.00136C0.825308 6.72055 0.750339 7.44804 0.740393 8.1773C0.728781 8.51054 0.727554 8.84489 0.721436 9.17817V34.3007C0.727554 34.6382 0.728781 34.9651 0.740393 35.3027C0.750342 36.0319 0.825311 36.7594 0.964629 37.4785C1.10226 38.1991 1.366 38.8971 1.7467 39.5483C2.12582 40.1985 2.62371 40.791 3.22102 41.3029C3.81286 41.8213 4.49672 42.2539 5.24646 42.584C5.99531 42.9147 6.79713 43.1458 7.62506 43.2696C8.45421 43.3879 9.29239 43.4521 10.1326 43.4617C10.5193 43.4691 10.8994 43.4734 11.2825 43.4734C11.7401 43.4756 12.1935 43.4755 12.6523 43.4755H138.535C138.984 43.4755 139.441 43.4756 139.891 43.4734C140.272 43.4734 140.663 43.4691 141.045 43.4617C141.883 43.4526 142.72 43.3884 143.547 43.2696C144.378 43.145 145.183 42.9139 145.935 42.584C146.684 42.2537 147.367 41.8211 147.959 41.3029C148.554 40.789 149.053 40.1969 149.437 39.5483C149.815 38.8966 150.076 38.1987 150.212 37.4785C150.351 36.7593 150.429 36.032 150.444 35.3027C150.449 34.9651 150.449 34.6382 150.449 34.3007C150.459 33.9058 150.459 33.5132 150.459 33.1119V10.3648C150.459 9.96679 150.459 9.57195 150.449 9.17817C150.449 8.84489 150.449 8.51054 150.444 8.17726C150.429 7.44794 150.351 6.72061 150.212 6.00131C150.076 5.28162 149.815 4.58408 149.437 3.93262C148.665 2.62518 147.44 1.56094 145.935 0.889561C145.183 0.560504 144.378 0.330816 143.547 0.208084C142.72 0.0882907 141.883 0.0240612 141.045 0.0159663C140.663 0.0106623 140.272 0.0042932 139.891 0.00217377C139.441 0 138.984 0 138.535 0V0.000141295Z" fill="#2B3036"/>
<path d="M11.2886 42.5245C10.9073 42.5245 10.5353 42.5203 10.157 42.5129C9.37342 42.504 8.59166 42.4448 7.81814 42.3356C7.09687 42.2277 6.39815 42.027 5.74503 41.7401C5.09791 41.4556 4.50767 41.0825 3.99695 40.6352C3.47883 40.1931 3.04747 39.6804 2.71997 39.1174C2.38886 38.5506 2.15971 37.9432 2.04051 37.3162C1.91178 36.6424 1.84213 35.9612 1.83216 35.2783C1.82423 35.049 1.81384 34.2858 1.81384 34.2858V9.17817C1.81384 9.17817 1.8249 8.42669 1.83222 8.20591C1.84177 7.52409 1.91101 6.84389 2.03935 6.17119C2.15878 5.54245 2.3881 4.93325 2.71939 4.36468C3.04569 3.80201 3.47466 3.28891 3.98965 2.84527C4.50407 2.3974 5.09619 2.02241 5.74442 1.73396C6.39604 1.44798 7.09343 1.24869 7.81324 1.14276C8.58931 1.03251 9.37379 0.972905 10.1601 0.964443L11.2892 0.951172H139.885L141.028 0.964975C141.807 0.973017 142.584 1.03209 143.353 1.14169C144.08 1.24895 144.785 1.44963 145.444 1.73714C146.742 2.31846 147.799 3.23816 148.466 4.36733C148.792 4.93197 149.018 5.5362 149.135 6.15951C149.265 6.83773 149.338 7.52328 149.353 8.2107C149.357 8.5185 149.357 8.84913 149.357 9.17817C149.366 9.58576 149.366 9.9737 149.366 10.3648V33.1119C149.366 33.5068 149.366 33.8921 149.357 34.2805C149.357 34.634 149.357 34.9577 149.352 35.291C149.337 35.9661 149.266 36.6394 149.138 37.3055C149.021 37.9371 148.793 38.5493 148.462 39.1206C148.132 39.6776 147.703 40.1858 147.191 40.6267C146.68 41.0765 146.089 41.4517 145.44 41.7381C144.783 42.0272 144.079 42.2286 143.353 42.3356C142.579 42.4454 141.798 42.5046 141.014 42.5129C140.647 42.5203 140.264 42.5245 139.891 42.5245L138.535 42.5267L11.2886 42.5245Z" fill="#191C1F"/>
<path d="M31.7152 22.064C31.7286 21.1568 32.0061 20.2673 32.5216 19.4783C33.0372 18.6893 33.7742 18.0263 34.664 17.5512C34.0987 16.85 33.353 16.2729 32.4861 15.8658C31.6191 15.4587 30.6548 15.2328 29.6698 15.206C27.5685 15.0144 25.5315 16.2982 24.4607 16.2982C23.3692 16.2982 21.7206 15.225 19.9453 15.2568C18.797 15.289 17.6779 15.579 16.697 16.0986C15.7162 16.6182 14.907 17.3496 14.3483 18.2216C11.9283 21.861 13.7334 27.2096 16.0516 30.1514C17.2114 31.5919 18.567 33.201 20.3406 33.1439C22.0763 33.0814 22.7245 32.1826 24.8196 32.1826C26.8952 32.1826 27.5034 33.1439 29.3131 33.1076C31.1755 33.0814 32.3489 31.6607 33.4681 30.2066C34.3014 29.1802 34.9427 28.0458 35.3681 26.8454C34.2861 26.4479 33.3627 25.7825 32.7131 24.9322C32.0635 24.082 31.7165 23.0844 31.7152 22.064Z" fill="white"/>
<path d="M28.2972 13.2714C29.3127 12.2126 29.813 10.8516 29.6918 9.47754C28.1404 9.61907 26.7073 10.2631 25.6781 11.2813C25.1749 11.7788 24.7895 12.3575 24.544 12.9844C24.2984 13.6112 24.1975 14.274 24.247 14.9348C25.023 14.9417 25.7907 14.7956 26.4922 14.5075C27.1938 14.2194 27.8109 13.7968 28.2972 13.2714Z" fill="white"/>
<path d="M55.5298 9.48978C55.9533 9.45939 56.3782 9.52337 56.7739 9.67709C57.1697 9.83081 57.5264 10.0704 57.8183 10.3787C58.1102 10.687 58.3301 11.0562 58.462 11.4597C58.594 11.8633 58.6347 12.291 58.5813 12.7122C58.5813 14.7841 57.4616 15.9751 55.5298 15.9751H53.1873V9.48978H55.5298ZM54.1945 15.0579H55.4173C55.7199 15.076 56.0227 15.0264 56.3037 14.9127C56.5847 14.799 56.8368 14.624 57.0417 14.4006C57.2465 14.1772 57.399 13.9109 57.488 13.6211C57.577 13.3313 57.6002 13.0253 57.556 12.7254C57.597 12.4267 57.5714 12.1226 57.4811 11.835C57.3907 11.5473 57.2379 11.2832 57.0335 11.0616C56.8291 10.8399 56.5782 10.6662 56.2988 10.5529C56.0193 10.4396 55.7183 10.3895 55.4173 10.4063H54.1945V15.0579Z" fill="white"/>
<path d="M59.7192 13.5257C59.6884 13.2041 59.7252 12.8796 59.8272 12.573C59.9292 12.2664 60.0941 11.9845 60.3114 11.7454C60.5288 11.5063 60.7936 11.3153 61.0891 11.1846C61.3846 11.0539 61.7041 10.9863 62.0272 10.9863C62.3503 10.9863 62.6698 11.0539 62.9653 11.1846C63.2608 11.3153 63.5257 11.5063 63.743 11.7454C63.9603 11.9845 64.1252 12.2664 64.2272 12.573C64.3292 12.8796 64.366 13.2041 64.3352 13.5257C64.3666 13.8477 64.3302 14.1726 64.2285 14.4797C64.1268 14.7868 63.962 15.0692 63.7446 15.3087C63.5272 15.5483 63.2621 15.7397 62.9664 15.8707C62.6706 16.0017 62.3507 16.0694 62.0272 16.0694C61.7037 16.0694 61.3838 16.0017 61.0881 15.8707C60.7923 15.7397 60.5272 15.5483 60.3098 15.3087C60.0925 15.0692 59.9276 14.7868 59.8259 14.4797C59.7242 14.1726 59.6878 13.8477 59.7192 13.5257ZM63.3418 13.5257C63.3418 12.4648 62.8652 11.8444 62.0288 11.8444C61.1892 11.8444 60.7169 12.4648 60.7169 13.5257C60.7169 14.5951 61.1893 15.2107 62.0288 15.2107C62.8652 15.2107 63.3418 14.5908 63.3418 13.5257H63.3418Z" fill="white"/>
<path d="M70.4713 15.9742H69.4693L68.4578 12.3697H68.3814L67.3741 15.9742H66.3816L65.0326 11.0801H66.0123L66.889 14.8146H66.9612L67.9674 11.0801H68.894L69.9002 14.8146H69.9767L70.8491 11.0801H71.815L70.4713 15.9742Z" fill="white"/>
<path d="M72.9497 11.0807H73.8795V11.8582H73.9517C74.0741 11.579 74.2806 11.3449 74.5424 11.1886C74.8042 11.0323 75.1083 10.9616 75.4122 10.9863C75.6503 10.9684 75.8894 11.0043 76.1118 11.0913C76.3342 11.1784 76.5341 11.3143 76.6968 11.4892C76.8595 11.664 76.9808 11.8732 77.0516 12.1012C77.1225 12.3293 77.1411 12.5703 77.1062 12.8066V15.9748H76.1403V13.0491C76.1403 12.2626 75.7985 11.8715 75.0842 11.8715C74.9225 11.864 74.7611 11.8915 74.6111 11.9522C74.461 12.0128 74.3259 12.1052 74.2149 12.223C74.1039 12.3409 74.0197 12.4813 73.968 12.6347C73.9163 12.788 73.8985 12.9508 73.9156 13.1117V15.9749H72.9497L72.9497 11.0807Z" fill="white"/>
<path d="M78.6453 9.16992H79.6111V15.9746H78.6453V9.16992Z" fill="white"/>
<path d="M80.9538 13.5258C80.923 13.2041 80.9598 12.8796 81.0619 12.573C81.1639 12.2664 81.3288 11.9846 81.5462 11.7455C81.7635 11.5064 82.0284 11.3153 82.3239 11.1846C82.6194 11.0539 82.939 10.9863 83.2621 10.9863C83.5852 10.9863 83.9047 11.0539 84.2002 11.1846C84.4957 11.3153 84.7606 11.5064 84.978 11.7455C85.1953 11.9846 85.3603 12.2664 85.4623 12.573C85.5643 12.8796 85.6011 13.2041 85.5704 13.5258C85.6017 13.8478 85.5653 14.1727 85.4635 14.4798C85.3618 14.7869 85.1969 15.0693 84.9795 15.3088C84.7621 15.5484 84.497 15.7398 84.2012 15.8708C83.9055 16.0018 83.5856 16.0695 83.2621 16.0695C82.9386 16.0695 82.6187 16.0018 82.3229 15.8708C82.0271 15.7398 81.762 15.5484 81.5446 15.3088C81.3272 15.0693 81.1624 14.7869 81.0606 14.4798C80.9588 14.1727 80.9224 13.8478 80.9538 13.5258ZM84.5764 13.5258C84.5764 12.4649 84.0998 11.8445 83.2634 11.8445C82.4238 11.8445 81.9515 12.4649 81.9515 13.5258C81.9515 14.5952 82.4239 15.2108 83.2634 15.2108C84.0998 15.2108 84.5764 14.5909 84.5764 13.5258H84.5764Z" fill="white"/>
<path d="M86.5872 14.5909C86.5872 13.7099 87.2431 13.202 88.4075 13.1298L89.7332 13.0534V12.631C89.7332 12.1141 89.3914 11.8222 88.7312 11.8222C88.192 11.8222 87.8184 12.0201 87.7112 12.3662H86.7761C86.8748 11.5255 87.6656 10.9863 88.7758 10.9863C90.0028 10.9863 90.6948 11.5972 90.6948 12.631V15.975H89.765V15.2872H89.6886C89.5335 15.5339 89.3157 15.735 89.0574 15.87C88.7991 16.005 88.5097 16.0691 88.2185 16.0556C88.0131 16.077 87.8054 16.055 87.609 15.9912C87.4125 15.9274 87.2316 15.8232 87.0779 15.6852C86.9242 15.5472 86.8011 15.3785 86.7166 15.19C86.6321 15.0015 86.588 14.7974 86.5872 14.5909ZM89.7332 14.1727V13.7635L88.538 13.8399C87.864 13.885 87.5583 14.1143 87.5583 14.5458C87.5583 14.9862 87.9404 15.2426 88.4659 15.2426C88.6198 15.2582 88.7754 15.2426 88.9232 15.1969C89.071 15.1511 89.2081 15.0761 89.3263 14.9763C89.4446 14.8765 89.5415 14.7539 89.6114 14.6158C89.6813 14.4778 89.7227 14.3271 89.7332 14.1727Z" fill="white"/>
<path d="M91.9644 13.5254C91.9644 11.979 92.7594 10.9993 93.9959 10.9993C94.3018 10.9852 94.6053 11.0584 94.8711 11.2105C95.1369 11.3625 95.3539 11.5871 95.4967 11.8579H95.5689V9.16992H96.5348V15.9746H95.6093V15.2014H95.5328C95.3789 15.4704 95.1544 15.6921 94.8834 15.8427C94.6125 15.9932 94.3056 16.0667 93.9959 16.0553C92.7509 16.0553 91.9644 15.0756 91.9644 13.5254ZM92.9621 13.5254C92.9621 14.5635 93.4514 15.1881 94.2698 15.1881C95.0839 15.1881 95.587 14.5545 95.587 13.5297C95.587 12.5097 95.0786 11.867 94.2698 11.867C93.4567 11.867 92.9621 12.4959 92.9621 13.5254H92.9621Z" fill="white"/>
<path d="M100.531 13.5257C100.5 13.2041 100.537 12.8796 100.639 12.573C100.741 12.2664 100.906 11.9845 101.123 11.7454C101.341 11.5063 101.605 11.3153 101.901 11.1846C102.196 11.0539 102.516 10.9863 102.839 10.9863C103.162 10.9863 103.482 11.0539 103.777 11.1846C104.073 11.3153 104.337 11.5063 104.555 11.7454C104.772 11.9845 104.937 12.2664 105.039 12.573C105.141 12.8796 105.178 13.2041 105.147 13.5257C105.178 13.8477 105.142 14.1726 105.04 14.4797C104.939 14.7868 104.774 15.0692 104.556 15.3087C104.339 15.5483 104.074 15.7397 103.778 15.8707C103.482 16.0017 103.162 16.0694 102.839 16.0694C102.515 16.0694 102.196 16.0017 101.9 15.8707C101.604 15.7397 101.339 15.5483 101.122 15.3087C100.904 15.0692 100.739 14.7868 100.638 14.4797C100.536 14.1726 100.5 13.8477 100.531 13.5257ZM104.154 13.5257C104.154 12.4648 103.677 11.8444 102.841 11.8444C102.001 11.8444 101.529 12.4648 101.529 13.5257C101.529 14.5951 102.001 15.2107 102.841 15.2107C103.677 15.2107 104.154 14.5908 104.154 13.5257Z" fill="white"/>
<path d="M106.443 11.0807H107.373V11.8582H107.445C107.567 11.579 107.774 11.3449 108.036 11.1886C108.298 11.0323 108.602 10.9616 108.905 10.9863C109.144 10.9684 109.383 11.0043 109.605 11.0913C109.827 11.1784 110.027 11.3143 110.19 11.4892C110.353 11.664 110.474 11.8732 110.545 12.1012C110.616 12.3293 110.634 12.5703 110.599 12.8066V15.9748H109.634V13.0491C109.634 12.2626 109.292 11.8715 108.577 11.8715C108.416 11.864 108.254 11.8915 108.104 11.9522C107.954 12.0128 107.819 12.1052 107.708 12.223C107.597 12.3409 107.513 12.4813 107.461 12.6347C107.41 12.788 107.392 12.9508 107.409 13.1117V15.9749H106.443V11.0807Z" fill="white"/>
<path d="M116.057 9.8623V11.1031H117.118V11.9167H116.057V14.4333C116.057 14.9459 116.268 15.1704 116.749 15.1704C116.872 15.17 116.995 15.1626 117.118 15.1481V15.9527C116.944 15.9837 116.768 16.0002 116.592 16.002C115.518 16.002 115.09 15.6242 115.09 14.6806V11.9166H114.313V11.103H115.09V9.8623H116.057Z" fill="white"/>
<path d="M118.437 9.16992H119.394V11.867H119.471C119.599 11.5851 119.811 11.3497 120.078 11.1928C120.345 11.0359 120.654 10.9652 120.963 10.9902C121.2 10.9774 121.437 11.0169 121.657 11.1061C121.877 11.1952 122.074 11.3318 122.235 11.5061C122.396 11.6804 122.517 11.888 122.588 12.1142C122.66 12.3405 122.68 12.5797 122.649 12.8148V15.9746H121.682V13.0531C121.682 12.2714 121.318 11.8755 120.635 11.8755C120.469 11.8618 120.302 11.8847 120.146 11.9423C119.99 12 119.848 12.0911 119.731 12.2093C119.613 12.3275 119.523 12.4699 119.466 12.6265C119.41 12.7832 119.388 12.9503 119.403 13.1162V15.9746H118.437L118.437 9.16992Z" fill="white"/>
<path d="M128.281 14.6536C128.149 15.1009 127.865 15.4878 127.477 15.7466C127.09 16.0055 126.623 16.1198 126.16 16.0695C125.837 16.078 125.517 16.0163 125.221 15.8885C124.925 15.7608 124.66 15.5701 124.445 15.3298C124.23 15.0894 124.069 14.8051 123.975 14.4966C123.881 14.1882 123.855 13.8629 123.899 13.5434C123.856 13.2228 123.883 12.8969 123.977 12.5874C124.071 12.278 124.23 11.9924 124.444 11.75C124.658 11.5075 124.921 11.3139 125.217 11.1821C125.512 11.0504 125.832 10.9837 126.156 10.9864C127.517 10.9864 128.339 11.9168 128.339 13.4536V13.7907H124.883V13.8448C124.868 14.0244 124.89 14.2052 124.949 14.3756C125.008 14.5459 125.102 14.7021 125.225 14.8341C125.347 14.9661 125.496 15.071 125.662 15.1421C125.827 15.2132 126.006 15.2489 126.186 15.2469C126.417 15.2746 126.651 15.233 126.859 15.1274C127.066 15.0217 127.237 14.8568 127.351 14.6536L128.281 14.6536ZM124.883 13.0763H127.355C127.367 12.9121 127.345 12.7471 127.289 12.592C127.234 12.4368 127.147 12.295 127.033 12.1756C126.92 12.0562 126.783 11.9619 126.631 11.8986C126.479 11.8354 126.315 11.8047 126.15 11.8085C125.983 11.8064 125.817 11.8377 125.663 11.9007C125.508 11.9637 125.367 12.057 125.249 12.1752C125.131 12.2933 125.038 12.4339 124.975 12.5887C124.912 12.7435 124.881 12.9093 124.883 13.0763H124.883Z" fill="white"/>
<path d="M58.5311 29.4983H53.3865L52.151 33.1464H49.9719L54.8449 19.6494H57.1088L61.9818 33.1464H59.7656L58.5311 29.4983ZM53.9193 27.8149H57.9973L55.987 21.8943H55.9307L53.9193 27.8149Z" fill="white"/>
<path d="M72.5057 28.2276C72.5057 31.2856 70.869 33.2502 68.3991 33.2502C67.7734 33.283 67.1512 33.1388 66.6036 32.8344C66.056 32.5299 65.6053 32.0774 65.3029 31.5286H65.2562V36.4026H63.2363V23.3069H65.1915V24.9436H65.2286C65.5449 24.3975 66.0032 23.9473 66.555 23.641C67.1067 23.3347 67.7312 23.1836 68.3619 23.204C70.8594 23.204 72.5057 25.1782 72.5057 28.2276ZM70.4295 28.2276C70.4295 26.2354 69.4 24.9256 67.8291 24.9256C66.2858 24.9256 65.2477 26.263 65.2477 28.2276C65.2477 30.2104 66.2858 31.5382 67.8291 31.5382C69.4 31.5382 70.4295 30.2379 70.4295 28.2276Z" fill="white"/>
<path d="M83.3364 28.2276C83.3364 31.2856 81.6997 33.2502 79.2298 33.2502C78.6041 33.2829 77.9818 33.1388 77.4343 32.8343C76.8867 32.5299 76.436 32.0773 76.1336 31.5286H76.0869V36.4026H74.067V23.3069H76.0221V24.9436H76.0593C76.3755 24.3975 76.8339 23.9473 77.3856 23.641C77.9374 23.3346 78.5618 23.1836 79.1926 23.204C81.6901 23.204 83.3364 25.1782 83.3364 28.2276ZM81.2602 28.2276C81.2602 26.2354 80.2307 24.9256 78.6598 24.9256C77.1165 24.9256 76.0784 26.2629 76.0784 28.2276C76.0784 30.2103 77.1165 31.5382 78.6598 31.5382C80.2307 31.5382 81.2602 30.2379 81.2602 28.2276H81.2602Z" fill="white"/>
<path d="M90.4945 29.3862C90.6442 30.7247 91.9444 31.6035 93.7212 31.6035C95.4237 31.6035 96.6486 30.7246 96.6486 29.5178C96.6486 28.4702 95.9099 27.8429 94.1607 27.413L92.4115 26.9916C89.9331 26.393 88.7825 25.2339 88.7825 23.3531C88.7825 21.0244 90.8119 19.4248 93.6936 19.4248C96.5456 19.4248 98.5008 21.0244 98.5666 23.3531H96.5276C96.4055 22.0062 95.2921 21.1931 93.665 21.1931C92.0378 21.1931 90.9244 22.0157 90.9244 23.213C90.9244 24.1672 91.6355 24.7287 93.3752 25.1585L94.8622 25.5236C97.6314 26.1785 98.782 27.2909 98.782 29.2651C98.782 31.7902 96.7706 33.3717 93.5715 33.3717C90.5784 33.3717 88.5574 31.8274 88.4269 29.3861L90.4945 29.3862Z" fill="white"/>
<path d="M103.141 20.9775V23.3063H105.012V24.9058H103.141V30.3307C103.141 31.1735 103.516 31.5662 104.338 31.5662C104.561 31.5623 104.782 31.5467 105.003 31.5194V33.1094C104.633 33.1785 104.257 33.2098 103.881 33.2028C101.889 33.2028 101.112 32.4545 101.112 30.5461V24.9058H99.681V23.3063H101.112V20.9775H103.141Z" fill="white"/>
<path d="M106.096 28.2272C106.096 25.1311 107.92 23.1855 110.763 23.1855C113.616 23.1855 115.431 25.1311 115.431 28.2272C115.431 31.3319 113.626 33.269 110.763 33.269C107.902 33.269 106.096 31.3319 106.096 28.2272ZM113.373 28.2272C113.373 26.1034 112.4 24.8498 110.763 24.8498C109.127 24.8498 108.154 26.1129 108.154 28.2272C108.154 30.3596 109.127 31.6036 110.763 31.6036C112.4 31.6036 113.373 30.3596 113.373 28.2272H113.373Z" fill="white"/>
<path d="M117.097 23.3068H119.023V24.9817H119.07C119.2 24.4586 119.507 23.9963 119.938 23.6726C120.369 23.3488 120.898 23.1833 121.437 23.2039C121.67 23.203 121.902 23.2283 122.129 23.2792V25.1685C121.835 25.0787 121.528 25.0375 121.221 25.0465C120.928 25.0346 120.635 25.0863 120.364 25.1981C120.092 25.31 119.848 25.4792 119.648 25.6943C119.448 25.9094 119.297 26.1652 119.205 26.4442C119.114 26.7231 119.083 27.0187 119.117 27.3105V33.1472H117.097L117.097 23.3068Z" fill="white"/>
<path d="M131.442 30.2567C131.17 32.043 129.43 33.269 127.204 33.269C124.342 33.269 122.565 31.351 122.565 28.274C122.565 25.1874 124.351 23.1855 127.12 23.1855C129.842 23.1855 131.554 25.0557 131.554 28.0394V28.7314H124.604V28.8535C124.572 29.2156 124.617 29.5805 124.737 29.9237C124.857 30.267 125.048 30.5809 125.299 30.8445C125.549 31.1081 125.853 31.3155 126.189 31.4528C126.526 31.59 126.888 31.6541 127.251 31.6407C127.729 31.6855 128.208 31.5749 128.617 31.3255C129.026 31.0762 129.344 30.7013 129.524 30.2567L131.442 30.2567ZM124.614 27.3197H129.533C129.551 26.9941 129.502 26.6683 129.388 26.3626C129.274 26.057 129.099 25.7781 128.872 25.5436C128.645 25.3091 128.373 25.124 128.071 24.9998C127.77 24.8757 127.446 24.8152 127.12 24.8222C126.791 24.8203 126.465 24.8835 126.16 25.0082C125.856 25.1329 125.579 25.3167 125.346 25.5489C125.113 25.781 124.929 26.0571 124.803 26.361C124.677 26.665 124.613 26.9908 124.614 27.3198V27.3197Z" fill="white"/>
</svg>
