<svg width="384" height="452" viewBox="0 0 384 452" fill="none" xmlns="http://www.w3.org/2000/svg">
<rect width="384" height="452" rx="8" fill="#F7F8F8"/>
<path d="M30.588 354.108C26.844 354.108 24.576 351.57 24.576 347.7C24.576 343.83 26.934 341.292 30.75 341.292C33.738 341.292 35.844 343.164 36.168 345.9H33.432C33.108 344.496 32.1 343.578 30.606 343.578C28.554 343.578 27.33 345.27 27.33 347.7C27.33 350.112 28.536 351.822 30.57 351.822C32.1 351.822 33.108 350.904 33.432 349.5H36.15C35.844 352.236 33.666 354.108 30.588 354.108ZM46.0175 351.858H46.3055V354H45.0095C43.6955 354 43.2815 353.37 43.2995 352.488C42.6515 353.514 41.7155 354.108 40.2755 354.108C38.2775 354.108 36.8375 353.154 36.8375 351.39C36.8375 349.428 38.3135 348.312 41.0855 348.312H42.9215V347.862C42.9215 347.034 42.3275 346.494 41.2655 346.494C40.2755 346.494 39.6095 346.944 39.5015 347.628H37.0535C37.2335 345.828 38.8895 344.64 41.3375 344.64C43.9295 344.64 45.4235 345.792 45.4235 348.006V351.282C45.4235 351.768 45.6215 351.858 46.0175 351.858ZM42.9215 350.184V350.004H41.0675C40.0055 350.004 39.3935 350.436 39.3935 351.21C39.3935 351.858 39.9155 352.272 40.7615 352.272C42.0935 352.272 42.9035 351.444 42.9215 350.184ZM46.5674 350.922H48.9794C49.0694 351.732 49.7714 352.29 51.0134 352.29C52.0754 352.29 52.7234 351.948 52.7234 351.3C52.7234 350.544 52.0934 350.49 50.5994 350.292C48.4394 350.04 46.7654 349.554 46.7654 347.646C46.7654 345.81 48.3674 344.604 50.7434 344.622C53.2274 344.622 54.9374 345.72 55.0634 347.61H52.6334C52.5614 346.872 51.8594 346.422 50.8334 346.422C49.8434 346.422 49.1954 346.782 49.1954 347.376C49.1954 348.078 49.9874 348.15 51.3194 348.312C53.4434 348.528 55.2074 349.014 55.2074 351.102C55.2074 352.938 53.4794 354.108 50.9954 354.108C48.4214 354.108 46.6754 352.902 46.5674 350.922ZM61.5303 344.64C63.5823 344.64 65.2743 345.738 65.2743 348.87V354H62.7363V349.086C62.7363 347.574 62.1243 346.728 60.8643 346.728C59.5683 346.728 58.7943 347.664 58.7943 349.248V354H56.2563V341.4H58.7943V345.882C59.3883 345.162 60.2163 344.64 61.5303 344.64ZM70.4563 349.86L73.1023 349.896C73.1923 351.12 74.1643 351.966 75.7123 351.966C76.9543 351.966 77.8723 351.426 77.8723 350.436C77.8723 349.374 76.8463 349.158 74.7403 348.744C72.6163 348.348 70.7443 347.664 70.7443 345.108C70.7443 342.876 72.5983 341.292 75.4423 341.292C78.4123 341.292 80.3023 342.84 80.3383 345.252H77.6923C77.5663 344.19 76.7563 343.452 75.4423 343.452C74.2903 343.452 73.4623 343.938 73.4623 344.91C73.4623 345.936 74.4523 346.152 76.5403 346.548C78.7003 346.944 80.6083 347.592 80.5903 350.13C80.5723 352.488 78.6283 354.108 75.6763 354.108C72.4723 354.108 70.4743 352.416 70.4563 349.86ZM86.2423 354.108C83.2903 354.108 81.3643 352.218 81.3643 349.374C81.3643 346.53 83.2903 344.64 86.2423 344.64C89.1943 344.64 91.1203 346.53 91.1203 349.374C91.1203 352.236 89.1943 354.108 86.2423 354.108ZM86.2423 352.038C87.6643 352.038 88.5463 350.94 88.5463 349.374C88.5463 347.808 87.6643 346.71 86.2423 346.71C84.8203 346.71 83.9563 347.808 83.9563 349.374C83.9563 350.94 84.8203 352.038 86.2423 352.038ZM92.2293 354V341.4H94.7673V354H92.2293ZM102.422 349.374V344.748H104.96V354H102.71L102.476 352.884C101.882 353.604 101.072 354.108 99.7579 354.108C97.8499 354.108 96.0859 353.154 96.0859 349.878V344.748H98.6239V349.536C98.6239 351.192 99.1639 352.002 100.424 352.002C101.684 352.002 102.422 351.084 102.422 349.374ZM107.173 351.354V346.89H105.643V344.748H107.173V342.156H109.711V344.748H111.835V346.89H109.711V350.94C109.711 351.588 109.963 351.858 110.629 351.858H111.889V354H109.819C108.055 354 107.173 353.118 107.173 351.354ZM114.053 343.758C113.225 343.758 112.577 343.146 112.577 342.336C112.577 341.508 113.225 340.896 114.053 340.896C114.881 340.896 115.529 341.508 115.529 342.336C115.529 343.146 114.881 343.758 114.053 343.758ZM112.775 354V344.748H115.331V354H112.775ZM121.312 354.108C118.36 354.108 116.434 352.218 116.434 349.374C116.434 346.53 118.36 344.64 121.312 344.64C124.264 344.64 126.19 346.53 126.19 349.374C126.19 352.236 124.264 354.108 121.312 354.108ZM121.312 352.038C122.734 352.038 123.616 350.94 123.616 349.374C123.616 347.808 122.734 346.71 121.312 346.71C119.89 346.71 119.026 347.808 119.026 349.374C119.026 350.94 119.89 352.038 121.312 352.038ZM132.609 344.64C134.607 344.64 136.317 345.702 136.317 348.87V354H133.779V349.122C133.779 347.556 133.185 346.728 131.907 346.728C130.593 346.728 129.837 347.664 129.837 349.266V354H127.299V344.748H129.513L129.747 345.9C130.341 345.18 131.187 344.64 132.609 344.64ZM137.196 350.922H139.608C139.698 351.732 140.4 352.29 141.642 352.29C142.704 352.29 143.352 351.948 143.352 351.3C143.352 350.544 142.722 350.49 141.228 350.292C139.068 350.04 137.394 349.554 137.394 347.646C137.394 345.81 138.996 344.604 141.372 344.622C143.856 344.622 145.566 345.72 145.692 347.61H143.262C143.19 346.872 142.488 346.422 141.462 346.422C140.472 346.422 139.824 346.782 139.824 347.376C139.824 348.078 140.616 348.15 141.948 348.312C144.072 348.528 145.836 349.014 145.836 351.102C145.836 352.938 144.108 354.108 141.624 354.108C139.05 354.108 137.304 352.902 137.196 350.922ZM151.26 354V341.4H154.806L158.298 350.652L161.682 341.4H165.156V354H162.582V345.558L159.306 354H157.11L153.834 345.558V354H151.26ZM175.643 351.858H175.931V354H174.635C173.321 354 172.907 353.37 172.925 352.488C172.277 353.514 171.341 354.108 169.901 354.108C167.903 354.108 166.463 353.154 166.463 351.39C166.463 349.428 167.939 348.312 170.711 348.312H172.547V347.862C172.547 347.034 171.953 346.494 170.891 346.494C169.901 346.494 169.235 346.944 169.127 347.628H166.679C166.859 345.828 168.515 344.64 170.963 344.64C173.555 344.64 175.049 345.792 175.049 348.006V351.282C175.049 351.768 175.247 351.858 175.643 351.858ZM172.547 350.184V350.004H170.693C169.631 350.004 169.019 350.436 169.019 351.21C169.019 351.858 169.541 352.272 170.387 352.272C171.719 352.272 172.529 351.444 172.547 350.184ZM183.304 345.9V341.4H185.842V354H183.628L183.376 352.722C182.764 353.514 181.864 354.108 180.532 354.108C178.048 354.108 176.23 352.29 176.23 349.356C176.23 346.494 178.048 344.64 180.514 344.64C181.792 344.64 182.71 345.144 183.304 345.9ZM181.09 352.038C182.476 352.038 183.34 350.958 183.34 349.392C183.34 347.808 182.476 346.71 181.09 346.71C179.704 346.71 178.822 347.79 178.822 349.374C178.822 350.958 179.704 352.038 181.09 352.038ZM191.895 354.108C188.817 354.108 186.963 352.254 186.963 349.392C186.963 346.512 188.853 344.64 191.715 344.64C194.487 344.64 196.359 346.368 196.395 349.086C196.395 349.356 196.377 349.662 196.323 349.95H189.609V350.076C189.663 351.39 190.509 352.182 191.787 352.182C192.813 352.182 193.533 351.732 193.749 350.868H196.251C195.963 352.668 194.361 354.108 191.895 354.108ZM189.663 348.294H193.839C193.659 347.16 192.885 346.53 191.733 346.53C190.635 346.53 189.807 347.196 189.663 348.294ZM201.869 354V341.4H210.329V343.722H204.569V346.548H209.249V348.762H204.569V351.678H210.527V354H201.869ZM220.222 351.858H220.51V354H219.214C217.9 354 217.486 353.37 217.504 352.488C216.856 353.514 215.92 354.108 214.48 354.108C212.482 354.108 211.042 353.154 211.042 351.39C211.042 349.428 212.518 348.312 215.29 348.312H217.126V347.862C217.126 347.034 216.532 346.494 215.47 346.494C214.48 346.494 213.814 346.944 213.706 347.628H211.258C211.438 345.828 213.094 344.64 215.542 344.64C218.134 344.64 219.628 345.792 219.628 348.006V351.282C219.628 351.768 219.826 351.858 220.222 351.858ZM217.126 350.184V350.004H215.272C214.21 350.004 213.598 350.436 213.598 351.21C213.598 351.858 214.12 352.272 214.966 352.272C216.298 352.272 217.108 351.444 217.126 350.184ZM220.772 350.922H223.184C223.274 351.732 223.976 352.29 225.218 352.29C226.28 352.29 226.928 351.948 226.928 351.3C226.928 350.544 226.298 350.49 224.804 350.292C222.644 350.04 220.97 349.554 220.97 347.646C220.97 345.81 222.572 344.604 224.948 344.622C227.432 344.622 229.142 345.72 229.268 347.61H226.838C226.766 346.872 226.064 346.422 225.038 346.422C224.048 346.422 223.4 346.782 223.4 347.376C223.4 348.078 224.192 348.15 225.524 348.312C227.648 348.528 229.412 349.014 229.412 351.102C229.412 352.938 227.684 354.108 225.2 354.108C222.626 354.108 220.88 352.902 220.772 350.922ZM232.826 354.054L229.262 344.748H231.962L234.212 351.336L236.408 344.748H239.126L235.022 355.314C234.446 356.844 233.978 357.6 232.538 357.6H230.072V355.458H231.476C232.124 355.458 232.34 355.296 232.592 354.666L232.826 354.054Z" fill="#2F2B43"/>
<path d="M24.896 377.1C24.854 374.3 27.01 371.962 29.908 372.004C32.806 371.962 34.962 374.3 34.92 377.1C34.962 379.9 32.806 382.238 29.908 382.196C27.01 382.238 24.854 379.9 24.896 377.1ZM33.632 377.1C33.632 374.846 32.106 373.152 29.908 373.152C27.71 373.152 26.184 374.846 26.184 377.1C26.184 379.354 27.71 381.048 29.908 381.048C32.106 381.048 33.632 379.354 33.632 377.1ZM36.7925 379.354V374.916H37.9685V379.284C37.9685 380.46 38.6545 381.104 39.8445 381.104C41.0345 381.104 41.7205 380.46 41.7205 379.284V374.916H42.8965V379.354C42.8965 381.034 41.6785 382.196 39.8445 382.196C38.0105 382.196 36.7925 381.034 36.7925 379.354ZM49.1083 374.902V375.938C48.8983 375.91 48.7023 375.896 48.4923 375.896C47.1063 375.896 46.3083 376.708 46.3083 378.374V382H45.1323V374.916H46.3083V376.246C46.6303 375.336 47.4143 374.804 48.4643 374.804C48.7023 374.804 48.9263 374.832 49.1083 374.902ZM53.2351 378.458C53.2351 376.302 54.7191 374.72 56.8751 374.72C58.1771 374.72 59.2411 375.266 59.8431 376.26L58.9191 376.904C58.4851 376.19 57.7711 375.812 56.8891 375.812C56.1751 375.812 55.5871 376.05 55.1391 376.54C54.6911 377.03 54.4671 377.66 54.4671 378.458C54.4671 379.256 54.6911 379.886 55.1391 380.376C55.5871 380.866 56.1751 381.104 56.8891 381.104C57.7711 381.104 58.4851 380.726 58.9191 380.012L59.8431 380.656C59.2411 381.65 58.1771 382.196 56.8751 382.196C54.7191 382.196 53.2351 380.614 53.2351 378.458ZM61.3204 379.354V374.916H62.4964V379.284C62.4964 380.46 63.1824 381.104 64.3724 381.104C65.5624 381.104 66.2484 380.46 66.2484 379.284V374.916H67.4244V379.354C67.4244 381.034 66.2064 382.196 64.3724 382.196C62.5384 382.196 61.3204 381.034 61.3204 379.354ZM68.9882 380.656L69.8422 380.026C70.3462 380.754 71.1722 381.132 72.1382 381.132C73.1462 381.132 73.7622 380.712 73.7622 380.054C73.7622 379.55 73.4122 379.256 72.5162 379.046L71.3962 378.794C69.9402 378.458 69.2402 377.814 69.2402 376.82C69.2402 375.574 70.3042 374.72 72.0262 374.72C73.2582 374.72 74.2522 375.154 74.8262 375.924L74.0142 376.624C73.5522 376.078 72.8382 375.784 71.9562 375.784C70.9482 375.784 70.4162 376.162 70.4162 376.792C70.4162 377.254 70.7382 377.52 71.6902 377.744L72.9362 378.024C74.3362 378.346 74.9382 378.976 74.9382 379.97C74.9382 381.314 73.8882 382.196 72.1522 382.196C70.7102 382.196 69.5482 381.608 68.9882 380.656ZM77.1886 380.18V375.924H75.7746V374.916H77.1886V372.816H78.3646V374.916H80.5906V375.924H78.3646V380.096C78.3646 380.782 78.7146 381.076 79.5126 381.076C79.8346 381.076 80.2126 381.034 80.6186 380.95V381.93C80.2126 382.056 79.7926 382.112 79.3446 382.112C77.9446 382.112 77.1886 381.454 77.1886 380.18ZM81.6321 378.458C81.6041 376.456 83.1301 374.678 85.2721 374.72C87.4141 374.678 88.9401 376.456 88.9121 378.458C88.9401 380.46 87.4141 382.238 85.2721 382.196C83.1301 382.238 81.6041 380.46 81.6321 378.458ZM87.6801 378.458C87.6801 377.688 87.4561 377.044 87.0081 376.554C86.5741 376.064 85.9861 375.812 85.2721 375.812C84.5581 375.812 83.9701 376.064 83.5221 376.554C83.0881 377.044 82.8641 377.688 82.8641 378.458C82.8641 379.228 83.0881 379.872 83.5221 380.362C83.9701 380.852 84.5581 381.104 85.2721 381.104C85.9861 381.104 86.5741 380.852 87.0081 380.362C87.4561 379.872 87.6801 379.228 87.6801 378.458ZM101.427 377.436V382H100.251V377.716C100.251 376.386 99.8031 375.812 98.7531 375.812C97.5351 375.812 96.6951 376.596 96.6951 377.786V382H95.5191V377.716C95.5191 376.386 95.0711 375.812 94.0211 375.812C92.8031 375.812 91.9631 376.596 91.9631 377.786V382H90.7871V374.916H91.9631V376.106C92.3551 375.224 93.2231 374.72 94.3011 374.72C95.3791 374.72 96.1631 375.238 96.4991 376.19C96.8771 375.294 97.8151 374.72 99.0051 374.72C100.573 374.72 101.427 375.7 101.427 377.436ZM106.327 378.458C106.327 376.302 107.811 374.72 109.967 374.72C111.269 374.72 112.333 375.266 112.935 376.26L112.011 376.904C111.577 376.19 110.863 375.812 109.981 375.812C109.267 375.812 108.679 376.05 108.231 376.54C107.783 377.03 107.559 377.66 107.559 378.458C107.559 379.256 107.783 379.886 108.231 380.376C108.679 380.866 109.267 381.104 109.981 381.104C110.863 381.104 111.577 380.726 112.011 380.012L112.935 380.656C112.333 381.65 111.269 382.196 109.967 382.196C107.811 382.196 106.327 380.614 106.327 378.458ZM114.413 379.354V374.916H115.589V379.284C115.589 380.46 116.275 381.104 117.465 381.104C118.655 381.104 119.341 380.46 119.341 379.284V374.916H120.517V379.354C120.517 381.034 119.299 382.196 117.465 382.196C115.631 382.196 114.413 381.034 114.413 379.354ZM126.729 374.902V375.938C126.519 375.91 126.323 375.896 126.113 375.896C124.727 375.896 123.929 376.708 123.929 378.374V382H122.753V374.916H123.929V376.246C124.251 375.336 125.035 374.804 126.085 374.804C126.323 374.804 126.547 374.832 126.729 374.902ZM132.249 374.902V375.938C132.039 375.91 131.843 375.896 131.633 375.896C130.247 375.896 129.449 376.708 129.449 378.374V382H128.273V374.916H129.449V376.246C129.771 375.336 130.555 374.804 131.605 374.804C131.843 374.804 132.067 374.832 132.249 374.902ZM139.807 378.822H134.137C134.263 380.236 135.215 381.104 136.601 381.104C137.511 381.104 138.267 380.74 138.855 379.998L139.653 380.67C138.967 381.636 137.875 382.196 136.573 382.196C134.431 382.196 132.933 380.67 132.933 378.472C132.933 376.302 134.389 374.72 136.475 374.72C138.449 374.72 139.849 376.134 139.849 378.192C139.849 378.402 139.835 378.612 139.807 378.822ZM134.165 377.87H138.645C138.533 376.568 137.707 375.812 136.475 375.812C135.229 375.812 134.375 376.596 134.165 377.87ZM147.852 377.464V382H146.676V377.744C146.676 376.4 146.172 375.812 145.052 375.812C143.778 375.812 142.868 376.596 142.868 377.786V382H141.692V374.916H142.868V376.12C143.26 375.224 144.17 374.72 145.332 374.72C146.942 374.72 147.852 375.714 147.852 377.464ZM150.615 380.18V375.924H149.201V374.916H150.615V372.816H151.791V374.916H154.017V375.924H151.791V380.096C151.791 380.782 152.141 381.076 152.939 381.076C153.261 381.076 153.639 381.034 154.045 380.95V381.93C153.639 382.056 153.219 382.112 152.771 382.112C151.371 382.112 150.615 381.454 150.615 380.18ZM164.274 374.916H165.45V382H164.274V380.698C163.868 381.608 162.846 382.196 161.656 382.196C159.71 382.196 158.282 380.642 158.282 378.458C158.282 376.274 159.71 374.72 161.656 374.72C162.846 374.72 163.868 375.308 164.274 376.218V374.916ZM164.33 378.458C164.33 377.688 164.106 377.044 163.658 376.554C163.224 376.064 162.636 375.812 161.922 375.812C161.208 375.812 160.62 376.064 160.172 376.554C159.738 377.044 159.514 377.688 159.514 378.458C159.514 379.228 159.738 379.872 160.172 380.362C160.62 380.852 161.208 381.104 161.922 381.104C162.636 381.104 163.224 380.852 163.658 380.362C164.106 379.872 164.33 379.228 164.33 378.458ZM167.329 378.458C167.329 376.302 168.813 374.72 170.969 374.72C172.271 374.72 173.335 375.266 173.937 376.26L173.013 376.904C172.579 376.19 171.865 375.812 170.983 375.812C170.269 375.812 169.681 376.05 169.233 376.54C168.785 377.03 168.561 377.66 168.561 378.458C168.561 379.256 168.785 379.886 169.233 380.376C169.681 380.866 170.269 381.104 170.983 381.104C171.865 381.104 172.579 380.726 173.013 380.012L173.937 380.656C173.335 381.65 172.271 382.196 170.969 382.196C168.813 382.196 167.329 380.614 167.329 378.458ZM175.023 378.458C175.023 376.302 176.507 374.72 178.663 374.72C179.965 374.72 181.029 375.266 181.631 376.26L180.707 376.904C180.273 376.19 179.559 375.812 178.677 375.812C177.963 375.812 177.375 376.05 176.927 376.54C176.479 377.03 176.255 377.66 176.255 378.458C176.255 379.256 176.479 379.886 176.927 380.376C177.375 380.866 177.963 381.104 178.677 381.104C179.559 381.104 180.273 380.726 180.707 380.012L181.631 380.656C181.029 381.65 179.965 382.196 178.663 382.196C176.507 382.196 175.023 380.614 175.023 378.458ZM182.717 378.458C182.689 376.456 184.215 374.678 186.357 374.72C188.499 374.678 190.025 376.456 189.997 378.458C190.025 380.46 188.499 382.238 186.357 382.196C184.215 382.238 182.689 380.46 182.717 378.458ZM188.765 378.458C188.765 377.688 188.541 377.044 188.093 376.554C187.659 376.064 187.071 375.812 186.357 375.812C185.643 375.812 185.055 376.064 184.607 376.554C184.173 377.044 183.949 377.688 183.949 378.458C183.949 379.228 184.173 379.872 184.607 380.362C185.055 380.852 185.643 381.104 186.357 381.104C187.071 381.104 187.659 380.852 188.093 380.362C188.541 379.872 188.765 379.228 188.765 378.458ZM191.732 379.354V374.916H192.908V379.284C192.908 380.46 193.594 381.104 194.784 381.104C195.974 381.104 196.66 380.46 196.66 379.284V374.916H197.836V379.354C197.836 381.034 196.618 382.196 194.784 382.196C192.95 382.196 191.732 381.034 191.732 379.354ZM206.232 377.464V382H205.056V377.744C205.056 376.4 204.552 375.812 203.432 375.812C202.158 375.812 201.248 376.596 201.248 377.786V382H200.072V374.916H201.248V376.12C201.64 375.224 202.55 374.72 203.712 374.72C205.322 374.72 206.232 375.714 206.232 377.464ZM208.995 380.18V375.924H207.581V374.916H208.995V372.816H210.171V374.916H212.397V375.924H210.171V380.096C210.171 380.782 210.521 381.076 211.319 381.076C211.641 381.076 212.019 381.034 212.425 380.95V381.93C212.019 382.056 211.599 382.112 211.151 382.112C209.751 382.112 208.995 381.454 208.995 380.18ZM216.494 380.656L217.348 380.026C217.852 380.754 218.678 381.132 219.644 381.132C220.652 381.132 221.268 380.712 221.268 380.054C221.268 379.55 220.918 379.256 220.022 379.046L218.902 378.794C217.446 378.458 216.746 377.814 216.746 376.82C216.746 375.574 217.81 374.72 219.532 374.72C220.764 374.72 221.758 375.154 222.332 375.924L221.52 376.624C221.058 376.078 220.344 375.784 219.462 375.784C218.454 375.784 217.922 376.162 217.922 376.792C217.922 377.254 218.244 377.52 219.196 377.744L220.442 378.024C221.842 378.346 222.444 378.976 222.444 379.97C222.444 381.314 221.394 382.196 219.658 382.196C218.216 382.196 217.054 381.608 216.494 380.656ZM223.993 372.62C223.993 372.158 224.343 371.808 224.805 371.808C225.267 371.808 225.617 372.158 225.617 372.62C225.617 373.082 225.267 373.432 224.805 373.432C224.343 373.432 223.993 373.082 223.993 372.62ZM224.217 382V374.916H225.393V382H224.217ZM238.422 377.436V382H237.246V377.716C237.246 376.386 236.798 375.812 235.748 375.812C234.53 375.812 233.69 376.596 233.69 377.786V382H232.514V377.716C232.514 376.386 232.066 375.812 231.016 375.812C229.798 375.812 228.958 376.596 228.958 377.786V382H227.782V374.916H228.958V376.106C229.35 375.224 230.218 374.72 231.296 374.72C232.374 374.72 233.158 375.238 233.494 376.19C233.872 375.294 234.81 374.72 236 374.72C237.568 374.72 238.422 375.7 238.422 377.436ZM247.908 378.458C247.908 380.642 246.48 382.196 244.548 382.196C243.358 382.196 242.35 381.608 241.916 380.698V384.8H240.74V374.916H241.916V376.218C242.35 375.308 243.358 374.72 244.548 374.72C246.48 374.72 247.908 376.274 247.908 378.458ZM246.676 378.458C246.676 377.688 246.452 377.044 246.004 376.554C245.57 376.064 244.982 375.812 244.268 375.812C243.554 375.812 242.966 376.064 242.518 376.554C242.084 377.044 241.86 377.688 241.86 378.458C241.86 379.228 242.084 379.872 242.518 380.362C242.966 380.852 243.554 381.104 244.268 381.104C244.982 381.104 245.57 380.852 246.004 380.362C246.452 379.872 246.676 379.228 246.676 378.458ZM249.787 382V371.752H250.963V382H249.787ZM253.129 372.62C253.129 372.158 253.479 371.808 253.941 371.808C254.403 371.808 254.753 372.158 254.753 372.62C254.753 373.082 254.403 373.432 253.941 373.432C253.479 373.432 253.129 373.082 253.129 372.62ZM253.353 382V374.916H254.529V382H253.353ZM257.477 382V375.924H256.021V374.916H257.477V373.838C257.477 372.312 258.177 371.626 259.675 371.626C260.025 371.626 260.389 371.668 260.753 371.752V372.746C260.417 372.676 260.109 372.648 259.829 372.648C259.003 372.648 258.653 373.012 258.653 373.866V374.916H260.725V375.924H258.653V382H257.477ZM261.913 372.62C261.913 372.158 262.263 371.808 262.725 371.808C263.187 371.808 263.537 372.158 263.537 372.62C263.537 373.082 263.187 373.432 262.725 373.432C262.263 373.432 261.913 373.082 261.913 372.62ZM262.137 382V374.916H263.313V382H262.137ZM272.072 378.822H266.402C266.528 380.236 267.48 381.104 268.866 381.104C269.776 381.104 270.532 380.74 271.12 379.998L271.918 380.67C271.232 381.636 270.14 382.196 268.838 382.196C266.696 382.196 265.198 380.67 265.198 378.472C265.198 376.302 266.654 374.72 268.74 374.72C270.714 374.72 272.114 376.134 272.114 378.192C272.114 378.402 272.1 378.612 272.072 378.822ZM266.43 377.87H270.91C270.798 376.568 269.972 375.812 268.74 375.812C267.494 375.812 266.64 376.596 266.43 377.87ZM273.284 380.656L274.138 380.026C274.642 380.754 275.468 381.132 276.434 381.132C277.442 381.132 278.058 380.712 278.058 380.054C278.058 379.55 277.708 379.256 276.812 379.046L275.692 378.794C274.236 378.458 273.536 377.814 273.536 376.82C273.536 375.574 274.6 374.72 276.322 374.72C277.554 374.72 278.548 375.154 279.122 375.924L278.31 376.624C277.848 376.078 277.134 375.784 276.252 375.784C275.244 375.784 274.712 376.162 274.712 376.792C274.712 377.254 275.034 377.52 275.986 377.744L277.232 378.024C278.632 378.346 279.234 378.976 279.234 379.97C279.234 381.314 278.184 382.196 276.448 382.196C275.006 382.196 273.844 381.608 273.284 380.656ZM283.577 378.458C283.577 376.302 285.061 374.72 287.217 374.72C288.519 374.72 289.583 375.266 290.185 376.26L289.261 376.904C288.827 376.19 288.113 375.812 287.231 375.812C286.517 375.812 285.929 376.05 285.481 376.54C285.033 377.03 284.809 377.66 284.809 378.458C284.809 379.256 285.033 379.886 285.481 380.376C285.929 380.866 286.517 381.104 287.231 381.104C288.113 381.104 288.827 380.726 289.261 380.012L290.185 380.656C289.583 381.65 288.519 382.196 287.217 382.196C285.061 382.196 283.577 380.614 283.577 378.458ZM297.263 374.916H298.439V382H297.263V380.698C296.857 381.608 295.835 382.196 294.645 382.196C292.699 382.196 291.271 380.642 291.271 378.458C291.271 376.274 292.699 374.72 294.645 374.72C295.835 374.72 296.857 375.308 297.263 376.218V374.916ZM297.319 378.458C297.319 377.688 297.095 377.044 296.647 376.554C296.213 376.064 295.625 375.812 294.911 375.812C294.197 375.812 293.609 376.064 293.161 376.554C292.727 377.044 292.503 377.688 292.503 378.458C292.503 379.228 292.727 379.872 293.161 380.362C293.609 380.852 294.197 381.104 294.911 381.104C295.625 381.104 296.213 380.852 296.647 380.362C297.095 379.872 297.319 379.228 297.319 378.458ZM300.15 380.656L301.004 380.026C301.508 380.754 302.334 381.132 303.3 381.132C304.308 381.132 304.924 380.712 304.924 380.054C304.924 379.55 304.574 379.256 303.678 379.046L302.558 378.794C301.102 378.458 300.402 377.814 300.402 376.82C300.402 375.574 301.466 374.72 303.188 374.72C304.42 374.72 305.414 375.154 305.988 375.924L305.176 376.624C304.714 376.078 304 375.784 303.118 375.784C302.11 375.784 301.578 376.162 301.578 376.792C301.578 377.254 301.9 377.52 302.852 377.744L304.098 378.024C305.498 378.346 306.1 378.976 306.1 379.97C306.1 381.314 305.05 382.196 303.314 382.196C301.872 382.196 300.71 381.608 300.15 380.656ZM314.02 377.464V382H312.844V377.744C312.844 376.4 312.34 375.812 311.22 375.812C309.946 375.812 309.036 376.596 309.036 377.786V382H307.86V371.752H309.036V376.12C309.428 375.224 310.338 374.72 311.5 374.72C313.11 374.72 314.02 375.714 314.02 377.464ZM319.788 382V375.924H318.332V374.916H319.788V373.838C319.788 372.312 320.488 371.626 321.986 371.626C322.336 371.626 322.7 371.668 323.064 371.752V372.746C322.728 372.676 322.42 372.648 322.14 372.648C321.314 372.648 320.964 373.012 320.964 373.866V374.916H323.036V375.924H320.964V382H319.788ZM324.434 382V371.752H325.61V382H324.434ZM327.481 378.458C327.453 376.456 328.979 374.678 331.121 374.72C333.263 374.678 334.789 376.456 334.761 378.458C334.789 380.46 333.263 382.238 331.121 382.196C328.979 382.238 327.453 380.46 327.481 378.458ZM333.529 378.458C333.529 377.688 333.305 377.044 332.857 376.554C332.423 376.064 331.835 375.812 331.121 375.812C330.407 375.812 329.819 376.064 329.371 376.554C328.937 377.044 328.713 377.688 328.713 378.458C328.713 379.228 328.937 379.872 329.371 380.362C329.819 380.852 330.407 381.104 331.121 381.104C331.835 381.104 332.423 380.852 332.857 380.362C333.305 379.872 333.529 379.228 333.529 378.458ZM345.403 374.916H346.593L344.269 382H342.981L341.077 376.26L339.173 382H337.885L335.561 374.916H336.751L338.557 380.558L340.433 374.916H341.721L343.597 380.558L345.403 374.916ZM35.9 397.436V402H34.724V397.716C34.724 396.386 34.276 395.812 33.226 395.812C32.008 395.812 31.168 396.596 31.168 397.786V402H29.992V397.716C29.992 396.386 29.544 395.812 28.494 395.812C27.276 395.812 26.436 396.596 26.436 397.786V402H25.26V394.916H26.436V396.106C26.828 395.224 27.696 394.72 28.774 394.72C29.852 394.72 30.636 395.238 30.972 396.19C31.35 395.294 32.288 394.72 33.478 394.72C35.046 394.72 35.9 395.7 35.9 397.436ZM43.7057 394.916H44.8817V402H43.7057V400.698C43.2997 401.608 42.2777 402.196 41.0877 402.196C39.1417 402.196 37.7137 400.642 37.7137 398.458C37.7137 396.274 39.1417 394.72 41.0877 394.72C42.2777 394.72 43.2997 395.308 43.7057 396.218V394.916ZM43.7617 398.458C43.7617 397.688 43.5377 397.044 43.0897 396.554C42.6557 396.064 42.0677 395.812 41.3537 395.812C40.6397 395.812 40.0517 396.064 39.6037 396.554C39.1697 397.044 38.9457 397.688 38.9457 398.458C38.9457 399.228 39.1697 399.872 39.6037 400.362C40.0517 400.852 40.6397 401.104 41.3537 401.104C42.0677 401.104 42.6557 400.852 43.0897 400.362C43.5377 399.872 43.7617 399.228 43.7617 398.458ZM53.4252 397.464V402H52.2492V397.744C52.2492 396.4 51.7452 395.812 50.6252 395.812C49.3512 395.812 48.4412 396.596 48.4412 397.786V402H47.2652V394.916H48.4412V396.12C48.8332 395.224 49.7432 394.72 50.9052 394.72C52.5152 394.72 53.4252 395.714 53.4252 397.464ZM61.2401 394.916H62.4161V402H61.2401V400.698C60.8341 401.608 59.8121 402.196 58.6221 402.196C56.6761 402.196 55.2481 400.642 55.2481 398.458C55.2481 396.274 56.6761 394.72 58.6221 394.72C59.8121 394.72 60.8341 395.308 61.2401 396.218V394.916ZM61.2961 398.458C61.2961 397.688 61.0721 397.044 60.6241 396.554C60.1901 396.064 59.6021 395.812 58.8881 395.812C58.1741 395.812 57.5861 396.064 57.1381 396.554C56.7041 397.044 56.4801 397.688 56.4801 398.458C56.4801 399.228 56.7041 399.872 57.1381 400.362C57.5861 400.852 58.1741 401.104 58.8881 401.104C59.6021 401.104 60.1901 400.852 60.6241 400.362C61.0721 399.872 61.2961 399.228 61.2961 398.458ZM70.2876 394.916H71.4636V401.188C71.4636 403.652 70.1336 404.996 67.7816 404.996C66.4516 404.996 65.2896 404.562 64.5616 403.82L65.2336 402.952C65.8916 403.554 66.7876 403.904 67.7816 403.904C69.4056 403.904 70.2876 402.98 70.2876 401.188V400.544C69.8816 401.44 68.8876 402 67.6696 402C65.7236 402 64.2956 400.502 64.2956 398.36C64.2956 396.218 65.7236 394.72 67.6696 394.72C68.8596 394.72 69.8816 395.294 70.2876 396.204V394.916ZM70.3436 398.36C70.3436 397.618 70.1196 397.002 69.6716 396.526C69.2376 396.05 68.6496 395.812 67.9356 395.812C67.2216 395.812 66.6336 396.05 66.1856 396.526C65.7516 397.002 65.5276 397.618 65.5276 398.36C65.5276 399.102 65.7516 399.718 66.1856 400.194C66.6336 400.67 67.2216 400.908 67.9356 400.908C68.6496 400.908 69.2376 400.67 69.6716 400.194C70.1196 399.718 70.3436 399.102 70.3436 398.36ZM80.2171 398.822H74.5471C74.6731 400.236 75.6251 401.104 77.0111 401.104C77.9211 401.104 78.6771 400.74 79.2651 399.998L80.0631 400.67C79.3771 401.636 78.2851 402.196 76.9831 402.196C74.8411 402.196 73.3431 400.67 73.3431 398.472C73.3431 396.302 74.7991 394.72 76.8851 394.72C78.8591 394.72 80.2591 396.134 80.2591 398.192C80.2591 398.402 80.2451 398.612 80.2171 398.822ZM74.5751 397.87H79.0551C78.9431 396.568 78.1171 395.812 76.8851 395.812C75.6391 395.812 74.7851 396.596 74.5751 397.87ZM92.7416 397.436V402H91.5656V397.716C91.5656 396.386 91.1176 395.812 90.0676 395.812C88.8496 395.812 88.0096 396.596 88.0096 397.786V402H86.8336V397.716C86.8336 396.386 86.3856 395.812 85.3356 395.812C84.1176 395.812 83.2776 396.596 83.2776 397.786V402H82.1016V394.916H83.2776V396.106C83.6696 395.224 84.5376 394.72 85.6156 394.72C86.6936 394.72 87.4776 395.238 87.8136 396.19C88.1916 395.294 89.1296 394.72 90.3196 394.72C91.8876 394.72 92.7416 395.7 92.7416 397.436ZM101.429 398.822H95.7593C95.8853 400.236 96.8373 401.104 98.2233 401.104C99.1333 401.104 99.8893 400.74 100.477 399.998L101.275 400.67C100.589 401.636 99.4973 402.196 98.1953 402.196C96.0533 402.196 94.5553 400.67 94.5553 398.472C94.5553 396.302 96.0113 394.72 98.0973 394.72C100.071 394.72 101.471 396.134 101.471 398.192C101.471 398.402 101.457 398.612 101.429 398.822ZM95.7873 397.87H100.267C100.155 396.568 99.3293 395.812 98.0973 395.812C96.8513 395.812 95.9973 396.596 95.7873 397.87ZM109.474 397.464V402H108.298V397.744C108.298 396.4 107.794 395.812 106.674 395.812C105.4 395.812 104.49 396.596 104.49 397.786V402H103.314V394.916H104.49V396.12C104.882 395.224 105.792 394.72 106.954 394.72C108.564 394.72 109.474 395.714 109.474 397.464ZM112.237 400.18V395.924H110.823V394.916H112.237V392.816H113.413V394.916H115.639V395.924H113.413V400.096C113.413 400.782 113.763 401.076 114.561 401.076C114.883 401.076 115.261 401.034 115.667 400.95V401.93C115.261 402.056 114.841 402.112 114.393 402.112C112.993 402.112 112.237 401.454 112.237 400.18ZM120.762 402V395.924H119.306V394.916H120.762V393.838C120.762 392.312 121.462 391.626 122.96 391.626C123.31 391.626 123.674 391.668 124.038 391.752V392.746C123.702 392.676 123.394 392.648 123.114 392.648C122.288 392.648 121.938 393.012 121.938 393.866V394.916H124.01V395.924H121.938V402H120.762ZM124.685 398.458C124.657 396.456 126.183 394.678 128.325 394.72C130.467 394.678 131.993 396.456 131.965 398.458C131.993 400.46 130.467 402.238 128.325 402.196C126.183 402.238 124.657 400.46 124.685 398.458ZM130.733 398.458C130.733 397.688 130.509 397.044 130.061 396.554C129.627 396.064 129.039 395.812 128.325 395.812C127.611 395.812 127.023 396.064 126.575 396.554C126.141 397.044 125.917 397.688 125.917 398.458C125.917 399.228 126.141 399.872 126.575 400.362C127.023 400.852 127.611 401.104 128.325 401.104C129.039 401.104 129.627 400.852 130.061 400.362C130.509 399.872 130.733 399.228 130.733 398.458ZM137.816 394.902V395.938C137.606 395.91 137.41 395.896 137.2 395.896C135.814 395.896 135.016 396.708 135.016 398.374V402H133.84V394.916H135.016V396.246C135.338 395.336 136.122 394.804 137.172 394.804C137.41 394.804 137.634 394.832 137.816 394.902ZM147.277 394.916H148.453V401.314C148.453 403.708 147.179 404.996 144.995 404.996C143.805 404.996 142.713 404.604 142.055 403.932L142.741 403.092C143.315 403.61 144.127 403.904 144.967 403.904C146.437 403.904 147.277 403.036 147.277 401.314V400.6C146.871 401.496 145.947 402 144.785 402C143.203 402 142.265 401.034 142.265 399.256V394.916H143.441V398.976C143.441 400.32 143.959 400.908 145.065 400.908C146.353 400.908 147.277 400.11 147.277 398.934V394.916ZM150.334 398.458C150.306 396.456 151.832 394.678 153.974 394.72C156.116 394.678 157.642 396.456 157.614 398.458C157.642 400.46 156.116 402.238 153.974 402.196C151.832 402.238 150.306 400.46 150.334 398.458ZM156.382 398.458C156.382 397.688 156.158 397.044 155.71 396.554C155.276 396.064 154.688 395.812 153.974 395.812C153.26 395.812 152.672 396.064 152.224 396.554C151.79 397.044 151.566 397.688 151.566 398.458C151.566 399.228 151.79 399.872 152.224 400.362C152.672 400.852 153.26 401.104 153.974 401.104C154.688 401.104 155.276 400.852 155.71 400.362C156.158 399.872 156.382 399.228 156.382 398.458ZM159.349 399.354V394.916H160.525V399.284C160.525 400.46 161.211 401.104 162.401 401.104C163.591 401.104 164.277 400.46 164.277 399.284V394.916H165.453V399.354C165.453 401.034 164.235 402.196 162.401 402.196C160.567 402.196 159.349 401.034 159.349 399.354ZM171.665 394.902V395.938C171.455 395.91 171.259 395.896 171.049 395.896C169.663 395.896 168.865 396.708 168.865 398.374V402H167.689V394.916H168.865V396.246C169.187 395.336 169.971 394.804 171.021 394.804C171.259 394.804 171.483 394.832 171.665 394.902ZM183.464 398.458C183.464 400.642 182.036 402.196 180.104 402.196C178.914 402.196 177.906 401.608 177.472 400.698V402H176.296V391.752H177.472V396.218C177.906 395.308 178.914 394.72 180.104 394.72C182.036 394.72 183.464 396.274 183.464 398.458ZM182.232 398.458C182.232 397.688 182.008 397.044 181.56 396.554C181.126 396.064 180.538 395.812 179.824 395.812C179.11 395.812 178.522 396.064 178.074 396.554C177.64 397.044 177.416 397.688 177.416 398.458C177.416 399.228 177.64 399.872 178.074 400.362C178.522 400.852 179.11 401.104 179.824 401.104C180.538 401.104 181.126 400.852 181.56 400.362C182.008 399.872 182.232 399.228 182.232 398.458ZM185.203 399.354V394.916H186.379V399.284C186.379 400.46 187.065 401.104 188.255 401.104C189.445 401.104 190.131 400.46 190.131 399.284V394.916H191.307V399.354C191.307 401.034 190.089 402.196 188.255 402.196C186.421 402.196 185.203 401.034 185.203 399.354ZM192.871 400.656L193.725 400.026C194.229 400.754 195.055 401.132 196.021 401.132C197.029 401.132 197.645 400.712 197.645 400.054C197.645 399.55 197.295 399.256 196.399 399.046L195.279 398.794C193.823 398.458 193.123 397.814 193.123 396.82C193.123 395.574 194.187 394.72 195.909 394.72C197.141 394.72 198.135 395.154 198.709 395.924L197.897 396.624C197.435 396.078 196.721 395.784 195.839 395.784C194.831 395.784 194.299 396.162 194.299 396.792C194.299 397.254 194.621 397.52 195.573 397.744L196.819 398.024C198.219 398.346 198.821 398.976 198.821 399.97C198.821 401.314 197.771 402.196 196.035 402.196C194.593 402.196 193.431 401.608 192.871 400.656ZM200.371 392.62C200.371 392.158 200.721 391.808 201.183 391.808C201.645 391.808 201.995 392.158 201.995 392.62C201.995 393.082 201.645 393.432 201.183 393.432C200.721 393.432 200.371 393.082 200.371 392.62ZM200.595 402V394.916H201.771V402H200.595ZM210.32 397.464V402H209.144V397.744C209.144 396.4 208.64 395.812 207.52 395.812C206.246 395.812 205.336 396.596 205.336 397.786V402H204.16V394.916H205.336V396.12C205.728 395.224 206.638 394.72 207.8 394.72C209.41 394.72 210.32 395.714 210.32 397.464ZM219.017 398.822H213.347C213.473 400.236 214.425 401.104 215.811 401.104C216.721 401.104 217.477 400.74 218.065 399.998L218.863 400.67C218.177 401.636 217.085 402.196 215.783 402.196C213.641 402.196 212.143 400.67 212.143 398.472C212.143 396.302 213.599 394.72 215.685 394.72C217.659 394.72 219.059 396.134 219.059 398.192C219.059 398.402 219.045 398.612 219.017 398.822ZM213.375 397.87H217.855C217.743 396.568 216.917 395.812 215.685 395.812C214.439 395.812 213.585 396.596 213.375 397.87ZM220.229 400.656L221.083 400.026C221.587 400.754 222.413 401.132 223.379 401.132C224.387 401.132 225.003 400.712 225.003 400.054C225.003 399.55 224.653 399.256 223.757 399.046L222.637 398.794C221.181 398.458 220.481 397.814 220.481 396.82C220.481 395.574 221.545 394.72 223.267 394.72C224.499 394.72 225.493 395.154 226.067 395.924L225.255 396.624C224.793 396.078 224.079 395.784 223.197 395.784C222.189 395.784 221.657 396.162 221.657 396.792C221.657 397.254 221.979 397.52 222.931 397.744L224.177 398.024C225.577 398.346 226.179 398.976 226.179 399.97C226.179 401.314 225.129 402.196 223.393 402.196C221.951 402.196 220.789 401.608 220.229 400.656ZM227.253 400.656L228.107 400.026C228.611 400.754 229.437 401.132 230.403 401.132C231.411 401.132 232.027 400.712 232.027 400.054C232.027 399.55 231.677 399.256 230.781 399.046L229.661 398.794C228.205 398.458 227.505 397.814 227.505 396.82C227.505 395.574 228.569 394.72 230.291 394.72C231.523 394.72 232.517 395.154 233.091 395.924L232.279 396.624C231.817 396.078 231.103 395.784 230.221 395.784C229.213 395.784 228.681 396.162 228.681 396.792C228.681 397.254 229.003 397.52 229.955 397.744L231.201 398.024C232.601 398.346 233.203 398.976 233.203 399.97C233.203 401.314 232.153 402.196 230.417 402.196C228.975 402.196 227.813 401.608 227.253 400.656ZM246.803 394.916H247.993L245.669 402H244.381L242.477 396.26L240.573 402H239.285L236.961 394.916H238.151L239.957 400.558L241.833 394.916H243.121L244.997 400.558L246.803 394.916ZM249.211 392.62C249.211 392.158 249.561 391.808 250.023 391.808C250.485 391.808 250.835 392.158 250.835 392.62C250.835 393.082 250.485 393.432 250.023 393.432C249.561 393.432 249.211 393.082 249.211 392.62ZM249.435 402V394.916H250.611V402H249.435ZM253.518 400.18V395.924H252.104V394.916H253.518V392.816H254.694V394.916H256.92V395.924H254.694V400.096C254.694 400.782 255.044 401.076 255.842 401.076C256.164 401.076 256.542 401.034 256.948 400.95V401.93C256.542 402.056 256.122 402.112 255.674 402.112C254.274 402.112 253.518 401.454 253.518 400.18ZM264.762 397.464V402H263.586V397.744C263.586 396.4 263.082 395.812 261.962 395.812C260.688 395.812 259.778 396.596 259.778 397.786V402H258.602V391.752H259.778V396.12C260.17 395.224 261.08 394.72 262.242 394.72C263.852 394.72 264.762 395.714 264.762 397.464ZM270.489 400.18V395.924H269.075V394.916H270.489V392.816H271.665V394.916H273.891V395.924H271.665V400.096C271.665 400.782 272.015 401.076 272.813 401.076C273.135 401.076 273.513 401.034 273.919 400.95V401.93C273.513 402.056 273.093 402.112 272.645 402.112C271.245 402.112 270.489 401.454 270.489 400.18ZM280.924 394.916H282.1V402H280.924V400.698C280.518 401.608 279.496 402.196 278.306 402.196C276.36 402.196 274.932 400.642 274.932 398.458C274.932 396.274 276.36 394.72 278.306 394.72C279.496 394.72 280.518 395.308 280.924 396.218V394.916ZM280.98 398.458C280.98 397.688 280.756 397.044 280.308 396.554C279.874 396.064 279.286 395.812 278.572 395.812C277.858 395.812 277.27 396.064 276.822 396.554C276.388 397.044 276.164 397.688 276.164 398.458C276.164 399.228 276.388 399.872 276.822 400.362C277.27 400.852 277.858 401.104 278.572 401.104C279.286 401.104 279.874 400.852 280.308 400.362C280.756 399.872 280.98 399.228 280.98 398.458ZM284.274 392.62C284.274 392.158 284.624 391.808 285.086 391.808C285.548 391.808 285.898 392.158 285.898 392.62C285.898 393.082 285.548 393.432 285.086 393.432C284.624 393.432 284.274 393.082 284.274 392.62ZM284.498 402V394.916H285.674V402H284.498ZM288.062 402V391.752H289.238V402H288.062ZM291.11 398.458C291.082 396.456 292.608 394.678 294.75 394.72C296.892 394.678 298.418 396.456 298.39 398.458C298.418 400.46 296.892 402.238 294.75 402.196C292.608 402.238 291.082 400.46 291.11 398.458ZM297.158 398.458C297.158 397.688 296.934 397.044 296.486 396.554C296.052 396.064 295.464 395.812 294.75 395.812C294.036 395.812 293.448 396.064 293 396.554C292.566 397.044 292.342 397.688 292.342 398.458C292.342 399.228 292.566 399.872 293 400.362C293.448 400.852 294.036 401.104 294.75 401.104C295.464 401.104 296.052 400.852 296.486 400.362C296.934 399.872 297.158 399.228 297.158 398.458ZM304.241 394.902V395.938C304.031 395.91 303.835 395.896 303.625 395.896C302.239 395.896 301.441 396.708 301.441 398.374V402H300.265V394.916H301.441V396.246C301.763 395.336 302.547 394.804 303.597 394.804C303.835 394.804 304.059 394.832 304.241 394.902ZM311.8 398.822H306.13C306.256 400.236 307.208 401.104 308.594 401.104C309.504 401.104 310.26 400.74 310.848 399.998L311.646 400.67C310.96 401.636 309.868 402.196 308.566 402.196C306.424 402.196 304.926 400.67 304.926 398.472C304.926 396.302 306.382 394.72 308.468 394.72C310.442 394.72 311.842 396.134 311.842 398.192C311.842 398.402 311.828 398.612 311.8 398.822ZM306.158 397.87H310.638C310.526 396.568 309.7 395.812 308.468 395.812C307.222 395.812 306.368 396.596 306.158 397.87ZM319.172 391.752H320.348V402H319.172V400.698C318.738 401.608 317.73 402.196 316.54 402.196C314.608 402.196 313.18 400.642 313.18 398.458C313.18 396.274 314.608 394.72 316.54 394.72C317.73 394.72 318.738 395.308 319.172 396.218V391.752ZM319.228 398.458C319.228 397.688 319.004 397.044 318.556 396.554C318.122 396.064 317.534 395.812 316.82 395.812C316.106 395.812 315.518 396.064 315.07 396.554C314.636 397.044 314.412 397.688 314.412 398.458C314.412 399.228 314.636 399.872 315.07 400.362C315.518 400.852 316.106 401.104 316.82 401.104C317.534 401.104 318.122 400.852 318.556 400.362C319.004 399.872 319.228 399.228 319.228 398.458ZM24.588 420.656L25.442 420.026C25.946 420.754 26.772 421.132 27.738 421.132C28.746 421.132 29.362 420.712 29.362 420.054C29.362 419.55 29.012 419.256 28.116 419.046L26.996 418.794C25.54 418.458 24.84 417.814 24.84 416.82C24.84 415.574 25.904 414.72 27.626 414.72C28.858 414.72 29.852 415.154 30.426 415.924L29.614 416.624C29.152 416.078 28.438 415.784 27.556 415.784C26.548 415.784 26.016 416.162 26.016 416.792C26.016 417.254 26.338 417.52 27.29 417.744L28.536 418.024C29.936 418.346 30.538 418.976 30.538 419.97C30.538 421.314 29.488 422.196 27.752 422.196C26.31 422.196 25.148 421.608 24.588 420.656ZM31.7937 418.458C31.7657 416.456 33.2917 414.678 35.4337 414.72C37.5757 414.678 39.1017 416.456 39.0737 418.458C39.1017 420.46 37.5757 422.238 35.4337 422.196C33.2917 422.238 31.7657 420.46 31.7937 418.458ZM37.8417 418.458C37.8417 417.688 37.6177 417.044 37.1697 416.554C36.7357 416.064 36.1477 415.812 35.4337 415.812C34.7197 415.812 34.1317 416.064 33.6837 416.554C33.2497 417.044 33.0257 417.688 33.0257 418.458C33.0257 419.228 33.2497 419.872 33.6837 420.362C34.1317 420.852 34.7197 421.104 35.4337 421.104C36.1477 421.104 36.7357 420.852 37.1697 420.362C37.6177 419.872 37.8417 419.228 37.8417 418.458ZM40.9488 422V411.752H42.1248V422H40.9488ZM44.3602 419.354V414.916H45.5362V419.284C45.5362 420.46 46.2222 421.104 47.4122 421.104C48.6022 421.104 49.2882 420.46 49.2882 419.284V414.916H50.4642V419.354C50.4642 421.034 49.2462 422.196 47.4122 422.196C45.5782 422.196 44.3602 421.034 44.3602 419.354ZM53.218 420.18V415.924H51.804V414.916H53.218V412.816H54.394V414.916H56.62V415.924H54.394V420.096C54.394 420.782 54.744 421.076 55.542 421.076C55.864 421.076 56.242 421.034 56.648 420.95V421.93C56.242 422.056 55.822 422.112 55.374 422.112C53.974 422.112 53.218 421.454 53.218 420.18ZM58.0922 412.62C58.0922 412.158 58.4422 411.808 58.9042 411.808C59.3662 411.808 59.7162 412.158 59.7162 412.62C59.7162 413.082 59.3662 413.432 58.9042 413.432C58.4422 413.432 58.0922 413.082 58.0922 412.62ZM58.3162 422V414.916H59.4922V422H58.3162ZM61.3769 418.458C61.3489 416.456 62.8749 414.678 65.0169 414.72C67.1589 414.678 68.6849 416.456 68.6569 418.458C68.6849 420.46 67.1589 422.238 65.0169 422.196C62.8749 422.238 61.3489 420.46 61.3769 418.458ZM67.4249 418.458C67.4249 417.688 67.2009 417.044 66.7529 416.554C66.3189 416.064 65.7309 415.812 65.0169 415.812C64.3029 415.812 63.7149 416.064 63.2669 416.554C62.8329 417.044 62.6089 417.688 62.6089 418.458C62.6089 419.228 62.8329 419.872 63.2669 420.362C63.7149 420.852 64.3029 421.104 65.0169 421.104C65.7309 421.104 66.3189 420.852 66.7529 420.362C67.2009 419.872 67.4249 419.228 67.4249 418.458ZM76.692 417.464V422H75.516V417.744C75.516 416.4 75.012 415.812 73.892 415.812C72.618 415.812 71.708 416.596 71.708 417.786V422H70.532V414.916H71.708V416.12C72.1 415.224 73.01 414.72 74.172 414.72C75.782 414.72 76.692 415.714 76.692 417.464ZM78.3469 420.656L79.2009 420.026C79.7049 420.754 80.5309 421.132 81.4969 421.132C82.5049 421.132 83.1209 420.712 83.1209 420.054C83.1209 419.55 82.7709 419.256 81.8749 419.046L80.7549 418.794C79.2989 418.458 78.5989 417.814 78.5989 416.82C78.5989 415.574 79.6629 414.72 81.3849 414.72C82.6169 414.72 83.6109 415.154 84.1849 415.924L83.3729 416.624C82.9109 416.078 82.1969 415.784 81.3149 415.784C80.3069 415.784 79.7749 416.162 79.7749 416.792C79.7749 417.254 80.0969 417.52 81.0489 417.744L82.2949 418.024C83.6949 418.346 84.2969 418.976 84.2969 419.97C84.2969 421.314 83.2469 422.196 81.5109 422.196C80.0689 422.196 78.9069 421.608 78.3469 420.656ZM85.6383 421.258C85.6383 420.768 85.9743 420.432 86.4783 420.432C86.9823 420.432 87.3183 420.768 87.3183 421.258C87.3183 421.762 86.9823 422.112 86.4783 422.112C85.9743 422.112 85.6383 421.762 85.6383 421.258Z" fill="#2F2B43" fill-opacity="0.6"/>
<path d="M192.75 111C192.75 110.586 192.414 110.25 192 110.25C191.586 110.25 191.25 110.586 191.25 111H192.75ZM191.47 130.03C191.763 130.323 192.237 130.323 192.53 130.03L197.303 125.257C197.596 124.964 197.596 124.49 197.303 124.197C197.01 123.904 196.536 123.904 196.243 124.197L192 128.439L187.757 124.197C187.464 123.904 186.99 123.904 186.697 124.197C186.404 124.49 186.404 124.964 186.697 125.257L191.47 130.03ZM191.25 111V129.5H192.75V111H191.25Z" fill="#DFE1E7"/>
<path d="M156.108 45.6H157.836L154.692 50.628V54H153.156V50.628L150.012 45.6H151.74L153.924 49.26L156.108 45.6ZM157.099 50.952C157.099 49.164 158.407 47.724 160.315 47.724C162.259 47.724 163.531 49.164 163.531 50.952C163.531 52.728 162.259 54.168 160.315 54.168C158.407 54.168 157.099 52.728 157.099 50.952ZM162.031 50.952C162.031 49.812 161.359 49.056 160.315 49.056C159.271 49.056 158.599 49.812 158.599 50.952C158.599 52.068 159.271 52.836 160.315 52.836C161.359 52.836 162.031 52.068 162.031 50.952ZM164.732 51.672V47.892H166.196V51.516C166.196 52.392 166.652 52.836 167.48 52.836C168.308 52.836 168.764 52.392 168.764 51.516V47.892H170.228V51.672C170.228 53.208 169.172 54.168 167.48 54.168C165.788 54.168 164.732 53.208 164.732 51.672ZM173.454 45.432L172.566 48.576H171.342L171.966 45.432H173.454ZM178.458 47.868V49.236C178.206 49.2 177.978 49.176 177.786 49.176C176.694 49.176 176.154 49.74 176.154 50.988V54H174.69V47.892H176.13V48.912C176.43 48.204 177.102 47.784 177.93 47.784C178.122 47.784 178.302 47.808 178.458 47.868ZM184.944 51.384H180.396C180.552 52.356 181.188 52.896 182.196 52.896C182.892 52.896 183.456 52.644 183.9 52.128L184.776 52.992C184.2 53.748 183.264 54.168 182.148 54.168C180.204 54.168 178.908 52.884 178.908 50.976C178.908 49.08 180.168 47.724 182.004 47.724C183.768 47.724 184.98 48.96 184.98 50.82C184.98 51 184.968 51.192 184.944 51.384ZM180.396 50.388H183.516C183.456 49.488 182.892 48.996 182.016 48.996C181.116 48.996 180.552 49.512 180.396 50.388ZM188.333 53.004L189.125 52.08C189.605 52.608 190.349 52.92 191.129 52.92C191.813 52.92 192.209 52.668 192.209 52.272C192.209 51.948 191.969 51.744 191.357 51.6L190.361 51.372C189.113 51.084 188.549 50.508 188.549 49.644C188.549 48.492 189.521 47.724 191.069 47.724C192.137 47.724 193.049 48.084 193.577 48.696L192.797 49.644C192.281 49.2 191.693 48.972 191.033 48.972C190.361 48.972 190.013 49.212 190.013 49.596C190.013 49.896 190.241 50.064 190.865 50.208L191.921 50.46C193.169 50.736 193.673 51.3 193.673 52.176C193.673 53.412 192.713 54.168 191.117 54.168C189.917 54.168 188.897 53.724 188.333 53.004ZM200.569 51.384H196.021C196.177 52.356 196.813 52.896 197.821 52.896C198.517 52.896 199.081 52.644 199.525 52.128L200.401 52.992C199.825 53.748 198.889 54.168 197.773 54.168C195.829 54.168 194.533 52.884 194.533 50.976C194.533 49.08 195.793 47.724 197.629 47.724C199.393 47.724 200.605 48.96 200.605 50.82C200.605 51 200.593 51.192 200.569 51.384ZM196.021 50.388H199.141C199.081 49.488 198.517 48.996 197.641 48.996C196.741 48.996 196.177 49.512 196.021 50.388ZM207.466 50.04V54H206.002V50.412C206.002 49.488 205.642 49.068 204.838 49.068C203.938 49.068 203.362 49.596 203.362 50.496V54H201.898V47.892H203.338V48.828C203.674 48.144 204.418 47.724 205.342 47.724C206.674 47.724 207.466 48.564 207.466 50.04ZM213.602 45.216H215.066V54H213.626V53.028C213.278 53.748 212.462 54.168 211.538 54.168C209.918 54.168 208.73 52.836 208.73 50.952C208.73 49.056 209.918 47.724 211.538 47.724C212.45 47.724 213.23 48.144 213.602 48.828V45.216ZM213.662 50.952C213.662 49.812 212.99 49.056 211.946 49.056C210.902 49.056 210.23 49.812 210.23 50.952C210.23 52.068 210.902 52.836 211.946 52.836C212.99 52.836 213.662 52.068 213.662 50.952ZM216.584 45.96C216.584 45.432 216.956 45.048 217.52 45.048C218.06 45.048 218.444 45.432 218.444 45.96C218.444 46.488 218.06 46.872 217.52 46.872C216.956 46.872 216.584 46.488 216.584 45.96ZM216.788 54V47.892H218.252V54H216.788ZM225.528 50.04V54H224.064V50.412C224.064 49.488 223.704 49.068 222.9 49.068C222 49.068 221.424 49.596 221.424 50.496V54H219.96V47.892H221.4V48.828C221.736 48.144 222.48 47.724 223.404 47.724C224.736 47.724 225.528 48.564 225.528 50.04ZM231.7 47.892H233.14V53.292C233.14 55.368 231.952 56.568 229.84 56.568C228.676 56.568 227.644 56.208 226.984 55.596L227.692 54.528C228.28 54.996 229.012 55.26 229.768 55.26C231.004 55.26 231.7 54.576 231.7 53.292V52.788C231.352 53.508 230.56 53.94 229.6 53.94C227.98 53.94 226.792 52.668 226.792 50.856C226.792 49.044 227.992 47.724 229.612 47.724C230.56 47.724 231.352 48.156 231.7 48.888V47.892ZM231.736 50.844C231.736 49.788 231.064 49.044 230.02 49.044C228.976 49.044 228.304 49.788 228.304 50.844C228.304 51.9 228.976 52.644 230.02 52.644C231.064 52.644 231.736 51.9 231.736 50.844Z" fill="#2F2B43" fill-opacity="0.6"/>
<g filter="url(#filter0_d_3028_3210)">
<rect x="122" y="67" width="141" height="50" rx="8" fill="white" shape-rendering="crispEdges"/>
<rect x="122.5" y="67.5" width="140" height="49" rx="7.5" stroke="#DFE1E7" shape-rendering="crispEdges"/>
<path d="M139.224 97V92.554H138.18V91.222H139.224V89.926H138.18V88.594H139.224V84.148H142.05L143.454 88.594H145.092V84.148H147.09V88.594H148.116V89.926H147.09V91.222H148.116V92.554H147.09V97H144.246L142.806 92.554H141.222V97H139.224ZM141.222 91.222H142.41L142.014 89.926H141.186L141.222 91.222ZM145.146 94.192H145.236L145.164 92.554H144.678L145.146 94.192ZM141.15 88.594H141.654L141.132 86.866H141.06L141.15 88.594ZM144.3 91.222H145.128L145.092 89.926H143.886L144.3 91.222ZM152.333 84.4H154.205V97H151.973V86.758L148.859 88.306V86.164L152.333 84.4ZM165.594 93.004C165.594 95.614 163.722 97.252 160.77 97.252C158.988 97.252 157.512 96.64 156.324 95.398L157.62 93.886C158.574 94.822 159.582 95.218 160.734 95.218C162.372 95.218 163.344 94.39 163.344 93.04C163.344 91.744 162.462 90.934 161.004 90.934C160.176 90.934 159.42 91.186 158.718 91.708L157.008 90.808V84.4H164.838V86.416H159.114V89.602C159.78 89.224 160.554 89.026 161.418 89.026C163.938 89.026 165.594 90.538 165.594 93.004ZM167.176 90.7C167.176 86.542 169.156 84.148 172.36 84.148C175.564 84.148 177.544 86.542 177.544 90.7C177.544 94.858 175.564 97.252 172.36 97.252C169.156 97.252 167.176 94.858 167.176 90.7ZM175.222 90.7C175.222 87.694 174.268 86.2 172.36 86.2C170.452 86.2 169.498 87.694 169.498 90.7C169.498 93.706 170.452 95.2 172.36 95.2C174.268 95.2 175.222 93.706 175.222 90.7ZM178.515 99.772L179.433 94.588H181.665L180.261 99.772H178.515ZM182.407 90.7C182.407 86.542 184.387 84.148 187.591 84.148C190.795 84.148 192.775 86.542 192.775 90.7C192.775 94.858 190.795 97.252 187.591 97.252C184.387 97.252 182.407 94.858 182.407 90.7ZM190.453 90.7C190.453 87.694 189.499 86.2 187.591 86.2C185.683 86.2 184.729 87.694 184.729 90.7C184.729 93.706 185.683 95.2 187.591 95.2C189.499 95.2 190.453 93.706 190.453 90.7ZM194.831 90.7C194.831 86.542 196.811 84.148 200.015 84.148C203.219 84.148 205.199 86.542 205.199 90.7C205.199 94.858 203.219 97.252 200.015 97.252C196.811 97.252 194.831 94.858 194.831 90.7ZM202.877 90.7C202.877 87.694 201.923 86.2 200.015 86.2C198.107 86.2 197.153 87.694 197.153 90.7C197.153 93.706 198.107 95.2 200.015 95.2C201.923 95.2 202.877 93.706 202.877 90.7ZM207.254 90.7C207.254 86.542 209.234 84.148 212.438 84.148C215.642 84.148 217.622 86.542 217.622 90.7C217.622 94.858 215.642 97.252 212.438 97.252C209.234 97.252 207.254 94.858 207.254 90.7ZM215.3 90.7C215.3 87.694 214.346 86.2 212.438 86.2C210.53 86.2 209.576 87.694 209.576 90.7C209.576 93.706 210.53 95.2 212.438 95.2C214.346 95.2 215.3 93.706 215.3 90.7ZM218.55 95.722C218.55 94.84 219.126 94.264 220.008 94.264C220.89 94.264 221.466 94.84 221.466 95.722C221.466 96.604 220.89 97.198 220.008 97.198C219.126 97.198 218.55 96.604 218.55 95.722ZM222.381 90.7C222.381 86.542 224.361 84.148 227.565 84.148C230.769 84.148 232.749 86.542 232.749 90.7C232.749 94.858 230.769 97.252 227.565 97.252C224.361 97.252 222.381 94.858 222.381 90.7ZM230.427 90.7C230.427 87.694 229.473 86.2 227.565 86.2C225.657 86.2 224.703 87.694 224.703 90.7C224.703 93.706 225.657 95.2 227.565 95.2C229.473 95.2 230.427 93.706 230.427 90.7ZM234.804 90.7C234.804 86.542 236.784 84.148 239.988 84.148C243.192 84.148 245.172 86.542 245.172 90.7C245.172 94.858 243.192 97.252 239.988 97.252C236.784 97.252 234.804 94.858 234.804 90.7ZM242.85 90.7C242.85 87.694 241.896 86.2 239.988 86.2C238.08 86.2 237.126 87.694 237.126 90.7C237.126 93.706 238.08 95.2 239.988 95.2C241.896 95.2 242.85 93.706 242.85 90.7Z" fill="#697582"/>
</g>
<rect x="50.5" y="152.5" width="283" height="158" rx="9.5" fill="url(#paint0_linear_3028_3210)"/>
<rect x="50.5" y="152.5" width="283" height="158" rx="9.5" stroke="url(#paint1_linear_3028_3210)"/>
<path d="M74.062 190.921C74.062 192.186 73.127 193 71.62 193H68.144V185.3H71.356C72.841 185.3 73.776 186.092 73.776 187.291C73.776 188.127 73.314 188.732 72.489 189.029C73.49 189.26 74.062 189.942 74.062 190.921ZM71.356 186.18H69.112V188.622H71.356C72.291 188.622 72.786 188.182 72.786 187.401C72.786 186.62 72.291 186.18 71.356 186.18ZM73.05 190.811C73.05 189.986 72.555 189.502 71.62 189.502H69.112V192.12H71.62C72.555 192.12 73.05 191.636 73.05 190.811ZM79.9371 187.434H80.8611V193H79.9371V191.977C79.6181 192.692 78.8151 193.154 77.8801 193.154C76.3511 193.154 75.2291 191.933 75.2291 190.217C75.2291 188.501 76.3511 187.28 77.8801 187.28C78.8151 187.28 79.6181 187.742 79.9371 188.457V187.434ZM79.9811 190.217C79.9811 189.612 79.8051 189.106 79.4531 188.721C79.1121 188.336 78.6501 188.138 78.0891 188.138C77.5281 188.138 77.0661 188.336 76.7141 188.721C76.3731 189.106 76.1971 189.612 76.1971 190.217C76.1971 190.822 76.3731 191.328 76.7141 191.713C77.0661 192.098 77.5281 192.296 78.0891 192.296C78.6501 192.296 79.1121 192.098 79.4531 191.713C79.8051 191.328 79.9811 190.822 79.9811 190.217ZM87.5739 189.436V193H86.6499V189.656C86.6499 188.6 86.2539 188.138 85.3739 188.138C84.3729 188.138 83.6579 188.754 83.6579 189.689V193H82.7339V187.434H83.6579V188.38C83.9659 187.676 84.6809 187.28 85.5939 187.28C86.8589 187.28 87.5739 188.061 87.5739 189.436ZM93.2302 193L91.2172 190.481H90.3262V193H89.4022V184.948H90.3262V189.667H91.2502L93.1862 187.434H94.2642L91.9762 190.074L94.3082 193H93.2302Z" fill="#2F2B43" fill-opacity="0.6"/>
<path d="M254.837 192.021H259.193V193H253.495V192.175L257.785 186.279H253.638V185.3H259.127V186.125L254.837 192.021ZM265.384 190.525H261.006C261.127 191.592 261.82 192.219 262.865 192.219C263.558 192.219 264.141 191.944 264.592 191.394L265.263 191.988C264.724 192.736 263.866 193.154 262.843 193.154C261.127 193.154 259.95 191.955 259.95 190.228C259.95 188.523 261.116 187.269 262.755 187.269C264.306 187.269 265.417 188.391 265.417 190.03C265.417 190.195 265.406 190.36 265.384 190.525ZM261.028 189.733H264.372C264.284 188.765 263.668 188.215 262.755 188.215C261.82 188.215 261.193 188.776 261.028 189.733ZM271.716 189.414V193H270.682V189.667C270.682 188.666 270.297 188.226 269.461 188.226C268.504 188.226 267.833 188.798 267.833 189.711V193H266.799V187.423H267.833V188.336C268.152 187.665 268.856 187.269 269.736 187.269C270.979 187.269 271.716 188.05 271.716 189.414ZM273.292 185.63C273.292 185.234 273.578 184.937 273.985 184.937C274.392 184.937 274.678 185.234 274.678 185.63C274.678 186.026 274.392 186.323 273.985 186.323C273.578 186.323 273.292 186.026 273.292 185.63ZM273.468 193V187.423H274.502V193H273.468ZM276.719 191.515V188.314H275.619V187.423H276.719V185.773H277.753V187.423H279.458V188.314H277.753V191.416C277.753 191.955 278.006 192.175 278.622 192.175C278.875 192.175 279.161 192.142 279.48 192.076V192.945C279.161 193.044 278.82 193.088 278.457 193.088C277.302 193.088 276.719 192.56 276.719 191.515ZM285.641 189.414V193H284.607V189.667C284.607 188.666 284.222 188.226 283.386 188.226C282.429 188.226 281.758 188.798 281.758 189.711V193H280.724V184.948H281.758V188.336C282.077 187.665 282.781 187.269 283.661 187.269C284.904 187.269 285.641 188.05 285.641 189.414ZM295.912 190.921C295.912 192.186 294.977 193 293.47 193H289.939V185.3H293.206C294.691 185.3 295.626 186.092 295.626 187.291C295.626 188.138 295.164 188.754 294.328 189.029C295.34 189.26 295.912 189.92 295.912 190.921ZM293.129 186.268H291.017V188.589H293.129C294.053 188.589 294.526 188.171 294.526 187.423C294.526 186.675 294.053 186.268 293.129 186.268ZM294.79 190.789C294.79 189.997 294.317 189.546 293.393 189.546H291.017V192.032H293.393C294.317 192.032 294.79 191.581 294.79 190.789ZM301.678 187.423H302.712V193H301.678V192.01C301.359 192.714 300.578 193.154 299.665 193.154C298.147 193.154 297.025 191.933 297.025 190.217C297.025 188.49 298.147 187.269 299.665 187.269C300.578 187.269 301.359 187.709 301.678 188.413V187.423ZM301.722 190.217C301.722 189.04 301.007 188.226 299.918 188.226C299.379 188.226 298.939 188.413 298.598 188.787C298.268 189.15 298.103 189.634 298.103 190.217C298.103 190.8 298.268 191.273 298.598 191.647C298.939 192.01 299.379 192.197 299.918 192.197C300.457 192.197 300.897 192.01 301.227 191.647C301.557 191.273 301.722 190.8 301.722 190.217ZM309.414 189.414V193H308.38V189.667C308.38 188.666 307.995 188.226 307.159 188.226C306.202 188.226 305.531 188.798 305.531 189.711V193H304.497V187.423H305.531V188.336C305.85 187.665 306.554 187.269 307.434 187.269C308.677 187.269 309.414 188.05 309.414 189.414ZM314.972 193L313.036 190.525H312.189V193H311.155V184.948H312.189V189.612H313.069L314.928 187.423H316.138L313.883 190.074L316.182 193H314.972Z" fill="#272835"/>
<path d="M73.589 221L72.764 218.91H69.068L68.243 221H67.242L70.377 213.3H71.455L74.59 221H73.589ZM69.42 218.03H72.412L70.916 214.257L69.42 218.03ZM75.1861 218.217C75.1861 216.523 76.3521 215.28 78.0461 215.28C79.0691 215.28 79.9051 215.709 80.3781 216.49L79.6521 216.996C79.3111 216.435 78.7501 216.138 78.0571 216.138C77.4961 216.138 77.0341 216.325 76.6821 216.71C76.3301 217.095 76.1541 217.59 76.1541 218.217C76.1541 218.844 76.3301 219.339 76.6821 219.724C77.0341 220.109 77.4961 220.296 78.0571 220.296C78.7501 220.296 79.3111 219.999 79.6521 219.438L80.3781 219.944C79.9051 220.725 79.0691 221.154 78.0461 221.154C76.3521 221.154 75.1861 219.911 75.1861 218.217ZM81.2314 218.217C81.2314 216.523 82.3974 215.28 84.0914 215.28C85.1144 215.28 85.9504 215.709 86.4234 216.49L85.6974 216.996C85.3564 216.435 84.7954 216.138 84.1024 216.138C83.5414 216.138 83.0794 216.325 82.7274 216.71C82.3754 217.095 82.1994 217.59 82.1994 218.217C82.1994 218.844 82.3754 219.339 82.7274 219.724C83.0794 220.109 83.5414 220.296 84.1024 220.296C84.7954 220.296 85.3564 219.999 85.6974 219.438L86.4234 219.944C85.9504 220.725 85.1144 221.154 84.0914 221.154C82.3974 221.154 81.2314 219.911 81.2314 218.217ZM87.2767 218.217C87.2547 216.644 88.4537 215.247 90.1367 215.28C91.8197 215.247 93.0187 216.644 92.9967 218.217C93.0187 219.79 91.8197 221.187 90.1367 221.154C88.4537 221.187 87.2547 219.79 87.2767 218.217ZM92.0287 218.217C92.0287 217.612 91.8527 217.106 91.5007 216.721C91.1597 216.336 90.6977 216.138 90.1367 216.138C89.5757 216.138 89.1137 216.336 88.7617 216.721C88.4207 217.106 88.2447 217.612 88.2447 218.217C88.2447 218.822 88.4207 219.328 88.7617 219.713C89.1137 220.098 89.5757 220.296 90.1367 220.296C90.6977 220.296 91.1597 220.098 91.5007 219.713C91.8527 219.328 92.0287 218.822 92.0287 218.217ZM94.3599 218.921V215.434H95.2839V218.866C95.2839 219.79 95.8229 220.296 96.7579 220.296C97.6929 220.296 98.2319 219.79 98.2319 218.866V215.434H99.1559V218.921C99.1559 220.241 98.1989 221.154 96.7579 221.154C95.3169 221.154 94.3599 220.241 94.3599 218.921ZM105.753 217.436V221H104.829V217.656C104.829 216.6 104.433 216.138 103.553 216.138C102.552 216.138 101.837 216.754 101.837 217.689V221H100.913V215.434H101.837V216.38C102.145 215.676 102.86 215.28 103.773 215.28C105.038 215.28 105.753 216.061 105.753 217.436ZM107.924 219.57V216.226H106.813V215.434H107.924V213.784H108.848V215.434H110.597V216.226H108.848V219.504C108.848 220.043 109.123 220.274 109.75 220.274C110.003 220.274 110.3 220.241 110.619 220.175V220.945C110.3 221.044 109.97 221.088 109.618 221.088C108.518 221.088 107.924 220.571 107.924 219.57ZM119.183 217.436V221H118.259V217.656C118.259 216.6 117.863 216.138 116.983 216.138C115.982 216.138 115.267 216.754 115.267 217.689V221H114.343V215.434H115.267V216.38C115.575 215.676 116.29 215.28 117.203 215.28C118.468 215.28 119.183 216.061 119.183 217.436ZM120.902 218.921V215.434H121.826V218.866C121.826 219.79 122.365 220.296 123.3 220.296C124.235 220.296 124.774 219.79 124.774 218.866V215.434H125.698V218.921C125.698 220.241 124.741 221.154 123.3 221.154C121.859 221.154 120.902 220.241 120.902 218.921ZM135.814 217.414V221H134.89V217.634C134.89 216.589 134.538 216.138 133.713 216.138C132.756 216.138 132.096 216.754 132.096 217.689V221H131.172V217.634C131.172 216.589 130.82 216.138 129.995 216.138C129.038 216.138 128.378 216.754 128.378 217.689V221H127.454V215.434H128.378V216.369C128.686 215.676 129.368 215.28 130.215 215.28C131.062 215.28 131.678 215.687 131.942 216.435C132.239 215.731 132.976 215.28 133.911 215.28C135.143 215.28 135.814 216.05 135.814 217.414ZM143.267 218.217C143.267 219.933 142.145 221.154 140.627 221.154C139.692 221.154 138.9 220.692 138.559 219.977V221H137.635V212.948H138.559V216.457C138.9 215.742 139.692 215.28 140.627 215.28C142.145 215.28 143.267 216.501 143.267 218.217ZM142.299 218.217C142.299 217.612 142.123 217.106 141.771 216.721C141.43 216.336 140.968 216.138 140.407 216.138C139.846 216.138 139.384 216.336 139.032 216.721C138.691 217.106 138.515 217.612 138.515 218.217C138.515 218.822 138.691 219.328 139.032 219.713C139.384 220.098 139.846 220.296 140.407 220.296C140.968 220.296 141.43 220.098 141.771 219.713C142.123 219.328 142.299 218.822 142.299 218.217ZM149.749 218.503H145.294C145.393 219.614 146.141 220.296 147.23 220.296C147.945 220.296 148.539 220.01 149.001 219.427L149.628 219.955C149.089 220.714 148.231 221.154 147.208 221.154C145.525 221.154 144.348 219.955 144.348 218.228C144.348 216.523 145.492 215.28 147.131 215.28C148.682 215.28 149.782 216.391 149.782 218.008C149.782 218.173 149.771 218.338 149.749 218.503ZM145.316 217.755H148.836C148.748 216.732 148.099 216.138 147.131 216.138C146.152 216.138 145.481 216.754 145.316 217.755ZM154.354 215.423V216.237C154.189 216.215 154.035 216.204 153.87 216.204C152.781 216.204 152.154 216.842 152.154 218.151V221H151.23V215.434H152.154V216.479C152.407 215.764 153.023 215.346 153.848 215.346C154.035 215.346 154.211 215.368 154.354 215.423Z" fill="#2F2B43" fill-opacity="0.6"/>
<path d="M253.748 217.15C253.748 214.631 254.947 213.146 256.861 213.146C258.764 213.146 259.974 214.631 259.974 217.15C259.974 219.669 258.764 221.154 256.861 221.154C254.947 221.154 253.748 219.669 253.748 217.15ZM258.863 217.15C258.863 215.126 258.148 214.125 256.861 214.125C255.552 214.125 254.848 215.126 254.848 217.15C254.848 219.174 255.552 220.175 256.861 220.175C258.148 220.175 258.863 219.174 258.863 217.15ZM263.105 213.3H263.985V221H262.929V214.433L260.927 215.456V214.422L263.105 213.3ZM267.028 220.021H270.911V221H265.499V220.12L268.304 217.502C268.832 217.007 269.195 216.611 269.382 216.303C269.58 215.995 269.679 215.687 269.679 215.368C269.679 214.576 269.173 214.114 268.326 214.114C267.457 214.114 266.775 214.576 266.28 215.5L265.466 214.95C266.071 213.773 267.061 213.146 268.304 213.146C269.789 213.146 270.768 214.048 270.768 215.346C270.768 216.171 270.372 216.908 269.327 217.876L267.028 220.021ZM277.137 218.778C277.137 220.208 276.048 221.154 274.332 221.154C273.221 221.154 272.275 220.769 271.582 220.01L272.22 219.306C272.803 219.889 273.496 220.186 274.321 220.186C275.432 220.186 276.059 219.636 276.059 218.745C276.059 217.821 275.388 217.37 273.76 217.37H273.331V216.644L275.586 214.257H271.989V213.3H276.851V214.18L274.585 216.578C276.202 216.655 277.137 217.425 277.137 218.778ZM284.201 218.426V219.328H283.079V221H282.078V219.328H277.997V218.448L281.748 213.3H283.079V218.426H284.201ZM279.13 218.426H282.078V214.389L279.13 218.426ZM290.381 218.602C290.381 220.153 289.259 221.154 287.521 221.154C286.465 221.154 285.585 220.78 284.892 220.032L285.53 219.35C286.135 219.933 286.762 220.186 287.499 220.186C288.643 220.186 289.314 219.581 289.314 218.613C289.314 217.689 288.72 217.139 287.708 217.139C287.147 217.139 286.619 217.315 286.146 217.656L285.299 217.172V213.3H289.941V214.268H286.311V216.611C286.74 216.336 287.246 216.204 287.818 216.204C289.325 216.204 290.381 217.117 290.381 218.602ZM297.046 218.459C297.046 220.043 295.836 221.154 294.153 221.154C292.525 221.154 291.315 220.087 291.315 218.404C291.315 217.436 291.7 216.457 292.459 215.456L294.098 213.3H295.374L293.097 216.171C293.482 215.918 293.911 215.797 294.406 215.797C295.847 215.797 297.046 216.886 297.046 218.459ZM295.968 218.459C295.968 217.392 295.286 216.721 294.175 216.721C293.075 216.721 292.393 217.392 292.393 218.459C292.393 219.526 293.075 220.197 294.175 220.197C295.286 220.197 295.968 219.526 295.968 218.459ZM297.407 213.3H302.643V214.213L299.376 221H298.232L301.51 214.268H297.407V213.3ZM309.094 218.932C309.094 220.186 308.049 221.154 306.234 221.154C304.441 221.154 303.385 220.186 303.385 218.932C303.385 218.041 303.891 217.37 304.848 217.051C304.045 216.732 303.605 216.105 303.605 215.28C303.605 214.059 304.595 213.146 306.234 213.146C307.895 213.146 308.874 214.059 308.874 215.28C308.874 216.105 308.434 216.732 307.631 217.051C308.588 217.37 309.094 218.041 309.094 218.932ZM304.661 215.346C304.661 216.127 305.211 216.611 306.234 216.611C307.257 216.611 307.818 216.127 307.818 215.346C307.818 214.565 307.257 214.081 306.234 214.081C305.211 214.081 304.661 214.565 304.661 215.346ZM308.005 218.866C308.005 218.063 307.378 217.524 306.234 217.524C305.09 217.524 304.474 218.063 304.474 218.866C304.474 219.669 305.09 220.197 306.234 220.197C307.378 220.197 308.005 219.669 308.005 218.866ZM315.726 215.896C315.726 216.864 315.341 217.843 314.582 218.844L312.954 221H311.678L313.944 218.129C313.559 218.382 313.13 218.503 312.646 218.503C311.205 218.503 310.006 217.414 310.006 215.841C310.006 214.257 311.216 213.146 312.888 213.146C314.516 213.146 315.726 214.213 315.726 215.896ZM314.659 215.841C314.659 214.774 313.977 214.103 312.866 214.103C311.755 214.103 311.073 214.774 311.073 215.841C311.073 216.908 311.755 217.579 312.866 217.579C313.977 217.579 314.659 216.908 314.659 215.841Z" fill="#272835"/>
<path d="M74.062 246.921C74.062 248.186 73.127 249 71.62 249H68.144V241.3H71.356C72.841 241.3 73.776 242.092 73.776 243.291C73.776 244.127 73.314 244.732 72.489 245.029C73.49 245.26 74.062 245.942 74.062 246.921ZM71.356 242.18H69.112V244.622H71.356C72.291 244.622 72.786 244.182 72.786 243.401C72.786 242.62 72.291 242.18 71.356 242.18ZM73.05 246.811C73.05 245.986 72.555 245.502 71.62 245.502H69.112V248.12H71.62C72.555 248.12 73.05 247.636 73.05 246.811ZM80.6301 246.503H76.1751C76.2741 247.614 77.0221 248.296 78.1111 248.296C78.8261 248.296 79.4201 248.01 79.8821 247.427L80.5091 247.955C79.9701 248.714 79.1121 249.154 78.0891 249.154C76.4061 249.154 75.2291 247.955 75.2291 246.228C75.2291 244.523 76.3731 243.28 78.0121 243.28C79.5631 243.28 80.6631 244.391 80.6631 246.008C80.6631 246.173 80.6521 246.338 80.6301 246.503ZM76.1971 245.755H79.7171C79.6291 244.732 78.9801 244.138 78.0121 244.138C77.0331 244.138 76.3621 244.754 76.1971 245.755ZM86.9508 245.436V249H86.0268V245.656C86.0268 244.6 85.6308 244.138 84.7508 244.138C83.7498 244.138 83.0348 244.754 83.0348 245.689V249H82.1108V243.434H83.0348V244.38C83.3428 243.676 84.0578 243.28 84.9708 243.28C86.2358 243.28 86.9508 244.061 86.9508 245.436ZM93.7841 246.503H89.3291C89.4281 247.614 90.1761 248.296 91.2651 248.296C91.9801 248.296 92.5741 248.01 93.0361 247.427L93.6631 247.955C93.1241 248.714 92.2661 249.154 91.2431 249.154C89.5601 249.154 88.3831 247.955 88.3831 246.228C88.3831 244.523 89.5271 243.28 91.1661 243.28C92.7171 243.28 93.8171 244.391 93.8171 246.008C93.8171 246.173 93.8061 246.338 93.7841 246.503ZM89.3511 245.755H92.8711C92.7831 244.732 92.1341 244.138 91.1661 244.138C90.1871 244.138 89.5161 244.754 89.3511 245.755ZM95.5974 249V244.226H94.4534V243.434H95.5974V242.587C95.5974 241.388 96.1474 240.849 97.3244 240.849C97.5994 240.849 97.8854 240.882 98.1714 240.948V241.729C97.9074 241.674 97.6654 241.652 97.4454 241.652C96.7964 241.652 96.5214 241.938 96.5214 242.609V243.434H98.1494V244.226H96.5214V249H95.5974ZM99.0826 241.63C99.0826 241.267 99.3576 240.992 99.7206 240.992C100.084 240.992 100.359 241.267 100.359 241.63C100.359 241.993 100.084 242.268 99.7206 242.268C99.3576 242.268 99.0826 241.993 99.0826 241.63ZM99.2586 249V243.434H100.183V249H99.2586ZM101.663 246.217C101.663 244.523 102.829 243.28 104.523 243.28C105.546 243.28 106.382 243.709 106.855 244.49L106.129 244.996C105.788 244.435 105.227 244.138 104.534 244.138C103.973 244.138 103.511 244.325 103.159 244.71C102.807 245.095 102.631 245.59 102.631 246.217C102.631 246.844 102.807 247.339 103.159 247.724C103.511 248.109 103.973 248.296 104.534 248.296C105.227 248.296 105.788 247.999 106.129 247.438L106.855 247.944C106.382 248.725 105.546 249.154 104.523 249.154C102.829 249.154 101.663 247.911 101.663 246.217ZM107.961 241.63C107.961 241.267 108.236 240.992 108.599 240.992C108.962 240.992 109.237 241.267 109.237 241.63C109.237 241.993 108.962 242.268 108.599 242.268C108.236 242.268 107.961 241.993 107.961 241.63ZM108.137 249V243.434H109.061V249H108.137ZM115.25 243.434H116.174V249H115.25V247.977C114.931 248.692 114.128 249.154 113.193 249.154C111.664 249.154 110.542 247.933 110.542 246.217C110.542 244.501 111.664 243.28 113.193 243.28C114.128 243.28 114.931 243.742 115.25 244.457V243.434ZM115.294 246.217C115.294 245.612 115.118 245.106 114.766 244.721C114.425 244.336 113.963 244.138 113.402 244.138C112.841 244.138 112.379 244.336 112.027 244.721C111.686 245.106 111.51 245.612 111.51 246.217C111.51 246.822 111.686 247.328 112.027 247.713C112.379 248.098 112.841 248.296 113.402 248.296C113.963 248.296 114.425 248.098 114.766 247.713C115.118 247.328 115.294 246.822 115.294 246.217ZM121.171 243.423V244.237C121.006 244.215 120.852 244.204 120.687 244.204C119.598 244.204 118.971 244.842 118.971 246.151V249H118.047V243.434H118.971V244.479C119.224 243.764 119.84 243.346 120.665 243.346C120.852 243.346 121.028 243.368 121.171 243.423ZM126.179 243.434H127.103V248.461C127.103 250.342 126.102 251.354 124.386 251.354C123.451 251.354 122.593 251.046 122.076 250.518L122.615 249.858C123.066 250.265 123.704 250.496 124.364 250.496C125.519 250.496 126.179 249.814 126.179 248.461V247.9C125.86 248.604 125.134 249 124.221 249C122.978 249 122.241 248.241 122.241 246.844V243.434H123.165V246.624C123.165 247.68 123.572 248.142 124.441 248.142C125.453 248.142 126.179 247.515 126.179 246.591V243.434ZM136.242 245.436V249H135.318V245.656C135.318 244.6 134.922 244.138 134.042 244.138C133.041 244.138 132.326 244.754 132.326 245.689V249H131.402V243.434H132.326V244.38C132.634 243.676 133.349 243.28 134.262 243.28C135.527 243.28 136.242 244.061 136.242 245.436ZM142.383 243.434H143.307V249H142.383V247.977C142.064 248.692 141.261 249.154 140.326 249.154C138.797 249.154 137.675 247.933 137.675 246.217C137.675 244.501 138.797 243.28 140.326 243.28C141.261 243.28 142.064 243.742 142.383 244.457V243.434ZM142.427 246.217C142.427 245.612 142.251 245.106 141.899 244.721C141.558 244.336 141.096 244.138 140.535 244.138C139.974 244.138 139.512 244.336 139.16 244.721C138.819 245.106 138.643 245.612 138.643 246.217C138.643 246.822 138.819 247.328 139.16 247.713C139.512 248.098 139.974 248.296 140.535 248.296C141.096 248.296 141.558 248.098 141.899 247.713C142.251 247.328 142.427 246.822 142.427 246.217ZM153.539 245.414V249H152.615V245.634C152.615 244.589 152.263 244.138 151.438 244.138C150.481 244.138 149.821 244.754 149.821 245.689V249H148.897V245.634C148.897 244.589 148.545 244.138 147.72 244.138C146.763 244.138 146.103 244.754 146.103 245.689V249H145.179V243.434H146.103V244.369C146.411 243.676 147.093 243.28 147.94 243.28C148.787 243.28 149.403 243.687 149.667 244.435C149.964 243.731 150.701 243.28 151.636 243.28C152.868 243.28 153.539 244.05 153.539 245.414ZM160.366 246.503H155.911C156.01 247.614 156.758 248.296 157.847 248.296C158.562 248.296 159.156 248.01 159.618 247.427L160.245 247.955C159.706 248.714 158.848 249.154 157.825 249.154C156.142 249.154 154.965 247.955 154.965 246.228C154.965 244.523 156.109 243.28 157.748 243.28C159.299 243.28 160.399 244.391 160.399 246.008C160.399 246.173 160.388 246.338 160.366 246.503ZM155.933 245.755H159.453C159.365 244.732 158.716 244.138 157.748 244.138C156.769 244.138 156.098 244.754 155.933 245.755Z" fill="#2F2B43" fill-opacity="0.6"/>
<path d="M217.523 249L216.731 246.976H213.134L212.342 249H211.22L214.333 241.3H215.543L218.645 249H217.523ZM213.508 246.019H216.357L214.938 242.356L213.508 246.019ZM219.71 249V240.948H220.744V249H219.71ZM222.357 241.63C222.357 241.234 222.643 240.937 223.05 240.937C223.457 240.937 223.743 241.234 223.743 241.63C223.743 242.026 223.457 242.323 223.05 242.323C222.643 242.323 222.357 242.026 222.357 241.63ZM222.533 249V243.423H223.567V249H222.533ZM225.245 246.91V243.423H226.279V246.833C226.279 247.724 226.785 248.197 227.676 248.197C228.567 248.197 229.073 247.724 229.073 246.833V243.423H230.107V246.91C230.107 247.592 229.887 248.142 229.447 248.549C229.007 248.956 228.413 249.154 227.676 249.154C226.224 249.154 225.245 248.252 225.245 246.91ZM241.275 241.3H242.452V249H241.396V242.939L238.833 247.02H237.953L235.39 242.939V249H234.345V241.3H235.522L238.404 245.887L241.275 241.3ZM244.273 246.91V243.423H245.307V246.833C245.307 247.724 245.813 248.197 246.704 248.197C247.595 248.197 248.101 247.724 248.101 246.833V243.423H249.135V246.91C249.135 247.592 248.915 248.142 248.475 248.549C248.035 248.956 247.441 249.154 246.704 249.154C245.252 249.154 244.273 248.252 244.273 246.91ZM250.65 241.63C250.65 241.234 250.936 240.937 251.343 240.937C251.75 240.937 252.036 241.234 252.036 241.63C252.036 242.026 251.75 242.323 251.343 242.323C250.936 242.323 250.65 242.026 250.65 241.63ZM250.826 249V243.423H251.86V249H250.826ZM259.324 246.217C259.324 247.933 258.224 249.154 256.706 249.154C255.782 249.154 255.001 248.714 254.682 248.01V249H253.648V240.948H254.682V244.413C255.001 243.709 255.782 243.269 256.706 243.269C258.224 243.269 259.324 244.49 259.324 246.217ZM258.257 246.217C258.257 245.634 258.092 245.15 257.751 244.787C257.421 244.413 256.981 244.226 256.442 244.226C255.353 244.226 254.638 245.04 254.638 246.217C254.638 246.8 254.803 247.273 255.133 247.647C255.463 248.01 255.903 248.197 256.442 248.197C256.981 248.197 257.421 248.01 257.751 247.647C258.092 247.273 258.257 246.8 258.257 246.217ZM260.57 241.63C260.57 241.234 260.856 240.937 261.263 240.937C261.67 240.937 261.956 241.234 261.956 241.63C261.956 242.026 261.67 242.323 261.263 242.323C260.856 242.323 260.57 242.026 260.57 241.63ZM260.746 249V243.423H261.78V249H260.746ZM263.195 246.272V245.337H266.396V246.272H263.195ZM273.255 241.3H274.344V249H273.255V245.557H269.031V249H267.953V241.3H269.031V244.545H273.255V241.3ZM280.54 243.423H281.574V249H280.54V248.01C280.221 248.714 279.44 249.154 278.527 249.154C277.009 249.154 275.887 247.933 275.887 246.217C275.887 244.49 277.009 243.269 278.527 243.269C279.44 243.269 280.221 243.709 280.54 244.413V243.423ZM280.584 246.217C280.584 245.04 279.869 244.226 278.78 244.226C278.241 244.226 277.801 244.413 277.46 244.787C277.13 245.15 276.965 245.634 276.965 246.217C276.965 246.8 277.13 247.273 277.46 247.647C277.801 248.01 278.241 248.197 278.78 248.197C279.319 248.197 279.759 248.01 280.089 247.647C280.419 247.273 280.584 246.8 280.584 246.217ZM291.774 245.403V249H290.74V245.645C290.74 244.666 290.41 244.226 289.618 244.226C288.705 244.226 288.089 244.798 288.089 245.711V249H287.055V245.645C287.055 244.666 286.714 244.226 285.922 244.226C285.009 244.226 284.393 244.798 284.393 245.711V249H283.359V243.423H284.393V244.336C284.701 243.665 285.372 243.269 286.208 243.269C287.055 243.269 287.66 243.676 287.924 244.413C288.232 243.709 288.958 243.269 289.882 243.269C291.103 243.269 291.774 244.039 291.774 245.403ZM301.933 245.403V249H300.899V245.645C300.899 244.666 300.569 244.226 299.777 244.226C298.864 244.226 298.248 244.798 298.248 245.711V249H297.214V245.645C297.214 244.666 296.873 244.226 296.081 244.226C295.168 244.226 294.552 244.798 294.552 245.711V249H293.518V243.423H294.552V244.336C294.86 243.665 295.531 243.269 296.367 243.269C297.214 243.269 297.819 243.676 298.083 244.413C298.391 243.709 299.117 243.269 300.041 243.269C301.262 243.269 301.933 244.039 301.933 245.403ZM308.727 246.525H304.349C304.47 247.592 305.163 248.219 306.208 248.219C306.901 248.219 307.484 247.944 307.935 247.394L308.606 247.988C308.067 248.736 307.209 249.154 306.186 249.154C304.47 249.154 303.293 247.955 303.293 246.228C303.293 244.523 304.459 243.269 306.098 243.269C307.649 243.269 308.76 244.391 308.76 246.03C308.76 246.195 308.749 246.36 308.727 246.525ZM304.371 245.733H307.715C307.627 244.765 307.011 244.215 306.098 244.215C305.163 244.215 304.536 244.776 304.371 245.733ZM314.41 240.948H315.444V249H314.41V248.01C314.091 248.714 313.299 249.154 312.386 249.154C310.879 249.154 309.757 247.933 309.757 246.217C309.757 244.49 310.879 243.269 312.386 243.269C313.299 243.269 314.091 243.709 314.41 244.413V240.948ZM314.454 246.217C314.454 245.04 313.739 244.226 312.65 244.226C312.111 244.226 311.671 244.413 311.33 244.787C311 245.15 310.835 245.634 310.835 246.217C310.835 246.8 311 247.273 311.33 247.647C311.671 248.01 312.111 248.197 312.65 248.197C313.189 248.197 313.629 248.01 313.959 247.647C314.289 247.273 314.454 246.8 314.454 246.217Z" fill="#272835"/>
<path d="M74.062 274.921C74.062 276.186 73.127 277 71.62 277H68.144V269.3H71.356C72.841 269.3 73.776 270.092 73.776 271.291C73.776 272.127 73.314 272.732 72.489 273.029C73.49 273.26 74.062 273.942 74.062 274.921ZM71.356 270.18H69.112V272.622H71.356C72.291 272.622 72.786 272.182 72.786 271.401C72.786 270.62 72.291 270.18 71.356 270.18ZM73.05 274.811C73.05 273.986 72.555 273.502 71.62 273.502H69.112V276.12H71.62C72.555 276.12 73.05 275.636 73.05 274.811ZM80.6301 274.503H76.1751C76.2741 275.614 77.0221 276.296 78.1111 276.296C78.8261 276.296 79.4201 276.01 79.8821 275.427L80.5091 275.955C79.9701 276.714 79.1121 277.154 78.0891 277.154C76.4061 277.154 75.2291 275.955 75.2291 274.228C75.2291 272.523 76.3731 271.28 78.0121 271.28C79.5631 271.28 80.6631 272.391 80.6631 274.008C80.6631 274.173 80.6521 274.338 80.6301 274.503ZM76.1971 273.755H79.7171C79.6291 272.732 78.9801 272.138 78.0121 272.138C77.0331 272.138 76.3621 272.754 76.1971 273.755ZM86.9508 273.436V277H86.0268V273.656C86.0268 272.6 85.6308 272.138 84.7508 272.138C83.7498 272.138 83.0348 272.754 83.0348 273.689V277H82.1108V271.434H83.0348V272.38C83.3428 271.676 84.0578 271.28 84.9708 271.28C86.2358 271.28 86.9508 272.061 86.9508 273.436ZM93.7841 274.503H89.3291C89.4281 275.614 90.1761 276.296 91.2651 276.296C91.9801 276.296 92.5741 276.01 93.0361 275.427L93.6631 275.955C93.1241 276.714 92.2661 277.154 91.2431 277.154C89.5601 277.154 88.3831 275.955 88.3831 274.228C88.3831 272.523 89.5271 271.28 91.1661 271.28C92.7171 271.28 93.8171 272.391 93.8171 274.008C93.8171 274.173 93.8061 274.338 93.7841 274.503ZM89.3511 273.755H92.8711C92.7831 272.732 92.1341 272.138 91.1661 272.138C90.1871 272.138 89.5161 272.754 89.3511 273.755ZM95.5974 277V272.226H94.4534V271.434H95.5974V270.587C95.5974 269.388 96.1474 268.849 97.3244 268.849C97.5994 268.849 97.8854 268.882 98.1714 268.948V269.729C97.9074 269.674 97.6654 269.652 97.4454 269.652C96.7964 269.652 96.5214 269.938 96.5214 270.609V271.434H98.1494V272.226H96.5214V277H95.5974ZM99.0826 269.63C99.0826 269.267 99.3576 268.992 99.7206 268.992C100.084 268.992 100.359 269.267 100.359 269.63C100.359 269.993 100.084 270.268 99.7206 270.268C99.3576 270.268 99.0826 269.993 99.0826 269.63ZM99.2586 277V271.434H100.183V277H99.2586ZM101.663 274.217C101.663 272.523 102.829 271.28 104.523 271.28C105.546 271.28 106.382 271.709 106.855 272.49L106.129 272.996C105.788 272.435 105.227 272.138 104.534 272.138C103.973 272.138 103.511 272.325 103.159 272.71C102.807 273.095 102.631 273.59 102.631 274.217C102.631 274.844 102.807 275.339 103.159 275.724C103.511 276.109 103.973 276.296 104.534 276.296C105.227 276.296 105.788 275.999 106.129 275.438L106.855 275.944C106.382 276.725 105.546 277.154 104.523 277.154C102.829 277.154 101.663 275.911 101.663 274.217ZM107.961 269.63C107.961 269.267 108.236 268.992 108.599 268.992C108.962 268.992 109.237 269.267 109.237 269.63C109.237 269.993 108.962 270.268 108.599 270.268C108.236 270.268 107.961 269.993 107.961 269.63ZM108.137 277V271.434H109.061V277H108.137ZM115.25 271.434H116.174V277H115.25V275.977C114.931 276.692 114.128 277.154 113.193 277.154C111.664 277.154 110.542 275.933 110.542 274.217C110.542 272.501 111.664 271.28 113.193 271.28C114.128 271.28 114.931 271.742 115.25 272.457V271.434ZM115.294 274.217C115.294 273.612 115.118 273.106 114.766 272.721C114.425 272.336 113.963 272.138 113.402 272.138C112.841 272.138 112.379 272.336 112.027 272.721C111.686 273.106 111.51 273.612 111.51 274.217C111.51 274.822 111.686 275.328 112.027 275.713C112.379 276.098 112.841 276.296 113.402 276.296C113.963 276.296 114.425 276.098 114.766 275.713C115.118 275.328 115.294 274.822 115.294 274.217ZM121.171 271.423V272.237C121.006 272.215 120.852 272.204 120.687 272.204C119.598 272.204 118.971 272.842 118.971 274.151V277H118.047V271.434H118.971V272.479C119.224 271.764 119.84 271.346 120.665 271.346C120.852 271.346 121.028 271.368 121.171 271.423ZM126.179 271.434H127.103V276.461C127.103 278.342 126.102 279.354 124.386 279.354C123.451 279.354 122.593 279.046 122.076 278.518L122.615 277.858C123.066 278.265 123.704 278.496 124.364 278.496C125.519 278.496 126.179 277.814 126.179 276.461V275.9C125.86 276.604 125.134 277 124.221 277C122.978 277 122.241 276.241 122.241 274.844V271.434H123.165V274.624C123.165 275.68 123.572 276.142 124.441 276.142C125.453 276.142 126.179 275.515 126.179 274.591V271.434ZM135.714 271.434H136.638V277H135.714V275.977C135.395 276.692 134.592 277.154 133.657 277.154C132.128 277.154 131.006 275.933 131.006 274.217C131.006 272.501 132.128 271.28 133.657 271.28C134.592 271.28 135.395 271.742 135.714 272.457V271.434ZM135.758 274.217C135.758 273.612 135.582 273.106 135.23 272.721C134.889 272.336 134.427 272.138 133.866 272.138C133.305 272.138 132.843 272.336 132.491 272.721C132.15 273.106 131.974 273.612 131.974 274.217C131.974 274.822 132.15 275.328 132.491 275.713C132.843 276.098 133.305 276.296 133.866 276.296C134.427 276.296 134.889 276.098 135.23 275.713C135.582 275.328 135.758 274.822 135.758 274.217ZM142.823 268.948H143.747V277H142.823V275.977C142.482 276.692 141.69 277.154 140.755 277.154C139.237 277.154 138.115 275.933 138.115 274.217C138.115 272.501 139.237 271.28 140.755 271.28C141.69 271.28 142.482 271.742 142.823 272.457V268.948ZM142.867 274.217C142.867 273.612 142.691 273.106 142.339 272.721C141.998 272.336 141.536 272.138 140.975 272.138C140.414 272.138 139.952 272.336 139.6 272.721C139.259 273.106 139.083 273.612 139.083 274.217C139.083 274.822 139.259 275.328 139.6 275.713C139.952 276.098 140.414 276.296 140.975 276.296C141.536 276.296 141.998 276.098 142.339 275.713C142.691 275.328 142.867 274.822 142.867 274.217ZM149.932 268.948H150.856V277H149.932V275.977C149.591 276.692 148.799 277.154 147.864 277.154C146.346 277.154 145.224 275.933 145.224 274.217C145.224 272.501 146.346 271.28 147.864 271.28C148.799 271.28 149.591 271.742 149.932 272.457V268.948ZM149.976 274.217C149.976 273.612 149.8 273.106 149.448 272.721C149.107 272.336 148.645 272.138 148.084 272.138C147.523 272.138 147.061 272.336 146.709 272.721C146.368 273.106 146.192 273.612 146.192 274.217C146.192 274.822 146.368 275.328 146.709 275.713C147.061 276.098 147.523 276.296 148.084 276.296C148.645 276.296 149.107 276.098 149.448 275.713C149.8 275.328 149.976 274.822 149.976 274.217ZM155.853 271.423V272.237C155.688 272.215 155.534 272.204 155.369 272.204C154.28 272.204 153.653 272.842 153.653 274.151V277H152.729V271.434H153.653V272.479C153.906 271.764 154.522 271.346 155.347 271.346C155.534 271.346 155.71 271.368 155.853 271.423ZM161.792 274.503H157.337C157.436 275.614 158.184 276.296 159.273 276.296C159.988 276.296 160.582 276.01 161.044 275.427L161.671 275.955C161.132 276.714 160.274 277.154 159.251 277.154C157.568 277.154 156.391 275.955 156.391 274.228C156.391 272.523 157.535 271.28 159.174 271.28C160.725 271.28 161.825 272.391 161.825 274.008C161.825 274.173 161.814 274.338 161.792 274.503ZM157.359 273.755H160.879C160.791 272.732 160.142 272.138 159.174 272.138C158.195 272.138 157.524 272.754 157.359 273.755ZM162.744 275.944L163.415 275.449C163.811 276.021 164.46 276.318 165.219 276.318C166.011 276.318 166.495 275.988 166.495 275.471C166.495 275.075 166.22 274.844 165.516 274.679L164.636 274.481C163.492 274.217 162.942 273.711 162.942 272.93C162.942 271.951 163.778 271.28 165.131 271.28C166.099 271.28 166.88 271.621 167.331 272.226L166.693 272.776C166.33 272.347 165.769 272.116 165.076 272.116C164.284 272.116 163.866 272.413 163.866 272.908C163.866 273.271 164.119 273.48 164.867 273.656L165.846 273.876C166.946 274.129 167.419 274.624 167.419 275.405C167.419 276.461 166.594 277.154 165.23 277.154C164.097 277.154 163.184 276.692 162.744 275.944ZM168.263 275.944L168.934 275.449C169.33 276.021 169.979 276.318 170.738 276.318C171.53 276.318 172.014 275.988 172.014 275.471C172.014 275.075 171.739 274.844 171.035 274.679L170.155 274.481C169.011 274.217 168.461 273.711 168.461 272.93C168.461 271.951 169.297 271.28 170.65 271.28C171.618 271.28 172.399 271.621 172.85 272.226L172.212 272.776C171.849 272.347 171.288 272.116 170.595 272.116C169.803 272.116 169.385 272.413 169.385 272.908C169.385 273.271 169.638 273.48 170.386 273.656L171.365 273.876C172.465 274.129 172.938 274.624 172.938 275.405C172.938 276.461 172.113 277.154 170.749 277.154C169.616 277.154 168.703 276.692 168.263 275.944Z" fill="#2F2B43" fill-opacity="0.6"/>
<path d="M214.567 269.3H215.623V277H214.611L210.156 271.016V277H209.1V269.3H210.101L214.567 275.284V269.3ZM222.597 274.525H218.219C218.34 275.592 219.033 276.219 220.078 276.219C220.771 276.219 221.354 275.944 221.805 275.394L222.476 275.988C221.937 276.736 221.079 277.154 220.056 277.154C218.34 277.154 217.163 275.955 217.163 274.228C217.163 272.523 218.329 271.269 219.968 271.269C221.519 271.269 222.63 272.391 222.63 274.03C222.63 274.195 222.619 274.36 222.597 274.525ZM218.241 273.733H221.585C221.497 272.765 220.881 272.215 219.968 272.215C219.033 272.215 218.406 272.776 218.241 273.733ZM230.9 271.423H231.945L230.141 277H228.997L227.567 272.633L226.137 277H225.004L223.2 271.423H224.245L225.598 275.768L227.028 271.423H228.117L229.536 275.757L230.9 271.423ZM242.185 271.423H243.23L241.426 277H240.282L238.852 272.633L237.422 277H236.289L234.485 271.423H235.53L236.883 275.768L238.313 271.423H239.402L240.821 275.757L242.185 271.423ZM248.468 271.423H249.502V277H248.468V276.01C248.149 276.714 247.368 277.154 246.455 277.154C244.937 277.154 243.815 275.933 243.815 274.217C243.815 272.49 244.937 271.269 246.455 271.269C247.368 271.269 248.149 271.709 248.468 272.413V271.423ZM248.512 274.217C248.512 273.04 247.797 272.226 246.708 272.226C246.169 272.226 245.729 272.413 245.388 272.787C245.058 273.15 244.893 273.634 244.893 274.217C244.893 274.8 245.058 275.273 245.388 275.647C245.729 276.01 246.169 276.197 246.708 276.197C247.247 276.197 247.687 276.01 248.017 275.647C248.347 275.273 248.512 274.8 248.512 274.217ZM255.038 271.423H256.072V276.45C256.072 278.331 255.071 279.354 253.311 279.354C252.354 279.354 251.507 279.057 250.979 278.529L251.54 277.792C251.991 278.188 252.618 278.408 253.267 278.408C254.411 278.408 255.038 277.759 255.038 276.45V275.922C254.719 276.593 254.004 276.989 253.113 276.989C251.881 276.989 251.155 276.219 251.155 274.844V271.423H252.189V274.591C252.189 275.603 252.574 276.032 253.399 276.032C254.367 276.032 255.038 275.438 255.038 274.547V271.423ZM263.474 271.412V272.347C263.32 272.314 263.144 272.303 262.957 272.303C261.89 272.303 261.296 272.908 261.296 274.173V277H260.262V271.423H261.296V272.424C261.56 271.731 262.176 271.335 262.979 271.335C263.166 271.335 263.331 271.357 263.474 271.412ZM263.978 274.217C263.978 272.611 265.133 271.269 266.871 271.269C268.587 271.269 269.753 272.611 269.753 274.217C269.753 275.834 268.587 277.154 266.871 277.154C265.133 277.154 263.978 275.834 263.978 274.217ZM268.675 274.217C268.675 273.04 267.96 272.226 266.871 272.226C266.332 272.226 265.892 272.413 265.551 272.787C265.221 273.15 265.056 273.634 265.056 274.217C265.056 274.8 265.221 275.273 265.551 275.647C265.892 276.01 266.332 276.197 266.871 276.197C267.41 276.197 267.85 276.01 268.18 275.647C268.51 275.273 268.675 274.8 268.675 274.217ZM275.418 271.423H276.452V277H275.418V276.01C275.099 276.714 274.318 277.154 273.405 277.154C271.887 277.154 270.765 275.933 270.765 274.217C270.765 272.49 271.887 271.269 273.405 271.269C274.318 271.269 275.099 271.709 275.418 272.413V271.423ZM275.462 274.217C275.462 273.04 274.747 272.226 273.658 272.226C273.119 272.226 272.679 272.413 272.338 272.787C272.008 273.15 271.843 273.634 271.843 274.217C271.843 274.8 272.008 275.273 272.338 275.647C272.679 276.01 273.119 276.197 273.658 276.197C274.197 276.197 274.637 276.01 274.967 275.647C275.297 275.273 275.462 274.8 275.462 274.217ZM282.505 268.948H283.539V277H282.505V276.01C282.186 276.714 281.394 277.154 280.481 277.154C278.974 277.154 277.852 275.933 277.852 274.217C277.852 272.49 278.974 271.269 280.481 271.269C281.394 271.269 282.186 271.709 282.505 272.413V268.948ZM282.549 274.217C282.549 273.04 281.834 272.226 280.745 272.226C280.206 272.226 279.766 272.413 279.425 272.787C279.095 273.15 278.93 273.634 278.93 274.217C278.93 274.8 279.095 275.273 279.425 275.647C279.766 276.01 280.206 276.197 280.745 276.197C281.284 276.197 281.724 276.01 282.054 275.647C282.384 275.273 282.549 274.8 282.549 274.217ZM284.84 278.65L285.379 275.636H286.446L285.654 278.65H284.84ZM297.398 269.3H298.575V277H297.519V270.939L294.956 275.02H294.076L291.513 270.939V277H290.468V269.3H291.645L294.527 273.887L297.398 269.3ZM304.774 271.423H305.808V277H304.774V276.01C304.455 276.714 303.674 277.154 302.761 277.154C301.243 277.154 300.121 275.933 300.121 274.217C300.121 272.49 301.243 271.269 302.761 271.269C303.674 271.269 304.455 271.709 304.774 272.413V271.423ZM304.818 274.217C304.818 273.04 304.103 272.226 303.014 272.226C302.475 272.226 302.035 272.413 301.694 272.787C301.364 273.15 301.199 273.634 301.199 274.217C301.199 274.8 301.364 275.273 301.694 275.647C302.035 276.01 302.475 276.197 303.014 276.197C303.553 276.197 303.993 276.01 304.323 275.647C304.653 275.273 304.818 274.8 304.818 274.217ZM310.805 271.412V272.347C310.651 272.314 310.475 272.303 310.288 272.303C309.221 272.303 308.627 272.908 308.627 274.173V277H307.593V271.423H308.627V272.424C308.891 271.731 309.507 271.335 310.31 271.335C310.497 271.335 310.662 271.357 310.805 271.412ZM311.392 275.977L312.074 275.394C312.481 275.955 313.13 276.241 313.889 276.241C314.637 276.241 315.088 275.933 315.088 275.46C315.088 275.097 314.824 274.855 314.164 274.712L313.273 274.514C312.129 274.239 311.59 273.744 311.59 272.952C311.59 271.951 312.437 271.269 313.801 271.269C314.78 271.269 315.561 271.621 316.034 272.204L315.374 272.831C314.967 272.402 314.428 272.193 313.757 272.193C313.009 272.193 312.624 272.468 312.624 272.919C312.624 273.26 312.855 273.458 313.559 273.623L314.538 273.843C315.649 274.096 316.122 274.591 316.122 275.383C316.122 276.472 315.297 277.154 313.889 277.154C312.756 277.154 311.832 276.692 311.392 275.977Z" fill="#272835"/>
<rect x="144.5" y="140.5" width="95" height="23" rx="11.5" fill="#191C1F"/>
<rect x="144.5" y="140.5" width="95" height="23" rx="11.5" stroke="#2B3036"/>
<path d="M152.806 151.5C152.776 149.48 154.326 147.83 156.336 147.86C157.656 147.86 158.796 148.49 159.386 149.66L158.656 150.08C158.166 149.15 157.416 148.68 156.396 148.68C154.806 148.68 153.726 149.86 153.726 151.5C153.726 153.14 154.806 154.32 156.396 154.32C157.396 154.32 158.186 153.87 158.676 152.92L159.386 153.34C158.796 154.51 157.656 155.14 156.336 155.14C154.306 155.17 152.776 153.52 152.806 151.5ZM160.484 153.11V149.94H161.324V153.06C161.324 153.9 161.814 154.36 162.664 154.36C163.514 154.36 164.004 153.9 164.004 153.06V149.94H164.844V153.11C164.844 154.31 163.974 155.14 162.664 155.14C161.354 155.14 160.484 154.31 160.484 153.11ZM169.321 149.93V150.67C169.171 150.65 169.031 150.64 168.881 150.64C167.891 150.64 167.321 151.22 167.321 152.41V155H166.481V149.94H167.321V150.89C167.551 150.24 168.111 149.86 168.861 149.86C169.031 149.86 169.191 149.88 169.321 149.93ZM173.304 149.93V150.67C173.154 150.65 173.014 150.64 172.864 150.64C171.874 150.64 171.304 151.22 171.304 152.41V155H170.464V149.94H171.304V150.89C171.534 150.24 172.094 149.86 172.844 149.86C173.014 149.86 173.174 149.88 173.304 149.93ZM178.743 152.73H174.693C174.783 153.74 175.463 154.36 176.453 154.36C177.103 154.36 177.643 154.1 178.063 153.57L178.633 154.05C178.143 154.74 177.363 155.14 176.433 155.14C174.903 155.14 173.833 154.05 173.833 152.48C173.833 150.93 174.873 149.8 176.363 149.8C177.773 149.8 178.773 150.81 178.773 152.28C178.773 152.43 178.763 152.58 178.743 152.73ZM174.713 152.05H177.913C177.833 151.12 177.243 150.58 176.363 150.58C175.473 150.58 174.863 151.14 174.713 152.05ZM184.529 151.76V155H183.689V151.96C183.689 151 183.329 150.58 182.529 150.58C181.619 150.58 180.969 151.14 180.969 151.99V155H180.129V149.94H180.969V150.8C181.249 150.16 181.899 149.8 182.729 149.8C183.879 149.8 184.529 150.51 184.529 151.76ZM186.543 153.7V150.66H185.533V149.94H186.543V148.44H187.383V149.94H188.973V150.66H187.383V153.64C187.383 154.13 187.633 154.34 188.203 154.34C188.433 154.34 188.703 154.31 188.993 154.25V154.95C188.703 155.04 188.403 155.08 188.083 155.08C187.083 155.08 186.543 154.61 186.543 153.7ZM197.549 155L196.799 153.1H193.439L192.689 155H191.779L194.629 148H195.609L198.459 155H197.549ZM193.759 152.3H196.479L195.119 148.87L193.759 152.3ZM199.041 152.47C199.041 150.93 200.101 149.8 201.641 149.8C202.571 149.8 203.331 150.19 203.761 150.9L203.101 151.36C202.791 150.85 202.281 150.58 201.651 150.58C201.141 150.58 200.721 150.75 200.401 151.1C200.081 151.45 199.921 151.9 199.921 152.47C199.921 153.04 200.081 153.49 200.401 153.84C200.721 154.19 201.141 154.36 201.651 154.36C202.281 154.36 202.791 154.09 203.101 153.58L203.761 154.04C203.331 154.75 202.571 155.14 201.641 155.14C200.101 155.14 199.041 154.01 199.041 152.47ZM204.577 152.47C204.577 150.93 205.637 149.8 207.177 149.8C208.107 149.8 208.867 150.19 209.297 150.9L208.637 151.36C208.327 150.85 207.817 150.58 207.187 150.58C206.677 150.58 206.257 150.75 205.937 151.1C205.617 151.45 205.457 151.9 205.457 152.47C205.457 153.04 205.617 153.49 205.937 153.84C206.257 154.19 206.677 154.36 207.187 154.36C207.817 154.36 208.327 154.09 208.637 153.58L209.297 154.04C208.867 154.75 208.107 155.14 207.177 155.14C205.637 155.14 204.577 154.01 204.577 152.47ZM210.112 152.47C210.092 151.04 211.182 149.77 212.712 149.8C214.242 149.77 215.332 151.04 215.312 152.47C215.332 153.9 214.242 155.17 212.712 155.14C211.182 155.17 210.092 153.9 210.112 152.47ZM214.432 152.47C214.432 151.92 214.272 151.46 213.952 151.11C213.642 150.76 213.222 150.58 212.712 150.58C212.202 150.58 211.782 150.76 211.462 151.11C211.152 151.46 210.992 151.92 210.992 152.47C210.992 153.02 211.152 153.48 211.462 153.83C211.782 154.18 212.202 154.36 212.712 154.36C213.222 154.36 213.642 154.18 213.952 153.83C214.272 153.48 214.432 153.02 214.432 152.47ZM216.592 153.11V149.94H217.432V153.06C217.432 153.9 217.922 154.36 218.772 154.36C219.622 154.36 220.112 153.9 220.112 153.06V149.94H220.952V153.11C220.952 154.31 220.082 155.14 218.772 155.14C217.462 155.14 216.592 154.31 216.592 153.11ZM226.989 151.76V155H226.149V151.96C226.149 151 225.789 150.58 224.989 150.58C224.079 150.58 223.429 151.14 223.429 151.99V155H222.589V149.94H223.429V150.8C223.709 150.16 224.359 149.8 225.189 149.8C226.339 149.8 226.989 150.51 226.989 151.76ZM229.002 153.7V150.66H227.992V149.94H229.002V148.44H229.842V149.94H231.432V150.66H229.842V153.64C229.842 154.13 230.092 154.34 230.662 154.34C230.892 154.34 231.162 154.31 231.452 154.25V154.95C231.162 155.04 230.862 155.08 230.542 155.08C229.542 155.08 229.002 154.61 229.002 153.7Z" fill="white"/>
<defs>
<filter id="filter0_d_3028_3210" x="118" y="65" width="149" height="58" filterUnits="userSpaceOnUse" color-interpolation-filters="sRGB">
<feFlood flood-opacity="0" result="BackgroundImageFix"/>
<feColorMatrix in="SourceAlpha" type="matrix" values="0 0 0 0 0 0 0 0 0 0 0 0 0 0 0 0 0 0 127 0" result="hardAlpha"/>
<feOffset dy="2"/>
<feGaussianBlur stdDeviation="2"/>
<feComposite in2="hardAlpha" operator="out"/>
<feColorMatrix type="matrix" values="0 0 0 0 0.105882 0 0 0 0 0.109804 0 0 0 0 0.113725 0 0 0 0.04 0"/>
<feBlend mode="normal" in2="BackgroundImageFix" result="effect1_dropShadow_3028_3210"/>
<feBlend mode="normal" in="SourceGraphic" in2="effect1_dropShadow_3028_3210" result="shape"/>
</filter>
<linearGradient id="paint0_linear_3028_3210" x1="192" y1="152" x2="192" y2="311" gradientUnits="userSpaceOnUse">
<stop stop-color="white"/>
<stop offset="1" stop-color="white" stop-opacity="0"/>
</linearGradient>
<linearGradient id="paint1_linear_3028_3210" x1="192" y1="152" x2="192" y2="311" gradientUnits="userSpaceOnUse">
<stop stop-color="#F5F5F5"/>
<stop offset="1" stop-color="#F5F5F5" stop-opacity="0"/>
</linearGradient>
</defs>
</svg>
