<svg width="384" height="452" viewBox="0 0 384 452" fill="none" xmlns="http://www.w3.org/2000/svg">
<rect width="384" height="452" rx="8" fill="#F7F8F8"/>
<path d="M28.626 349.32L24 341.4H27.15L29.976 346.566L32.946 341.4H35.952L31.326 349.32V354H28.626V349.32ZM39.4128 354.108C36.4608 354.108 34.5348 352.218 34.5348 349.374C34.5348 346.53 36.4608 344.64 39.4128 344.64C42.3648 344.64 44.2908 346.53 44.2908 349.374C44.2908 352.236 42.3648 354.108 39.4128 354.108ZM39.4128 352.038C40.8348 352.038 41.7168 350.94 41.7168 349.374C41.7168 347.808 40.8348 346.71 39.4128 346.71C37.9908 346.71 37.1268 347.808 37.1268 349.374C37.1268 350.94 37.9908 352.038 39.4128 352.038ZM51.5738 349.374V344.748H54.1118V354H51.8618L51.6277 352.884C51.0338 353.604 50.2237 354.108 48.9098 354.108C47.0017 354.108 45.2377 353.154 45.2377 349.878V344.748H47.7757V349.536C47.7757 351.192 48.3157 352.002 49.5758 352.002C50.8357 352.002 51.5738 351.084 51.5738 349.374ZM60.7903 344.748H61.2223V347.052H60.2143C58.7023 347.052 58.1263 348.06 58.1263 349.464V354H55.5883V344.748H57.8923L58.1263 346.134C58.6303 345.306 59.3503 344.748 60.7903 344.748ZM68.2247 354H65.4347L70.0427 341.4H73.2827L77.8547 354H74.9567L73.9847 351.246H69.1967L68.2247 354ZM71.5727 344.28L69.9167 349.068H73.2467L71.5727 344.28ZM78.5251 354V341.4H81.0631V354H78.5251ZM82.5437 354V341.4H85.0817V354H82.5437ZM92.7004 349.914H86.4004V347.844H92.7004V349.914ZM95.2867 343.758C94.4587 343.758 93.8107 343.146 93.8107 342.336C93.8107 341.508 94.4587 340.896 95.2867 340.896C96.1147 340.896 96.7627 341.508 96.7627 342.336C96.7627 343.146 96.1147 343.758 95.2867 343.758ZM94.0087 354V344.748H96.5647V354H94.0087ZM103.337 344.64C105.335 344.64 107.045 345.702 107.045 348.87V354H104.507V349.122C104.507 347.556 103.913 346.728 102.635 346.728C101.321 346.728 100.565 347.664 100.565 349.266V354H98.0274V344.748H100.241L100.475 345.9C101.069 345.18 101.915 344.64 103.337 344.64ZM114.495 349.914H108.195V347.844H114.495V349.914ZM128.305 347.7C128.305 351.372 125.767 354.108 122.059 354.108C118.351 354.108 115.813 351.372 115.813 347.7C115.813 344.028 118.351 341.292 122.059 341.292C125.767 341.292 128.305 344.028 128.305 347.7ZM118.567 347.7C118.567 350.076 119.935 351.822 122.059 351.822C124.165 351.822 125.533 350.076 125.533 347.7C125.533 345.324 124.165 343.578 122.059 343.578C119.935 343.578 118.567 345.324 118.567 347.7ZM134.764 344.64C136.762 344.64 138.472 345.702 138.472 348.87V354H135.934V349.122C135.934 347.556 135.34 346.728 134.062 346.728C132.748 346.728 131.992 347.664 131.992 349.266V354H129.454V344.748H131.668L131.902 345.9C132.496 345.18 133.342 344.64 134.764 344.64ZM144.32 354.108C141.242 354.108 139.388 352.254 139.388 349.392C139.388 346.512 141.278 344.64 144.14 344.64C146.912 344.64 148.784 346.368 148.82 349.086C148.82 349.356 148.802 349.662 148.748 349.95H142.034V350.076C142.088 351.39 142.934 352.182 144.212 352.182C145.238 352.182 145.958 351.732 146.174 350.868H148.676C148.388 352.668 146.786 354.108 144.32 354.108ZM142.088 348.294H146.264C146.084 347.16 145.31 346.53 144.158 346.53C143.06 346.53 142.232 347.196 142.088 348.294ZM154.294 354V341.4H156.994V346.458H161.998V341.4H164.698V354H161.998V348.798H156.994V354H154.294ZM172.533 349.374V344.748H175.071V354H172.821L172.587 352.884C171.993 353.604 171.183 354.108 169.869 354.108C167.961 354.108 166.197 353.154 166.197 349.878V344.748H168.735V349.536C168.735 351.192 169.275 352.002 170.535 352.002C171.795 352.002 172.533 351.084 172.533 349.374ZM181.876 344.64C184.36 344.64 186.16 346.422 186.16 349.356C186.16 352.218 184.36 354.108 181.858 354.108C180.526 354.108 179.608 353.532 179.014 352.74L178.762 354H176.548V341.4H179.086V345.918C179.698 345.18 180.598 344.64 181.876 344.64ZM181.3 352.038C182.686 352.038 183.586 350.958 183.586 349.374C183.586 347.79 182.686 346.71 181.3 346.71C179.914 346.71 179.05 347.79 179.05 349.356C179.05 350.94 179.914 352.038 181.3 352.038Z" fill="#2F2B43"/>
<path d="M32.386 382L31.336 379.34H26.632L25.582 382H24.308L28.298 372.2H29.67L33.66 382H32.386ZM27.08 378.22H30.888L28.984 373.418L27.08 378.22ZM34.4187 378.458C34.4187 376.302 35.9027 374.72 38.0587 374.72C39.3607 374.72 40.4247 375.266 41.0267 376.26L40.1027 376.904C39.6687 376.19 38.9547 375.812 38.0727 375.812C37.3587 375.812 36.7707 376.05 36.3227 376.54C35.8747 377.03 35.6507 377.66 35.6507 378.458C35.6507 379.256 35.8747 379.886 36.3227 380.376C36.7707 380.866 37.3587 381.104 38.0727 381.104C38.9547 381.104 39.6687 380.726 40.1027 380.012L41.0267 380.656C40.4247 381.65 39.3607 382.196 38.0587 382.196C35.9027 382.196 34.4187 380.614 34.4187 378.458ZM42.1127 378.458C42.1127 376.302 43.5967 374.72 45.7527 374.72C47.0547 374.72 48.1187 375.266 48.7207 376.26L47.7967 376.904C47.3627 376.19 46.6487 375.812 45.7667 375.812C45.0527 375.812 44.4647 376.05 44.0167 376.54C43.5687 377.03 43.3447 377.66 43.3447 378.458C43.3447 379.256 43.5687 379.886 44.0167 380.376C44.4647 380.866 45.0527 381.104 45.7667 381.104C46.6487 381.104 47.3627 380.726 47.7967 380.012L48.7207 380.656C48.1187 381.65 47.0547 382.196 45.7527 382.196C43.5967 382.196 42.1127 380.614 42.1127 378.458ZM56.6807 378.822H51.0107C51.1367 380.236 52.0887 381.104 53.4747 381.104C54.3847 381.104 55.1407 380.74 55.7287 379.998L56.5267 380.67C55.8407 381.636 54.7487 382.196 53.4467 382.196C51.3047 382.196 49.8067 380.67 49.8067 378.472C49.8067 376.302 51.2627 374.72 53.3487 374.72C55.3227 374.72 56.7227 376.134 56.7227 378.192C56.7227 378.402 56.7087 378.612 56.6807 378.822ZM51.0387 377.87H55.5187C55.4067 376.568 54.5807 375.812 53.3487 375.812C52.1027 375.812 51.2487 376.596 51.0387 377.87ZM57.8932 380.656L58.7472 380.026C59.2512 380.754 60.0772 381.132 61.0432 381.132C62.0512 381.132 62.6672 380.712 62.6672 380.054C62.6672 379.55 62.3172 379.256 61.4212 379.046L60.3012 378.794C58.8452 378.458 58.1452 377.814 58.1452 376.82C58.1452 375.574 59.2092 374.72 60.9312 374.72C62.1632 374.72 63.1572 375.154 63.7312 375.924L62.9192 376.624C62.4572 376.078 61.7432 375.784 60.8612 375.784C59.8532 375.784 59.3212 376.162 59.3212 376.792C59.3212 377.254 59.6432 377.52 60.5952 377.744L61.8412 378.024C63.2412 378.346 63.8432 378.976 63.8432 379.97C63.8432 381.314 62.7932 382.196 61.0572 382.196C59.6152 382.196 58.4532 381.608 57.8932 380.656ZM64.9173 380.656L65.7713 380.026C66.2753 380.754 67.1013 381.132 68.0673 381.132C69.0753 381.132 69.6913 380.712 69.6913 380.054C69.6913 379.55 69.3413 379.256 68.4453 379.046L67.3253 378.794C65.8693 378.458 65.1693 377.814 65.1693 376.82C65.1693 375.574 66.2333 374.72 67.9553 374.72C69.1873 374.72 70.1813 375.154 70.7553 375.924L69.9433 376.624C69.4813 376.078 68.7673 375.784 67.8853 375.784C66.8773 375.784 66.3453 376.162 66.3453 376.792C66.3453 377.254 66.6673 377.52 67.6193 377.744L68.8653 378.024C70.2653 378.346 70.8673 378.976 70.8673 379.97C70.8673 381.314 69.8173 382.196 68.0813 382.196C66.6393 382.196 65.4773 381.608 64.9173 380.656ZM81.2016 374.916H82.3776V382H81.2016V380.698C80.7956 381.608 79.7736 382.196 78.5836 382.196C76.6376 382.196 75.2096 380.642 75.2096 378.458C75.2096 376.274 76.6376 374.72 78.5836 374.72C79.7736 374.72 80.7956 375.308 81.2016 376.218V374.916ZM81.2576 378.458C81.2576 377.688 81.0336 377.044 80.5856 376.554C80.1516 376.064 79.5636 375.812 78.8496 375.812C78.1356 375.812 77.5476 376.064 77.0996 376.554C76.6656 377.044 76.4416 377.688 76.4416 378.458C76.4416 379.228 76.6656 379.872 77.0996 380.362C77.5476 380.852 78.1356 381.104 78.8496 381.104C79.5636 381.104 80.1516 380.852 80.5856 380.362C81.0336 379.872 81.2576 379.228 81.2576 378.458ZM87.3437 378.458C87.3437 376.302 88.8277 374.72 90.9837 374.72C92.2857 374.72 93.3497 375.266 93.9517 376.26L93.0277 376.904C92.5937 376.19 91.8797 375.812 90.9977 375.812C90.2837 375.812 89.6957 376.05 89.2477 376.54C88.7997 377.03 88.5757 377.66 88.5757 378.458C88.5757 379.256 88.7997 379.886 89.2477 380.376C89.6957 380.866 90.2837 381.104 90.9977 381.104C91.8797 381.104 92.5937 380.726 93.0277 380.012L93.9517 380.656C93.3497 381.65 92.2857 382.196 90.9837 382.196C88.8277 382.196 87.3437 380.614 87.3437 378.458ZM95.0376 378.458C95.0096 376.456 96.5356 374.678 98.6776 374.72C100.82 374.678 102.346 376.456 102.318 378.458C102.346 380.46 100.82 382.238 98.6776 382.196C96.5356 382.238 95.0096 380.46 95.0376 378.458ZM101.086 378.458C101.086 377.688 100.862 377.044 100.414 376.554C99.9796 376.064 99.3916 375.812 98.6776 375.812C97.9636 375.812 97.3756 376.064 96.9276 376.554C96.4936 377.044 96.2696 377.688 96.2696 378.458C96.2696 379.228 96.4936 379.872 96.9276 380.362C97.3756 380.852 97.9636 381.104 98.6776 381.104C99.3916 381.104 99.9796 380.852 100.414 380.362C100.862 379.872 101.086 379.228 101.086 378.458ZM114.833 377.436V382H113.657V377.716C113.657 376.386 113.209 375.812 112.159 375.812C110.941 375.812 110.101 376.596 110.101 377.786V382H108.925V377.716C108.925 376.386 108.477 375.812 107.427 375.812C106.209 375.812 105.369 376.596 105.369 377.786V382H104.193V374.916H105.369V376.106C105.761 375.224 106.629 374.72 107.707 374.72C108.785 374.72 109.569 375.238 109.905 376.19C110.283 375.294 111.221 374.72 112.411 374.72C113.979 374.72 114.833 375.7 114.833 377.436ZM124.318 378.458C124.318 380.642 122.89 382.196 120.958 382.196C119.768 382.196 118.76 381.608 118.326 380.698V384.8H117.15V374.916H118.326V376.218C118.76 375.308 119.768 374.72 120.958 374.72C122.89 374.72 124.318 376.274 124.318 378.458ZM123.086 378.458C123.086 377.688 122.862 377.044 122.414 376.554C121.98 376.064 121.392 375.812 120.678 375.812C119.964 375.812 119.376 376.064 118.928 376.554C118.494 377.044 118.27 377.688 118.27 378.458C118.27 379.228 118.494 379.872 118.928 380.362C119.376 380.852 119.964 381.104 120.678 381.104C121.392 381.104 121.98 380.852 122.414 380.362C122.862 379.872 123.086 379.228 123.086 378.458ZM130.174 374.902V375.938C129.964 375.91 129.768 375.896 129.558 375.896C128.172 375.896 127.374 376.708 127.374 378.374V382H126.198V374.916H127.374V376.246C127.696 375.336 128.48 374.804 129.53 374.804C129.768 374.804 129.992 374.832 130.174 374.902ZM137.733 378.822H132.063C132.189 380.236 133.141 381.104 134.527 381.104C135.437 381.104 136.193 380.74 136.781 379.998L137.579 380.67C136.893 381.636 135.801 382.196 134.499 382.196C132.357 382.196 130.859 380.67 130.859 378.472C130.859 376.302 132.315 374.72 134.401 374.72C136.375 374.72 137.775 376.134 137.775 378.192C137.775 378.402 137.761 378.612 137.733 378.822ZM132.091 377.87H136.571C136.459 376.568 135.633 375.812 134.401 375.812C133.155 375.812 132.301 376.596 132.091 377.87ZM145.777 377.464V382H144.601V377.744C144.601 376.4 144.097 375.812 142.977 375.812C141.703 375.812 140.793 376.596 140.793 377.786V382H139.617V371.752H140.793V376.12C141.185 375.224 142.095 374.72 143.257 374.72C144.867 374.72 145.777 375.714 145.777 377.464ZM154.474 378.822H148.804C148.93 380.236 149.882 381.104 151.268 381.104C152.178 381.104 152.934 380.74 153.522 379.998L154.32 380.67C153.634 381.636 152.542 382.196 151.24 382.196C149.098 382.196 147.6 380.67 147.6 378.472C147.6 376.302 149.056 374.72 151.142 374.72C153.116 374.72 154.516 376.134 154.516 378.192C154.516 378.402 154.502 378.612 154.474 378.822ZM148.832 377.87H153.312C153.2 376.568 152.374 375.812 151.142 375.812C149.896 375.812 149.042 376.596 148.832 377.87ZM162.519 377.464V382H161.343V377.744C161.343 376.4 160.839 375.812 159.719 375.812C158.445 375.812 157.535 376.596 157.535 377.786V382H156.359V374.916H157.535V376.12C157.927 375.224 158.837 374.72 159.999 374.72C161.609 374.72 162.519 375.714 162.519 377.464ZM164.173 380.656L165.027 380.026C165.531 380.754 166.357 381.132 167.323 381.132C168.331 381.132 168.947 380.712 168.947 380.054C168.947 379.55 168.597 379.256 167.701 379.046L166.581 378.794C165.125 378.458 164.425 377.814 164.425 376.82C164.425 375.574 165.489 374.72 167.211 374.72C168.443 374.72 169.437 375.154 170.011 375.924L169.199 376.624C168.737 376.078 168.023 375.784 167.141 375.784C166.133 375.784 165.601 376.162 165.601 376.792C165.601 377.254 165.923 377.52 166.875 377.744L168.121 378.024C169.521 378.346 170.123 378.976 170.123 379.97C170.123 381.314 169.073 382.196 167.337 382.196C165.895 382.196 164.733 381.608 164.173 380.656ZM171.673 372.62C171.673 372.158 172.023 371.808 172.485 371.808C172.947 371.808 173.297 372.158 173.297 372.62C173.297 373.082 172.947 373.432 172.485 373.432C172.023 373.432 171.673 373.082 171.673 372.62ZM171.897 382V374.916H173.073V382H171.897ZM180.222 374.916H181.482L178.598 382H177.338L174.454 374.916H175.714L177.968 380.712L180.222 374.916ZM189.02 378.822H183.35C183.476 380.236 184.428 381.104 185.814 381.104C186.724 381.104 187.48 380.74 188.068 379.998L188.866 380.67C188.18 381.636 187.088 382.196 185.786 382.196C183.644 382.196 182.146 380.67 182.146 378.472C182.146 376.302 183.602 374.72 185.688 374.72C187.662 374.72 189.062 376.134 189.062 378.192C189.062 378.402 189.048 378.612 189.02 378.822ZM183.378 377.87H187.858C187.746 376.568 186.92 375.812 185.688 375.812C184.442 375.812 183.588 376.596 183.378 377.87ZM193.319 380.656L194.173 380.026C194.677 380.754 195.503 381.132 196.469 381.132C197.477 381.132 198.093 380.712 198.093 380.054C198.093 379.55 197.743 379.256 196.847 379.046L195.727 378.794C194.271 378.458 193.571 377.814 193.571 376.82C193.571 375.574 194.635 374.72 196.357 374.72C197.589 374.72 198.583 375.154 199.157 375.924L198.345 376.624C197.883 376.078 197.169 375.784 196.287 375.784C195.279 375.784 194.747 376.162 194.747 376.792C194.747 377.254 195.069 377.52 196.021 377.744L197.267 378.024C198.667 378.346 199.269 378.976 199.269 379.97C199.269 381.314 198.219 382.196 196.483 382.196C195.041 382.196 193.879 381.608 193.319 380.656ZM200.889 379.354V374.916H202.065V379.284C202.065 380.46 202.751 381.104 203.941 381.104C205.131 381.104 205.817 380.46 205.817 379.284V374.916H206.993V379.354C206.993 381.034 205.775 382.196 203.941 382.196C202.107 382.196 200.889 381.034 200.889 379.354ZM209.019 372.62C209.019 372.158 209.369 371.808 209.831 371.808C210.293 371.808 210.643 372.158 210.643 372.62C210.643 373.082 210.293 373.432 209.831 373.432C209.369 373.432 209.019 373.082 209.019 372.62ZM209.243 382V374.916H210.419V382H209.243ZM213.326 380.18V375.924H211.912V374.916H213.326V372.816H214.502V374.916H216.728V375.924H214.502V380.096C214.502 380.782 214.852 381.076 215.65 381.076C215.972 381.076 216.35 381.034 216.756 380.95V381.93C216.35 382.056 215.93 382.112 215.482 382.112C214.082 382.112 213.326 381.454 213.326 380.18ZM224.643 378.822H218.973C219.099 380.236 220.051 381.104 221.437 381.104C222.347 381.104 223.103 380.74 223.691 379.998L224.489 380.67C223.803 381.636 222.711 382.196 221.409 382.196C219.267 382.196 217.769 380.67 217.769 378.472C217.769 376.302 219.225 374.72 221.311 374.72C223.285 374.72 224.685 376.134 224.685 378.192C224.685 378.402 224.671 378.612 224.643 378.822ZM219.001 377.87H223.481C223.369 376.568 222.543 375.812 221.311 375.812C220.065 375.812 219.211 376.596 219.001 377.87ZM229.11 378.458C229.082 376.456 230.608 374.678 232.75 374.72C234.892 374.678 236.418 376.456 236.39 378.458C236.418 380.46 234.892 382.238 232.75 382.196C230.608 382.238 229.082 380.46 229.11 378.458ZM235.158 378.458C235.158 377.688 234.934 377.044 234.486 376.554C234.052 376.064 233.464 375.812 232.75 375.812C232.036 375.812 231.448 376.064 231 376.554C230.566 377.044 230.342 377.688 230.342 378.458C230.342 379.228 230.566 379.872 231 380.362C231.448 380.852 232.036 381.104 232.75 381.104C233.464 381.104 234.052 380.852 234.486 380.362C234.934 379.872 235.158 379.228 235.158 378.458ZM238.688 382V375.924H237.232V374.916H238.688V373.838C238.688 372.312 239.388 371.626 240.886 371.626C241.236 371.626 241.6 371.668 241.964 371.752V372.746C241.628 372.676 241.32 372.648 241.04 372.648C240.214 372.648 239.864 373.012 239.864 373.866V374.916H241.936V375.924H239.864V382H238.688ZM245.612 380.656L246.466 380.026C246.97 380.754 247.796 381.132 248.762 381.132C249.77 381.132 250.386 380.712 250.386 380.054C250.386 379.55 250.036 379.256 249.14 379.046L248.02 378.794C246.564 378.458 245.864 377.814 245.864 376.82C245.864 375.574 246.928 374.72 248.65 374.72C249.882 374.72 250.876 375.154 251.45 375.924L250.638 376.624C250.176 376.078 249.462 375.784 248.58 375.784C247.572 375.784 247.04 376.162 247.04 376.792C247.04 377.254 247.362 377.52 248.314 377.744L249.56 378.024C250.96 378.346 251.562 378.976 251.562 379.97C251.562 381.314 250.512 382.196 248.776 382.196C247.334 382.196 246.172 381.608 245.612 380.656ZM259.692 378.822H254.022C254.148 380.236 255.1 381.104 256.486 381.104C257.396 381.104 258.152 380.74 258.74 379.998L259.538 380.67C258.852 381.636 257.76 382.196 256.458 382.196C254.316 382.196 252.818 380.67 252.818 378.472C252.818 376.302 254.274 374.72 256.36 374.72C258.334 374.72 259.734 376.134 259.734 378.192C259.734 378.402 259.72 378.612 259.692 378.822ZM254.05 377.87H258.53C258.418 376.568 257.592 375.812 256.36 375.812C255.114 375.812 254.26 376.596 254.05 377.87ZM265.552 374.902V375.938C265.342 375.91 265.146 375.896 264.936 375.896C263.55 375.896 262.752 376.708 262.752 378.374V382H261.576V374.916H262.752V376.246C263.074 375.336 263.858 374.804 264.908 374.804C265.146 374.804 265.37 374.832 265.552 374.902ZM272.075 374.916H273.335L270.451 382H269.191L266.307 374.916H267.567L269.821 380.712L272.075 374.916ZM274.498 372.62C274.498 372.158 274.848 371.808 275.31 371.808C275.772 371.808 276.122 372.158 276.122 372.62C276.122 373.082 275.772 373.432 275.31 373.432C274.848 373.432 274.498 373.082 274.498 372.62ZM274.722 382V374.916H275.898V382H274.722ZM277.783 378.458C277.783 376.302 279.267 374.72 281.423 374.72C282.725 374.72 283.789 375.266 284.391 376.26L283.467 376.904C283.033 376.19 282.319 375.812 281.437 375.812C280.723 375.812 280.135 376.05 279.687 376.54C279.239 377.03 279.015 377.66 279.015 378.458C279.015 379.256 279.239 379.886 279.687 380.376C280.135 380.866 280.723 381.104 281.437 381.104C282.319 381.104 283.033 380.726 283.467 380.012L284.391 380.656C283.789 381.65 282.725 382.196 281.423 382.196C279.267 382.196 277.783 380.614 277.783 378.458ZM292.351 378.822H286.681C286.807 380.236 287.759 381.104 289.145 381.104C290.055 381.104 290.811 380.74 291.399 379.998L292.197 380.67C291.511 381.636 290.419 382.196 289.117 382.196C286.975 382.196 285.477 380.67 285.477 378.472C285.477 376.302 286.933 374.72 289.019 374.72C290.993 374.72 292.393 376.134 292.393 378.192C292.393 378.402 292.379 378.612 292.351 378.822ZM286.709 377.87H291.189C291.077 376.568 290.251 375.812 289.019 375.812C287.773 375.812 286.919 376.596 286.709 377.87ZM293.564 380.656L294.418 380.026C294.922 380.754 295.748 381.132 296.714 381.132C297.722 381.132 298.338 380.712 298.338 380.054C298.338 379.55 297.988 379.256 297.092 379.046L295.972 378.794C294.516 378.458 293.816 377.814 293.816 376.82C293.816 375.574 294.88 374.72 296.602 374.72C297.834 374.72 298.828 375.154 299.402 375.924L298.59 376.624C298.128 376.078 297.414 375.784 296.532 375.784C295.524 375.784 294.992 376.162 294.992 376.792C294.992 377.254 295.314 377.52 296.266 377.744L297.512 378.024C298.912 378.346 299.514 378.976 299.514 379.97C299.514 381.314 298.464 382.196 296.728 382.196C295.286 382.196 294.124 381.608 293.564 380.656ZM311.528 378.458C311.528 380.642 310.1 382.196 308.168 382.196C306.978 382.196 305.97 381.608 305.536 380.698V382H304.36V371.752H305.536V376.218C305.97 375.308 306.978 374.72 308.168 374.72C310.1 374.72 311.528 376.274 311.528 378.458ZM310.296 378.458C310.296 377.688 310.072 377.044 309.624 376.554C309.19 376.064 308.602 375.812 307.888 375.812C307.174 375.812 306.586 376.064 306.138 376.554C305.704 377.044 305.48 377.688 305.48 378.458C305.48 379.228 305.704 379.872 306.138 380.362C306.586 380.852 307.174 381.104 307.888 381.104C308.602 381.104 309.19 380.852 309.624 380.362C310.072 379.872 310.296 379.228 310.296 378.458ZM319.777 378.822H314.107C314.233 380.236 315.185 381.104 316.571 381.104C317.481 381.104 318.237 380.74 318.825 379.998L319.623 380.67C318.937 381.636 317.845 382.196 316.543 382.196C314.401 382.196 312.903 380.67 312.903 378.472C312.903 376.302 314.359 374.72 316.445 374.72C318.419 374.72 319.819 376.134 319.819 378.192C319.819 378.402 319.805 378.612 319.777 378.822ZM314.135 377.87H318.615C318.503 376.568 317.677 375.812 316.445 375.812C315.199 375.812 314.345 376.596 314.135 377.87ZM326.492 374.916H327.668V381.314C327.668 383.708 326.394 384.996 324.21 384.996C323.02 384.996 321.928 384.604 321.27 383.932L321.956 383.092C322.53 383.61 323.342 383.904 324.182 383.904C325.652 383.904 326.492 383.036 326.492 381.314V380.6C326.086 381.496 325.162 382 324 382C322.418 382 321.48 381.034 321.48 379.256V374.916H322.656V378.976C322.656 380.32 323.174 380.908 324.28 380.908C325.568 380.908 326.492 380.11 326.492 378.934V374.916ZM329.549 378.458C329.521 376.456 331.047 374.678 333.189 374.72C335.331 374.678 336.857 376.456 336.829 378.458C336.857 380.46 335.331 382.238 333.189 382.196C331.047 382.238 329.521 380.46 329.549 378.458ZM335.597 378.458C335.597 377.688 335.373 377.044 334.925 376.554C334.491 376.064 333.903 375.812 333.189 375.812C332.475 375.812 331.887 376.064 331.439 376.554C331.005 377.044 330.781 377.688 330.781 378.458C330.781 379.228 331.005 379.872 331.439 380.362C331.887 380.852 332.475 381.104 333.189 381.104C333.903 381.104 334.491 380.852 334.925 380.362C335.373 379.872 335.597 379.228 335.597 378.458ZM344.864 377.464V382H343.688V377.744C343.688 376.4 343.184 375.812 342.064 375.812C340.79 375.812 339.88 376.596 339.88 377.786V382H338.704V374.916H339.88V376.12C340.272 375.224 341.182 374.72 342.344 374.72C343.954 374.72 344.864 375.714 344.864 377.464ZM352.679 371.752H353.855V382H352.679V380.698C352.245 381.608 351.237 382.196 350.047 382.196C348.115 382.196 346.687 380.642 346.687 378.458C346.687 376.274 348.115 374.72 350.047 374.72C351.237 374.72 352.245 375.308 352.679 376.218V371.752ZM352.735 378.458C352.735 377.688 352.511 377.044 352.063 376.554C351.629 376.064 351.041 375.812 350.327 375.812C349.613 375.812 349.025 376.064 348.577 376.554C348.143 377.044 347.919 377.688 347.919 378.458C347.919 379.228 348.143 379.872 348.577 380.362C349.025 380.852 349.613 381.104 350.327 381.104C351.041 381.104 351.629 380.852 352.063 380.362C352.511 379.872 352.735 379.228 352.735 378.458ZM25.778 400.18V395.924H24.364V394.916H25.778V392.816H26.954V394.916H29.18V395.924H26.954V400.096C26.954 400.782 27.304 401.076 28.102 401.076C28.424 401.076 28.802 401.034 29.208 400.95V401.93C28.802 402.056 28.382 402.112 27.934 402.112C26.534 402.112 25.778 401.454 25.778 400.18ZM34.8382 394.902V395.938C34.6282 395.91 34.4322 395.896 34.2222 395.896C32.8362 395.896 32.0382 396.708 32.0382 398.374V402H30.8622V394.916H32.0382V396.246C32.3602 395.336 33.1442 394.804 34.1942 394.804C34.4322 394.804 34.6562 394.832 34.8382 394.902ZM41.5149 394.916H42.6909V402H41.5149V400.698C41.1089 401.608 40.0869 402.196 38.8969 402.196C36.9509 402.196 35.5229 400.642 35.5229 398.458C35.5229 396.274 36.9509 394.72 38.8969 394.72C40.0869 394.72 41.1089 395.308 41.5149 396.218V394.916ZM41.5709 398.458C41.5709 397.688 41.3469 397.044 40.8989 396.554C40.4649 396.064 39.8769 395.812 39.1629 395.812C38.4489 395.812 37.8609 396.064 37.4129 396.554C36.9789 397.044 36.7549 397.688 36.7549 398.458C36.7549 399.228 36.9789 399.872 37.4129 400.362C37.8609 400.852 38.4489 401.104 39.1629 401.104C39.8769 401.104 40.4649 400.852 40.8989 400.362C41.3469 399.872 41.5709 399.228 41.5709 398.458ZM50.5624 391.752H51.7384V402H50.5624V400.698C50.1284 401.608 49.1204 402.196 47.9304 402.196C45.9984 402.196 44.5704 400.642 44.5704 398.458C44.5704 396.274 45.9984 394.72 47.9304 394.72C49.1204 394.72 50.1284 395.308 50.5624 396.218V391.752ZM50.6184 398.458C50.6184 397.688 50.3944 397.044 49.9464 396.554C49.5124 396.064 48.9244 395.812 48.2104 395.812C47.4964 395.812 46.9084 396.064 46.4604 396.554C46.0264 397.044 45.8024 397.688 45.8024 398.458C45.8024 399.228 46.0264 399.872 46.4604 400.362C46.9084 400.852 47.4964 401.104 48.2104 401.104C48.9244 401.104 49.5124 400.852 49.9464 400.362C50.3944 399.872 50.6184 399.228 50.6184 398.458ZM53.9119 392.62C53.9119 392.158 54.2619 391.808 54.7239 391.808C55.1859 391.808 55.5359 392.158 55.5359 392.62C55.5359 393.082 55.1859 393.432 54.7239 393.432C54.2619 393.432 53.9119 393.082 53.9119 392.62ZM54.1359 402V394.916H55.3119V402H54.1359ZM58.2186 400.18V395.924H56.8046V394.916H58.2186V392.816H59.3946V394.916H61.6206V395.924H59.3946V400.096C59.3946 400.782 59.7446 401.076 60.5426 401.076C60.8646 401.076 61.2426 401.034 61.6486 400.95V401.93C61.2426 402.056 60.8226 402.112 60.3746 402.112C58.9746 402.112 58.2186 401.454 58.2186 400.18ZM63.0928 392.62C63.0928 392.158 63.4428 391.808 63.9048 391.808C64.3668 391.808 64.7168 392.158 64.7168 392.62C64.7168 393.082 64.3668 393.432 63.9048 393.432C63.4428 393.432 63.0928 393.082 63.0928 392.62ZM63.3168 402V394.916H64.4928V402H63.3168ZM66.3776 398.458C66.3496 396.456 67.8756 394.678 70.0176 394.72C72.1596 394.678 73.6856 396.456 73.6576 398.458C73.6856 400.46 72.1596 402.238 70.0176 402.196C67.8756 402.238 66.3496 400.46 66.3776 398.458ZM72.4256 398.458C72.4256 397.688 72.2016 397.044 71.7536 396.554C71.3196 396.064 70.7316 395.812 70.0176 395.812C69.3036 395.812 68.7156 396.064 68.2676 396.554C67.8336 397.044 67.6096 397.688 67.6096 398.458C67.6096 399.228 67.8336 399.872 68.2676 400.362C68.7156 400.852 69.3036 401.104 70.0176 401.104C70.7316 401.104 71.3196 400.852 71.7536 400.362C72.2016 399.872 72.4256 399.228 72.4256 398.458ZM81.6926 397.464V402H80.5166V397.744C80.5166 396.4 80.0126 395.812 78.8926 395.812C77.6186 395.812 76.7086 396.596 76.7086 397.786V402H75.5326V394.916H76.7086V396.12C77.1006 395.224 78.0106 394.72 79.1726 394.72C80.7826 394.72 81.6926 395.714 81.6926 397.464ZM89.5075 394.916H90.6835V402H89.5075V400.698C89.1015 401.608 88.0795 402.196 86.8895 402.196C84.9435 402.196 83.5155 400.642 83.5155 398.458C83.5155 396.274 84.9435 394.72 86.8895 394.72C88.0795 394.72 89.1015 395.308 89.5075 396.218V394.916ZM89.5635 398.458C89.5635 397.688 89.3395 397.044 88.8915 396.554C88.4575 396.064 87.8695 395.812 87.1555 395.812C86.4415 395.812 85.8535 396.064 85.4055 396.554C84.9715 397.044 84.7475 397.688 84.7475 398.458C84.7475 399.228 84.9715 399.872 85.4055 400.362C85.8535 400.852 86.4415 401.104 87.1555 401.104C87.8695 401.104 88.4575 400.852 88.8915 400.362C89.3395 399.872 89.5635 399.228 89.5635 398.458ZM93.067 402V391.752H94.243V402H93.067ZM106.873 398.458C106.873 400.642 105.445 402.196 103.513 402.196C102.323 402.196 101.315 401.608 100.881 400.698V402H99.705V391.752H100.881V396.218C101.315 395.308 102.323 394.72 103.513 394.72C105.445 394.72 106.873 396.274 106.873 398.458ZM105.641 398.458C105.641 397.688 105.417 397.044 104.969 396.554C104.535 396.064 103.947 395.812 103.233 395.812C102.519 395.812 101.931 396.064 101.483 396.554C101.049 397.044 100.825 397.688 100.825 398.458C100.825 399.228 101.049 399.872 101.483 400.362C101.931 400.852 102.519 401.104 103.233 401.104C103.947 401.104 104.535 400.852 104.969 400.362C105.417 399.872 105.641 399.228 105.641 398.458ZM114.241 394.916H115.417V402H114.241V400.698C113.835 401.608 112.813 402.196 111.623 402.196C109.677 402.196 108.249 400.642 108.249 398.458C108.249 396.274 109.677 394.72 111.623 394.72C112.813 394.72 113.835 395.308 114.241 396.218V394.916ZM114.297 398.458C114.297 397.688 114.073 397.044 113.625 396.554C113.191 396.064 112.603 395.812 111.889 395.812C111.175 395.812 110.587 396.064 110.139 396.554C109.705 397.044 109.481 397.688 109.481 398.458C109.481 399.228 109.705 399.872 110.139 400.362C110.587 400.852 111.175 401.104 111.889 401.104C112.603 401.104 113.191 400.852 113.625 400.362C114.073 399.872 114.297 399.228 114.297 398.458ZM123.96 397.464V402H122.784V397.744C122.784 396.4 122.28 395.812 121.16 395.812C119.886 395.812 118.976 396.596 118.976 397.786V402H117.8V394.916H118.976V396.12C119.368 395.224 120.278 394.72 121.44 394.72C123.05 394.72 123.96 395.714 123.96 397.464ZM131.159 402L128.597 398.794H127.463V402H126.287V391.752H127.463V397.758H128.639L131.103 394.916H132.475L129.563 398.276L132.531 402H131.159ZM133.662 392.62C133.662 392.158 134.012 391.808 134.474 391.808C134.936 391.808 135.286 392.158 135.286 392.62C135.286 393.082 134.936 393.432 134.474 393.432C134.012 393.432 133.662 393.082 133.662 392.62ZM133.886 402V394.916H135.062V402H133.886ZM143.61 397.464V402H142.434V397.744C142.434 396.4 141.93 395.812 140.81 395.812C139.536 395.812 138.626 396.596 138.626 397.786V402H137.45V394.916H138.626V396.12C139.018 395.224 139.928 394.72 141.09 394.72C142.7 394.72 143.61 395.714 143.61 397.464ZM151.425 394.916H152.601V401.188C152.601 403.652 151.271 404.996 148.919 404.996C147.589 404.996 146.427 404.562 145.699 403.82L146.371 402.952C147.029 403.554 147.925 403.904 148.919 403.904C150.543 403.904 151.425 402.98 151.425 401.188V400.544C151.019 401.44 150.025 402 148.807 402C146.861 402 145.433 400.502 145.433 398.36C145.433 396.218 146.861 394.72 148.807 394.72C149.997 394.72 151.019 395.294 151.425 396.204V394.916ZM151.481 398.36C151.481 397.618 151.257 397.002 150.809 396.526C150.375 396.05 149.787 395.812 149.073 395.812C148.359 395.812 147.771 396.05 147.323 396.526C146.889 397.002 146.665 397.618 146.665 398.36C146.665 399.102 146.889 399.718 147.323 400.194C147.771 400.67 148.359 400.908 149.073 400.908C149.787 400.908 150.375 400.67 150.809 400.194C151.257 399.718 151.481 399.102 151.481 398.36ZM166.825 394.916H168.015L165.691 402H164.403L162.499 396.26L160.595 402H159.307L156.983 394.916H158.173L159.979 400.558L161.855 394.916H163.143L165.019 400.558L166.825 394.916ZM169.233 392.62C169.233 392.158 169.583 391.808 170.045 391.808C170.507 391.808 170.857 392.158 170.857 392.62C170.857 393.082 170.507 393.432 170.045 393.432C169.583 393.432 169.233 393.082 169.233 392.62ZM169.457 402V394.916H170.633V402H169.457ZM173.54 400.18V395.924H172.126V394.916H173.54V392.816H174.716V394.916H176.942V395.924H174.716V400.096C174.716 400.782 175.066 401.076 175.864 401.076C176.186 401.076 176.564 401.034 176.97 400.95V401.93C176.564 402.056 176.144 402.112 175.696 402.112C174.296 402.112 173.54 401.454 173.54 400.18ZM184.784 397.464V402H183.608V397.744C183.608 396.4 183.104 395.812 181.984 395.812C180.71 395.812 179.8 396.596 179.8 397.786V402H178.624V391.752H179.8V396.12C180.192 395.224 181.102 394.72 182.264 394.72C183.874 394.72 184.784 395.714 184.784 397.464ZM196.47 402L193.222 398.108H191.626V402H190.394V392.2H194.454C196.512 392.2 197.73 393.334 197.73 395.182C197.73 396.932 196.61 398.01 194.692 398.108L197.954 402H196.47ZM191.626 393.334V397.002H194.356C195.826 397.002 196.442 396.428 196.442 395.182C196.442 393.936 195.812 393.334 194.356 393.334H191.626ZM199.529 399.354V394.916H200.705V399.284C200.705 400.46 201.391 401.104 202.581 401.104C203.771 401.104 204.457 400.46 204.457 399.284V394.916H205.633V399.354C205.633 401.034 204.415 402.196 202.581 402.196C200.747 402.196 199.529 401.034 199.529 399.354ZM215.037 398.458C215.037 400.642 213.609 402.196 211.677 402.196C210.487 402.196 209.479 401.608 209.045 400.698V402H207.869V391.752H209.045V396.218C209.479 395.308 210.487 394.72 211.677 394.72C213.609 394.72 215.037 396.274 215.037 398.458ZM213.805 398.458C213.805 397.688 213.581 397.044 213.133 396.554C212.699 396.064 212.111 395.812 211.397 395.812C210.683 395.812 210.095 396.064 209.647 396.554C209.213 397.044 208.989 397.688 208.989 398.458C208.989 399.228 209.213 399.872 209.647 400.362C210.095 400.852 210.683 401.104 211.397 401.104C212.111 401.104 212.699 400.852 213.133 400.362C213.581 399.872 213.805 399.228 213.805 398.458ZM216.706 392.62C216.706 392.158 217.056 391.808 217.518 391.808C217.98 391.808 218.33 392.158 218.33 392.62C218.33 393.082 217.98 393.432 217.518 393.432C217.056 393.432 216.706 393.082 216.706 392.62ZM216.93 402V394.916H218.106V402H216.93ZM226.865 398.822H221.195C221.321 400.236 222.273 401.104 223.659 401.104C224.569 401.104 225.325 400.74 225.913 399.998L226.711 400.67C226.025 401.636 224.933 402.196 223.631 402.196C221.489 402.196 219.991 400.67 219.991 398.472C219.991 396.302 221.447 394.72 223.533 394.72C225.507 394.72 226.907 396.134 226.907 398.192C226.907 398.402 226.893 398.612 226.865 398.822ZM221.223 397.87H225.703C225.591 396.568 224.765 395.812 223.533 395.812C222.287 395.812 221.433 396.596 221.223 397.87ZM228.077 400.656L228.931 400.026C229.435 400.754 230.261 401.132 231.227 401.132C232.235 401.132 232.851 400.712 232.851 400.054C232.851 399.55 232.501 399.256 231.605 399.046L230.485 398.794C229.029 398.458 228.329 397.814 228.329 396.82C228.329 395.574 229.393 394.72 231.115 394.72C232.347 394.72 233.341 395.154 233.915 395.924L233.103 396.624C232.641 396.078 231.927 395.784 231.045 395.784C230.037 395.784 229.505 396.162 229.505 396.792C229.505 397.254 229.827 397.52 230.779 397.744L232.025 398.024C233.425 398.346 234.027 398.976 234.027 399.97C234.027 401.314 232.977 402.196 231.241 402.196C229.799 402.196 228.637 401.608 228.077 400.656ZM238.51 397.1C238.468 394.3 240.624 391.962 243.522 392.004C246.42 391.962 248.576 394.3 248.534 397.1C248.576 399.9 246.42 402.238 243.522 402.196C240.624 402.238 238.468 399.9 238.51 397.1ZM247.246 397.1C247.246 394.846 245.72 393.152 243.522 393.152C241.324 393.152 239.798 394.846 239.798 397.1C239.798 399.354 241.324 401.048 243.522 401.048C245.72 401.048 247.246 399.354 247.246 397.1ZM256.706 397.464V402H255.53V397.744C255.53 396.4 255.026 395.812 253.906 395.812C252.632 395.812 251.722 396.596 251.722 397.786V402H250.546V394.916H251.722V396.12C252.114 395.224 253.024 394.72 254.186 394.72C255.796 394.72 256.706 395.714 256.706 397.464ZM259.033 402V391.752H260.209V402H259.033ZM262.375 392.62C262.375 392.158 262.725 391.808 263.187 391.808C263.649 391.808 263.999 392.158 263.999 392.62C263.999 393.082 263.649 393.432 263.187 393.432C262.725 393.432 262.375 393.082 262.375 392.62ZM262.599 402V394.916H263.775V402H262.599ZM272.323 397.464V402H271.147V397.744C271.147 396.4 270.643 395.812 269.523 395.812C268.249 395.812 267.339 396.596 267.339 397.786V402H266.163V394.916H267.339V396.12C267.731 395.224 268.641 394.72 269.803 394.72C271.413 394.72 272.323 395.714 272.323 397.464ZM281.02 398.822H275.35C275.476 400.236 276.428 401.104 277.814 401.104C278.724 401.104 279.48 400.74 280.068 399.998L280.866 400.67C280.18 401.636 279.088 402.196 277.786 402.196C275.644 402.196 274.146 400.67 274.146 398.472C274.146 396.302 275.602 394.72 277.688 394.72C279.662 394.72 281.062 396.134 281.062 398.192C281.062 398.402 281.048 398.612 281.02 398.822ZM275.378 397.87H279.858C279.746 396.568 278.92 395.812 277.688 395.812C276.442 395.812 275.588 396.596 275.378 397.87ZM282.138 404.086L282.81 400.306H284.042L283.062 404.086H282.138ZM293.922 394.916H295.098V401.314C295.098 403.708 293.824 404.996 291.64 404.996C290.45 404.996 289.358 404.604 288.7 403.932L289.386 403.092C289.96 403.61 290.772 403.904 291.612 403.904C293.082 403.904 293.922 403.036 293.922 401.314V400.6C293.516 401.496 292.592 402 291.43 402C289.848 402 288.91 401.034 288.91 399.256V394.916H290.086V398.976C290.086 400.32 290.604 400.908 291.71 400.908C292.998 400.908 293.922 400.11 293.922 398.934V394.916ZM296.979 398.458C296.951 396.456 298.477 394.678 300.619 394.72C302.761 394.678 304.287 396.456 304.259 398.458C304.287 400.46 302.761 402.238 300.619 402.196C298.477 402.238 296.951 400.46 296.979 398.458ZM303.027 398.458C303.027 397.688 302.803 397.044 302.355 396.554C301.921 396.064 301.333 395.812 300.619 395.812C299.905 395.812 299.317 396.064 298.869 396.554C298.435 397.044 298.211 397.688 298.211 398.458C298.211 399.228 298.435 399.872 298.869 400.362C299.317 400.852 299.905 401.104 300.619 401.104C301.333 401.104 301.921 400.852 302.355 400.362C302.803 399.872 303.027 399.228 303.027 398.458ZM305.994 399.354V394.916H307.17V399.284C307.17 400.46 307.856 401.104 309.046 401.104C310.236 401.104 310.922 400.46 310.922 399.284V394.916H312.098V399.354C312.098 401.034 310.88 402.196 309.046 402.196C307.212 402.196 305.994 401.034 305.994 399.354ZM318.31 394.902V395.938C318.1 395.91 317.904 395.896 317.694 395.896C316.308 395.896 315.51 396.708 315.51 398.374V402H314.334V394.916H315.51V396.246C315.832 395.336 316.616 394.804 317.666 394.804C317.904 394.804 318.128 394.832 318.31 394.902ZM25.82 422V415.924H24.364V414.916H25.82V413.838C25.82 412.312 26.52 411.626 28.018 411.626C28.368 411.626 28.732 411.668 29.096 411.752V412.746C28.76 412.676 28.452 412.648 28.172 412.648C27.346 412.648 26.996 413.012 26.996 413.866V414.916H29.068V415.924H26.996V422H25.82ZM34.4417 414.902V415.938C34.2317 415.91 34.0357 415.896 33.8257 415.896C32.4397 415.896 31.6417 416.708 31.6417 418.374V422H30.4657V414.916H31.6417V416.246C31.9637 415.336 32.7477 414.804 33.7977 414.804C34.0357 414.804 34.2597 414.832 34.4417 414.902ZM35.7759 412.62C35.7759 412.158 36.1259 411.808 36.5879 411.808C37.0499 411.808 37.3999 412.158 37.3999 412.62C37.3999 413.082 37.0499 413.432 36.5879 413.432C36.1259 413.432 35.7759 413.082 35.7759 412.62ZM35.9999 422V414.916H37.1759V422H35.9999ZM45.9346 418.822H40.2646C40.3906 420.236 41.3426 421.104 42.7286 421.104C43.6386 421.104 44.3946 420.74 44.9826 419.998L45.7806 420.67C45.0946 421.636 44.0026 422.196 42.7006 422.196C40.5586 422.196 39.0606 420.67 39.0606 418.472C39.0606 416.302 40.5166 414.72 42.6026 414.72C44.5766 414.72 45.9766 416.134 45.9766 418.192C45.9766 418.402 45.9626 418.612 45.9346 418.822ZM40.2926 417.87H44.7726C44.6606 416.568 43.8346 415.812 42.6026 415.812C41.3566 415.812 40.5026 416.596 40.2926 417.87ZM53.9791 417.464V422H52.8031V417.744C52.8031 416.4 52.2991 415.812 51.1791 415.812C49.9051 415.812 48.9951 416.596 48.9951 417.786V422H47.8191V414.916H48.9951V416.12C49.3871 415.224 50.2971 414.72 51.4591 414.72C53.0691 414.72 53.9791 415.714 53.9791 417.464ZM61.7941 411.752H62.9701V422H61.7941V420.698C61.3601 421.608 60.3521 422.196 59.1621 422.196C57.2301 422.196 55.8021 420.642 55.8021 418.458C55.8021 416.274 57.2301 414.72 59.1621 414.72C60.3521 414.72 61.3601 415.308 61.7941 416.218V411.752ZM61.8501 418.458C61.8501 417.688 61.6261 417.044 61.1781 416.554C60.7441 416.064 60.1561 415.812 59.4421 415.812C58.7281 415.812 58.1401 416.064 57.6921 416.554C57.2581 417.044 57.0341 417.688 57.0341 418.458C57.0341 419.228 57.2581 419.872 57.6921 420.362C58.1401 420.852 58.7281 421.104 59.4421 421.104C60.1561 421.104 60.7441 420.852 61.1781 420.362C61.6261 419.872 61.8501 419.228 61.8501 418.458ZM65.3536 422V411.752H66.5296V422H65.3536ZM73.735 414.916H74.911V421.314C74.911 423.708 73.637 424.996 71.453 424.996C70.263 424.996 69.171 424.604 68.513 423.932L69.199 423.092C69.773 423.61 70.585 423.904 71.425 423.904C72.895 423.904 73.735 423.036 73.735 421.314V420.6C73.329 421.496 72.405 422 71.243 422C69.661 422 68.723 421.034 68.723 419.256V414.916H69.899V418.976C69.899 420.32 70.417 420.908 71.523 420.908C72.811 420.908 73.735 420.11 73.735 418.934V414.916ZM87.5508 418.458C87.5508 420.642 86.1228 422.196 84.1908 422.196C83.0008 422.196 81.9928 421.608 81.5588 420.698V422H80.3828V411.752H81.5588V416.218C81.9928 415.308 83.0008 414.72 84.1908 414.72C86.1228 414.72 87.5508 416.274 87.5508 418.458ZM86.3188 418.458C86.3188 417.688 86.0948 417.044 85.6468 416.554C85.2128 416.064 84.6248 415.812 83.9108 415.812C83.1968 415.812 82.6088 416.064 82.1608 416.554C81.7268 417.044 81.5028 417.688 81.5028 418.458C81.5028 419.228 81.7268 419.872 82.1608 420.362C82.6088 420.852 83.1968 421.104 83.9108 421.104C84.6248 421.104 85.2128 420.852 85.6468 420.362C86.0948 419.872 86.3188 419.228 86.3188 418.458ZM89.2903 419.354V414.916H90.4663V419.284C90.4663 420.46 91.1523 421.104 92.3423 421.104C93.5323 421.104 94.2183 420.46 94.2183 419.284V414.916H95.3943V419.354C95.3943 421.034 94.1763 422.196 92.3423 422.196C90.5083 422.196 89.2903 421.034 89.2903 419.354ZM96.9582 420.656L97.8122 420.026C98.3162 420.754 99.1422 421.132 100.108 421.132C101.116 421.132 101.732 420.712 101.732 420.054C101.732 419.55 101.382 419.256 100.486 419.046L99.3662 418.794C97.9102 418.458 97.2102 417.814 97.2102 416.82C97.2102 415.574 98.2742 414.72 99.9962 414.72C101.228 414.72 102.222 415.154 102.796 415.924L101.984 416.624C101.522 416.078 100.808 415.784 99.9262 415.784C98.9182 415.784 98.3862 416.162 98.3862 416.792C98.3862 417.254 98.7082 417.52 99.6602 417.744L100.906 418.024C102.306 418.346 102.908 418.976 102.908 419.97C102.908 421.314 101.858 422.196 100.122 422.196C98.6802 422.196 97.5182 421.608 96.9582 420.656ZM104.458 412.62C104.458 412.158 104.808 411.808 105.27 411.808C105.732 411.808 106.082 412.158 106.082 412.62C106.082 413.082 105.732 413.432 105.27 413.432C104.808 413.432 104.458 413.082 104.458 412.62ZM104.682 422V414.916H105.858V422H104.682ZM114.407 417.464V422H113.231V417.744C113.231 416.4 112.727 415.812 111.607 415.812C110.333 415.812 109.423 416.596 109.423 417.786V422H108.247V414.916H109.423V416.12C109.815 415.224 110.725 414.72 111.887 414.72C113.497 414.72 114.407 415.714 114.407 417.464ZM123.104 418.822H117.434C117.56 420.236 118.512 421.104 119.898 421.104C120.808 421.104 121.564 420.74 122.152 419.998L122.95 420.67C122.264 421.636 121.172 422.196 119.87 422.196C117.728 422.196 116.23 420.67 116.23 418.472C116.23 416.302 117.686 414.72 119.772 414.72C121.746 414.72 123.146 416.134 123.146 418.192C123.146 418.402 123.132 418.612 123.104 418.822ZM117.462 417.87H121.942C121.83 416.568 121.004 415.812 119.772 415.812C118.526 415.812 117.672 416.596 117.462 417.87ZM124.316 420.656L125.17 420.026C125.674 420.754 126.5 421.132 127.466 421.132C128.474 421.132 129.09 420.712 129.09 420.054C129.09 419.55 128.74 419.256 127.844 419.046L126.724 418.794C125.268 418.458 124.568 417.814 124.568 416.82C124.568 415.574 125.632 414.72 127.354 414.72C128.586 414.72 129.58 415.154 130.154 415.924L129.342 416.624C128.88 416.078 128.166 415.784 127.284 415.784C126.276 415.784 125.744 416.162 125.744 416.792C125.744 417.254 126.066 417.52 127.018 417.744L128.264 418.024C129.664 418.346 130.266 418.976 130.266 419.97C130.266 421.314 129.216 422.196 127.48 422.196C126.038 422.196 124.876 421.608 124.316 420.656ZM131.34 420.656L132.194 420.026C132.698 420.754 133.524 421.132 134.49 421.132C135.498 421.132 136.114 420.712 136.114 420.054C136.114 419.55 135.764 419.256 134.868 419.046L133.748 418.794C132.292 418.458 131.592 417.814 131.592 416.82C131.592 415.574 132.656 414.72 134.378 414.72C135.61 414.72 136.604 415.154 137.178 415.924L136.366 416.624C135.904 416.078 135.19 415.784 134.308 415.784C133.3 415.784 132.768 416.162 132.768 416.792C132.768 417.254 133.09 417.52 134.042 417.744L135.288 418.024C136.688 418.346 137.29 418.976 137.29 419.97C137.29 421.314 136.24 422.196 134.504 422.196C133.062 422.196 131.9 421.608 131.34 420.656ZM141.632 418.458C141.604 416.456 143.13 414.678 145.272 414.72C147.414 414.678 148.94 416.456 148.912 418.458C148.94 420.46 147.414 422.238 145.272 422.196C143.13 422.238 141.604 420.46 141.632 418.458ZM147.68 418.458C147.68 417.688 147.456 417.044 147.008 416.554C146.574 416.064 145.986 415.812 145.272 415.812C144.558 415.812 143.97 416.064 143.522 416.554C143.088 417.044 142.864 417.688 142.864 418.458C142.864 419.228 143.088 419.872 143.522 420.362C143.97 420.852 144.558 421.104 145.272 421.104C145.986 421.104 146.574 420.852 147.008 420.362C147.456 419.872 147.68 419.228 147.68 418.458ZM156.947 417.464V422H155.771V417.744C155.771 416.4 155.267 415.812 154.147 415.812C152.873 415.812 151.963 416.596 151.963 417.786V422H150.787V414.916H151.963V416.12C152.355 415.224 153.265 414.72 154.427 414.72C156.037 414.72 156.947 415.714 156.947 417.464ZM159.274 422V411.752H160.45V422H159.274ZM162.616 412.62C162.616 412.158 162.966 411.808 163.428 411.808C163.89 411.808 164.24 412.158 164.24 412.62C164.24 413.082 163.89 413.432 163.428 413.432C162.966 413.432 162.616 413.082 162.616 412.62ZM162.84 422V414.916H164.016V422H162.84ZM172.565 417.464V422H171.389V417.744C171.389 416.4 170.885 415.812 169.765 415.812C168.491 415.812 167.581 416.596 167.581 417.786V422H166.405V414.916H167.581V416.12C167.973 415.224 168.883 414.72 170.045 414.72C171.655 414.72 172.565 415.714 172.565 417.464ZM181.262 418.822H175.592C175.718 420.236 176.67 421.104 178.056 421.104C178.966 421.104 179.722 420.74 180.31 419.998L181.108 420.67C180.422 421.636 179.33 422.196 178.028 422.196C175.886 422.196 174.388 420.67 174.388 418.472C174.388 416.302 175.844 414.72 177.93 414.72C179.904 414.72 181.304 416.134 181.304 418.192C181.304 418.402 181.29 418.612 181.262 418.822ZM175.62 417.87H180.1C179.988 416.568 179.162 415.812 177.93 415.812C176.684 415.812 175.83 416.596 175.62 417.87ZM193.401 418.458C193.401 420.642 191.973 422.196 190.041 422.196C188.851 422.196 187.843 421.608 187.409 420.698V422H186.233V411.752H187.409V416.218C187.843 415.308 188.851 414.72 190.041 414.72C191.973 414.72 193.401 416.274 193.401 418.458ZM192.169 418.458C192.169 417.688 191.945 417.044 191.497 416.554C191.063 416.064 190.475 415.812 189.761 415.812C189.047 415.812 188.459 416.064 188.011 416.554C187.577 417.044 187.353 417.688 187.353 418.458C187.353 419.228 187.577 419.872 188.011 420.362C188.459 420.852 189.047 421.104 189.761 421.104C190.475 421.104 191.063 420.852 191.497 420.362C191.945 419.872 192.169 419.228 192.169 418.458ZM200.768 414.916H201.944V422H200.768V420.698C200.362 421.608 199.34 422.196 198.15 422.196C196.204 422.196 194.776 420.642 194.776 418.458C194.776 416.274 196.204 414.72 198.15 414.72C199.34 414.72 200.362 415.308 200.768 416.218V414.916ZM200.824 418.458C200.824 417.688 200.6 417.044 200.152 416.554C199.718 416.064 199.13 415.812 198.416 415.812C197.702 415.812 197.114 416.064 196.666 416.554C196.232 417.044 196.008 417.688 196.008 418.458C196.008 419.228 196.232 419.872 196.666 420.362C197.114 420.852 197.702 421.104 198.416 421.104C199.13 421.104 199.718 420.852 200.152 420.362C200.6 419.872 200.824 419.228 200.824 418.458ZM210.488 417.464V422H209.312V417.744C209.312 416.4 208.808 415.812 207.688 415.812C206.414 415.812 205.504 416.596 205.504 417.786V422H204.328V414.916H205.504V416.12C205.896 415.224 206.806 414.72 207.968 414.72C209.578 414.72 210.488 415.714 210.488 417.464ZM217.687 422L215.125 418.794H213.991V422H212.815V411.752H213.991V417.758H215.167L217.631 414.916H219.003L216.091 418.276L219.059 422H217.687ZM220.189 412.62C220.189 412.158 220.539 411.808 221.001 411.808C221.463 411.808 221.813 412.158 221.813 412.62C221.813 413.082 221.463 413.432 221.001 413.432C220.539 413.432 220.189 413.082 220.189 412.62ZM220.413 422V414.916H221.589V422H220.413ZM230.138 417.464V422H228.962V417.744C228.962 416.4 228.458 415.812 227.338 415.812C226.064 415.812 225.154 416.596 225.154 417.786V422H223.978V414.916H225.154V416.12C225.546 415.224 226.456 414.72 227.618 414.72C229.228 414.72 230.138 415.714 230.138 417.464ZM237.953 414.916H239.129V421.188C239.129 423.652 237.799 424.996 235.447 424.996C234.117 424.996 232.955 424.562 232.227 423.82L232.899 422.952C233.557 423.554 234.453 423.904 235.447 423.904C237.071 423.904 237.953 422.98 237.953 421.188V420.544C237.547 421.44 236.553 422 235.335 422C233.389 422 231.961 420.502 231.961 418.36C231.961 416.218 233.389 414.72 235.335 414.72C236.525 414.72 237.547 415.294 237.953 416.204V414.916ZM238.009 418.36C238.009 417.618 237.785 417.002 237.337 416.526C236.903 416.05 236.315 415.812 235.601 415.812C234.887 415.812 234.299 416.05 233.851 416.526C233.417 417.002 233.193 417.618 233.193 418.36C233.193 419.102 233.417 419.718 233.851 420.194C234.299 420.67 234.887 420.908 235.601 420.908C236.315 420.908 236.903 420.67 237.337 420.194C237.785 419.718 238.009 419.102 238.009 418.36ZM251.767 418.458C251.767 420.642 250.339 422.196 248.407 422.196C247.217 422.196 246.209 421.608 245.775 420.698V424.8H244.599V414.916H245.775V416.218C246.209 415.308 247.217 414.72 248.407 414.72C250.339 414.72 251.767 416.274 251.767 418.458ZM250.535 418.458C250.535 417.688 250.311 417.044 249.863 416.554C249.429 416.064 248.841 415.812 248.127 415.812C247.413 415.812 246.825 416.064 246.377 416.554C245.943 417.044 245.719 417.688 245.719 418.458C245.719 419.228 245.943 419.872 246.377 420.362C246.825 420.852 247.413 421.104 248.127 421.104C248.841 421.104 249.429 420.852 249.863 420.362C250.311 419.872 250.535 419.228 250.535 418.458ZM253.646 422V411.752H254.822V422H253.646ZM262.686 414.916H263.862V422H262.686V420.698C262.28 421.608 261.258 422.196 260.068 422.196C258.122 422.196 256.694 420.642 256.694 418.458C256.694 416.274 258.122 414.72 260.068 414.72C261.258 414.72 262.28 415.308 262.686 416.218V414.916ZM262.742 418.458C262.742 417.688 262.518 417.044 262.07 416.554C261.636 416.064 261.048 415.812 260.334 415.812C259.62 415.812 259.032 416.064 258.584 416.554C258.15 417.044 257.926 417.688 257.926 418.458C257.926 419.228 258.15 419.872 258.584 420.362C259.032 420.852 259.62 421.104 260.334 421.104C261.048 421.104 261.636 420.852 262.07 420.362C262.518 419.872 262.742 419.228 262.742 418.458ZM266.763 420.18V415.924H265.349V414.916H266.763V412.816H267.939V414.916H270.165V415.924H267.939V420.096C267.939 420.782 268.289 421.076 269.087 421.076C269.409 421.076 269.787 421.034 270.193 420.95V421.93C269.787 422.056 269.367 422.112 268.919 422.112C267.519 422.112 266.763 421.454 266.763 420.18ZM272.435 422V415.924H270.979V414.916H272.435V413.838C272.435 412.312 273.135 411.626 274.633 411.626C274.983 411.626 275.347 411.668 275.711 411.752V412.746C275.375 412.676 275.067 412.648 274.787 412.648C273.961 412.648 273.611 413.012 273.611 413.866V414.916H275.683V415.924H273.611V422H272.435ZM276.358 418.458C276.33 416.456 277.856 414.678 279.998 414.72C282.14 414.678 283.666 416.456 283.638 418.458C283.666 420.46 282.14 422.238 279.998 422.196C277.856 422.238 276.33 420.46 276.358 418.458ZM282.406 418.458C282.406 417.688 282.182 417.044 281.734 416.554C281.3 416.064 280.712 415.812 279.998 415.812C279.284 415.812 278.696 416.064 278.248 416.554C277.814 417.044 277.59 417.688 277.59 418.458C277.59 419.228 277.814 419.872 278.248 420.362C278.696 420.852 279.284 421.104 279.998 421.104C280.712 421.104 281.3 420.852 281.734 420.362C282.182 419.872 282.406 419.228 282.406 418.458ZM289.489 414.902V415.938C289.279 415.91 289.083 415.896 288.873 415.896C287.487 415.896 286.689 416.708 286.689 418.374V422H285.513V414.916H286.689V416.246C287.011 415.336 287.795 414.804 288.845 414.804C289.083 414.804 289.307 414.832 289.489 414.902ZM301.673 417.436V422H300.497V417.716C300.497 416.386 300.049 415.812 298.999 415.812C297.781 415.812 296.941 416.596 296.941 417.786V422H295.765V417.716C295.765 416.386 295.317 415.812 294.267 415.812C293.049 415.812 292.209 416.596 292.209 417.786V422H291.033V414.916H292.209V416.106C292.601 415.224 293.469 414.72 294.547 414.72C295.625 414.72 296.409 415.238 296.745 416.19C297.123 415.294 298.061 414.72 299.251 414.72C300.819 414.72 301.673 415.7 301.673 417.436ZM303.641 421.258C303.641 420.768 303.977 420.432 304.481 420.432C304.985 420.432 305.321 420.768 305.321 421.258C305.321 421.762 304.985 422.112 304.481 422.112C303.977 422.112 303.641 421.762 303.641 421.258Z" fill="#2F2B43" fill-opacity="0.6"/>
<path d="M188.5 68V190" stroke="#DFE1E7"/>
<rect x="146" y="49.5" width="83" height="23" rx="11.5" fill="#F7F8F8"/>
<rect x="146" y="49.5" width="83" height="23" rx="11.5" stroke="#DFE1E7"/>
<path d="M166.833 67.6663H156.167C155.99 67.6663 155.82 67.5961 155.695 67.4711C155.57 67.3461 155.5 67.1765 155.5 66.9997V54.9997C155.5 54.8229 155.57 54.6533 155.695 54.5283C155.82 54.4032 155.99 54.333 156.167 54.333H166.833C167.01 54.333 167.18 54.4032 167.305 54.5283C167.43 54.6533 167.5 54.8229 167.5 54.9997V66.9997C167.5 67.1765 167.43 67.3461 167.305 67.4711C167.18 67.5961 167.01 67.6663 166.833 67.6663ZM158.833 58.9997V60.333H164.167V58.9997H158.833ZM158.833 61.6663V62.9997H164.167V61.6663H158.833Z" fill="#0A0D14"/>
<path d="M174.696 64V57H175.576V64H174.696ZM181.874 60.76V64H181.034V60.96C181.034 60 180.674 59.58 179.874 59.58C178.964 59.58 178.314 60.14 178.314 60.99V64H177.474V58.94H178.314V59.8C178.594 59.16 179.244 58.8 180.074 58.8C181.224 58.8 181.874 59.51 181.874 60.76ZM186.858 58.94H187.758L185.698 64H184.798L182.738 58.94H183.638L185.248 63.08L186.858 58.94ZM188.273 61.47C188.253 60.04 189.343 58.77 190.873 58.8C192.403 58.77 193.493 60.04 193.473 61.47C193.493 62.9 192.403 64.17 190.873 64.14C189.343 64.17 188.253 62.9 188.273 61.47ZM192.593 61.47C192.593 60.92 192.433 60.46 192.113 60.11C191.803 59.76 191.383 59.58 190.873 59.58C190.363 59.58 189.943 59.76 189.623 60.11C189.313 60.46 189.153 60.92 189.153 61.47C189.153 62.02 189.313 62.48 189.623 62.83C189.943 63.18 190.363 63.36 190.873 63.36C191.383 63.36 191.803 63.18 192.113 62.83C192.433 62.48 192.593 62.02 192.593 61.47ZM194.702 57.3C194.702 56.97 194.952 56.72 195.282 56.72C195.612 56.72 195.862 56.97 195.862 57.3C195.862 57.63 195.612 57.88 195.282 57.88C194.952 57.88 194.702 57.63 194.702 57.3ZM194.862 64V58.94H195.702V64H194.862ZM197.088 61.47C197.088 59.93 198.148 58.8 199.688 58.8C200.618 58.8 201.378 59.19 201.808 59.9L201.148 60.36C200.838 59.85 200.328 59.58 199.698 59.58C199.188 59.58 198.768 59.75 198.448 60.1C198.128 60.45 197.968 60.9 197.968 61.47C197.968 62.04 198.128 62.49 198.448 62.84C198.768 63.19 199.188 63.36 199.698 63.36C200.328 63.36 200.838 63.09 201.148 62.58L201.808 63.04C201.378 63.75 200.618 64.14 199.688 64.14C198.148 64.14 197.088 63.01 197.088 61.47ZM202.854 57.3C202.854 56.97 203.104 56.72 203.434 56.72C203.764 56.72 204.014 56.97 204.014 57.3C204.014 57.63 203.764 57.88 203.434 57.88C203.104 57.88 202.854 57.63 202.854 57.3ZM203.014 64V58.94H203.854V64H203.014ZM210 60.76V64H209.16V60.96C209.16 60 208.8 59.58 208 59.58C207.09 59.58 206.44 60.14 206.44 60.99V64H205.6V58.94H206.44V59.8C206.72 59.16 207.37 58.8 208.2 58.8C209.35 58.8 210 59.51 210 60.76ZM215.622 58.94H216.462V63.42C216.462 65.18 215.512 66.14 213.832 66.14C212.882 66.14 212.052 65.83 211.532 65.3L212.012 64.68C212.482 65.11 213.122 65.36 213.832 65.36C214.992 65.36 215.622 64.7 215.622 63.42V62.96C215.332 63.6 214.622 64 213.752 64C212.362 64 211.342 62.93 211.342 61.4C211.342 59.87 212.362 58.8 213.752 58.8C214.602 58.8 215.332 59.21 215.622 59.86V58.94ZM215.662 61.4C215.662 60.87 215.502 60.43 215.182 60.09C214.872 59.75 214.452 59.58 213.942 59.58C213.432 59.58 213.012 59.75 212.692 60.09C212.382 60.43 212.222 60.87 212.222 61.4C212.222 61.93 212.382 62.37 212.692 62.71C213.012 63.05 213.432 63.22 213.942 63.22C214.452 63.22 214.872 63.05 215.182 62.71C215.502 62.37 215.662 61.93 215.662 61.4Z" fill="#161922"/>
<path d="M93.5 71V83.0511C93.5 87.7048 96.7102 91.7434 101.244 92.7933L180.756 111.207C185.29 112.257 188.5 116.295 188.5 120.949V134.5" stroke="#DFE1E7"/>
<path d="M93.5 71V83.0511C93.5 87.7048 96.7102 91.7434 101.244 92.7933L180.756 111.207C185.29 112.257 188.5 116.295 188.5 120.949V134.5" stroke="#DFE1E7"/>
<path d="M93.5 71V83.0511C93.5 87.7048 96.7102 91.7434 101.244 92.7933L180.756 111.207C185.29 112.257 188.5 116.295 188.5 120.949V134.5" stroke="url(#paint0_linear_3028_3476)"/>
<path d="M284 71V83.0418C284 87.6997 280.784 91.7409 276.245 92.7865L196.255 111.213C191.716 112.259 188.5 116.3 188.5 120.958V134.5" stroke="#DFE1E7"/>
<path d="M284 71V83.0418C284 87.6997 280.784 91.7409 276.245 92.7865L196.255 111.213C191.716 112.259 188.5 116.3 188.5 120.958V134.5" stroke="#DFE1E7"/>
<path d="M284 71V83.0418C284 87.6997 280.784 91.7409 276.245 92.7865L196.255 111.213C191.716 112.259 188.5 116.3 188.5 120.958V134.5" stroke="url(#paint1_linear_3028_3476)"/>
<rect x="56.5" y="49.5" width="74" height="23" rx="11.5" fill="#F7F8F8"/>
<rect x="56.5" y="49.5" width="74" height="23" rx="11.5" stroke="#DFE1E7"/>
<path d="M71.3333 54.333L76.1987 55.853C76.3344 55.8954 76.453 55.98 76.5372 56.0945C76.6214 56.2091 76.6667 56.3475 76.6667 56.4897V57.6663H78C78.1768 57.6663 78.3464 57.7366 78.4714 57.8616C78.5964 57.9866 78.6667 58.1562 78.6667 58.333V59.6663H70V58.333C70 58.1562 70.0702 57.9866 70.1953 57.8616C70.3203 57.7366 70.4899 57.6663 70.6667 57.6663H75.3333V56.9797L71.3333 55.729L67.3333 56.9797V61.9157C67.3332 62.3238 67.4268 62.7266 67.6069 63.0928C67.787 63.4591 68.0487 63.7792 68.372 64.0283L68.498 64.119L71.3333 66.053L73.8547 64.333H70.6667C70.4899 64.333 70.3203 64.2628 70.1953 64.1377C70.0702 64.0127 70 63.8432 70 63.6663V60.9997H78.6667V63.6663C78.6667 63.8432 78.5964 64.0127 78.4714 64.1377C78.3464 64.2628 78.1768 64.333 78 64.333L75.8533 64.3337C75.5953 64.6737 75.282 64.9737 74.92 65.2203L71.3333 67.6663L67.7467 65.221C67.2083 64.854 66.7678 64.361 66.4634 63.785C66.159 63.2089 65.9999 62.5672 66 61.9157V56.4897C66.0001 56.3476 66.0455 56.2093 66.1297 56.0949C66.2139 55.9805 66.3324 55.896 66.468 55.8537L71.3333 54.333Z" fill="#0A0D14"/>
<path d="M90.65 59.17C90.65 60.52 89.78 61.33 88.29 61.33H86.31V64H85.43V57H88.29C89.78 57 90.65 57.82 90.65 59.17ZM89.73 59.17C89.73 58.22 89.29 57.81 88.22 57.81H86.31V60.53H88.22C89.29 60.53 89.73 60.12 89.73 59.17ZM95.732 58.94H96.572V64H95.732V63.07C95.442 63.72 94.712 64.14 93.862 64.14C92.472 64.14 91.452 63.03 91.452 61.47C91.452 59.91 92.472 58.8 93.862 58.8C94.712 58.8 95.442 59.22 95.732 59.87V58.94ZM95.772 61.47C95.772 60.92 95.612 60.46 95.292 60.11C94.982 59.76 94.562 59.58 94.052 59.58C93.542 59.58 93.122 59.76 92.802 60.11C92.492 60.46 92.332 60.92 92.332 61.47C92.332 62.02 92.492 62.48 92.802 62.83C93.122 63.18 93.542 63.36 94.052 63.36C94.562 63.36 94.982 63.18 95.292 62.83C95.612 62.48 95.772 62.02 95.772 61.47ZM101.764 58.94H102.604V63.51C102.604 65.22 101.694 66.14 100.134 66.14C99.2845 66.14 98.5045 65.86 98.0345 65.38L98.5245 64.78C98.9345 65.15 99.5145 65.36 100.114 65.36C101.164 65.36 101.764 64.74 101.764 63.51V63C101.474 63.64 100.814 64 99.9845 64C98.8545 64 98.1845 63.31 98.1845 62.04V58.94H99.0245V61.84C99.0245 62.8 99.3945 63.22 100.184 63.22C101.104 63.22 101.764 62.65 101.764 61.81V58.94ZM107.188 58.93V59.67C107.038 59.65 106.898 59.64 106.748 59.64C105.758 59.64 105.188 60.22 105.188 61.41V64H104.348V58.94H105.188V59.89C105.418 59.24 105.978 58.86 106.728 58.86C106.898 58.86 107.058 58.88 107.188 58.93ZM107.717 61.47C107.697 60.04 108.787 58.77 110.317 58.8C111.847 58.77 112.937 60.04 112.917 61.47C112.937 62.9 111.847 64.17 110.317 64.14C108.787 64.17 107.697 62.9 107.717 61.47ZM112.037 61.47C112.037 60.92 111.877 60.46 111.557 60.11C111.247 59.76 110.827 59.58 110.317 59.58C109.807 59.58 109.387 59.76 109.067 60.11C108.757 60.46 108.597 60.92 108.597 61.47C108.597 62.02 108.757 62.48 109.067 62.83C109.387 63.18 109.807 63.36 110.317 63.36C110.827 63.36 111.247 63.18 111.557 62.83C111.877 62.48 112.037 62.02 112.037 61.47ZM114.297 64V56.68H115.137V64H114.297ZM116.873 64V56.68H117.713V64H116.873Z" fill="#161922"/>
<rect x="242.5" y="49.5" width="84" height="23" rx="11.5" fill="#F7F8F8"/>
<rect x="242.5" y="49.5" width="84" height="23" rx="11.5" stroke="#DFE1E7"/>
<path d="M264.666 59.6667V66.3333C264.666 66.5101 264.596 66.6797 264.471 66.8047C264.346 66.9298 264.176 67 264 67H252C251.823 67 251.653 66.9298 251.528 66.8047C251.403 66.6797 251.333 66.5101 251.333 66.3333V59.6667H264.666ZM264.666 58.3333H251.333V55.6667C251.333 55.4899 251.403 55.3203 251.528 55.1953C251.653 55.0702 251.823 55 252 55H264C264.176 55 264.346 55.0702 264.471 55.1953C264.596 55.3203 264.666 55.4899 264.666 55.6667V58.3333ZM260 63.6667V65H262.666V63.6667H260Z" fill="#0A0D14"/>
<path d="M276.543 59.17C276.543 60.52 275.673 61.33 274.183 61.33H272.203V64H271.323V57H274.183C275.673 57 276.543 57.82 276.543 59.17ZM275.623 59.17C275.623 58.22 275.183 57.81 274.113 57.81H272.203V60.53H274.113C275.183 60.53 275.623 60.12 275.623 59.17ZM281.625 58.94H282.465V64H281.625V63.07C281.335 63.72 280.605 64.14 279.755 64.14C278.365 64.14 277.345 63.03 277.345 61.47C277.345 59.91 278.365 58.8 279.755 58.8C280.605 58.8 281.335 59.22 281.625 59.87V58.94ZM281.665 61.47C281.665 60.92 281.505 60.46 281.185 60.11C280.875 59.76 280.455 59.58 279.945 59.58C279.435 59.58 279.015 59.76 278.695 60.11C278.385 60.46 278.225 60.92 278.225 61.47C278.225 62.02 278.385 62.48 278.695 62.83C279.015 63.18 279.435 63.36 279.945 63.36C280.455 63.36 280.875 63.18 281.185 62.83C281.505 62.48 281.665 62.02 281.665 61.47ZM287.657 58.94H288.497V63.51C288.497 65.22 287.587 66.14 286.027 66.14C285.177 66.14 284.397 65.86 283.927 65.38L284.417 64.78C284.827 65.15 285.407 65.36 286.007 65.36C287.057 65.36 287.657 64.74 287.657 63.51V63C287.367 63.64 286.707 64 285.877 64C284.747 64 284.077 63.31 284.077 62.04V58.94H284.917V61.84C284.917 62.8 285.287 63.22 286.077 63.22C286.997 63.22 287.657 62.65 287.657 61.81V58.94ZM297.841 60.74V64H297.001V60.94C297.001 59.99 296.681 59.58 295.931 59.58C295.061 59.58 294.461 60.14 294.461 60.99V64H293.621V60.94C293.621 59.99 293.301 59.58 292.551 59.58C291.681 59.58 291.081 60.14 291.081 60.99V64H290.241V58.94H291.081V59.79C291.361 59.16 291.981 58.8 292.751 58.8C293.521 58.8 294.081 59.17 294.321 59.85C294.591 59.21 295.261 58.8 296.111 58.8C297.231 58.8 297.841 59.5 297.841 60.74ZM304.086 61.73H300.036C300.126 62.74 300.806 63.36 301.796 63.36C302.446 63.36 302.986 63.1 303.406 62.57L303.976 63.05C303.486 63.74 302.706 64.14 301.776 64.14C300.246 64.14 299.176 63.05 299.176 61.48C299.176 59.93 300.216 58.8 301.706 58.8C303.116 58.8 304.116 59.81 304.116 61.28C304.116 61.43 304.106 61.58 304.086 61.73ZM300.056 61.05H303.256C303.176 60.12 302.586 59.58 301.706 59.58C300.816 59.58 300.206 60.14 300.056 61.05ZM309.872 60.76V64H309.032V60.96C309.032 60 308.672 59.58 307.872 59.58C306.962 59.58 306.312 60.14 306.312 60.99V64H305.472V58.94H306.312V59.8C306.592 59.16 307.242 58.8 308.072 58.8C309.222 58.8 309.872 59.51 309.872 60.76ZM311.886 62.7V59.66H310.876V58.94H311.886V57.44H312.726V58.94H314.316V59.66H312.726V62.64C312.726 63.13 312.976 63.34 313.546 63.34C313.776 63.34 314.046 63.31 314.336 63.25V63.95C314.046 64.04 313.746 64.08 313.426 64.08C312.426 64.08 311.886 63.61 311.886 62.7Z" fill="#161922"/>
<rect x="148" y="126.5" width="81" height="23" rx="11.5" fill="#191C1F"/>
<rect x="148" y="126.5" width="81" height="23" rx="11.5" stroke="url(#paint2_linear_3028_3476)"/>
<path d="M169.5 136.333V138.333C169.5 139.99 166.813 141.333 163.5 141.333C160.187 141.333 157.5 139.99 157.5 138.333V136.333C157.5 137.99 160.187 139.333 163.5 139.333C166.813 139.333 169.5 137.99 169.5 136.333ZM157.5 139.667C157.5 141.323 160.187 142.667 163.5 142.667C166.813 142.667 169.5 141.323 169.5 139.667V141.667C169.5 143.323 166.813 144.667 163.5 144.667C160.187 144.667 157.5 143.323 157.5 141.667V139.667ZM163.5 138C160.187 138 157.5 136.657 157.5 135C157.5 133.343 160.187 132 163.5 132C166.813 132 169.5 133.343 169.5 135C169.5 136.657 166.813 138 163.5 138Z" fill="white"/>
<path d="M176.343 137.5C176.313 135.48 177.863 133.83 179.873 133.86C181.193 133.86 182.333 134.49 182.923 135.66L182.193 136.08C181.703 135.15 180.953 134.68 179.933 134.68C178.343 134.68 177.263 135.86 177.263 137.5C177.263 139.14 178.343 140.32 179.933 140.32C180.933 140.32 181.723 139.87 182.213 138.92L182.923 139.34C182.333 140.51 181.193 141.14 179.873 141.14C177.843 141.17 176.313 139.52 176.343 137.5ZM183.742 138.47C183.722 137.04 184.812 135.77 186.342 135.8C187.872 135.77 188.962 137.04 188.942 138.47C188.962 139.9 187.872 141.17 186.342 141.14C184.812 141.17 183.722 139.9 183.742 138.47ZM188.062 138.47C188.062 137.92 187.902 137.46 187.582 137.11C187.272 136.76 186.852 136.58 186.342 136.58C185.832 136.58 185.412 136.76 185.092 137.11C184.782 137.46 184.622 137.92 184.622 138.47C184.622 139.02 184.782 139.48 185.092 139.83C185.412 140.18 185.832 140.36 186.342 140.36C186.852 140.36 187.272 140.18 187.582 139.83C187.902 139.48 188.062 139.02 188.062 138.47ZM194.721 137.76V141H193.881V137.96C193.881 137 193.521 136.58 192.721 136.58C191.811 136.58 191.161 137.14 191.161 137.99V141H190.321V135.94H191.161V136.8C191.441 136.16 192.091 135.8 192.921 135.8C194.071 135.8 194.721 136.51 194.721 137.76ZM200.823 137.76V141H199.983V137.96C199.983 137 199.623 136.58 198.823 136.58C197.913 136.58 197.263 137.14 197.263 137.99V141H196.423V135.94H197.263V136.8C197.543 136.16 198.193 135.8 199.023 135.8C200.173 135.8 200.823 136.51 200.823 137.76ZM207.076 138.73H203.026C203.116 139.74 203.796 140.36 204.786 140.36C205.436 140.36 205.976 140.1 206.396 139.57L206.966 140.05C206.476 140.74 205.696 141.14 204.766 141.14C203.236 141.14 202.166 140.05 202.166 138.48C202.166 136.93 203.206 135.8 204.696 135.8C206.106 135.8 207.106 136.81 207.106 138.28C207.106 138.43 207.096 138.58 207.076 138.73ZM203.046 138.05H206.246C206.166 137.12 205.576 136.58 204.696 136.58C203.806 136.58 203.196 137.14 203.046 138.05ZM208.102 138.47C208.102 136.93 209.162 135.8 210.702 135.8C211.632 135.8 212.392 136.19 212.822 136.9L212.162 137.36C211.852 136.85 211.342 136.58 210.712 136.58C210.202 136.58 209.782 136.75 209.462 137.1C209.142 137.45 208.982 137.9 208.982 138.47C208.982 139.04 209.142 139.49 209.462 139.84C209.782 140.19 210.202 140.36 210.712 140.36C211.342 140.36 211.852 140.09 212.162 139.58L212.822 140.04C212.392 140.75 211.632 141.14 210.702 141.14C209.162 141.14 208.102 140.01 208.102 138.47ZM214.465 139.7V136.66H213.455V135.94H214.465V134.44H215.305V135.94H216.895V136.66H215.305V139.64C215.305 140.13 215.555 140.34 216.125 140.34C216.355 140.34 216.625 140.31 216.915 140.25V140.95C216.625 141.04 216.325 141.08 216.005 141.08C215.005 141.08 214.465 140.61 214.465 139.7Z" fill="white"/>
<rect x="79" y="182.5" width="218" height="101" rx="7.5" fill="#EEF0F1"/>
<rect x="79" y="182.5" width="218" height="101" rx="7.5" stroke="#F5F5F5"/>
<g filter="url(#filter0_d_3028_3476)">
<g clip-path="url(#clip0_3028_3476)">
<rect x="64.5" y="161" width="247" height="114" rx="8" fill="white"/>
<circle cx="188.5" cy="275" r="47.5" fill="#F7F8F8" fill-opacity="0.5" stroke="url(#paint3_linear_3028_3476)"/>
<circle cx="188.5" cy="275" r="34.5" fill="#F7F8F8" fill-opacity="0.5" stroke="url(#paint4_linear_3028_3476)"/>
</g>
<rect x="65" y="161.5" width="246" height="113" rx="7.5" stroke="#DFE1E7"/>
</g>
<g filter="url(#filter1_i_3028_3476)">
<rect x="164.5" y="251" width="48" height="48" rx="24" fill="white"/>
<rect x="165" y="251.5" width="47" height="47" rx="23.5" stroke="#EEF0F1"/>
<path d="M180.053 265.65C180.053 265.454 180.212 265.295 180.408 265.295H192.475C194.944 265.295 196.946 267.297 196.946 269.767C196.946 269.963 196.787 270.122 196.591 270.122H184.524C182.055 270.122 180.053 268.12 180.053 265.65Z" fill="#0D0D12"/>
<path d="M180.053 277.058C180.053 277.254 180.212 277.413 180.408 277.413H192.475C194.944 277.413 196.946 275.411 196.946 272.941C196.946 272.745 196.787 272.586 196.591 272.586H184.524C182.055 272.586 180.053 274.588 180.053 277.058Z" fill="#0D0D12"/>
<path d="M187.293 280.234C187.293 280.038 187.452 279.879 187.648 279.879H192.475C194.944 279.879 196.946 281.881 196.946 284.351C196.946 284.547 196.787 284.706 196.591 284.706H191.765C189.295 284.706 187.293 282.704 187.293 280.234Z" fill="#0D0D12"/>
</g>
<defs>
<filter id="filter0_d_3028_3476" x="60.5" y="159" width="255" height="122" filterUnits="userSpaceOnUse" color-interpolation-filters="sRGB">
<feFlood flood-opacity="0" result="BackgroundImageFix"/>
<feColorMatrix in="SourceAlpha" type="matrix" values="0 0 0 0 0 0 0 0 0 0 0 0 0 0 0 0 0 0 127 0" result="hardAlpha"/>
<feOffset dy="2"/>
<feGaussianBlur stdDeviation="2"/>
<feComposite in2="hardAlpha" operator="out"/>
<feColorMatrix type="matrix" values="0 0 0 0 0.105882 0 0 0 0 0.109804 0 0 0 0 0.113725 0 0 0 0.04 0"/>
<feBlend mode="normal" in2="BackgroundImageFix" result="effect1_dropShadow_3028_3476"/>
<feBlend mode="normal" in="SourceGraphic" in2="effect1_dropShadow_3028_3476" result="shape"/>
</filter>
<filter id="filter1_i_3028_3476" x="164.5" y="250" width="48" height="49" filterUnits="userSpaceOnUse" color-interpolation-filters="sRGB">
<feFlood flood-opacity="0" result="BackgroundImageFix"/>
<feBlend mode="normal" in="SourceGraphic" in2="BackgroundImageFix" result="shape"/>
<feColorMatrix in="SourceAlpha" type="matrix" values="0 0 0 0 0 0 0 0 0 0 0 0 0 0 0 0 0 0 127 0" result="hardAlpha"/>
<feOffset dy="-1"/>
<feGaussianBlur stdDeviation="2"/>
<feComposite in2="hardAlpha" operator="arithmetic" k2="-1" k3="1"/>
<feColorMatrix type="matrix" values="0 0 0 0 0.411765 0 0 0 0 0.458824 0 0 0 0 0.509804 0 0 0 0.42 0"/>
<feBlend mode="normal" in2="shape" result="effect1_innerShadow_3028_3476"/>
</filter>
<linearGradient id="paint0_linear_3028_3476" x1="109.5" y1="90.5" x2="181.5" y2="110" gradientUnits="userSpaceOnUse">
<stop stop-color="#DFE1E7" stop-opacity="0"/>
<stop offset="0.500041" stop-color="#375DFB"/>
<stop offset="1" stop-color="#7D7E81" stop-opacity="0"/>
</linearGradient>
<linearGradient id="paint1_linear_3028_3476" x1="267.916" y1="90.5" x2="195.589" y2="110.192" gradientUnits="userSpaceOnUse">
<stop stop-color="#DFE1E7" stop-opacity="0"/>
<stop offset="0.500041" stop-color="#375DFB"/>
<stop offset="1" stop-color="#7D7E81" stop-opacity="0"/>
</linearGradient>
<linearGradient id="paint2_linear_3028_3476" x1="148.639" y1="139.5" x2="221.535" y2="138.635" gradientUnits="userSpaceOnUse">
<stop stop-color="white" stop-opacity="0.35"/>
<stop offset="1" stop-color="white" stop-opacity="0"/>
</linearGradient>
<linearGradient id="paint3_linear_3028_3476" x1="188.5" y1="227" x2="188.5" y2="323" gradientUnits="userSpaceOnUse">
<stop stop-color="#DFE1E7" stop-opacity="0.52"/>
<stop offset="0.423292" stop-color="#7D7E81" stop-opacity="0"/>
</linearGradient>
<linearGradient id="paint4_linear_3028_3476" x1="188.5" y1="240" x2="188.5" y2="310" gradientUnits="userSpaceOnUse">
<stop stop-color="#DFE1E7" stop-opacity="0.52"/>
<stop offset="0.485979" stop-color="#7D7E81" stop-opacity="0"/>
</linearGradient>
<clipPath id="clip0_3028_3476">
<rect x="64.5" y="161" width="247" height="114" rx="8" fill="white"/>
</clipPath>
</defs>
</svg>
