<svg width="384" height="452" viewBox="0 0 384 452" fill="none" xmlns="http://www.w3.org/2000/svg">
<rect width="384" height="452" rx="8" fill="#F7F8F8"/>
<path d="M24.36 343.722V341.4H34.35V343.722H30.696V354H27.996V343.722H24.36ZM42.7128 351.858H43.0008V354H41.7048C40.3908 354 39.9768 353.37 39.9948 352.488C39.3468 353.514 38.4108 354.108 36.9708 354.108C34.9728 354.108 33.5328 353.154 33.5328 351.39C33.5328 349.428 35.0088 348.312 37.7808 348.312H39.6168V347.862C39.6168 347.034 39.0228 346.494 37.9608 346.494C36.9708 346.494 36.3048 346.944 36.1968 347.628H33.7488C33.9288 345.828 35.5848 344.64 38.0328 344.64C40.6248 344.64 42.1188 345.792 42.1188 348.006V351.282C42.1188 351.768 42.3168 351.858 42.7128 351.858ZM39.6168 350.184V350.004H37.7628C36.7008 350.004 36.0888 350.436 36.0888 351.21C36.0888 351.858 36.6108 352.272 37.4568 352.272C38.7888 352.272 39.5988 351.444 39.6168 350.184ZM44.9727 343.758C44.1447 343.758 43.4967 343.146 43.4967 342.336C43.4967 341.508 44.1447 340.896 44.9727 340.896C45.8007 340.896 46.4487 341.508 46.4487 342.336C46.4487 343.146 45.8007 343.758 44.9727 343.758ZM43.6947 354V344.748H46.2507V354H43.6947ZM47.7133 354V341.4H50.2513V354H47.7133ZM56.25 354.108C53.298 354.108 51.372 352.218 51.372 349.374C51.372 346.53 53.298 344.64 56.25 344.64C59.202 344.64 61.128 346.53 61.128 349.374C61.128 352.236 59.202 354.108 56.25 354.108ZM56.25 352.038C57.672 352.038 58.554 350.94 58.554 349.374C58.554 347.808 57.672 346.71 56.25 346.71C54.828 346.71 53.964 347.808 53.964 349.374C53.964 350.94 54.828 352.038 56.25 352.038ZM67.4389 344.748H67.8709V347.052H66.8629C65.3509 347.052 64.7749 348.06 64.7749 349.464V354H62.2369V344.748H64.5409L64.7749 346.134C65.2789 345.306 65.9989 344.748 67.4389 344.748ZM72.9897 354.108C69.9117 354.108 68.0577 352.254 68.0577 349.392C68.0577 346.512 69.9477 344.64 72.8097 344.64C75.5817 344.64 77.4537 346.368 77.4897 349.086C77.4897 349.356 77.4717 349.662 77.4177 349.95H70.7037V350.076C70.7577 351.39 71.6037 352.182 72.8817 352.182C73.9077 352.182 74.6277 351.732 74.8437 350.868H77.3457C77.0577 352.668 75.4557 354.108 72.9897 354.108ZM70.7577 348.294H74.9337C74.7537 347.16 73.9797 346.53 72.8277 346.53C71.7297 346.53 70.9017 347.196 70.7577 348.294ZM85.3027 345.9V341.4H87.8407V354H85.6267L85.3747 352.722C84.7627 353.514 83.8627 354.108 82.5307 354.108C80.0467 354.108 78.2287 352.29 78.2287 349.356C78.2287 346.494 80.0467 344.64 82.5127 344.64C83.7907 344.64 84.7087 345.144 85.3027 345.9ZM83.0887 352.038C84.4747 352.038 85.3387 350.958 85.3387 349.392C85.3387 347.808 84.4747 346.71 83.0887 346.71C81.7027 346.71 80.8207 347.79 80.8207 349.374C80.8207 350.958 81.7027 352.038 83.0887 352.038ZM95.479 354H92.689L97.297 341.4H100.537L105.109 354H102.211L101.239 351.246H96.451L95.479 354ZM98.827 344.28L97.171 349.068H100.501L98.827 344.28ZM105.977 354V341.4H111.107C113.843 341.4 115.661 343.038 115.661 345.594C115.661 348.132 113.843 349.77 111.107 349.77H108.677V354H105.977ZM110.855 343.65H108.677V347.52H110.855C112.115 347.52 112.925 346.782 112.925 345.594C112.925 344.388 112.115 343.65 110.855 343.65ZM116.887 354V341.4H119.587V354H116.887ZM120.803 350.922H123.215C123.305 351.732 124.007 352.29 125.249 352.29C126.311 352.29 126.959 351.948 126.959 351.3C126.959 350.544 126.329 350.49 124.835 350.292C122.675 350.04 121.001 349.554 121.001 347.646C121.001 345.81 122.603 344.604 124.979 344.622C127.463 344.622 129.173 345.72 129.299 347.61H126.869C126.797 346.872 126.095 346.422 125.069 346.422C124.079 346.422 123.431 346.782 123.431 347.376C123.431 348.078 124.223 348.15 125.555 348.312C127.679 348.528 129.443 349.014 129.443 351.102C129.443 352.938 127.715 354.108 125.231 354.108C122.657 354.108 120.911 352.902 120.803 350.922ZM133.804 346.89V344.748H135.334V344.064C135.334 342.354 136.252 341.4 138.124 341.4H140.194V343.56H138.574C138.07 343.56 137.818 343.794 137.818 344.316V344.748H140.194V346.89H137.872V354H135.334V346.89H133.804ZM145.068 354.108C142.116 354.108 140.19 352.218 140.19 349.374C140.19 346.53 142.116 344.64 145.068 344.64C148.02 344.64 149.946 346.53 149.946 349.374C149.946 352.236 148.02 354.108 145.068 354.108ZM145.068 352.038C146.49 352.038 147.372 350.94 147.372 349.374C147.372 347.808 146.49 346.71 145.068 346.71C143.646 346.71 142.782 347.808 142.782 349.374C142.782 350.94 143.646 352.038 145.068 352.038ZM156.257 344.748H156.689V347.052H155.681C154.169 347.052 153.593 348.06 153.593 349.464V354H151.055V344.748H153.359L153.593 346.134C154.097 345.306 154.817 344.748 156.257 344.748ZM165.456 349.32L160.83 341.4H163.98L166.806 346.566L169.776 341.4H172.782L168.156 349.32V354H165.456V349.32ZM176.242 354.108C173.29 354.108 171.364 352.218 171.364 349.374C171.364 346.53 173.29 344.64 176.242 344.64C179.194 344.64 181.12 346.53 181.12 349.374C181.12 352.236 179.194 354.108 176.242 354.108ZM176.242 352.038C177.664 352.038 178.546 350.94 178.546 349.374C178.546 347.808 177.664 346.71 176.242 346.71C174.82 346.71 173.956 347.808 173.956 349.374C173.956 350.94 174.82 352.038 176.242 352.038ZM188.403 349.374V344.748H190.941V354H188.691L188.457 352.884C187.863 353.604 187.053 354.108 185.739 354.108C183.831 354.108 182.067 353.154 182.067 349.878V344.748H184.605V349.536C184.605 351.192 185.145 352.002 186.405 352.002C187.665 352.002 188.403 351.084 188.403 349.374ZM197.62 344.748H198.052V347.052H197.044C195.532 347.052 194.956 348.06 194.956 349.464V354H192.418V344.748H194.722L194.956 346.134C195.46 345.306 196.18 344.748 197.62 344.748ZM203.272 354V341.4H205.972V354H203.272ZM212.93 344.64C214.928 344.64 216.638 345.702 216.638 348.87V354H214.1V349.122C214.1 347.556 213.506 346.728 212.228 346.728C210.914 346.728 210.158 347.664 210.158 349.266V354H207.62V344.748H209.834L210.068 345.9C210.662 345.18 211.508 344.64 212.93 344.64ZM223.26 344.64C225.258 344.64 226.968 345.702 226.968 348.87V354H224.43V349.122C224.43 347.556 223.836 346.728 222.558 346.728C221.244 346.728 220.488 347.664 220.488 349.266V354H217.95V344.748H220.164L220.398 345.9C220.992 345.18 221.838 344.64 223.26 344.64ZM232.762 354.108C229.81 354.108 227.884 352.218 227.884 349.374C227.884 346.53 229.81 344.64 232.762 344.64C235.714 344.64 237.64 346.53 237.64 349.374C237.64 352.236 235.714 354.108 232.762 354.108ZM232.762 352.038C234.184 352.038 235.066 350.94 235.066 349.374C235.066 347.808 234.184 346.71 232.762 346.71C231.34 346.71 230.476 347.808 230.476 349.374C230.476 350.94 231.34 352.038 232.762 352.038ZM240.739 354L237.409 344.748H240.127L242.359 351.408L244.555 344.748H247.219L243.889 354H240.739ZM256.052 351.858H256.34V354H255.044C253.73 354 253.316 353.37 253.334 352.488C252.686 353.514 251.75 354.108 250.31 354.108C248.312 354.108 246.872 353.154 246.872 351.39C246.872 349.428 248.348 348.312 251.12 348.312H252.956V347.862C252.956 347.034 252.362 346.494 251.3 346.494C250.31 346.494 249.644 346.944 249.536 347.628H247.088C247.268 345.828 248.924 344.64 251.372 344.64C253.964 344.64 255.458 345.792 255.458 348.006V351.282C255.458 351.768 255.656 351.858 256.052 351.858ZM252.956 350.184V350.004H251.102C250.04 350.004 249.428 350.436 249.428 351.21C249.428 351.858 249.95 352.272 250.796 352.272C252.128 352.272 252.938 351.444 252.956 350.184ZM257.7 351.354V346.89H256.17V344.748H257.7V342.156H260.238V344.748H262.362V346.89H260.238V350.94C260.238 351.588 260.49 351.858 261.156 351.858H262.416V354H260.346C258.582 354 257.7 353.118 257.7 351.354ZM264.581 343.758C263.753 343.758 263.105 343.146 263.105 342.336C263.105 341.508 263.753 340.896 264.581 340.896C265.409 340.896 266.057 341.508 266.057 342.336C266.057 343.146 265.409 343.758 264.581 343.758ZM263.303 354V344.748H265.859V354H263.303ZM271.839 354.108C268.887 354.108 266.961 352.218 266.961 349.374C266.961 346.53 268.887 344.64 271.839 344.64C274.791 344.64 276.717 346.53 276.717 349.374C276.717 352.236 274.791 354.108 271.839 354.108ZM271.839 352.038C273.261 352.038 274.143 350.94 274.143 349.374C274.143 347.808 273.261 346.71 271.839 346.71C270.417 346.71 269.553 347.808 269.553 349.374C269.553 350.94 270.417 352.038 271.839 352.038ZM283.136 344.64C285.134 344.64 286.844 345.702 286.844 348.87V354H284.306V349.122C284.306 347.556 283.712 346.728 282.434 346.728C281.12 346.728 280.364 347.664 280.364 349.266V354H277.826V344.748H280.04L280.274 345.9C280.868 345.18 281.714 344.64 283.136 344.64Z" fill="#2F2B43"/>
<path d="M25.316 378.486V372.2H26.548V378.374C26.548 380.152 27.472 381.048 29.306 381.048C31.14 381.048 32.064 380.152 32.064 378.374V372.2H33.296V378.486C33.296 380.824 31.784 382.196 29.306 382.196C26.828 382.196 25.316 380.824 25.316 378.486ZM41.8894 377.464V382H40.7134V377.744C40.7134 376.4 40.2094 375.812 39.0894 375.812C37.8154 375.812 36.9054 376.596 36.9054 377.786V382H35.7294V374.916H36.9054V376.12C37.2974 375.224 38.2074 374.72 39.3694 374.72C40.9794 374.72 41.8894 375.714 41.8894 377.464ZM44.2163 382V371.752H45.3923V382H44.2163ZM47.2637 378.458C47.2357 376.456 48.7617 374.678 50.9037 374.72C53.0457 374.678 54.5717 376.456 54.5437 378.458C54.5717 380.46 53.0457 382.238 50.9037 382.196C48.7617 382.238 47.2357 380.46 47.2637 378.458ZM53.3117 378.458C53.3117 377.688 53.0877 377.044 52.6397 376.554C52.2057 376.064 51.6177 375.812 50.9037 375.812C50.1897 375.812 49.6017 376.064 49.1537 376.554C48.7197 377.044 48.4957 377.688 48.4957 378.458C48.4957 379.228 48.7197 379.872 49.1537 380.362C49.6017 380.852 50.1897 381.104 50.9037 381.104C51.6177 381.104 52.2057 380.852 52.6397 380.362C53.0877 379.872 53.3117 379.228 53.3117 378.458ZM55.9148 378.458C55.9148 376.302 57.3988 374.72 59.5548 374.72C60.8568 374.72 61.9208 375.266 62.5228 376.26L61.5988 376.904C61.1648 376.19 60.4508 375.812 59.5688 375.812C58.8548 375.812 58.2668 376.05 57.8188 376.54C57.3708 377.03 57.1468 377.66 57.1468 378.458C57.1468 379.256 57.3708 379.886 57.8188 380.376C58.2668 380.866 58.8548 381.104 59.5688 381.104C60.4508 381.104 61.1648 380.726 61.5988 380.012L62.5228 380.656C61.9208 381.65 60.8568 382.196 59.5548 382.196C57.3988 382.196 55.9148 380.614 55.9148 378.458ZM69.0121 382L66.4501 378.794H65.3161V382H64.1401V371.752H65.3161V377.758H66.4921L68.9561 374.916H70.3281L67.4161 378.276L70.3841 382H69.0121ZM75.1242 380.18V375.924H73.7102V374.916H75.1242V372.816H76.3002V374.916H78.5262V375.924H76.3002V380.096C76.3002 380.782 76.6502 381.076 77.4482 381.076C77.7702 381.076 78.1482 381.034 78.5542 380.95V381.93C78.1482 382.056 77.7282 382.112 77.2802 382.112C75.8802 382.112 75.1242 381.454 75.1242 380.18ZM86.3684 377.464V382H85.1924V377.744C85.1924 376.4 84.6884 375.812 83.5684 375.812C82.2944 375.812 81.3844 376.596 81.3844 377.786V382H80.2084V371.752H81.3844V376.12C81.7764 375.224 82.6864 374.72 83.8484 374.72C85.4584 374.72 86.3684 375.714 86.3684 377.464ZM95.0653 378.822H89.3953C89.5213 380.236 90.4733 381.104 91.8593 381.104C92.7693 381.104 93.5253 380.74 94.1133 379.998L94.9113 380.67C94.2253 381.636 93.1333 382.196 91.8313 382.196C89.6893 382.196 88.1913 380.67 88.1913 378.472C88.1913 376.302 89.6473 374.72 91.7333 374.72C93.7073 374.72 95.1073 376.134 95.1073 378.192C95.1073 378.402 95.0933 378.612 95.0653 378.822ZM89.4233 377.87H93.9033C93.7913 376.568 92.9653 375.812 91.7333 375.812C90.4873 375.812 89.6333 376.596 89.4233 377.87ZM107.204 378.458C107.204 380.642 105.776 382.196 103.844 382.196C102.654 382.196 101.646 381.608 101.212 380.698V384.8H100.036V374.916H101.212V376.218C101.646 375.308 102.654 374.72 103.844 374.72C105.776 374.72 107.204 376.274 107.204 378.458ZM105.972 378.458C105.972 377.688 105.748 377.044 105.3 376.554C104.866 376.064 104.278 375.812 103.564 375.812C102.85 375.812 102.262 376.064 101.814 376.554C101.38 377.044 101.156 377.688 101.156 378.458C101.156 379.228 101.38 379.872 101.814 380.362C102.262 380.852 102.85 381.104 103.564 381.104C104.278 381.104 104.866 380.852 105.3 380.362C105.748 379.872 105.972 379.228 105.972 378.458ZM108.58 378.458C108.552 376.456 110.078 374.678 112.22 374.72C114.362 374.678 115.888 376.456 115.86 378.458C115.888 380.46 114.362 382.238 112.22 382.196C110.078 382.238 108.552 380.46 108.58 378.458ZM114.628 378.458C114.628 377.688 114.404 377.044 113.956 376.554C113.522 376.064 112.934 375.812 112.22 375.812C111.506 375.812 110.918 376.064 110.47 376.554C110.036 377.044 109.812 377.688 109.812 378.458C109.812 379.228 110.036 379.872 110.47 380.362C110.918 380.852 111.506 381.104 112.22 381.104C112.934 381.104 113.522 380.852 113.956 380.362C114.404 379.872 114.628 379.228 114.628 378.458ZM126.502 374.916H127.692L125.368 382H124.08L122.176 376.26L120.272 382H118.984L116.66 374.916H117.85L119.656 380.558L121.532 374.916H122.82L124.696 380.558L126.502 374.916ZM135.367 378.822H129.697C129.823 380.236 130.775 381.104 132.161 381.104C133.071 381.104 133.827 380.74 134.415 379.998L135.213 380.67C134.527 381.636 133.435 382.196 132.133 382.196C129.991 382.196 128.493 380.67 128.493 378.472C128.493 376.302 129.949 374.72 132.035 374.72C134.009 374.72 135.409 376.134 135.409 378.192C135.409 378.402 135.395 378.612 135.367 378.822ZM129.725 377.87H134.205C134.093 376.568 133.267 375.812 132.035 375.812C130.789 375.812 129.935 376.596 129.725 377.87ZM141.228 374.902V375.938C141.018 375.91 140.822 375.896 140.612 375.896C139.226 375.896 138.428 376.708 138.428 378.374V382H137.252V374.916H138.428V376.246C138.75 375.336 139.534 374.804 140.584 374.804C140.822 374.804 141.046 374.832 141.228 374.902ZM145.355 378.458C145.327 376.456 146.853 374.678 148.995 374.72C151.137 374.678 152.663 376.456 152.635 378.458C152.663 380.46 151.137 382.238 148.995 382.196C146.853 382.238 145.327 380.46 145.355 378.458ZM151.403 378.458C151.403 377.688 151.179 377.044 150.731 376.554C150.297 376.064 149.709 375.812 148.995 375.812C148.281 375.812 147.693 376.064 147.245 376.554C146.811 377.044 146.587 377.688 146.587 378.458C146.587 379.228 146.811 379.872 147.245 380.362C147.693 380.852 148.281 381.104 148.995 381.104C149.709 381.104 150.297 380.852 150.731 380.362C151.179 379.872 151.403 379.228 151.403 378.458ZM154.933 382V375.924H153.477V374.916H154.933V373.838C154.933 372.312 155.633 371.626 157.131 371.626C157.481 371.626 157.845 371.668 158.209 371.752V372.746C157.873 372.676 157.565 372.648 157.285 372.648C156.459 372.648 156.109 373.012 156.109 373.866V374.916H158.181V375.924H156.109V382H154.933ZM162.024 378.458C161.996 376.456 163.522 374.678 165.664 374.72C167.806 374.678 169.332 376.456 169.304 378.458C169.332 380.46 167.806 382.238 165.664 382.196C163.522 382.238 161.996 380.46 162.024 378.458ZM168.072 378.458C168.072 377.688 167.848 377.044 167.4 376.554C166.966 376.064 166.378 375.812 165.664 375.812C164.95 375.812 164.362 376.064 163.914 376.554C163.48 377.044 163.256 377.688 163.256 378.458C163.256 379.228 163.48 379.872 163.914 380.362C164.362 380.852 164.95 381.104 165.664 381.104C166.378 381.104 166.966 380.852 167.4 380.362C167.848 379.872 168.072 379.228 168.072 378.458ZM178.347 378.458C178.347 380.642 176.919 382.196 174.987 382.196C173.797 382.196 172.789 381.608 172.355 380.698V384.8H171.179V374.916H172.355V376.218C172.789 375.308 173.797 374.72 174.987 374.72C176.919 374.72 178.347 376.274 178.347 378.458ZM177.115 378.458C177.115 377.688 176.891 377.044 176.443 376.554C176.009 376.064 175.421 375.812 174.707 375.812C173.993 375.812 173.405 376.064 172.957 376.554C172.523 377.044 172.299 377.688 172.299 378.458C172.299 379.228 172.523 379.872 172.957 380.362C173.405 380.852 173.993 381.104 174.707 381.104C175.421 381.104 176.009 380.852 176.443 380.362C176.891 379.872 177.115 379.228 177.115 378.458ZM186.597 378.822H180.927C181.053 380.236 182.005 381.104 183.391 381.104C184.301 381.104 185.057 380.74 185.645 379.998L186.443 380.67C185.757 381.636 184.665 382.196 183.363 382.196C181.221 382.196 179.723 380.67 179.723 378.472C179.723 376.302 181.179 374.72 183.265 374.72C185.239 374.72 186.639 376.134 186.639 378.192C186.639 378.402 186.625 378.612 186.597 378.822ZM180.955 377.87H185.435C185.323 376.568 184.497 375.812 183.265 375.812C182.019 375.812 181.165 376.596 180.955 377.87ZM194.641 377.464V382H193.465V377.744C193.465 376.4 192.961 375.812 191.841 375.812C190.567 375.812 189.657 376.596 189.657 377.786V382H188.481V374.916H189.657V376.12C190.049 375.224 190.959 374.72 192.121 374.72C193.731 374.72 194.641 375.714 194.641 377.464ZM207.223 378.458C207.223 380.642 205.795 382.196 203.863 382.196C202.673 382.196 201.665 381.608 201.231 380.698V382H200.055V371.752H201.231V376.218C201.665 375.308 202.673 374.72 203.863 374.72C205.795 374.72 207.223 376.274 207.223 378.458ZM205.991 378.458C205.991 377.688 205.767 377.044 205.319 376.554C204.885 376.064 204.297 375.812 203.583 375.812C202.869 375.812 202.281 376.064 201.833 376.554C201.399 377.044 201.175 377.688 201.175 378.458C201.175 379.228 201.399 379.872 201.833 380.362C202.281 380.852 202.869 381.104 203.583 381.104C204.297 381.104 204.885 380.852 205.319 380.362C205.767 379.872 205.991 379.228 205.991 378.458ZM214.59 374.916H215.766V382H214.59V380.698C214.184 381.608 213.162 382.196 211.972 382.196C210.026 382.196 208.598 380.642 208.598 378.458C208.598 376.274 210.026 374.72 211.972 374.72C213.162 374.72 214.184 375.308 214.59 376.218V374.916ZM214.646 378.458C214.646 377.688 214.422 377.044 213.974 376.554C213.54 376.064 212.952 375.812 212.238 375.812C211.524 375.812 210.936 376.064 210.488 376.554C210.054 377.044 209.83 377.688 209.83 378.458C209.83 379.228 210.054 379.872 210.488 380.362C210.936 380.852 211.524 381.104 212.238 381.104C212.952 381.104 213.54 380.852 213.974 380.362C214.422 379.872 214.646 379.228 214.646 378.458ZM224.31 377.464V382H223.134V377.744C223.134 376.4 222.63 375.812 221.51 375.812C220.236 375.812 219.326 376.596 219.326 377.786V382H218.15V374.916H219.326V376.12C219.718 375.224 220.628 374.72 221.79 374.72C223.4 374.72 224.31 375.714 224.31 377.464ZM231.509 382L228.947 378.794H227.813V382H226.637V371.752H227.813V377.758H228.989L231.453 374.916H232.825L229.913 378.276L232.881 382H231.509ZM234.011 372.62C234.011 372.158 234.361 371.808 234.823 371.808C235.285 371.808 235.635 372.158 235.635 372.62C235.635 373.082 235.285 373.432 234.823 373.432C234.361 373.432 234.011 373.082 234.011 372.62ZM234.235 382V374.916H235.411V382H234.235ZM243.96 377.464V382H242.784V377.744C242.784 376.4 242.28 375.812 241.16 375.812C239.886 375.812 238.976 376.596 238.976 377.786V382H237.8V374.916H238.976V376.12C239.368 375.224 240.278 374.72 241.44 374.72C243.05 374.72 243.96 375.714 243.96 377.464ZM251.775 374.916H252.951V381.188C252.951 383.652 251.621 384.996 249.269 384.996C247.939 384.996 246.777 384.562 246.049 383.82L246.721 382.952C247.379 383.554 248.275 383.904 249.269 383.904C250.893 383.904 251.775 382.98 251.775 381.188V380.544C251.369 381.44 250.375 382 249.157 382C247.211 382 245.783 380.502 245.783 378.36C245.783 376.218 247.211 374.72 249.157 374.72C250.347 374.72 251.369 375.294 251.775 376.204V374.916ZM251.831 378.36C251.831 377.618 251.607 377.002 251.159 376.526C250.725 376.05 250.137 375.812 249.423 375.812C248.709 375.812 248.121 376.05 247.673 376.526C247.239 377.002 247.015 377.618 247.015 378.36C247.015 379.102 247.239 379.718 247.673 380.194C248.121 380.67 248.709 380.908 249.423 380.908C250.137 380.908 250.725 380.67 251.159 380.194C251.607 379.718 251.831 379.102 251.831 378.36ZM267.175 374.916H268.365L266.041 382H264.753L262.849 376.26L260.945 382H259.657L257.333 374.916H258.523L260.329 380.558L262.205 374.916H263.493L265.369 380.558L267.175 374.916ZM269.583 372.62C269.583 372.158 269.933 371.808 270.395 371.808C270.857 371.808 271.207 372.158 271.207 372.62C271.207 373.082 270.857 373.432 270.395 373.432C269.933 373.432 269.583 373.082 269.583 372.62ZM269.807 382V374.916H270.983V382H269.807ZM273.89 380.18V375.924H272.476V374.916H273.89V372.816H275.066V374.916H277.292V375.924H275.066V380.096C275.066 380.782 275.416 381.076 276.214 381.076C276.536 381.076 276.914 381.034 277.32 380.95V381.93C276.914 382.056 276.494 382.112 276.046 382.112C274.646 382.112 273.89 381.454 273.89 380.18ZM285.134 377.464V382H283.958V377.744C283.958 376.4 283.454 375.812 282.334 375.812C281.06 375.812 280.15 376.596 280.15 377.786V382H278.974V371.752H280.15V376.12C280.542 375.224 281.452 374.72 282.614 374.72C284.224 374.72 285.134 375.714 285.134 377.464ZM290.043 378.458C290.015 376.456 291.541 374.678 293.683 374.72C295.825 374.678 297.351 376.456 297.323 378.458C297.351 380.46 295.825 382.238 293.683 382.196C291.541 382.238 290.015 380.46 290.043 378.458ZM296.091 378.458C296.091 377.688 295.867 377.044 295.419 376.554C294.985 376.064 294.397 375.812 293.683 375.812C292.969 375.812 292.381 376.064 291.933 376.554C291.499 377.044 291.275 377.688 291.275 378.458C291.275 379.228 291.499 379.872 291.933 380.362C292.381 380.852 292.969 381.104 293.683 381.104C294.397 381.104 294.985 380.852 295.419 380.362C295.867 379.872 296.091 379.228 296.091 378.458ZM299.058 379.354V374.916H300.234V379.284C300.234 380.46 300.92 381.104 302.11 381.104C303.3 381.104 303.986 380.46 303.986 379.284V374.916H305.162V379.354C305.162 381.034 303.944 382.196 302.11 382.196C300.276 382.196 299.058 381.034 299.058 379.354ZM311.374 374.902V375.938C311.164 375.91 310.968 375.896 310.758 375.896C309.372 375.896 308.574 376.708 308.574 378.374V382H307.398V374.916H308.574V376.246C308.896 375.336 309.68 374.804 310.73 374.804C310.968 374.804 311.192 374.832 311.374 374.902ZM25.82 402V395.924H24.364V394.916H25.82V393.838C25.82 392.312 26.52 391.626 28.018 391.626C28.368 391.626 28.732 391.668 29.096 391.752V392.746C28.76 392.676 28.452 392.648 28.172 392.648C27.346 392.648 26.996 393.012 26.996 393.866V394.916H29.068V395.924H26.996V402H25.82ZM30.4657 402V391.752H31.6417V402H30.4657ZM40.3871 398.822H34.7171C34.8431 400.236 35.7951 401.104 37.1811 401.104C38.0911 401.104 38.8471 400.74 39.4351 399.998L40.2331 400.67C39.5471 401.636 38.4551 402.196 37.1531 402.196C35.0111 402.196 33.5131 400.67 33.5131 398.472C33.5131 396.302 34.9691 394.72 37.0551 394.72C39.0291 394.72 40.4291 396.134 40.4291 398.192C40.4291 398.402 40.4151 398.612 40.3871 398.822ZM34.7451 397.87H39.2251C39.1131 396.568 38.2871 395.812 37.0551 395.812C35.8091 395.812 34.9551 396.596 34.7451 397.87ZM47.8056 402H46.4756L44.4736 399.144L42.4576 402H41.1276L43.6896 398.36L41.2676 394.916H42.5836L44.4736 397.618L46.3496 394.916H47.6656L45.2436 398.36L47.8056 402ZM48.99 392.62C48.99 392.158 49.34 391.808 49.802 391.808C50.264 391.808 50.614 392.158 50.614 392.62C50.614 393.082 50.264 393.432 49.802 393.432C49.34 393.432 48.99 393.082 48.99 392.62ZM49.214 402V394.916H50.39V402H49.214ZM59.9468 398.458C59.9468 400.642 58.5187 402.196 56.5867 402.196C55.3967 402.196 54.3887 401.608 53.9547 400.698V402H52.7787V391.752H53.9547V396.218C54.3887 395.308 55.3967 394.72 56.5867 394.72C58.5187 394.72 59.9468 396.274 59.9468 398.458ZM58.7147 398.458C58.7147 397.688 58.4907 397.044 58.0427 396.554C57.6087 396.064 57.0207 395.812 56.3067 395.812C55.5927 395.812 55.0047 396.064 54.5567 396.554C54.1227 397.044 53.8987 397.688 53.8987 398.458C53.8987 399.228 54.1227 399.872 54.5567 400.362C55.0047 400.852 55.5927 401.104 56.3067 401.104C57.0207 401.104 57.6087 400.852 58.0427 400.362C58.4907 399.872 58.7147 399.228 58.7147 398.458ZM61.8262 402V391.752H63.0022V402H61.8262ZM71.7477 398.822H66.0777C66.2037 400.236 67.1557 401.104 68.5417 401.104C69.4517 401.104 70.2077 400.74 70.7957 399.998L71.5937 400.67C70.9077 401.636 69.8157 402.196 68.5137 402.196C66.3717 402.196 64.8737 400.67 64.8737 398.472C64.8737 396.302 66.3297 394.72 68.4157 394.72C70.3897 394.72 71.7897 396.134 71.7897 398.192C71.7897 398.402 71.7757 398.612 71.7477 398.822ZM66.1057 397.87H70.5857C70.4737 396.568 69.6477 395.812 68.4157 395.812C67.1697 395.812 66.3157 396.596 66.1057 397.87ZM83.8448 402L82.7948 399.34H78.0908L77.0408 402H75.7668L79.7568 392.2H81.1288L85.1188 402H83.8448ZM78.5388 398.22H82.3468L80.4428 393.418L78.5388 398.22ZM94.0495 395.238C94.0495 397.128 92.8315 398.262 90.7455 398.262H87.9735V402H86.7415V392.2H90.7455C92.8315 392.2 94.0495 393.348 94.0495 395.238ZM92.7615 395.238C92.7615 393.908 92.1455 393.334 90.6475 393.334H87.9735V397.142H90.6475C92.1455 397.142 92.7615 396.568 92.7615 395.238ZM96.0631 402V392.2H97.2951V402H96.0631ZM99.2244 400.656L100.078 400.026C100.582 400.754 101.408 401.132 102.374 401.132C103.382 401.132 103.998 400.712 103.998 400.054C103.998 399.55 103.648 399.256 102.752 399.046L101.632 398.794C100.176 398.458 99.4764 397.814 99.4764 396.82C99.4764 395.574 100.54 394.72 102.262 394.72C103.494 394.72 104.488 395.154 105.062 395.924L104.25 396.624C103.788 396.078 103.074 395.784 102.192 395.784C101.184 395.784 100.652 396.162 100.652 396.792C100.652 397.254 100.974 397.52 101.926 397.744L103.172 398.024C104.572 398.346 105.174 398.976 105.174 399.97C105.174 401.314 104.124 402.196 102.388 402.196C100.946 402.196 99.7844 401.608 99.2244 400.656ZM106.304 404.086L106.976 400.306H108.208L107.228 404.086H106.304ZM112.754 398.458C112.754 396.302 114.238 394.72 116.394 394.72C117.696 394.72 118.76 395.266 119.362 396.26L118.438 396.904C118.004 396.19 117.29 395.812 116.408 395.812C115.694 395.812 115.106 396.05 114.658 396.54C114.21 397.03 113.986 397.66 113.986 398.458C113.986 399.256 114.21 399.886 114.658 400.376C115.106 400.866 115.694 401.104 116.408 401.104C117.29 401.104 118.004 400.726 118.438 400.012L119.362 400.656C118.76 401.65 117.696 402.196 116.394 402.196C114.238 402.196 112.754 400.614 112.754 398.458ZM120.839 399.354V394.916H122.015V399.284C122.015 400.46 122.701 401.104 123.891 401.104C125.081 401.104 125.767 400.46 125.767 399.284V394.916H126.943V399.354C126.943 401.034 125.725 402.196 123.891 402.196C122.057 402.196 120.839 401.034 120.839 399.354ZM133.155 394.902V395.938C132.945 395.91 132.749 395.896 132.539 395.896C131.153 395.896 130.355 396.708 130.355 398.374V402H129.179V394.916H130.355V396.246C130.677 395.336 131.461 394.804 132.511 394.804C132.749 394.804 132.973 394.832 133.155 394.902ZM139.832 394.916H141.008V402H139.832V400.698C139.426 401.608 138.404 402.196 137.214 402.196C135.268 402.196 133.84 400.642 133.84 398.458C133.84 396.274 135.268 394.72 137.214 394.72C138.404 394.72 139.426 395.308 139.832 396.218V394.916ZM139.888 398.458C139.888 397.688 139.664 397.044 139.216 396.554C138.782 396.064 138.194 395.812 137.48 395.812C136.766 395.812 136.178 396.064 135.73 396.554C135.296 397.044 135.072 397.688 135.072 398.458C135.072 399.228 135.296 399.872 135.73 400.362C136.178 400.852 136.766 401.104 137.48 401.104C138.194 401.104 138.782 400.852 139.216 400.362C139.664 399.872 139.888 399.228 139.888 398.458ZM143.909 400.18V395.924H142.495V394.916H143.909V392.816H145.085V394.916H147.311V395.924H145.085V400.096C145.085 400.782 145.435 401.076 146.233 401.076C146.555 401.076 146.933 401.034 147.339 400.95V401.93C146.933 402.056 146.513 402.112 146.065 402.112C144.665 402.112 143.909 401.454 143.909 400.18ZM155.226 398.822H149.556C149.682 400.236 150.634 401.104 152.02 401.104C152.93 401.104 153.686 400.74 154.274 399.998L155.072 400.67C154.386 401.636 153.294 402.196 151.992 402.196C149.85 402.196 148.352 400.67 148.352 398.472C148.352 396.302 149.808 394.72 151.894 394.72C153.868 394.72 155.268 396.134 155.268 398.192C155.268 398.402 155.254 398.612 155.226 398.822ZM149.584 397.87H154.064C153.952 396.568 153.126 395.812 151.894 395.812C150.648 395.812 149.794 396.596 149.584 397.87ZM162.599 391.752H163.775V402H162.599V400.698C162.165 401.608 161.157 402.196 159.967 402.196C158.035 402.196 156.607 400.642 156.607 398.458C156.607 396.274 158.035 394.72 159.967 394.72C161.157 394.72 162.165 395.308 162.599 396.218V391.752ZM162.655 398.458C162.655 397.688 162.431 397.044 161.983 396.554C161.549 396.064 160.961 395.812 160.247 395.812C159.533 395.812 158.945 396.064 158.497 396.554C158.063 397.044 157.839 397.688 157.839 398.458C157.839 399.228 158.063 399.872 158.497 400.362C158.945 400.852 159.533 401.104 160.247 401.104C160.961 401.104 161.549 400.852 161.983 400.362C162.431 399.872 162.655 399.228 162.655 398.458ZM169.558 400.18V395.924H168.144V394.916H169.558V392.816H170.734V394.916H172.96V395.924H170.734V400.096C170.734 400.782 171.084 401.076 171.882 401.076C172.204 401.076 172.582 401.034 172.988 400.95V401.93C172.582 402.056 172.162 402.112 171.714 402.112C170.314 402.112 169.558 401.454 169.558 400.18ZM174.001 398.458C173.973 396.456 175.499 394.678 177.641 394.72C179.783 394.678 181.309 396.456 181.281 398.458C181.309 400.46 179.783 402.238 177.641 402.196C175.499 402.238 173.973 400.46 174.001 398.458ZM180.049 398.458C180.049 397.688 179.825 397.044 179.377 396.554C178.943 396.064 178.355 395.812 177.641 395.812C176.927 395.812 176.339 396.064 175.891 396.554C175.457 397.044 175.233 397.688 175.233 398.458C175.233 399.228 175.457 399.872 175.891 400.362C176.339 400.852 176.927 401.104 177.641 401.104C178.355 401.104 178.943 400.852 179.377 400.362C179.825 399.872 180.049 399.228 180.049 398.458ZM190.219 394.902V395.938C190.009 395.91 189.813 395.896 189.603 395.896C188.217 395.896 187.419 396.708 187.419 398.374V402H186.243V394.916H187.419V396.246C187.741 395.336 188.525 394.804 189.575 394.804C189.813 394.804 190.037 394.832 190.219 394.902ZM197.778 398.822H192.108C192.234 400.236 193.186 401.104 194.572 401.104C195.482 401.104 196.238 400.74 196.826 399.998L197.624 400.67C196.938 401.636 195.846 402.196 194.544 402.196C192.402 402.196 190.904 400.67 190.904 398.472C190.904 396.302 192.36 394.72 194.446 394.72C196.42 394.72 197.82 396.134 197.82 398.192C197.82 398.402 197.806 398.612 197.778 398.822ZM192.136 397.87H196.616C196.504 396.568 195.678 395.812 194.446 395.812C193.2 395.812 192.346 396.596 192.136 397.87ZM204.217 394.916H205.477L202.593 402H201.333L198.449 394.916H199.709L201.963 400.712L204.217 394.916ZM206.141 398.458C206.113 396.456 207.639 394.678 209.781 394.72C211.923 394.678 213.449 396.456 213.421 398.458C213.449 400.46 211.923 402.238 209.781 402.196C207.639 402.238 206.113 400.46 206.141 398.458ZM212.189 398.458C212.189 397.688 211.965 397.044 211.517 396.554C211.083 396.064 210.495 395.812 209.781 395.812C209.067 395.812 208.479 396.064 208.031 396.554C207.597 397.044 207.373 397.688 207.373 398.458C207.373 399.228 207.597 399.872 208.031 400.362C208.479 400.852 209.067 401.104 209.781 401.104C210.495 401.104 211.083 400.852 211.517 400.362C211.965 399.872 212.189 399.228 212.189 398.458ZM215.296 402V391.752H216.472V402H215.296ZM218.708 399.354V394.916H219.884V399.284C219.884 400.46 220.57 401.104 221.76 401.104C222.95 401.104 223.636 400.46 223.636 399.284V394.916H224.812V399.354C224.812 401.034 223.594 402.196 221.76 402.196C219.926 402.196 218.708 401.034 218.708 399.354ZM227.566 400.18V395.924H226.152V394.916H227.566V392.816H228.742V394.916H230.968V395.924H228.742V400.096C228.742 400.782 229.092 401.076 229.89 401.076C230.212 401.076 230.59 401.034 230.996 400.95V401.93C230.59 402.056 230.17 402.112 229.722 402.112C228.322 402.112 227.566 401.454 227.566 400.18ZM232.44 392.62C232.44 392.158 232.79 391.808 233.252 391.808C233.714 391.808 234.064 392.158 234.064 392.62C234.064 393.082 233.714 393.432 233.252 393.432C232.79 393.432 232.44 393.082 232.44 392.62ZM232.664 402V394.916H233.84V402H232.664ZM235.725 398.458C235.697 396.456 237.223 394.678 239.365 394.72C241.507 394.678 243.033 396.456 243.005 398.458C243.033 400.46 241.507 402.238 239.365 402.196C237.223 402.238 235.697 400.46 235.725 398.458ZM241.773 398.458C241.773 397.688 241.549 397.044 241.101 396.554C240.667 396.064 240.079 395.812 239.365 395.812C238.651 395.812 238.063 396.064 237.615 396.554C237.181 397.044 236.957 397.688 236.957 398.458C236.957 399.228 237.181 399.872 237.615 400.362C238.063 400.852 238.651 401.104 239.365 401.104C240.079 401.104 240.667 400.852 241.101 400.362C241.549 399.872 241.773 399.228 241.773 398.458ZM251.04 397.464V402H249.864V397.744C249.864 396.4 249.36 395.812 248.24 395.812C246.966 395.812 246.056 396.596 246.056 397.786V402H244.88V394.916H246.056V396.12C246.448 395.224 247.358 394.72 248.52 394.72C250.13 394.72 251.04 395.714 251.04 397.464ZM253.156 392.62C253.156 392.158 253.506 391.808 253.968 391.808C254.43 391.808 254.78 392.158 254.78 392.62C254.78 393.082 254.43 393.432 253.968 393.432C253.506 393.432 253.156 393.082 253.156 392.62ZM253.38 402V394.916H254.556V402H253.38ZM256.273 400.656L257.127 400.026C257.631 400.754 258.457 401.132 259.423 401.132C260.431 401.132 261.047 400.712 261.047 400.054C261.047 399.55 260.697 399.256 259.801 399.046L258.681 398.794C257.225 398.458 256.525 397.814 256.525 396.82C256.525 395.574 257.589 394.72 259.311 394.72C260.543 394.72 261.537 395.154 262.111 395.924L261.299 396.624C260.837 396.078 260.123 395.784 259.241 395.784C258.233 395.784 257.701 396.162 257.701 396.792C257.701 397.254 258.023 397.52 258.975 397.744L260.221 398.024C261.621 398.346 262.223 398.976 262.223 399.97C262.223 401.314 261.173 402.196 259.437 402.196C257.995 402.196 256.833 401.608 256.273 400.656ZM270.353 398.822H264.683C264.809 400.236 265.761 401.104 267.147 401.104C268.057 401.104 268.813 400.74 269.401 399.998L270.199 400.67C269.513 401.636 268.421 402.196 267.119 402.196C264.977 402.196 263.479 400.67 263.479 398.472C263.479 396.302 264.935 394.72 267.021 394.72C268.995 394.72 270.395 396.134 270.395 398.192C270.395 398.402 270.381 398.612 270.353 398.822ZM264.711 397.87H269.191C269.079 396.568 268.253 395.812 267.021 395.812C265.775 395.812 264.921 396.596 264.711 397.87ZM280.154 394.916H281.33V401.314C281.33 403.708 280.056 404.996 277.872 404.996C276.682 404.996 275.59 404.604 274.932 403.932L275.618 403.092C276.192 403.61 277.004 403.904 277.844 403.904C279.314 403.904 280.154 403.036 280.154 401.314V400.6C279.748 401.496 278.824 402 277.662 402C276.08 402 275.142 401.034 275.142 399.256V394.916H276.318V398.976C276.318 400.32 276.836 400.908 277.942 400.908C279.23 400.908 280.154 400.11 280.154 398.934V394.916ZM283.211 398.458C283.183 396.456 284.709 394.678 286.851 394.72C288.993 394.678 290.519 396.456 290.491 398.458C290.519 400.46 288.993 402.238 286.851 402.196C284.709 402.238 283.183 400.46 283.211 398.458ZM289.259 398.458C289.259 397.688 289.035 397.044 288.587 396.554C288.153 396.064 287.565 395.812 286.851 395.812C286.137 395.812 285.549 396.064 285.101 396.554C284.667 397.044 284.443 397.688 284.443 398.458C284.443 399.228 284.667 399.872 285.101 400.362C285.549 400.852 286.137 401.104 286.851 401.104C287.565 401.104 288.153 400.852 288.587 400.362C289.035 399.872 289.259 399.228 289.259 398.458ZM292.226 399.354V394.916H293.402V399.284C293.402 400.46 294.088 401.104 295.278 401.104C296.468 401.104 297.154 400.46 297.154 399.284V394.916H298.33V399.354C298.33 401.034 297.112 402.196 295.278 402.196C293.444 402.196 292.226 401.034 292.226 399.354ZM304.542 394.902V395.938C304.332 395.91 304.136 395.896 303.926 395.896C302.54 395.896 301.742 396.708 301.742 398.374V402H300.566V394.916H301.742V396.246C302.064 395.336 302.848 394.804 303.898 394.804C304.136 394.804 304.36 394.832 304.542 394.902ZM32.428 418.458C32.428 420.642 31 422.196 29.068 422.196C27.878 422.196 26.87 421.608 26.436 420.698V422H25.26V411.752H26.436V416.218C26.87 415.308 27.878 414.72 29.068 414.72C31 414.72 32.428 416.274 32.428 418.458ZM31.196 418.458C31.196 417.688 30.972 417.044 30.524 416.554C30.09 416.064 29.502 415.812 28.788 415.812C28.074 415.812 27.486 416.064 27.038 416.554C26.604 417.044 26.38 417.688 26.38 418.458C26.38 419.228 26.604 419.872 27.038 420.362C27.486 420.852 28.074 421.104 28.788 421.104C29.502 421.104 30.09 420.852 30.524 420.362C30.972 419.872 31.196 419.228 31.196 418.458ZM34.1675 419.354V414.916H35.3435V419.284C35.3435 420.46 36.0295 421.104 37.2195 421.104C38.4095 421.104 39.0955 420.46 39.0955 419.284V414.916H40.2715V419.354C40.2715 421.034 39.0535 422.196 37.2195 422.196C35.3855 422.196 34.1675 421.034 34.1675 419.354ZM41.8353 420.656L42.6893 420.026C43.1933 420.754 44.0193 421.132 44.9853 421.132C45.9933 421.132 46.6093 420.712 46.6093 420.054C46.6093 419.55 46.2593 419.256 45.3633 419.046L44.2433 418.794C42.7873 418.458 42.0873 417.814 42.0873 416.82C42.0873 415.574 43.1513 414.72 44.8733 414.72C46.1053 414.72 47.0993 415.154 47.6733 415.924L46.8613 416.624C46.3993 416.078 45.6853 415.784 44.8033 415.784C43.7953 415.784 43.2633 416.162 43.2633 416.792C43.2633 417.254 43.5853 417.52 44.5373 417.744L45.7833 418.024C47.1833 418.346 47.7853 418.976 47.7853 419.97C47.7853 421.314 46.7353 422.196 44.9993 422.196C43.5573 422.196 42.3953 421.608 41.8353 420.656ZM49.3351 412.62C49.3351 412.158 49.6851 411.808 50.1471 411.808C50.6091 411.808 50.9591 412.158 50.9591 412.62C50.9591 413.082 50.6091 413.432 50.1471 413.432C49.6851 413.432 49.3351 413.082 49.3351 412.62ZM49.5591 422V414.916H50.7351V422H49.5591ZM59.2838 417.464V422H58.1078V417.744C58.1078 416.4 57.6038 415.812 56.4838 415.812C55.2098 415.812 54.2998 416.596 54.2998 417.786V422H53.1238V414.916H54.2998V416.12C54.6918 415.224 55.6018 414.72 56.7638 414.72C58.3738 414.72 59.2838 415.714 59.2838 417.464ZM67.9808 418.822H62.3108C62.4368 420.236 63.3888 421.104 64.7748 421.104C65.6848 421.104 66.4408 420.74 67.0288 419.998L67.8268 420.67C67.1408 421.636 66.0488 422.196 64.7468 422.196C62.6048 422.196 61.1068 420.67 61.1068 418.472C61.1068 416.302 62.5628 414.72 64.6488 414.72C66.6228 414.72 68.0228 416.134 68.0228 418.192C68.0228 418.402 68.0088 418.612 67.9808 418.822ZM62.3388 417.87H66.8188C66.7068 416.568 65.8808 415.812 64.6488 415.812C63.4028 415.812 62.5488 416.596 62.3388 417.87ZM69.1933 420.656L70.0473 420.026C70.5513 420.754 71.3773 421.132 72.3433 421.132C73.3513 421.132 73.9673 420.712 73.9673 420.054C73.9673 419.55 73.6173 419.256 72.7213 419.046L71.6013 418.794C70.1453 418.458 69.4453 417.814 69.4453 416.82C69.4453 415.574 70.5093 414.72 72.2313 414.72C73.4633 414.72 74.4573 415.154 75.0313 415.924L74.2193 416.624C73.7573 416.078 73.0433 415.784 72.1613 415.784C71.1533 415.784 70.6213 416.162 70.6213 416.792C70.6213 417.254 70.9433 417.52 71.8953 417.744L73.1413 418.024C74.5413 418.346 75.1433 418.976 75.1433 419.97C75.1433 421.314 74.0933 422.196 72.3573 422.196C70.9153 422.196 69.7533 421.608 69.1933 420.656ZM76.2174 420.656L77.0714 420.026C77.5754 420.754 78.4014 421.132 79.3674 421.132C80.3754 421.132 80.9914 420.712 80.9914 420.054C80.9914 419.55 80.6414 419.256 79.7454 419.046L78.6254 418.794C77.1694 418.458 76.4694 417.814 76.4694 416.82C76.4694 415.574 77.5334 414.72 79.2554 414.72C80.4874 414.72 81.4814 415.154 82.0554 415.924L81.2434 416.624C80.7814 416.078 80.0674 415.784 79.1854 415.784C78.1774 415.784 77.6454 416.162 77.6454 416.792C77.6454 417.254 77.9674 417.52 78.9194 417.744L80.1654 418.024C81.5654 418.346 82.1674 418.976 82.1674 419.97C82.1674 421.314 81.1174 422.196 79.3814 422.196C77.9394 422.196 76.7774 421.608 76.2174 420.656ZM86.5097 418.458C86.4817 416.456 88.0077 414.678 90.1497 414.72C92.2917 414.678 93.8177 416.456 93.7897 418.458C93.8177 420.46 92.2917 422.238 90.1497 422.196C88.0077 422.238 86.4817 420.46 86.5097 418.458ZM92.5577 418.458C92.5577 417.688 92.3337 417.044 91.8857 416.554C91.4517 416.064 90.8637 415.812 90.1497 415.812C89.4357 415.812 88.8477 416.064 88.3997 416.554C87.9657 417.044 87.7417 417.688 87.7417 418.458C87.7417 419.228 87.9657 419.872 88.3997 420.362C88.8477 420.852 89.4357 421.104 90.1497 421.104C90.8637 421.104 91.4517 420.852 91.8857 420.362C92.3337 419.872 92.5577 419.228 92.5577 418.458ZM102.833 418.458C102.833 420.642 101.405 422.196 99.4727 422.196C98.2827 422.196 97.2747 421.608 96.8407 420.698V424.8H95.6647V414.916H96.8407V416.218C97.2747 415.308 98.2827 414.72 99.4727 414.72C101.405 414.72 102.833 416.274 102.833 418.458ZM101.601 418.458C101.601 417.688 101.377 417.044 100.929 416.554C100.495 416.064 99.9067 415.812 99.1927 415.812C98.4787 415.812 97.8907 416.064 97.4427 416.554C97.0087 417.044 96.7847 417.688 96.7847 418.458C96.7847 419.228 97.0087 419.872 97.4427 420.362C97.8907 420.852 98.4787 421.104 99.1927 421.104C99.9067 421.104 100.495 420.852 100.929 420.362C101.377 419.872 101.601 419.228 101.601 418.458ZM111.082 418.822H105.412C105.538 420.236 106.49 421.104 107.876 421.104C108.786 421.104 109.542 420.74 110.13 419.998L110.928 420.67C110.242 421.636 109.15 422.196 107.848 422.196C105.706 422.196 104.208 420.67 104.208 418.472C104.208 416.302 105.664 414.72 107.75 414.72C109.724 414.72 111.124 416.134 111.124 418.192C111.124 418.402 111.11 418.612 111.082 418.822ZM105.44 417.87H109.92C109.808 416.568 108.982 415.812 107.75 415.812C106.504 415.812 105.65 416.596 105.44 417.87ZM116.943 414.902V415.938C116.733 415.91 116.537 415.896 116.327 415.896C114.941 415.896 114.143 416.708 114.143 418.374V422H112.967V414.916H114.143V416.246C114.465 415.336 115.249 414.804 116.299 414.804C116.537 414.804 116.761 414.832 116.943 414.902ZM123.619 414.916H124.795V422H123.619V420.698C123.213 421.608 122.191 422.196 121.001 422.196C119.055 422.196 117.627 420.642 117.627 418.458C117.627 416.274 119.055 414.72 121.001 414.72C122.191 414.72 123.213 415.308 123.619 416.218V414.916ZM123.675 418.458C123.675 417.688 123.451 417.044 123.003 416.554C122.569 416.064 121.981 415.812 121.267 415.812C120.553 415.812 119.965 416.064 119.517 416.554C119.083 417.044 118.859 417.688 118.859 418.458C118.859 419.228 119.083 419.872 119.517 420.362C119.965 420.852 120.553 421.104 121.267 421.104C121.981 421.104 122.569 420.852 123.003 420.362C123.451 419.872 123.675 419.228 123.675 418.458ZM127.697 420.18V415.924H126.283V414.916H127.697V412.816H128.873V414.916H131.099V415.924H128.873V420.096C128.873 420.782 129.223 421.076 130.021 421.076C130.343 421.076 130.721 421.034 131.127 420.95V421.93C130.721 422.056 130.301 422.112 129.853 422.112C128.453 422.112 127.697 421.454 127.697 420.18ZM132.571 412.62C132.571 412.158 132.921 411.808 133.383 411.808C133.845 411.808 134.195 412.158 134.195 412.62C134.195 413.082 133.845 413.432 133.383 413.432C132.921 413.432 132.571 413.082 132.571 412.62ZM132.795 422V414.916H133.971V422H132.795ZM135.856 418.458C135.828 416.456 137.354 414.678 139.496 414.72C141.638 414.678 143.164 416.456 143.136 418.458C143.164 420.46 141.638 422.238 139.496 422.196C137.354 422.238 135.828 420.46 135.856 418.458ZM141.904 418.458C141.904 417.688 141.68 417.044 141.232 416.554C140.798 416.064 140.21 415.812 139.496 415.812C138.782 415.812 138.194 416.064 137.746 416.554C137.312 417.044 137.088 417.688 137.088 418.458C137.088 419.228 137.312 419.872 137.746 420.362C138.194 420.852 138.782 421.104 139.496 421.104C140.21 421.104 140.798 420.852 141.232 420.362C141.68 419.872 141.904 419.228 141.904 418.458ZM151.171 417.464V422H149.995V417.744C149.995 416.4 149.491 415.812 148.371 415.812C147.097 415.812 146.187 416.596 146.187 417.786V422H145.011V414.916H146.187V416.12C146.579 415.224 147.489 414.72 148.651 414.72C150.261 414.72 151.171 415.714 151.171 417.464ZM152.826 420.656L153.68 420.026C154.184 420.754 155.01 421.132 155.976 421.132C156.984 421.132 157.6 420.712 157.6 420.054C157.6 419.55 157.25 419.256 156.354 419.046L155.234 418.794C153.778 418.458 153.078 417.814 153.078 416.82C153.078 415.574 154.142 414.72 155.864 414.72C157.096 414.72 158.09 415.154 158.664 415.924L157.852 416.624C157.39 416.078 156.676 415.784 155.794 415.784C154.786 415.784 154.254 416.162 154.254 416.792C154.254 417.254 154.576 417.52 155.528 417.744L156.774 418.024C158.174 418.346 158.776 418.976 158.776 419.97C158.776 421.314 157.726 422.196 155.99 422.196C154.548 422.196 153.386 421.608 152.826 420.656ZM160.117 421.258C160.117 420.768 160.453 420.432 160.957 420.432C161.461 420.432 161.797 420.768 161.797 421.258C161.797 421.762 161.461 422.112 160.957 422.112C160.453 422.112 160.117 421.762 160.117 421.258Z" fill="#2F2B43" fill-opacity="0.6"/>
<path d="M55.8926 78.8994H131.812C136.006 78.8994 140.029 80.5658 142.995 83.5319L202.757 143.294" stroke="#DFE1E7" stroke-width="1.12973"/>
<path d="M55.8926 78.8994H131.812C136.006 78.8994 140.029 80.5658 142.995 83.5319L202.757 143.294" stroke="url(#paint0_linear_3028_3472)" stroke-width="1.12973"/>
<path d="M55.8926 76.6406H132.941C137.136 76.6406 141.159 78.307 144.125 81.2731L208.971 146.119" stroke="#DFE1E7" stroke-width="1.12973"/>
<path d="M55.8926 74.3809H134.071C138.266 74.3809 142.289 76.0472 145.255 79.0133L211.23 144.989" stroke="#DFE1E7" stroke-width="1.12973"/>
<path d="M55.8926 81.1592H130.682C134.877 81.1592 138.899 82.8255 141.866 85.7916L199.368 143.294" stroke="#DFE1E7" stroke-width="1.12973"/>
<path d="M55.8926 83.4189H129.552C133.747 83.4189 137.77 85.0853 140.736 88.0514L194.849 142.165" stroke="#DFE1E7" stroke-width="1.12973"/>
<path d="M55.8926 246.1H131.812C136.006 246.1 140.029 244.433 142.995 241.467L202.757 181.705" stroke="#DFE1E7" stroke-width="1.12973"/>
<path d="M55.8926 243.275H130.682C134.877 243.275 138.899 241.609 141.866 238.643L199.368 181.14" stroke="#DFE1E7" stroke-width="1.12973"/>
<path d="M55.8926 248.359H132.941C137.136 248.359 141.159 246.693 144.125 243.727L208.971 178.881" stroke="#DFE1E7" stroke-width="1.12973"/>
<path d="M55.8926 250.619H134.071C138.266 250.619 142.289 248.953 145.255 245.987L211.23 180.011" stroke="#DFE1E7" stroke-width="1.12973"/>
<path d="M55.8926 243.84H130.682C134.877 243.84 138.899 242.173 141.866 239.207L199.368 181.705" stroke="url(#paint1_linear_3028_3472)" stroke-width="1.12973"/>
<path d="M55.8926 241.581H129.552C133.747 241.581 137.77 239.915 140.736 236.949L194.849 182.835" stroke="#DFE1E7" stroke-width="1.12973"/>
<g filter="url(#filter0_d_3028_3472)">
<circle cx="44.0297" cy="244.97" r="22.0297" fill="white"/>
<circle cx="44.0297" cy="244.97" r="21.4649" stroke="#F5F5F5" stroke-width="1.12973"/>
</g>
<path d="M83.0049 156.287H190.329" stroke="#DFE1E7" stroke-width="1.12973"/>
<path d="M83.0049 158.547H190.329" stroke="#DFE1E7" stroke-width="1.12973"/>
<path d="M83.0049 160.806H190.329" stroke="#DFE1E7" stroke-width="1.12973"/>
<path d="M114.638 160.806L163.216 160.806" stroke="url(#paint2_linear_3028_3472)" stroke-width="1.12973" stroke-linecap="round"/>
<path d="M83.0049 163.065H190.329" stroke="#DFE1E7" stroke-width="1.12973"/>
<path d="M83.0049 165.325H190.329" stroke="#DFE1E7" stroke-width="1.12973"/>
<g filter="url(#filter1_d_3028_3472)">
<circle cx="77.9213" cy="162.5" r="22.0297" fill="white"/>
<circle cx="77.9213" cy="162.5" r="21.4649" stroke="#F5F5F5" stroke-width="1.12973"/>
</g>
<g filter="url(#filter2_d_3028_3472)">
<circle cx="44.0297" cy="80.0297" r="22.0297" fill="white"/>
<circle cx="44.0297" cy="80.0297" r="21.4649" stroke="#F5F5F5" stroke-width="1.12973"/>
</g>
<path d="M220.832 149.509H328.156" stroke="#DFE1E7" stroke-width="1.12973"/>
<path d="M220.832 160.806H328.156" stroke="#DFE1E7" stroke-width="1.12973"/>
<path d="M220.832 151.769H328.156" stroke="#DFE1E7" stroke-width="1.12973"/>
<path d="M220.832 163.065H328.156" stroke="#DFE1E7" stroke-width="1.12973"/>
<path d="M220.832 154.027H328.156" stroke="#DFE1E7" stroke-width="1.12973"/>
<path d="M220.832 165.325H328.156" stroke="#DFE1E7" stroke-width="1.12973"/>
<path d="M220.832 156.287H328.156" stroke="#DFE1E7" stroke-width="1.12973"/>
<path d="M220.832 167.584H328.156" stroke="#DFE1E7" stroke-width="1.12973"/>
<path d="M220.832 172.104H328.156" stroke="#DFE1E7" stroke-width="1.12973"/>
<path d="M220.832 158.547H328.156" stroke="#DFE1E7" stroke-width="1.12973"/>
<path d="M220.832 169.844H328.156" stroke="#DFE1E7" stroke-width="1.12973"/>
<path d="M220.832 174.363H328.156" stroke="#DFE1E7" stroke-width="1.12973"/>
<path d="M233.259 158.547L281.837 158.547" stroke="url(#paint3_linear_3028_3472)" stroke-width="1.12973" stroke-linecap="round"/>
<path d="M280.708 172.104L316.859 172.104" stroke="url(#paint4_linear_3028_3472)" stroke-width="1.12973" stroke-linecap="round"/>
<g filter="url(#filter3_d_3028_3472)">
<g filter="url(#filter4_d_3028_3472)">
<g clip-path="url(#clip0_3028_3472)">
<rect x="179.032" y="138.211" width="45.1892" height="45.1892" rx="11.6485" fill="#0D0D12"/>
<rect x="179.032" y="138.211" width="45.1892" height="45.1892" fill="url(#paint5_linear_3028_3472)" fill-opacity="0.16"/>
<g filter="url(#filter5_b_3028_3472)">
<path d="M192.312 150.294C192.312 150.067 192.496 149.883 192.723 149.883H206.705C209.566 149.883 211.886 152.203 211.886 155.064C211.886 155.291 211.702 155.476 211.475 155.476H197.493C194.631 155.476 192.312 153.156 192.312 150.294Z" fill="white"/>
</g>
<path d="M192.312 163.513C192.312 163.741 192.496 163.925 192.723 163.925H206.705C209.566 163.925 211.886 161.605 211.886 158.744C211.886 158.516 211.702 158.332 211.475 158.332H197.493C194.631 158.332 192.312 160.652 192.312 163.513Z" fill="white"/>
<g filter="url(#filter6_b_3028_3472)">
<path d="M200.7 167.193C200.7 166.965 200.884 166.781 201.112 166.781H206.704C209.566 166.781 211.886 169.101 211.886 171.963C211.886 172.19 211.701 172.374 211.474 172.374H205.881C203.02 172.374 200.7 170.054 200.7 167.193Z" fill="white"/>
</g>
</g>
<rect x="179.684" y="138.863" width="43.8857" height="43.8857" rx="10.9968" stroke="white" stroke-width="1.30353"/>
</g>
</g>
<g filter="url(#filter7_d_3028_3472)">
<circle cx="340.019" cy="162.5" r="22.0297" fill="white"/>
<circle cx="340.019" cy="162.5" r="21.4649" stroke="#F5F5F5" stroke-width="1.12973"/>
</g>
<defs>
<filter id="filter0_d_3028_3472" x="17.4811" y="220.681" width="53.0974" height="53.0974" filterUnits="userSpaceOnUse" color-interpolation-filters="sRGB">
<feFlood flood-opacity="0" result="BackgroundImageFix"/>
<feColorMatrix in="SourceAlpha" type="matrix" values="0 0 0 0 0 0 0 0 0 0 0 0 0 0 0 0 0 0 127 0" result="hardAlpha"/>
<feOffset dy="2.25946"/>
<feGaussianBlur stdDeviation="2.25946"/>
<feComposite in2="hardAlpha" operator="out"/>
<feColorMatrix type="matrix" values="0 0 0 0 0.105882 0 0 0 0 0.109804 0 0 0 0 0.113725 0 0 0 0.04 0"/>
<feBlend mode="normal" in2="BackgroundImageFix" result="effect1_dropShadow_3028_3472"/>
<feBlend mode="normal" in="SourceGraphic" in2="effect1_dropShadow_3028_3472" result="shape"/>
</filter>
<filter id="filter1_d_3028_3472" x="51.3727" y="138.211" width="53.0974" height="53.0974" filterUnits="userSpaceOnUse" color-interpolation-filters="sRGB">
<feFlood flood-opacity="0" result="BackgroundImageFix"/>
<feColorMatrix in="SourceAlpha" type="matrix" values="0 0 0 0 0 0 0 0 0 0 0 0 0 0 0 0 0 0 127 0" result="hardAlpha"/>
<feOffset dy="2.25946"/>
<feGaussianBlur stdDeviation="2.25946"/>
<feComposite in2="hardAlpha" operator="out"/>
<feColorMatrix type="matrix" values="0 0 0 0 0.105882 0 0 0 0 0.109804 0 0 0 0 0.113725 0 0 0 0.04 0"/>
<feBlend mode="normal" in2="BackgroundImageFix" result="effect1_dropShadow_3028_3472"/>
<feBlend mode="normal" in="SourceGraphic" in2="effect1_dropShadow_3028_3472" result="shape"/>
</filter>
<filter id="filter2_d_3028_3472" x="17.4811" y="55.7405" width="53.0974" height="53.0974" filterUnits="userSpaceOnUse" color-interpolation-filters="sRGB">
<feFlood flood-opacity="0" result="BackgroundImageFix"/>
<feColorMatrix in="SourceAlpha" type="matrix" values="0 0 0 0 0 0 0 0 0 0 0 0 0 0 0 0 0 0 127 0" result="hardAlpha"/>
<feOffset dy="2.25946"/>
<feGaussianBlur stdDeviation="2.25946"/>
<feComposite in2="hardAlpha" operator="out"/>
<feColorMatrix type="matrix" values="0 0 0 0 0.105882 0 0 0 0 0.109804 0 0 0 0 0.113725 0 0 0 0.04 0"/>
<feBlend mode="normal" in2="BackgroundImageFix" result="effect1_dropShadow_3028_3472"/>
<feBlend mode="normal" in="SourceGraphic" in2="effect1_dropShadow_3028_3472" result="shape"/>
</filter>
<filter id="filter3_d_3028_3472" x="163.216" y="122.395" width="76.8219" height="76.8219" filterUnits="userSpaceOnUse" color-interpolation-filters="sRGB">
<feFlood flood-opacity="0" result="BackgroundImageFix"/>
<feColorMatrix in="SourceAlpha" type="matrix" values="0 0 0 0 0 0 0 0 0 0 0 0 0 0 0 0 0 0 127 0" result="hardAlpha"/>
<feOffset/>
<feGaussianBlur stdDeviation="7.90811"/>
<feComposite in2="hardAlpha" operator="out"/>
<feColorMatrix type="matrix" values="0 0 0 0 0.027451 0 0 0 0 0.396078 0 0 0 0 1 0 0 0 0.54 0"/>
<feBlend mode="normal" in2="BackgroundImageFix" result="effect1_dropShadow_3028_3472"/>
<feBlend mode="normal" in="SourceGraphic" in2="effect1_dropShadow_3028_3472" result="shape"/>
</filter>
<filter id="filter4_d_3028_3472" x="175.032" y="136.211" width="53.1895" height="53.1895" filterUnits="userSpaceOnUse" color-interpolation-filters="sRGB">
<feFlood flood-opacity="0" result="BackgroundImageFix"/>
<feColorMatrix in="SourceAlpha" type="matrix" values="0 0 0 0 0 0 0 0 0 0 0 0 0 0 0 0 0 0 127 0" result="hardAlpha"/>
<feOffset dy="2"/>
<feGaussianBlur stdDeviation="2"/>
<feComposite in2="hardAlpha" operator="out"/>
<feColorMatrix type="matrix" values="0 0 0 0 0.105882 0 0 0 0 0.109804 0 0 0 0 0.113725 0 0 0 0.04 0"/>
<feBlend mode="normal" in2="BackgroundImageFix" result="effect1_dropShadow_3028_3472"/>
<feBlend mode="normal" in="SourceGraphic" in2="effect1_dropShadow_3028_3472" result="shape"/>
</filter>
<filter id="filter5_b_3028_3472" x="190.831" y="148.402" width="22.5351" height="8.55364" filterUnits="userSpaceOnUse" color-interpolation-filters="sRGB">
<feFlood flood-opacity="0" result="BackgroundImageFix"/>
<feGaussianBlur in="BackgroundImageFix" stdDeviation="0.740217"/>
<feComposite in2="SourceAlpha" operator="in" result="effect1_backgroundBlur_3028_3472"/>
<feBlend mode="normal" in="SourceGraphic" in2="effect1_backgroundBlur_3028_3472" result="shape"/>
</filter>
<filter id="filter6_b_3028_3472" x="199.22" y="165.301" width="14.1464" height="8.55364" filterUnits="userSpaceOnUse" color-interpolation-filters="sRGB">
<feFlood flood-opacity="0" result="BackgroundImageFix"/>
<feGaussianBlur in="BackgroundImageFix" stdDeviation="0.740217"/>
<feComposite in2="SourceAlpha" operator="in" result="effect1_backgroundBlur_3028_3472"/>
<feBlend mode="normal" in="SourceGraphic" in2="effect1_backgroundBlur_3028_3472" result="shape"/>
</filter>
<filter id="filter7_d_3028_3472" x="313.47" y="138.211" width="53.0974" height="53.0974" filterUnits="userSpaceOnUse" color-interpolation-filters="sRGB">
<feFlood flood-opacity="0" result="BackgroundImageFix"/>
<feColorMatrix in="SourceAlpha" type="matrix" values="0 0 0 0 0 0 0 0 0 0 0 0 0 0 0 0 0 0 127 0" result="hardAlpha"/>
<feOffset dy="2.25946"/>
<feGaussianBlur stdDeviation="2.25946"/>
<feComposite in2="hardAlpha" operator="out"/>
<feColorMatrix type="matrix" values="0 0 0 0 0.105882 0 0 0 0 0.109804 0 0 0 0 0.113725 0 0 0 0.04 0"/>
<feBlend mode="normal" in2="BackgroundImageFix" result="effect1_dropShadow_3028_3472"/>
<feBlend mode="normal" in="SourceGraphic" in2="effect1_dropShadow_3028_3472" result="shape"/>
</filter>
<linearGradient id="paint0_linear_3028_3472" x1="179.051" y1="118.122" x2="95.9928" y2="79.111" gradientUnits="userSpaceOnUse">
<stop stop-color="#0765FF" stop-opacity="0"/>
<stop offset="0.578076" stop-color="#0765FF"/>
<stop offset="1" stop-color="#0765FF" stop-opacity="0"/>
</linearGradient>
<linearGradient id="paint1_linear_3028_3472" x1="176.209" y1="205.994" x2="95.4331" y2="244.405" gradientUnits="userSpaceOnUse">
<stop stop-color="#0765FF" stop-opacity="0"/>
<stop offset="0.578076" stop-color="#0765FF"/>
<stop offset="1" stop-color="#0765FF" stop-opacity="0"/>
</linearGradient>
<linearGradient id="paint2_linear_3028_3472" x1="114.638" y1="161.306" x2="163.216" y2="161.306" gradientUnits="userSpaceOnUse">
<stop stop-color="#DFE1E7"/>
<stop offset="1" stop-color="#375DFB"/>
</linearGradient>
<linearGradient id="paint3_linear_3028_3472" x1="233.259" y1="159.047" x2="281.837" y2="159.047" gradientUnits="userSpaceOnUse">
<stop stop-color="#DFE1E7"/>
<stop offset="1" stop-color="#375DFB"/>
</linearGradient>
<linearGradient id="paint4_linear_3028_3472" x1="280.708" y1="172.604" x2="316.859" y2="172.604" gradientUnits="userSpaceOnUse">
<stop stop-color="#DFE1E7"/>
<stop offset="1" stop-color="#375DFB"/>
</linearGradient>
<linearGradient id="paint5_linear_3028_3472" x1="201.627" y1="87.0201" x2="201.627" y2="183.4" gradientUnits="userSpaceOnUse">
<stop stop-color="white"/>
<stop offset="1" stop-color="white" stop-opacity="0"/>
</linearGradient>
<clipPath id="clip0_3028_3472">
<rect x="179.032" y="138.211" width="45.1892" height="45.1892" rx="11.6485" fill="white"/>
</clipPath>
</defs>
</svg>
