<svg width="151" height="44" viewBox="0 0 151 44" fill="none" xmlns="http://www.w3.org/2000/svg">
<path d="M144.918 43.4756H5.57377C2.50959 43.4756 0 41.0287 0 38.0412V5.43461C0 2.44703 2.50959 0.000178709 5.57377 0.000178709H144.918C147.982 0.000178709 150.492 2.44703 150.492 5.43461V38.0412C150.492 41.0287 147.982 43.4756 144.918 43.4756Z" fill="#191C1F"/>
<path d="M144.918 0.871046C147.499 0.871046 149.599 2.91847 149.599 5.43461V38.0412C149.599 40.5573 147.499 42.6047 144.918 42.6047H5.57377C2.99311 42.6047 0.893196 40.5573 0.893196 38.0412V5.43461C0.893196 2.91847 2.99311 0.871046 5.57377 0.871046H144.918ZM144.918 0.000178709H5.57377C2.50959 0.000178709 0 2.44703 0 5.43461V38.0412C0 41.0287 2.50959 43.4756 5.57377 43.4756H144.918C147.982 43.4756 150.492 41.0287 150.492 38.0412V5.43461C150.492 2.44703 147.982 0.000178709 144.918 0.000178709Z" fill="#2B3036"/>
<path d="M52.8586 11.1333C52.8586 12.0408 52.58 12.7677 52.0309 13.3097C51.3997 13.9524 50.5776 14.2757 49.5701 14.2757C48.6072 14.2757 47.7851 13.9469 47.1107 13.2989C46.4349 12.6413 46.0977 11.8343 46.0977 10.8683C46.0977 9.90235 46.4349 9.09534 47.1107 8.44321C47.7851 7.78972 48.6072 7.46094 49.5701 7.46094C50.0495 7.46094 50.5065 7.5574 50.9427 7.73673C51.3774 7.91743 51.7313 8.16198 51.9877 8.46359L51.4053 9.03692C50.958 8.52201 50.3491 8.26795 49.5701 8.26795C48.8678 8.26795 48.2589 8.50706 47.7419 8.98937C47.2305 9.47303 46.9741 10.0994 46.9741 10.8683C46.9741 11.6373 47.2305 12.269 47.7419 12.7527C48.2589 13.2296 48.8678 13.4741 49.5701 13.4741C50.3156 13.4741 50.9427 13.2296 51.4373 12.7473C51.7634 12.428 51.9487 11.9878 51.9975 11.4254H49.5701V10.6401H52.8085C52.8475 10.8099 52.8586 10.9743 52.8586 11.1333Z" fill="white" stroke="white" stroke-width="0.13377" stroke-miterlimit="10"/>
<path d="M57.9964 8.41057H54.9545V10.4757H57.6968V11.2609H54.9545V13.326H57.9964V14.1262H54.0934V7.61035H57.9964V8.41057Z" fill="white" stroke="white" stroke-width="0.13377" stroke-miterlimit="10"/>
<path d="M61.622 14.1262H60.7608V8.41057H58.895V7.61035H63.4892V8.41057H61.622V14.1262Z" fill="white" stroke="white" stroke-width="0.13377" stroke-miterlimit="10"/>
<path d="M66.814 14.1262V7.61035H67.6737V14.1262H66.814Z" fill="white" stroke="white" stroke-width="0.13377" stroke-miterlimit="10"/>
<path d="M71.4849 14.1262H70.6307V8.41057H68.7579V7.61035H73.3577V8.41057H71.4849V14.1262Z" fill="white" stroke="white" stroke-width="0.13377" stroke-miterlimit="10"/>
<path d="M82.0555 13.288C81.3964 13.9469 80.5798 14.2757 79.6058 14.2757C78.6262 14.2757 77.8097 13.9469 77.1506 13.288C76.4929 12.6304 76.1654 11.8234 76.1654 10.8683C76.1654 9.91322 76.4929 9.10621 77.1506 8.44864C77.8097 7.78972 78.6262 7.46094 79.6058 7.46094C80.5743 7.46094 81.3908 7.78972 82.0499 8.45408C82.7132 9.11708 83.0407 9.91866 83.0407 10.8683C83.0407 11.8234 82.7132 12.6304 82.0555 13.288ZM77.7874 12.7418C78.2834 13.2296 78.8868 13.4741 79.6058 13.4741C80.3193 13.4741 80.9282 13.2296 81.4187 12.7418C81.9134 12.2541 82.1642 11.6278 82.1642 10.8683C82.1642 10.1089 81.9134 9.48254 81.4187 8.9948C80.9282 8.50707 80.3193 8.26252 79.6058 8.26252C78.8868 8.26252 78.2834 8.50707 77.7874 8.9948C77.2927 9.48254 77.0419 10.1089 77.0419 10.8683C77.0419 11.6278 77.2927 12.2541 77.7874 12.7418Z" fill="white" stroke="white" stroke-width="0.13377" stroke-miterlimit="10"/>
<path d="M84.2489 14.1262V7.61035H85.294L88.5435 12.678H88.5811L88.5435 11.4253V7.61035H89.4033V14.1262H88.5059L85.1031 8.80864H85.0655L85.1031 10.0667V14.1262H84.2489Z" fill="white" stroke="white" stroke-width="0.13377" stroke-miterlimit="10"/>
<path d="M29.1586 27.5162L15.756 35.0287L15.7141 35.0491C15.2387 35.3276 14.6793 35.4838 14.0851 35.4838C12.5959 35.4838 11.3444 34.4989 10.9809 33.1676C10.9762 33.163 10.9739 33.1608 10.9739 33.1608L22.8873 20.8799L29.1586 27.5162Z" fill="#EA4335"/>
<path d="M36.6116 21.5319C36.6116 22.7206 35.9264 23.7598 34.9127 24.2897L29.1587 27.5161L22.6147 21.1583L29.1378 15.5205L34.9197 18.7809L34.9337 18.7877C35.9334 19.3175 36.6116 20.35 36.6116 21.5319Z" fill="#FBBC04"/>
<path d="M23.2928 21.1922L10.9739 33.1606C10.904 32.9025 10.869 32.6376 10.869 32.3591V10.6569C10.869 10.3785 10.904 10.1067 10.9739 9.84863L23.2928 21.1922Z" fill="#4285F4"/>
<path d="M10.9739 9.84843C11.3444 8.51031 12.5959 7.52539 14.0851 7.52539C14.6933 7.52539 15.2596 7.6952 15.749 7.9737L29.1376 15.5202L22.9712 21.5044L10.9739 9.84843Z" fill="#34A853"/>
<path d="M75.9541 23.6432C73.3359 23.6432 71.1969 25.586 71.1969 28.2665C71.1969 30.9253 73.3359 32.8885 75.9541 32.8885C78.578 32.8885 80.7169 30.9253 80.7169 28.2665C80.7169 25.586 78.578 23.6432 75.9541 23.6432ZM75.9541 31.068C74.5175 31.068 73.2815 29.9118 73.2815 28.2665C73.2815 26.5995 74.5175 25.4637 75.9541 25.4637C77.3908 25.4637 78.6323 26.5995 78.6323 28.2665C78.6323 29.9118 77.3908 31.068 75.9541 31.068ZM65.5744 23.6432C62.9505 23.6432 60.8172 25.586 60.8172 28.2665C60.8172 30.9253 62.9505 32.8885 65.5744 32.8885C68.1968 32.8885 70.3316 30.9253 70.3316 28.2665C70.3316 25.586 68.1968 23.6432 65.5744 23.6432ZM65.5744 31.068C64.1363 31.068 62.8962 29.9118 62.8962 28.2665C62.8962 26.5995 64.1363 25.4637 65.5744 25.4637C67.011 25.4637 68.247 26.5995 68.247 28.2665C68.247 29.9118 67.011 31.068 65.5744 31.068ZM53.2229 25.0602V27.0248H58.0345C57.8937 28.1225 57.5175 28.9295 56.9406 29.492C56.2383 30.1713 55.1445 30.9253 53.2229 30.9253C50.2618 30.9253 47.9432 28.5953 47.9432 25.7083C47.9432 22.8212 50.2618 20.4912 53.2229 20.4912C54.824 20.4912 55.9889 21.1013 56.8486 21.892L58.2686 20.5075C57.066 19.3881 55.4663 18.5281 53.2229 18.5281C49.1624 18.5281 45.7499 21.7493 45.7499 25.7083C45.7499 29.6673 49.1624 32.8885 53.2229 32.8885C55.4176 32.8885 57.066 32.1875 58.3619 30.8723C59.6899 29.5776 60.1037 27.7571 60.1037 26.2871C60.1037 25.8306 60.0647 25.4108 59.995 25.0602H53.2229ZM103.73 26.5832C103.338 25.5493 102.13 23.6432 99.6691 23.6432C97.2306 23.6432 95.2004 25.5167 95.2004 28.2665C95.2004 30.856 97.2097 32.8885 99.9032 32.8885C102.081 32.8885 103.338 31.5938 103.855 30.8397L102.239 29.7895C101.699 30.5585 100.965 31.068 99.9032 31.068C98.8484 31.068 98.0917 30.5966 97.6068 29.6673L103.948 27.109L103.73 26.5832ZM97.264 28.1225C97.2097 26.34 98.684 25.4271 99.7402 25.4271C100.568 25.4271 101.27 25.8306 101.504 26.408L97.264 28.1225ZM92.1097 32.6073H94.1943V19.0212H92.1097V32.6073ZM88.6958 24.673H88.6261C88.1579 24.1323 87.2647 23.6432 86.1332 23.6432C83.7588 23.6432 81.5878 25.6757 81.5878 28.2815C81.5878 30.8723 83.7588 32.8885 86.1332 32.8885C87.2647 32.8885 88.1579 32.3953 88.6261 31.8383H88.6958V32.5013C88.6958 34.2689 87.7273 35.2185 86.1653 35.2185C84.8917 35.2185 84.1016 34.3218 83.7755 33.5678L81.9627 34.3055C82.4852 35.531 83.8689 37.0391 86.1653 37.0391C88.6094 37.0391 90.6717 35.637 90.6717 32.2255V23.9244H88.6958V24.673ZM86.3116 31.068C84.8749 31.068 83.6724 29.8955 83.6724 28.2815C83.6724 26.6525 84.8749 25.4637 86.3116 25.4637C87.7273 25.4637 88.8435 26.6525 88.8435 28.2815C88.8435 29.8955 87.7273 31.068 86.3116 31.068ZM113.489 19.0212H108.504V32.6073H110.583V27.4595H113.489C115.798 27.4595 118.063 25.8306 118.063 23.2397C118.063 20.6502 115.793 19.0212 113.489 19.0212ZM113.544 25.5697H110.583V20.911H113.544C115.096 20.911 115.982 22.1678 115.982 23.2397C115.982 24.2913 115.096 25.5697 113.544 25.5697ZM126.395 23.6174C124.893 23.6174 123.331 24.2641 122.689 25.6974L124.534 26.4514C124.931 25.6974 125.661 25.4529 126.433 25.4529C127.511 25.4529 128.605 26.0846 128.622 27.2V27.3427C128.246 27.1307 127.44 26.8169 126.45 26.8169C124.463 26.8169 122.438 27.8834 122.438 29.8738C122.438 31.6943 124.066 32.8668 125.895 32.8668C127.294 32.8668 128.066 32.2513 128.551 31.5353H128.622V32.5856H130.63V27.3739C130.63 24.9651 128.785 23.6174 126.395 23.6174ZM126.145 31.0626C125.465 31.0626 124.517 30.7338 124.517 29.9118C124.517 28.8603 125.699 28.4567 126.721 28.4567C127.637 28.4567 128.066 28.6537 128.622 28.9132C128.459 30.1713 127.348 31.0626 126.145 31.0626ZM137.946 23.9149L135.556 29.8045H135.485L133.014 23.9149H130.772L134.484 32.1454L132.366 36.7252H134.539L140.259 23.9149H137.946ZM119.205 32.6073H121.29V19.0212H119.205V32.6073Z" fill="white"/>
</svg>
