<svg width="33" height="33" viewBox="0 0 33 33" fill="none" xmlns="http://www.w3.org/2000/svg">
<mask id="mask0_2218_49027" style="mask-type:alpha" maskUnits="userSpaceOnUse" x="8" y="8" width="17" height="17">
<g clip-path="url(#clip0_2218_49027)">
<path fill-rule="evenodd" clip-rule="evenodd" d="M10.1559 11.8446C9.6232 12.7713 9.6232 14.0133 9.6232 16.4999C9.6232 18.9859 9.6232 20.2286 10.1559 21.1553C10.5092 21.7703 11.0194 22.2806 11.6345 22.6339C12.5612 23.1666 13.8032 23.1666 16.2899 23.1666C18.7759 23.1666 20.0185 23.1666 20.9452 22.6339C21.5603 22.2806 22.0706 21.7703 22.4239 21.1553C22.9565 20.2286 22.9565 18.9866 22.9565 16.4999C22.9565 14.0139 22.9565 12.7713 22.4239 11.8446C22.0706 11.2295 21.5603 10.7192 20.9452 10.3659C20.0185 9.83325 18.7765 9.83325 16.2899 9.83325C13.8039 9.83325 12.5612 9.83325 11.6345 10.3659C11.0194 10.7192 10.5092 11.2295 10.1559 11.8446ZM19.0845 21.7933C18.4199 21.8533 17.5565 21.8546 16.2899 21.8546C15.0232 21.8546 14.1599 21.8533 13.4952 21.7933C12.8485 21.7353 12.5185 21.6293 12.2872 21.4966C11.8734 21.2589 11.5302 20.9157 11.2925 20.5019C11.1592 20.2706 11.0539 19.9406 10.9959 19.2939C10.9359 18.6293 10.9345 17.7659 10.9345 16.4993C10.9345 15.2326 10.9359 14.3693 10.9959 13.7046C11.0539 13.0579 11.1599 12.7279 11.2925 12.4966C11.5302 12.0828 11.8734 11.7396 12.2872 11.5019C12.5185 11.3686 12.8485 11.2633 13.4952 11.2053C14.1599 11.1453 15.0232 11.1439 16.2899 11.1439C17.5565 11.1439 18.4199 11.1453 19.0845 11.2053C19.7312 11.2633 20.0612 11.3693 20.2919 11.5019C20.7059 11.7399 21.0492 12.0833 21.2872 12.4966C21.4199 12.7279 21.5259 13.0579 21.5839 13.7046C21.6439 14.3693 21.6452 15.2326 21.6452 16.4993C21.6452 17.7659 21.6439 18.6293 21.5839 19.2939C21.5259 19.9406 21.4199 20.2706 21.2872 20.5013C21.0496 20.9152 20.7064 21.2587 20.2925 21.4966C20.0612 21.6293 19.7312 21.7353 19.0845 21.7933ZM18.8685 13.0233C18.8685 12.7855 18.963 12.5575 19.1311 12.3894C19.2992 12.2214 19.5271 12.1269 19.7649 12.1269C20.0026 12.1269 20.2306 12.2214 20.3987 12.3894C20.5668 12.5575 20.6612 12.7855 20.6612 13.0233C20.6612 13.2609 20.5668 13.4888 20.3988 13.6568C20.2307 13.8249 20.0028 13.9193 19.7652 13.9193C19.5276 13.9193 19.2997 13.8249 19.1316 13.6568C18.9636 13.4888 18.8692 13.2609 18.8692 13.0233H18.8685ZM16.2899 13.0233C15.8334 13.0233 15.3814 13.1132 14.9597 13.2878C14.5379 13.4625 14.1547 13.7186 13.832 14.0413C13.5092 14.3641 13.2531 14.7473 13.0785 15.169C12.9038 15.5908 12.8139 16.0428 12.8139 16.4993C12.8139 16.9557 12.9038 17.4077 13.0785 17.8295C13.2531 18.2512 13.5092 18.6344 13.832 18.9572C14.1547 19.2799 14.5379 19.536 14.9597 19.7107C15.3814 19.8853 15.8334 19.9753 16.2899 19.9753C17.2118 19.9753 18.0961 19.609 18.748 18.9571C19.3999 18.3051 19.7662 17.4209 19.7662 16.4989C19.7662 15.5769 19.3999 14.6927 18.748 14.0408C18.0961 13.3888 17.2118 13.0233 16.2899 13.0233ZM14.2139 16.4999C14.2139 16.2273 14.2676 15.9573 14.3719 15.7055C14.4762 15.4536 14.6291 15.2247 14.8219 15.032C15.0147 14.8392 15.2435 14.6863 15.4954 14.5819C15.7473 14.4776 16.0172 14.4239 16.2899 14.4239C16.5625 14.4239 16.8324 14.4776 17.0843 14.5819C17.3362 14.6863 17.565 14.8392 17.7578 15.032C17.9506 15.2247 18.1035 15.4536 18.2078 15.7055C18.3122 15.9573 18.3659 16.2273 18.3659 16.4999C18.3659 17.0505 18.1471 17.5785 17.7578 17.9679C17.3685 18.3572 16.8405 18.5759 16.2899 18.5759C15.7393 18.5759 15.2112 18.3572 14.8219 17.9679C14.4326 17.5785 14.2139 17.0505 14.2139 16.4999Z" fill="black"/>
</g>
</mask>
<g mask="url(#mask0_2218_49027)">
<rect x="8.28986" y="8.5" width="16" height="16" fill="#75808A"/>
</g>
<defs>
<clipPath id="clip0_2218_49027">
<rect width="16" height="16" fill="white" transform="translate(8.28986 8.5)"/>
</clipPath>
</defs>
</svg>
