<svg width="56" height="56" viewBox="0 0 56 56" fill="none" xmlns="http://www.w3.org/2000/svg">
<rect width="56" height="56" rx="14.4353" fill="#F7F8F8"/>
<rect x="0.807692" y="0.807692" width="54.3846" height="54.3846" rx="13.6276" stroke="white" stroke-opacity="0.02" stroke-width="1.61538"/>
<path d="M15.9529 14.4718C15.9529 14.1902 16.1812 13.9619 16.4628 13.9619H33.7896C37.3357 13.9619 40.2104 16.8366 40.2104 20.3827C40.2104 20.6644 39.9821 20.8926 39.7005 20.8926H22.3737C18.8276 20.8926 15.9529 18.0179 15.9529 14.4718Z" fill="#191C1F"/>
<path d="M15.9529 30.8534C15.9529 31.135 16.1812 31.3633 16.4628 31.3633H33.7896C37.3357 31.3633 40.2104 28.4886 40.2104 24.9424C40.2104 24.6608 39.9821 24.4326 39.7005 24.4326H22.3737C18.8276 24.4326 15.9529 27.3073 15.9529 30.8534Z" fill="#191C1F"/>
<path d="M26.3491 35.4122C26.3491 35.1306 26.5774 34.9023 26.859 34.9023H33.7897C37.3359 34.9023 40.2106 37.777 40.2106 41.3232C40.2106 41.6048 39.9823 41.8331 39.7007 41.8331H32.77C29.2238 41.8331 26.3491 38.9584 26.3491 35.4122Z" fill="#191C1F"/>
</svg>
