<svg width="33" height="33" viewBox="0 0 33 33" fill="none" xmlns="http://www.w3.org/2000/svg">
<mask id="mask0_2218_49041" style="mask-type:alpha" maskUnits="userSpaceOnUse" x="8" y="8" width="17" height="17">
<g clip-path="url(#clip0_2218_49041)">
<path fill-rule="evenodd" clip-rule="evenodd" d="M9.62317 14.5739C9.62317 12.9146 9.62317 12.0846 9.94584 11.4513C10.2299 10.8935 10.6834 10.44 11.2412 10.1559C11.8745 9.83325 12.7045 9.83325 14.3632 9.83325H18.2152C19.8745 9.83325 20.7045 9.83325 21.3378 10.1559C21.8956 10.44 22.3491 10.8935 22.6332 11.4513C22.9565 12.0846 22.9565 12.9146 22.9565 14.5733V18.4253C22.9565 20.0846 22.9565 20.9146 22.6338 21.5479C22.3497 22.1057 21.8963 22.5592 21.3385 22.8433C20.7052 23.1659 19.8752 23.1659 18.2158 23.1659H14.3632C12.7038 23.1659 11.8738 23.1659 11.2405 22.8433C10.6827 22.5592 10.2293 22.1057 9.94517 21.5479C9.62317 20.9153 9.62317 20.0853 9.62317 18.4266V14.5733V14.5739ZM13.1232 14.3106C12.5218 14.3106 12.1065 13.8693 12.1065 13.3306C12.1065 12.7793 12.5005 12.3166 13.1132 12.3166C13.7265 12.3166 14.0865 12.7793 14.0978 13.3299C14.0978 13.8699 13.6625 14.3106 13.1352 14.3106H13.1232ZM15.0478 15.0673C15.0712 15.5939 15.0478 20.6833 15.0478 20.6833H16.7925V17.5473C16.7925 17.3793 16.8385 17.2119 16.8858 17.0919C17.0152 16.7566 17.2805 16.4673 17.7752 16.4673C18.4232 16.4673 18.7385 16.9246 18.7385 17.6786V20.6833H20.4732V17.4633C20.4732 15.5259 19.6565 14.9359 18.4778 14.9359C17.5278 14.9359 16.9658 15.4799 16.7232 15.8626V15.0673H15.0478ZM12.2292 20.6833H13.9598V15.0673H12.2292V20.6833Z" fill="black"/>
</g>
</mask>
<g mask="url(#mask0_2218_49041)">
<rect x="8.28986" y="8.5" width="16" height="16" fill="#75808A"/>
</g>
<defs>
<clipPath id="clip0_2218_49041">
<rect width="16" height="16" fill="white" transform="translate(8.28986 8.5)"/>
</clipPath>
</defs>
</svg>
