<svg width="156" height="40" viewBox="0 0 156 40" fill="none" xmlns="http://www.w3.org/2000/svg">
<g clip-path="url(#clip0_3130_3140)">
<rect y="0.5" width="39" height="39" rx="10.0531" fill="white"/>
<rect y="0.5" width="39" height="39" fill="url(#paint0_linear_3130_3140)" fill-opacity="0.16"/>
<g filter="url(#filter0_b_3130_3140)">
<path d="M10.6104 10.0787C10.6104 9.88262 10.7693 9.72363 10.9655 9.72363H23.0323C25.502 9.72363 27.504 11.7257 27.504 14.1953C27.504 14.3914 27.345 14.5504 27.1489 14.5504H15.082C12.6124 14.5504 10.6104 12.5484 10.6104 10.0787Z" fill="#6E3FF3"/>
<path d="M10.9655 9.3585C10.5677 9.3585 10.2452 9.68096 10.2452 10.0787C10.2452 12.75 12.4107 14.9155 15.082 14.9155H27.1489C27.5467 14.9155 27.8691 14.5931 27.8691 14.1953C27.8691 11.524 25.7036 9.3585 23.0323 9.3585H10.9655Z" stroke="#EEF0F1" stroke-width="0.730268"/>
</g>
<g filter="url(#filter1_b_3130_3140)">
<path d="M10.6104 21.4867C10.6104 21.6828 10.7693 21.8418 10.9655 21.8418H23.0323C25.502 21.8418 27.504 19.8398 27.504 17.3701C27.504 17.174 27.345 17.015 27.1489 17.015H15.082C12.6124 17.015 10.6104 19.0171 10.6104 21.4867Z" fill="#6E3FF3"/>
<path d="M10.9655 22.2069C10.5677 22.2069 10.2452 21.8845 10.2452 21.4867C10.2452 18.8154 12.4107 16.6499 15.082 16.6499H27.1489C27.5467 16.6499 27.8691 16.9724 27.8691 17.3701C27.8691 20.0414 25.7036 22.2069 23.0323 22.2069H10.9655Z" stroke="#EEF0F1" stroke-width="0.730268"/>
</g>
<g filter="url(#filter2_b_3130_3140)">
<path d="M17.8506 24.6627C17.8506 24.4666 18.0096 24.3076 18.2057 24.3076H23.0324C25.5021 24.3076 27.5041 26.3096 27.5041 28.7793C27.5041 28.9754 27.3451 29.1344 27.149 29.1344H22.3222C19.8526 29.1344 17.8506 27.1323 17.8506 24.6627Z" fill="#6E3FF3"/>
<path d="M18.2057 23.9425C17.8079 23.9425 17.4855 24.2649 17.4855 24.6627C17.4855 27.334 19.651 29.4995 22.3222 29.4995H27.149C27.5468 29.4995 27.8692 29.177 27.8692 28.7793C27.8692 26.108 25.7037 23.9425 23.0324 23.9425H18.2057Z" stroke="#EEF0F1" stroke-width="0.730268"/>
</g>
</g>
<rect x="0.5625" y="1.0625" width="37.875" height="37.875" rx="9.49064" stroke="white" stroke-opacity="0.02" stroke-width="1.125"/>
<path d="M96.2227 16.3684H98.6723C98.7637 17.191 99.4767 17.7577 100.738 17.7577C101.817 17.7577 102.475 17.4104 102.475 16.7523C102.475 15.9845 101.835 15.9296 100.318 15.7285C98.1239 15.4726 96.4238 14.979 96.4238 13.0412C96.4238 11.1765 98.0508 9.95165 100.464 9.96993C102.987 9.96993 104.723 11.0851 104.851 13.0046H102.383C102.31 12.2551 101.597 11.7981 100.555 11.7981C99.5498 11.7981 98.8917 12.1637 98.8917 12.767C98.8917 13.4799 99.6961 13.5531 101.049 13.7176C103.206 13.937 104.998 14.4306 104.998 16.5512C104.998 18.4159 103.243 19.6041 100.72 19.6041C98.1056 19.6041 96.3323 18.3793 96.2227 16.3684Z" fill="white"/>
<path d="M90.5706 19.6042C87.4445 19.6042 85.5615 17.7213 85.5615 14.8145C85.5615 11.8895 87.4811 9.98828 90.3878 9.98828C93.2031 9.98828 95.1043 11.7433 95.1409 14.5038C95.1409 14.778 95.1226 15.0888 95.0678 15.3813H88.2489V15.5092C88.3037 16.8438 89.1629 17.6481 90.4609 17.6481C91.5029 17.6481 92.2342 17.1911 92.4536 16.3136H94.9947C94.7022 18.1417 93.0751 19.6042 90.5706 19.6042ZM88.3037 13.6994H92.545C92.3621 12.5477 91.5761 11.9078 90.4061 11.9078C89.2909 11.9078 88.45 12.5842 88.3037 13.6994Z" fill="white"/>
<path d="M82.668 9.09227C81.8271 9.09227 81.1689 8.4707 81.1689 7.64805C81.1689 6.80711 81.8271 6.18555 82.668 6.18555C83.5089 6.18555 84.1671 6.80711 84.1671 7.64805C84.1671 8.4707 83.5089 9.09227 82.668 9.09227ZM81.37 19.4943V10.0977H83.966V19.4943H81.37Z" fill="white"/>
<path d="M75.4054 9.98789C77.9282 9.98789 79.7563 11.7977 79.7563 14.7776C79.7563 17.6843 77.9282 19.6038 75.3871 19.6038C74.0343 19.6038 73.102 19.0188 72.4987 18.2145L72.2427 19.4941H69.9941V6.69727H72.5718V11.2859C73.1934 10.5363 74.1074 9.98789 75.4054 9.98789ZM74.8204 17.5015C76.228 17.5015 77.1421 16.4046 77.1421 14.7959C77.1421 13.1871 76.228 12.0902 74.8204 12.0902C73.4127 12.0902 72.5352 13.1871 72.5352 14.7776C72.5352 16.3863 73.4127 17.5015 74.8204 17.5015Z" fill="white"/>
<path d="M65.4409 14.7959V10.0977H68.0185V19.4942H65.7334L65.4957 18.3608C64.8924 19.092 64.0698 19.6039 62.7352 19.6039C60.7974 19.6039 59.0059 18.635 59.0059 15.3078V10.0977H61.5835V14.9605C61.5835 16.6423 62.132 17.465 63.4116 17.465C64.6913 17.465 65.4409 16.5327 65.4409 14.7959Z" fill="white"/>
<path d="M47.5312 19.4941V6.69727H52.7414C55.5567 6.69727 57.4397 8.36086 57.4397 10.9568C57.4397 12.6021 56.5805 13.9184 55.2459 14.5582L57.7688 19.4941H54.7341L52.5769 15.198H50.2734V19.4941H47.5312ZM52.522 8.98242H50.2734V12.9129H52.522C53.82 12.9129 54.6427 12.1451 54.6427 10.9568C54.6427 9.75023 53.82 8.98242 52.522 8.98242Z" fill="white"/>
<path d="M154.377 33.6955L152.116 31.0423H151.195V33.6955H150.444V27.7236H151.195V30.3513H152.151L154.309 27.7236H155.205L152.739 30.7096L155.29 33.6955H154.377Z" fill="#F7F8F8"/>
<path d="M147.169 27.7236H147.903V33.6955H147.203L143.637 28.918V33.6955H142.903V27.7236H143.603L147.169 32.5011V27.7236Z" fill="#F7F8F8"/>
<path d="M140.285 33.6955L139.645 32.0746H136.778L136.139 33.6955H135.362L137.794 27.7236H138.63L141.061 33.6955H140.285ZM137.051 31.3921H139.372L138.212 28.4659L137.051 31.3921Z" fill="#F7F8F8"/>
<path d="M134.019 32.0831C134.019 33.0642 133.293 33.6955 132.125 33.6955H129.429V27.7236H131.92C133.072 27.7236 133.797 28.3379 133.797 29.2678C133.797 29.9162 133.438 30.3854 132.799 30.6157C133.575 30.7949 134.019 31.3238 134.019 32.0831ZM131.92 28.4061H130.179V30.3001H131.92C132.645 30.3001 133.029 29.9588 133.029 29.3531C133.029 28.7474 132.645 28.4061 131.92 28.4061ZM133.234 31.9978C133.234 31.3579 132.85 30.9826 132.125 30.9826H130.179V33.013H132.125C132.85 33.013 133.234 32.6376 133.234 31.9978Z" fill="#F7F8F8"/>
<path d="M120.987 33.0045H124.408V33.6955H120.236V27.7236H124.323V28.4147H120.987V30.3427H124.152V31.0252H120.987V33.0045Z" fill="#F7F8F8"/>
<path d="M112.646 30.7092C112.62 28.9859 113.943 27.5783 115.657 27.6039C116.784 27.6039 117.756 28.1413 118.259 29.1395L117.637 29.4978C117.219 28.7044 116.579 28.3034 115.709 28.3034C114.352 28.3034 113.431 29.3101 113.431 30.7092C113.431 32.1084 114.352 33.115 115.709 33.115C116.562 33.115 117.236 32.7311 117.654 31.9207L118.259 32.279C117.756 33.2771 116.784 33.8146 115.657 33.8146C113.926 33.8402 112.62 32.4325 112.646 30.7092Z" fill="#F7F8F8"/>
<path d="M109.712 27.7236H110.446V33.6955H109.746L106.18 28.918V33.6955H105.446V27.7236H106.146L109.712 32.5011V27.7236Z" fill="#F7F8F8"/>
<path d="M102.828 33.6955L102.188 32.0746H99.3215L98.6816 33.6955H97.9053L100.337 27.7236H101.173L103.604 33.6955H102.828ZM99.5945 31.3921H101.915L100.755 28.4659L99.5945 31.3921Z" fill="#F7F8F8"/>
<path d="M95.3291 27.7236H96.0628V33.6955H95.3632L91.7972 28.918V33.6955H91.0635V27.7236H91.763L95.3291 32.5011V27.7236Z" fill="#F7F8F8"/>
<path d="M87.7549 33.6955V27.7236H88.5056V33.6955H87.7549Z" fill="#F7F8F8"/>
<path d="M85.5909 28.4147H82.2722V30.3683H85.4203V31.0679H82.2722V33.6955H81.5215V27.7236H85.5909V28.4147Z" fill="#F7F8F8"/>
<path d="M73.2142 30.7092C73.1886 29.003 74.5025 27.5783 76.2684 27.6039C78.0344 27.5783 79.3482 29.003 79.3226 30.7092C79.3482 32.4155 78.0344 33.8402 76.2684 33.8146C74.5025 33.8402 73.1886 32.4155 73.2142 30.7092ZM78.5377 30.7092C78.5377 29.3357 77.6078 28.3034 76.2684 28.3034C74.929 28.3034 73.9991 29.3357 73.9991 30.7092C73.9991 32.0828 74.929 33.115 76.2684 33.115C77.6078 33.115 78.5377 32.0828 78.5377 30.7092Z" fill="#F7F8F8"/>
<path d="M70.5668 33.6955L68.5876 31.3238H67.615V33.6955H66.8643V27.7236H69.3383C70.5924 27.7236 71.3346 28.4147 71.3346 29.5408C71.3346 30.6072 70.6521 31.2641 69.4834 31.3238L71.4711 33.6955H70.5668ZM67.615 28.4147V30.6499H69.2786C70.1744 30.6499 70.5498 30.3001 70.5498 29.5408C70.5498 28.7815 70.1659 28.4147 69.2786 28.4147H67.615Z" fill="#F7F8F8"/>
<path d="M59.2728 30.7092C59.2472 28.9859 60.5696 27.5783 62.2844 27.6039C63.4105 27.6039 64.3831 28.1413 64.8864 29.1395L64.2636 29.4978C63.8456 28.7044 63.2057 28.3034 62.3356 28.3034C60.9791 28.3034 60.0577 29.3101 60.0577 30.7092C60.0577 32.1084 60.9791 33.115 62.3356 33.115C63.1887 33.115 63.8626 32.7311 64.2807 31.9207L64.8864 32.279C64.3831 33.2771 63.4105 33.8146 62.2844 33.8146C60.5525 33.8402 59.2472 32.4325 59.2728 30.7092Z" fill="#F7F8F8"/>
<path d="M56.3057 33.6955V27.7236H57.0564V33.6955H56.3057Z" fill="#F7F8F8"/>
<path d="M52.9571 27.7236H53.7505V33.6955H53.0254V28.8754L50.9523 32.1428H50.3295L48.2564 28.8754V33.6955H47.5312V27.7236H48.3247L50.6452 31.3665L52.9571 27.7236Z" fill="#F7F8F8"/>
<defs>
<filter id="filter0_b_3130_3140" x="8.60221" y="7.71549" width="20.9098" height="8.84245" filterUnits="userSpaceOnUse" color-interpolation-filters="sRGB">
<feFlood flood-opacity="0" result="BackgroundImageFix"/>
<feGaussianBlur in="BackgroundImageFix" stdDeviation="0.638835"/>
<feComposite in2="SourceAlpha" operator="in" result="effect1_backgroundBlur_3130_3140"/>
<feBlend mode="normal" in="SourceGraphic" in2="effect1_backgroundBlur_3130_3140" result="shape"/>
</filter>
<filter id="filter1_b_3130_3140" x="8.60221" y="15.0075" width="20.9098" height="8.84245" filterUnits="userSpaceOnUse" color-interpolation-filters="sRGB">
<feFlood flood-opacity="0" result="BackgroundImageFix"/>
<feGaussianBlur in="BackgroundImageFix" stdDeviation="0.638835"/>
<feComposite in2="SourceAlpha" operator="in" result="effect1_backgroundBlur_3130_3140"/>
<feBlend mode="normal" in="SourceGraphic" in2="effect1_backgroundBlur_3130_3140" result="shape"/>
</filter>
<filter id="filter2_b_3130_3140" x="15.8424" y="22.2995" width="13.6696" height="8.84245" filterUnits="userSpaceOnUse" color-interpolation-filters="sRGB">
<feFlood flood-opacity="0" result="BackgroundImageFix"/>
<feGaussianBlur in="BackgroundImageFix" stdDeviation="0.638835"/>
<feComposite in2="SourceAlpha" operator="in" result="effect1_backgroundBlur_3130_3140"/>
<feBlend mode="normal" in="SourceGraphic" in2="effect1_backgroundBlur_3130_3140" result="shape"/>
</filter>
<linearGradient id="paint0_linear_3130_3140" x1="19.5" y1="-43.6797" x2="19.5" y2="39.5" gradientUnits="userSpaceOnUse">
<stop stop-color="white"/>
<stop offset="1" stop-color="white" stop-opacity="0"/>
</linearGradient>
<clipPath id="clip0_3130_3140">
<rect y="0.5" width="39" height="39" rx="10.0531" fill="white"/>
</clipPath>
</defs>
</svg>
