<svg width="156" height="40" viewBox="0 0 156 40" fill="none" xmlns="http://www.w3.org/2000/svg">
<g clip-path="url(#clip0_2229_33)">
<rect y="0.5" width="39" height="39" rx="10.0531" fill="#0D0D12"/>
<rect y="0.5" width="39" height="39" fill="url(#paint0_linear_2229_33)" fill-opacity="0.16"/>
<g filter="url(#filter0_b_2229_33)">
<path d="M10.61 10.0783C10.61 9.88219 10.769 9.72321 10.9651 9.72321H23.032C25.5017 9.72321 27.5037 11.7252 27.5037 14.1949C27.5037 14.391 27.3447 14.55 27.1486 14.55H15.0817C12.6121 14.55 10.61 12.5479 10.61 10.0783Z" fill="white"/>
<path d="M10.9651 9.35807C10.5674 9.35807 10.2449 9.68053 10.2449 10.0783C10.2449 12.7496 12.4104 14.9151 15.0817 14.9151H27.1486C27.5464 14.9151 27.8688 14.5926 27.8688 14.1949C27.8688 11.5236 25.7033 9.35807 23.032 9.35807H10.9651Z" stroke="white" stroke-opacity="0.06" stroke-width="0.730268"/>
</g>
<g filter="url(#filter1_b_2229_33)">
<path d="M10.61 21.4867C10.61 21.6828 10.769 21.8418 10.9651 21.8418H23.032C25.5016 21.8418 27.5036 19.8398 27.5036 17.3702C27.5036 17.1741 27.3446 17.0151 27.1485 17.0151H15.0816C12.612 17.0151 10.61 19.0171 10.61 21.4867Z" fill="white"/>
<path d="M10.9651 22.207C10.5673 22.207 10.2449 21.8845 10.2449 21.4867C10.2449 18.8154 12.4104 16.6499 15.0816 16.6499H27.1485C27.5463 16.6499 27.8688 16.9724 27.8688 17.3702C27.8688 20.0415 25.7033 22.207 23.032 22.207H10.9651Z" stroke="white" stroke-opacity="0.06" stroke-width="0.730268"/>
</g>
<g filter="url(#filter2_b_2229_33)">
<path d="M17.8502 24.662C17.8502 24.4659 18.0091 24.3069 18.2053 24.3069H23.032C25.5016 24.3069 27.5037 26.3089 27.5037 28.7785C27.5037 28.9747 27.3447 29.1336 27.1486 29.1336H22.3218C19.8522 29.1336 17.8502 27.1316 17.8502 24.662Z" fill="white"/>
<path d="M18.2053 23.9418C17.8075 23.9418 17.485 24.2642 17.485 24.662C17.485 27.3333 19.6505 29.4988 22.3218 29.4988H27.1486C27.5463 29.4988 27.8688 29.1763 27.8688 28.7785C27.8688 26.1073 25.7033 23.9418 23.032 23.9418H18.2053Z" stroke="white" stroke-opacity="0.06" stroke-width="0.730268"/>
</g>
</g>
<rect x="0.5625" y="1.0625" width="37.875" height="37.875" rx="9.49064" stroke="white" stroke-opacity="0.02" stroke-width="1.125"/>
<path d="M96.2222 16.3677H98.6719C98.7633 17.1904 99.4763 17.7571 100.738 17.7571C101.816 17.7571 102.474 17.4097 102.474 16.7516C102.474 15.9838 101.835 15.929 100.317 15.7279C98.1234 15.4719 96.4233 14.9783 96.4233 13.0405C96.4233 11.1758 98.0503 9.95099 100.463 9.96927C102.986 9.96927 104.723 11.0844 104.851 13.004H102.383C102.31 12.2544 101.597 11.7974 100.555 11.7974C99.5494 11.7974 98.8913 12.163 98.8913 12.7663C98.8913 13.4793 99.6956 13.5524 101.048 13.7169C103.206 13.9363 104.997 14.4299 104.997 16.5505C104.997 18.4152 103.242 19.6035 100.719 19.6035C98.1052 19.6035 96.3319 18.3786 96.2222 16.3677Z" fill="#191C1F"/>
<path d="M90.5706 19.6035C87.4445 19.6035 85.5615 17.7205 85.5615 14.8138C85.5615 11.8888 87.4811 9.98755 90.3878 9.98755C93.2031 9.98755 95.1043 11.7425 95.1409 14.503C95.1409 14.7772 95.1226 15.088 95.0678 15.3805H88.2489V15.5085C88.3037 16.843 89.1629 17.6474 90.4609 17.6474C91.5029 17.6474 92.2342 17.1904 92.4536 16.3129H94.9947C94.7022 18.141 93.0751 19.6035 90.5706 19.6035ZM88.3037 13.6986H92.545C92.3621 12.5469 91.5761 11.9071 90.4061 11.9071C89.2909 11.9071 88.45 12.5835 88.3037 13.6986Z" fill="#191C1F"/>
<path d="M82.6684 9.09178C81.8274 9.09178 81.1693 8.47021 81.1693 7.64756C81.1693 6.80662 81.8274 6.18506 82.6684 6.18506C83.5093 6.18506 84.1674 6.80662 84.1674 7.64756C84.1674 8.47021 83.5093 9.09178 82.6684 9.09178ZM81.3704 19.4938V10.0972H83.9663V19.4938H81.3704Z" fill="#191C1F"/>
<path d="M75.4051 9.98754C77.928 9.98754 79.7561 11.7974 79.7561 14.7772C79.7561 17.6839 77.928 19.6035 75.3869 19.6035C74.0341 19.6035 73.1017 19.0185 72.4984 18.2141L72.2425 19.4938H69.9939V6.69691H72.5716V11.2855C73.1931 10.536 74.1072 9.98754 75.4051 9.98754ZM74.8201 17.5011C76.2278 17.5011 77.1419 16.4043 77.1419 14.7955C77.1419 13.1868 76.2278 12.0899 74.8201 12.0899C73.4125 12.0899 72.535 13.1868 72.535 14.7772C72.535 16.386 73.4125 17.5011 74.8201 17.5011Z" fill="#191C1F"/>
<path d="M65.4413 14.7955V10.0972H68.0189V19.4938H65.7338L65.4961 18.3604C64.8928 19.0916 64.0702 19.6035 62.7357 19.6035C60.7978 19.6035 59.0063 18.6346 59.0063 15.3074V10.0972H61.5839V14.9601C61.5839 16.6419 62.1324 17.4646 63.4121 17.4646C64.6918 17.4646 65.4413 16.5322 65.4413 14.7955Z" fill="#191C1F"/>
<path d="M47.5312 19.4938V6.69691H52.7414C55.5567 6.69691 57.4397 8.36051 57.4397 10.9564C57.4397 12.6018 56.5805 13.918 55.2459 14.5579L57.7688 19.4938H54.7341L52.5769 15.1977H50.2734V19.4938H47.5312ZM52.522 8.98207H50.2734V12.9125H52.522C53.82 12.9125 54.6427 12.1447 54.6427 10.9564C54.6427 9.74988 53.82 8.98207 52.522 8.98207Z" fill="#191C1F"/>
<path d="M154.377 33.6951L152.116 31.0419H151.195V33.6951H150.444V27.7233H151.195V30.3509H152.15L154.309 27.7233H155.205L152.739 30.7092L155.29 33.6951H154.377Z" fill="#697582"/>
<path d="M147.169 27.7233H147.902V33.6951H147.203L143.637 28.9176V33.6951H142.903V27.7233H143.603L147.169 32.5008V27.7233Z" fill="#697582"/>
<path d="M140.285 33.6951L139.645 32.0742H136.778L136.138 33.6951H135.362L137.793 27.7233H138.63L141.061 33.6951H140.285ZM137.051 31.3917H139.372L138.211 28.4655L137.051 31.3917Z" fill="#697582"/>
<path d="M134.018 32.0827C134.018 33.0638 133.293 33.6951 132.124 33.6951H129.429V27.7233H131.92C133.071 27.7233 133.797 28.3375 133.797 29.2674C133.797 29.9158 133.438 30.385 132.798 30.6153C133.575 30.7945 134.018 31.3234 134.018 32.0827ZM131.92 28.4058H130.179V30.2997H131.92C132.645 30.2997 133.029 29.9584 133.029 29.3527C133.029 28.747 132.645 28.4058 131.92 28.4058ZM133.233 31.9974C133.233 31.3576 132.85 30.9822 132.124 30.9822H130.179V33.0126H132.124C132.85 33.0126 133.233 32.6373 133.233 31.9974Z" fill="#697582"/>
<path d="M120.987 33.0041H124.408V33.6951H120.237V27.7233H124.323V28.4143H120.987V30.3423H124.152V31.0248H120.987V33.0041Z" fill="#697582"/>
<path d="M112.646 30.7092C112.62 28.9859 113.942 27.5783 115.657 27.6038C116.783 27.6038 117.756 28.1413 118.259 29.1395L117.636 29.4978C117.218 28.7044 116.579 28.3034 115.708 28.3034C114.352 28.3034 113.431 29.3101 113.431 30.7092C113.431 32.1083 114.352 33.115 115.708 33.115C116.562 33.115 117.235 32.7311 117.654 31.9207L118.259 32.279C117.756 33.2771 116.783 33.8146 115.657 33.8146C113.925 33.8402 112.62 32.4325 112.646 30.7092Z" fill="#697582"/>
<path d="M109.711 27.7233H110.445V33.6951H109.746L106.18 28.9176V33.6951H105.446V27.7233H106.145L109.711 32.5008V27.7233Z" fill="#697582"/>
<path d="M102.827 33.6951L102.188 32.0742H99.321L98.6812 33.6951H97.9048L100.336 27.7233H101.172L103.604 33.6951H102.827ZM99.594 31.3917H101.915L100.754 28.4655L99.594 31.3917Z" fill="#697582"/>
<path d="M95.3289 27.7233H96.0626V33.6951H95.3631L91.797 28.9176V33.6951H91.0633V27.7233H91.7629L95.3289 32.5008V27.7233Z" fill="#697582"/>
<path d="M87.7548 33.6951V27.7233H88.5055V33.6951H87.7548Z" fill="#697582"/>
<path d="M85.5907 28.4143H82.2721V30.3679H85.4201V31.0675H82.2721V33.6951H81.5213V27.7233H85.5907V28.4143Z" fill="#697582"/>
<path d="M73.2141 30.7092C73.1885 29.003 74.5023 27.5782 76.2682 27.6038C78.0342 27.5782 79.348 29.003 79.3224 30.7092C79.348 32.4155 78.0342 33.8402 76.2682 33.8146C74.5023 33.8402 73.1885 32.4155 73.2141 30.7092ZM78.5376 30.7092C78.5376 29.3357 77.6076 28.3034 76.2682 28.3034C74.9288 28.3034 73.9989 29.3357 73.9989 30.7092C73.9989 32.0827 74.9288 33.115 76.2682 33.115C77.6076 33.115 78.5376 32.0827 78.5376 30.7092Z" fill="#697582"/>
<path d="M70.5665 33.6951L68.5872 31.3234H67.6146V33.6951H66.8639V27.7233H69.338C70.592 27.7233 71.3343 28.4143 71.3343 29.5404C71.3343 30.6068 70.6518 31.2637 69.483 31.3234L71.4708 33.6951H70.5665ZM67.6146 28.4143V30.6495H69.2782C70.174 30.6495 70.5494 30.2997 70.5494 29.5404C70.5494 28.7811 70.1655 28.4143 69.2782 28.4143H67.6146Z" fill="#697582"/>
<path d="M59.2731 30.7092C59.2475 28.9859 60.5698 27.5783 62.2846 27.6038C63.4107 27.6038 64.3833 28.1413 64.8866 29.1395L64.2639 29.4978C63.8458 28.7044 63.206 28.3034 62.3358 28.3034C60.9793 28.3034 60.058 29.3101 60.058 30.7092C60.058 32.1083 60.9793 33.115 62.3358 33.115C63.1889 33.115 63.8629 32.7311 64.2809 31.9207L64.8866 32.279C64.3833 33.2771 63.4107 33.8146 62.2846 33.8146C60.5528 33.8402 59.2475 32.4325 59.2731 30.7092Z" fill="#697582"/>
<path d="M56.3059 33.6951V27.7233H57.0567V33.6951H56.3059Z" fill="#697582"/>
<path d="M52.9571 27.7233H53.7505V33.6951H53.0254V28.875L50.9523 32.1424H50.3295L48.2564 28.875V33.6951H47.5312V27.7233H48.3247L50.6452 31.3661L52.9571 27.7233Z" fill="#697582"/>
<defs>
<filter id="filter0_b_2229_33" x="8.60209" y="7.71526" width="20.9095" height="8.84263" filterUnits="userSpaceOnUse" color-interpolation-filters="sRGB">
<feFlood flood-opacity="0" result="BackgroundImageFix"/>
<feGaussianBlur in="BackgroundImageFix" stdDeviation="0.638835"/>
<feComposite in2="SourceAlpha" operator="in" result="effect1_backgroundBlur_2229_33"/>
<feBlend mode="normal" in="SourceGraphic" in2="effect1_backgroundBlur_2229_33" result="shape"/>
</filter>
<filter id="filter1_b_2229_33" x="8.60203" y="15.0071" width="20.9095" height="8.84263" filterUnits="userSpaceOnUse" color-interpolation-filters="sRGB">
<feFlood flood-opacity="0" result="BackgroundImageFix"/>
<feGaussianBlur in="BackgroundImageFix" stdDeviation="0.638835"/>
<feComposite in2="SourceAlpha" operator="in" result="effect1_backgroundBlur_2229_33"/>
<feBlend mode="normal" in="SourceGraphic" in2="effect1_backgroundBlur_2229_33" result="shape"/>
</filter>
<filter id="filter2_b_2229_33" x="15.8422" y="22.2989" width="13.6694" height="8.84263" filterUnits="userSpaceOnUse" color-interpolation-filters="sRGB">
<feFlood flood-opacity="0" result="BackgroundImageFix"/>
<feGaussianBlur in="BackgroundImageFix" stdDeviation="0.638835"/>
<feComposite in2="SourceAlpha" operator="in" result="effect1_backgroundBlur_2229_33"/>
<feBlend mode="normal" in="SourceGraphic" in2="effect1_backgroundBlur_2229_33" result="shape"/>
</filter>
<linearGradient id="paint0_linear_2229_33" x1="19.5" y1="-43.6797" x2="19.5" y2="39.5" gradientUnits="userSpaceOnUse">
<stop stop-color="white"/>
<stop offset="1" stop-color="white" stop-opacity="0"/>
</linearGradient>
<clipPath id="clip0_2229_33">
<rect y="0.5" width="39" height="39" rx="10.0531" fill="white"/>
</clipPath>
</defs>
</svg>
