<svg width="114" height="148" viewBox="0 0 114 148" fill="none" xmlns="http://www.w3.org/2000/svg">
<rect x="24.427" y="6.13139" width="65.9124" height="120.328" rx="32.9562" stroke="white" stroke-width="12.2628"/>
<g filter="url(#filter0_d_2618_2832)">
<mask id="path-2-inside-1_2618_2832" fill="white">
<path fill-rule="evenodd" clip-rule="evenodd" d="M57 147.92C85.9949 147.92 109.5 124.415 109.5 95.4199C109.5 66.425 85.9949 42.9199 57 42.9199C28.0051 42.9199 4.5 66.425 4.5 95.4199C4.5 124.415 28.0051 147.92 57 147.92ZM70.4124 89.6716C70.4124 94.9549 67.2678 99.5037 62.7482 101.549V108.832C62.7482 111.795 60.3462 114.197 57.3832 114.197C54.4202 114.197 52.0182 111.795 52.0182 108.832V101.549C47.4986 99.5037 44.354 94.9549 44.354 89.6716C44.354 82.4758 50.1874 76.6424 57.3832 76.6424C64.579 76.6424 70.4124 82.4758 70.4124 89.6716Z"/>
</mask>
<path fill-rule="evenodd" clip-rule="evenodd" d="M57 147.92C85.9949 147.92 109.5 124.415 109.5 95.4199C109.5 66.425 85.9949 42.9199 57 42.9199C28.0051 42.9199 4.5 66.425 4.5 95.4199C4.5 124.415 28.0051 147.92 57 147.92ZM70.4124 89.6716C70.4124 94.9549 67.2678 99.5037 62.7482 101.549V108.832C62.7482 111.795 60.3462 114.197 57.3832 114.197C54.4202 114.197 52.0182 111.795 52.0182 108.832V101.549C47.4986 99.5037 44.354 94.9549 44.354 89.6716C44.354 82.4758 50.1874 76.6424 57.3832 76.6424C64.579 76.6424 70.4124 82.4758 70.4124 89.6716Z" fill="url(#paint0_linear_2618_2832)"/>
<path d="M62.7482 101.549L61.9238 99.7263L60.7482 100.258V101.549H62.7482ZM52.0182 101.549H54.0182V100.258L52.8427 99.7263L52.0182 101.549ZM107.5 95.4199C107.5 123.31 84.8904 145.92 57 145.92V149.92C87.0995 149.92 111.5 125.519 111.5 95.4199H107.5ZM57 44.9199C84.8904 44.9199 107.5 67.5295 107.5 95.4199H111.5C111.5 65.3204 87.0995 40.9199 57 40.9199V44.9199ZM6.5 95.4199C6.5 67.5295 29.1096 44.9199 57 44.9199V40.9199C26.9005 40.9199 2.5 65.3204 2.5 95.4199H6.5ZM57 145.92C29.1096 145.92 6.5 123.31 6.5 95.4199H2.5C2.5 125.519 26.9005 149.92 57 149.92V145.92ZM63.5726 103.371C68.7816 101.014 72.4124 95.769 72.4124 89.6716H68.4124C68.4124 94.1409 65.754 97.9934 61.9238 99.7263L63.5726 103.371ZM64.7482 108.832V101.549H60.7482V108.832H64.7482ZM57.3832 116.197C61.4508 116.197 64.7482 112.9 64.7482 108.832H60.7482C60.7482 110.691 59.2416 112.197 57.3832 112.197V116.197ZM50.0182 108.832C50.0182 112.9 53.3157 116.197 57.3832 116.197V112.197C55.5248 112.197 54.0182 110.691 54.0182 108.832H50.0182ZM50.0182 101.549V108.832H54.0182V101.549H50.0182ZM42.354 89.6716C42.354 95.769 45.9848 101.014 51.1938 103.371L52.8427 99.7263C49.0124 97.9934 46.354 94.1409 46.354 89.6716H42.354ZM57.3832 74.6424C49.0828 74.6424 42.354 81.3712 42.354 89.6716H46.354C46.354 83.5804 51.292 78.6424 57.3832 78.6424V74.6424ZM72.4124 89.6716C72.4124 81.3712 65.6836 74.6424 57.3832 74.6424V78.6424C63.4745 78.6424 68.4124 83.5804 68.4124 89.6716H72.4124Z" fill="#B9B9B9" mask="url(#path-2-inside-1_2618_2832)"/>
</g>
<defs>
<filter id="filter0_d_2618_2832" x="0.5" y="33.9199" width="113" height="114" filterUnits="userSpaceOnUse" color-interpolation-filters="sRGB">
<feFlood flood-opacity="0" result="BackgroundImageFix"/>
<feColorMatrix in="SourceAlpha" type="matrix" values="0 0 0 0 0 0 0 0 0 0 0 0 0 0 0 0 0 0 127 0" result="hardAlpha"/>
<feOffset dy="-5"/>
<feGaussianBlur stdDeviation="2"/>
<feComposite in2="hardAlpha" operator="out"/>
<feColorMatrix type="matrix" values="0 0 0 0 0 0 0 0 0 0 0 0 0 0 0 0 0 0 0.25 0"/>
<feBlend mode="normal" in2="BackgroundImageFix" result="effect1_dropShadow_2618_2832"/>
<feBlend mode="normal" in="SourceGraphic" in2="effect1_dropShadow_2618_2832" result="shape"/>
</filter>
<linearGradient id="paint0_linear_2618_2832" x1="57" y1="42.9199" x2="57" y2="147.92" gradientUnits="userSpaceOnUse">
<stop stop-color="white"/>
<stop offset="1" stop-color="#999999"/>
</linearGradient>
</defs>
</svg>
