<svg width="33" height="33" viewBox="0 0 33 33" fill="none" xmlns="http://www.w3.org/2000/svg">
<mask id="mask0_2218_49048" style="mask-type:alpha" maskUnits="userSpaceOnUse" x="8" y="8" width="17" height="17">
<g clip-path="url(#clip0_2218_49048)">
<path d="M20.4665 12.78C20.3799 12.7347 20.2956 12.6851 20.2139 12.6313C19.9758 12.4719 19.7578 12.2843 19.5645 12.0727C19.1841 11.6407 18.9307 11.1118 18.8325 10.5447H18.8352C18.7799 10.214 18.8025 10 18.8059 10H16.5999V18.6333C16.5999 18.7493 16.5999 18.864 16.5952 18.9767L16.5932 19.0193C16.5932 19.0253 16.5932 19.032 16.5919 19.038V19.0433C16.5687 19.3527 16.4705 19.6517 16.3059 19.9147C16.1419 20.1767 15.9159 20.3947 15.6492 20.548C15.3712 20.708 15.0559 20.792 14.7359 20.7913C13.7085 20.7913 12.8759 19.9433 12.8759 18.896C12.8759 17.8487 13.7085 17 14.7359 17C14.9312 17 15.1245 17.0307 15.3092 17.092L15.3119 14.8187C14.7503 14.7453 14.1796 14.7905 13.6365 14.9513C13.0921 15.1127 12.5874 15.3858 12.1545 15.7533C11.7745 16.088 11.4545 16.4867 11.2099 16.9327C11.1165 17.0947 10.7652 17.748 10.7232 18.8073C10.6959 19.4093 10.8745 20.032 10.9592 20.29V20.2953C11.0125 20.4467 11.2205 20.9647 11.5585 21.4007C11.8305 21.7507 12.1525 22.058 12.5139 22.3133V22.308L12.5192 22.3133C13.5872 23.0473 14.7712 22.9993 14.7712 22.9993C14.9765 22.9907 15.6632 22.9993 16.4432 22.6253C16.9612 22.3776 17.4229 22.0264 17.7999 21.5933C18.115 21.2234 18.3652 20.8028 18.5399 20.3493C18.7399 19.818 18.8065 19.1813 18.8065 18.9267V14.3467C18.8332 14.3627 19.1892 14.6013 19.1892 14.6013C19.1892 14.6013 19.7025 14.9347 20.5039 15.1513C21.0785 15.3053 21.8532 15.338 21.8532 15.338V13.122C21.5819 13.1513 21.0312 13.0647 20.4665 12.78Z" fill="black"/>
</g>
</mask>
<g mask="url(#mask0_2218_49048)">
<rect x="8.28986" y="8.5" width="16" height="16" fill="#75808A"/>
</g>
<defs>
<clipPath id="clip0_2218_49048">
<rect width="16" height="16" fill="white" transform="translate(8.28986 8.5)"/>
</clipPath>
</defs>
</svg>
