<svg width="325" height="414" viewBox="0 0 325 414" fill="none" xmlns="http://www.w3.org/2000/svg">
<g filter="url(#filter0_b_2836_1537)">
<rect x="0.414747" y="0.414747" width="324.171" height="413.171" rx="19.4931" stroke="white" stroke-opacity="0.29" stroke-width="0.829493"/>
</g>
<g filter="url(#filter1_b_2836_1537)">
<rect y="246" width="325" height="168" rx="19.9078" fill="white" fill-opacity="0.05"/>
<rect x="0.414747" y="246.415" width="324.171" height="167.171" rx="19.4931" stroke="white" stroke-opacity="0.29" stroke-width="0.829493"/>
<rect x="18" y="264" width="93" height="24" rx="12" fill="white"/>
<path d="M28.1618 280.98H42.1618V266.98H28.1618V280.98ZM51.8141 270.2H53.3681L49.6161 275.968V280H48.2301V275.968L44.4781 270.2H46.0321L48.9301 274.75L51.8141 270.2ZM52.6364 276.458C52.6364 274.414 54.1064 272.706 56.3184 272.706C58.5024 272.706 59.9864 274.414 59.9864 276.458C59.9864 278.516 58.5024 280.196 56.3184 280.196C54.1064 280.196 52.6364 278.516 52.6364 276.458ZM58.6144 276.458C58.6144 274.96 57.7044 273.924 56.3184 273.924C55.6324 273.924 55.0724 274.162 54.6384 274.638C54.2184 275.1 54.0084 275.716 54.0084 276.458C54.0084 277.2 54.2184 277.802 54.6384 278.278C55.0724 278.74 55.6324 278.978 56.3184 278.978C57.0044 278.978 57.5644 278.74 57.9844 278.278C58.4044 277.802 58.6144 277.2 58.6144 276.458ZM61.5538 277.34V272.902H62.8698V277.242C62.8698 278.376 63.5138 278.978 64.6478 278.978C65.7818 278.978 66.4258 278.376 66.4258 277.242V272.902H67.7418V277.34C67.7418 278.208 67.4618 278.908 66.9018 279.426C66.3418 279.944 65.5858 280.196 64.6478 280.196C62.7998 280.196 61.5538 279.048 61.5538 277.34ZM72.1552 278.698L73.0232 277.956C73.5412 278.67 74.3672 279.034 75.3332 279.034C76.2852 279.034 76.8592 278.642 76.8592 278.04C76.8592 277.578 76.5232 277.27 75.6832 277.088L74.5492 276.836C73.0932 276.486 72.4072 275.856 72.4072 274.848C72.4072 273.574 73.4852 272.706 75.2212 272.706C76.4672 272.706 77.4612 273.154 78.0632 273.896L77.2232 274.694C76.7052 274.148 76.0192 273.882 75.1652 273.882C74.2132 273.882 73.7232 274.232 73.7232 274.806C73.7232 275.24 74.0172 275.492 74.9132 275.702L76.1592 275.982C77.5732 276.304 78.1752 276.934 78.1752 277.942C78.1752 279.328 77.1252 280.196 75.3332 280.196C73.8912 280.196 72.7152 279.608 72.1552 278.698ZM86.2066 276.85H80.6346C80.7886 278.208 81.6706 279.006 83.0006 279.006C83.8826 279.006 84.6246 278.656 85.1986 277.956L86.0526 278.712C85.3666 279.664 84.2746 280.196 82.9726 280.196C80.7886 280.196 79.2906 278.67 79.2906 276.472C79.2906 274.302 80.7746 272.706 82.8606 272.706C84.8346 272.706 86.2486 274.134 86.2486 276.22C86.2486 276.43 86.2346 276.64 86.2066 276.85ZM80.6626 275.842H84.9186C84.8066 274.61 84.0226 273.91 82.8606 273.91C81.6706 273.91 80.8726 274.624 80.6626 275.842ZM94.1958 275.436V280H92.8797V275.758C92.8797 274.484 92.3897 273.924 91.3257 273.924C90.1077 273.924 89.2537 274.652 89.2537 275.814V280H87.9377V272.902H89.2537V274.064C89.6597 273.21 90.5557 272.706 91.6757 272.706C93.2577 272.706 94.1958 273.7 94.1958 275.436ZM96.805 278.11V274.036H95.405V272.902H96.805V270.802H98.121V272.902H100.291V274.036H98.121V277.984C98.121 278.67 98.443 278.95 99.227 278.95C99.549 278.95 99.913 278.908 100.319 278.824V279.93C99.913 280.056 99.479 280.112 99.017 280.112C97.547 280.112 96.805 279.44 96.805 278.11Z" fill="#191C1F"/>
<path d="M20.9622 344V334.12H18.6422V331.16H20.9622V328.28H18.6422V325.32H20.9622V315.44H27.2422L30.3622 325.32H34.0022V315.44H38.4422V325.32H40.7222V328.28H38.4422V331.16H40.7222V334.12H38.4422V344H32.1222L28.9222 334.12H25.4022V344H20.9622ZM25.4022 331.16H28.0422L27.1622 328.28H25.3222L25.4022 331.16ZM34.1222 337.76H34.3222L34.1622 334.12H33.0822L34.1222 337.76ZM25.2422 325.32H26.3622L25.2022 321.48H25.0422L25.2422 325.32ZM32.2422 331.16H34.0822L34.0022 328.28H31.3222L32.2422 331.16ZM54.3328 324.92C59.9728 324.92 63.7728 328.8 63.7728 334.52C63.7728 340.96 58.9728 344.24 53.1728 344.24C46.6928 344.24 42.6928 340.12 42.4528 335H48.1728C48.4528 337.52 50.2128 339.52 53.2128 339.52C55.6528 339.52 57.9728 337.84 57.9728 334.52C57.9728 331.56 56.0928 329.48 53.1728 329.48C51.6128 329.48 49.4528 330.08 48.4528 332.4H42.8928L43.6928 316H62.0928V320.84H48.9328L48.6128 326.96C50.0128 325.68 51.8528 324.92 54.3328 324.92ZM66.1266 330.64V329.36C66.1266 321 70.8866 315.76 77.6466 315.76C84.4466 315.76 89.2066 321 89.2066 329.36V330.64C89.2066 339.16 84.4466 344.24 77.6466 344.24C70.8866 344.24 66.1266 339.16 66.1266 330.64ZM83.4466 330.44V329.56C83.4466 323.8 81.0866 320.64 77.6466 320.64C74.2466 320.64 71.8866 323.8 71.8866 329.56V330.44C71.8866 336.24 74.2466 339.36 77.6466 339.36C81.0866 339.36 83.4466 336.24 83.4466 330.44ZM93.1538 337.68C95.6738 337.68 97.3538 339.84 97.3538 342.92C97.3538 347.4 94.4338 349.76 89.8738 349.8V346.88C92.4338 346.84 93.6738 345.6 93.6738 344.16C93.6738 344 93.6738 343.76 93.6338 343.6C93.2338 343.8 92.8338 343.92 92.3538 343.92C90.8738 343.92 89.6338 342.92 89.6338 340.88C89.6338 339.12 91.1938 337.68 93.1538 337.68ZM97.9234 330.64V329.36C97.9234 321 102.683 315.76 109.443 315.76C116.243 315.76 121.003 321 121.003 329.36V330.64C121.003 339.16 116.243 344.24 109.443 344.24C102.683 344.24 97.9234 339.16 97.9234 330.64ZM115.243 330.44V329.56C115.243 323.8 112.883 320.64 109.443 320.64C106.043 320.64 103.683 323.8 103.683 329.56V330.44C103.683 336.24 106.043 339.36 109.443 339.36C112.883 339.36 115.243 336.24 115.243 330.44ZM123.783 330.64V329.36C123.783 321 128.543 315.76 135.303 315.76C142.103 315.76 146.863 321 146.863 329.36V330.64C146.863 339.16 142.103 344.24 135.303 344.24C128.543 344.24 123.783 339.16 123.783 330.64ZM141.103 330.44V329.56C141.103 323.8 138.743 320.64 135.303 320.64C131.903 320.64 129.543 323.8 129.543 329.56V330.44C129.543 336.24 131.903 339.36 135.303 339.36C138.743 339.36 141.103 336.24 141.103 330.44ZM149.642 330.64V329.36C149.642 321 154.402 315.76 161.162 315.76C167.962 315.76 172.722 321 172.722 329.36V330.64C172.722 339.16 167.962 344.24 161.162 344.24C154.402 344.24 149.642 339.16 149.642 330.64ZM166.962 330.44V329.56C166.962 323.8 164.602 320.64 161.162 320.64C157.762 320.64 155.402 323.8 155.402 329.56V330.44C155.402 336.24 157.762 339.36 161.162 339.36C164.602 339.36 166.962 336.24 166.962 330.44ZM173.669 340.92C173.669 338.96 175.109 337.56 177.069 337.56C178.989 337.56 180.469 338.96 180.469 340.92C180.469 342.84 178.989 344.24 177.069 344.24C175.109 344.24 173.669 342.84 173.669 340.92ZM181.439 330.64V329.36C181.439 321 186.199 315.76 192.959 315.76C199.759 315.76 204.519 321 204.519 329.36V330.64C204.519 339.16 199.759 344.24 192.959 344.24C186.199 344.24 181.439 339.16 181.439 330.64ZM198.759 330.44V329.56C198.759 323.8 196.399 320.64 192.959 320.64C189.559 320.64 187.199 323.8 187.199 329.56V330.44C187.199 336.24 189.559 339.36 192.959 339.36C196.399 339.36 198.759 336.24 198.759 330.44ZM207.298 330.64V329.36C207.298 321 212.058 315.76 218.818 315.76C225.618 315.76 230.378 321 230.378 329.36V330.64C230.378 339.16 225.618 344.24 218.818 344.24C212.058 344.24 207.298 339.16 207.298 330.64ZM224.618 330.44V329.56C224.618 323.8 222.258 320.64 218.818 320.64C215.418 320.64 213.058 323.8 213.058 329.56V330.44C213.058 336.24 215.418 339.36 218.818 339.36C222.258 339.36 224.618 336.24 224.618 330.44Z" fill="white"/>
<path d="M29.5036 370.8H31.8236V382H29.8396V373.776L26.5436 379.232H24.9596L21.6636 373.776V382H19.6796V370.8H22.0156L25.7596 377.024L29.5036 370.8ZM33.6887 377.936C33.6887 375.552 35.4327 373.632 37.9767 373.632C40.5687 373.632 42.2647 375.552 42.2647 377.936C42.2647 380.304 40.5687 382.224 37.9767 382.224C35.4327 382.224 33.6887 380.304 33.6887 377.936ZM40.2647 377.936C40.2647 376.416 39.3687 375.408 37.9767 375.408C36.5847 375.408 35.6887 376.416 35.6887 377.936C35.6887 379.424 36.5847 380.448 37.9767 380.448C39.3687 380.448 40.2647 379.424 40.2647 377.936ZM51.3691 376.72V382H49.4171V377.216C49.4171 375.984 48.9371 375.424 47.8651 375.424C46.6651 375.424 45.8971 376.128 45.8971 377.328V382H43.9451V373.856H45.8651V375.104C46.3131 374.192 47.3051 373.632 48.5371 373.632C50.3131 373.632 51.3691 374.752 51.3691 376.72ZM61.0223 378.512H54.9583C55.1663 379.808 56.0143 380.528 57.3583 380.528C58.2863 380.528 59.0383 380.192 59.6303 379.504L60.7983 380.656C60.0303 381.664 58.7823 382.224 57.2943 382.224C54.7023 382.224 52.9743 380.512 52.9743 377.968C52.9743 375.44 54.6543 373.632 57.1023 373.632C59.4543 373.632 61.0703 375.28 61.0703 377.76C61.0703 378 61.0543 378.256 61.0223 378.512ZM54.9583 377.184H59.1183C59.0383 375.984 58.2863 375.328 57.1183 375.328C55.9183 375.328 55.1663 376.016 54.9583 377.184ZM67.9791 373.856H69.9151V381.184C69.9151 383.92 68.3951 385.424 65.7071 385.424C64.3151 385.424 63.0351 385.008 62.2671 384.288L63.1471 382.864C63.8351 383.392 64.7151 383.68 65.5951 383.68C67.1151 383.68 67.9951 382.8 67.9951 381.184V380.48C67.5311 381.376 66.5391 381.92 65.3391 381.92C63.5951 381.92 62.5231 380.816 62.5231 378.848V373.856H64.4751V378.352C64.4751 379.584 64.9711 380.144 66.0111 380.144C67.2111 380.144 67.9791 379.408 67.9791 378.24V373.856ZM75.9394 382V375.568H74.3714V373.856H75.9394V372.8C75.9394 371.056 76.8354 370.144 78.7714 370.144C79.2354 370.144 79.6834 370.192 80.0994 370.288V371.936C79.7314 371.872 79.4114 371.84 79.1394 371.84C78.2594 371.84 77.8914 372.176 77.8914 372.96V373.856H80.0834V375.568H77.8914V382H75.9394ZM80.6237 377.936C80.6237 375.552 82.3677 373.632 84.9117 373.632C87.5037 373.632 89.1997 375.552 89.1997 377.936C89.1997 380.304 87.5037 382.224 84.9117 382.224C82.3677 382.224 80.6237 380.304 80.6237 377.936ZM87.1997 377.936C87.1997 376.416 86.3037 375.408 84.9117 375.408C83.5197 375.408 82.6237 376.416 82.6237 377.936C82.6237 379.424 83.5197 380.448 84.9117 380.448C86.3037 380.448 87.1997 379.424 87.1997 377.936ZM95.9041 373.824V375.648C95.5681 375.6 95.2641 375.568 95.0081 375.568C93.5521 375.568 92.8321 376.32 92.8321 377.984V382H90.8801V373.856H92.8001V375.216C93.2001 374.272 94.0961 373.712 95.2001 373.712C95.4561 373.712 95.6961 373.744 95.9041 373.824ZM102.858 380.112H108.426V382H100.826V370.8H102.858V380.112ZM109.531 378.896V373.856H111.483V378.688C111.483 379.856 112.091 380.448 113.195 380.448C114.299 380.448 114.907 379.856 114.907 378.688V373.856H116.859V378.896C116.859 380.944 115.451 382.224 113.195 382.224C110.939 382.224 109.531 380.944 109.531 378.896ZM126.328 376.72V382H124.376V377.216C124.376 375.984 123.896 375.424 122.824 375.424C121.624 375.424 120.856 376.128 120.856 377.328V382H118.904V373.856H120.824V375.104C121.272 374.192 122.264 373.632 123.496 373.632C125.272 373.632 126.328 374.752 126.328 376.72ZM127.934 377.936C127.934 375.408 129.646 373.632 132.174 373.632C133.726 373.632 135.006 374.32 135.694 375.472L134.222 376.512C133.758 375.792 133.102 375.424 132.222 375.424C130.83 375.424 129.934 376.4 129.934 377.936C129.934 379.456 130.83 380.448 132.222 380.448C133.054 380.448 133.758 380.064 134.222 379.344L135.694 380.384C135.006 381.552 133.726 382.224 132.174 382.224C129.646 382.224 127.934 380.448 127.934 377.936ZM144.473 376.72V382H142.521V377.216C142.521 375.984 142.041 375.424 140.969 375.424C139.769 375.424 139.001 376.128 139.001 377.328V382H137.049V370.288H139.001V375.04C139.465 374.144 140.425 373.632 141.641 373.632C143.417 373.632 144.473 374.752 144.473 376.72ZM148.728 383.12H164.728V367.12H148.728V383.12Z" fill="white"/>
</g>
<defs>
<filter id="filter0_b_2836_1537" x="-14" y="-14" width="353" height="442" filterUnits="userSpaceOnUse" color-interpolation-filters="sRGB">
<feFlood flood-opacity="0" result="BackgroundImageFix"/>
<feGaussianBlur in="BackgroundImageFix" stdDeviation="7"/>
<feComposite in2="SourceAlpha" operator="in" result="effect1_backgroundBlur_2836_1537"/>
<feBlend mode="normal" in="SourceGraphic" in2="effect1_backgroundBlur_2836_1537" result="shape"/>
</filter>
<filter id="filter1_b_2836_1537" x="-14" y="232" width="353" height="196" filterUnits="userSpaceOnUse" color-interpolation-filters="sRGB">
<feFlood flood-opacity="0" result="BackgroundImageFix"/>
<feGaussianBlur in="BackgroundImageFix" stdDeviation="7"/>
<feComposite in2="SourceAlpha" operator="in" result="effect1_backgroundBlur_2836_1537"/>
<feBlend mode="normal" in="SourceGraphic" in2="effect1_backgroundBlur_2836_1537" result="shape"/>
</filter>
</defs>
</svg>
